<svg xmlns="http://www.w3.org/2000/svg" xmlns:xlink="http://www.w3.org/1999/xlink" width="98.102" height="97.222" viewBox="0 0 98.102 97.222">
  <defs>
    <filter id="Path_661894" x="0" y="0" width="98.102" height="97.222" filterUnits="userSpaceOnUse">
      <feOffset dy="3" input="SourceAlpha"/>
      <feGaussianBlur stdDeviation="3" result="blur"/>
      <feFlood flood-opacity="0.161"/>
      <feComposite operator="in" in2="blur"/>
      <feComposite in="SourceGraphic"/>
    </filter>
    <clipPath id="clip-path">
      <path id="Path_661964" data-name="Path 661964" d="M-7034.917-5915.363l-.905,15.552-14.48,6.491-10.8,2.357-2.54,1.564-2.609,2.19-1.091-2.19-13.876-9.331v-16.634h46.3" transform="translate(7081.221 5915.363)" fill="none" stroke="#707070" stroke-width="1"/>
    </clipPath>
  </defs>
  <g id="_12" data-name="12" transform="translate(9 6)">
    <g transform="matrix(1, 0, 0, 1, -9, -6)" filter="url(#Path_661894)">
      <path id="Path_661894-2" data-name="Path 661894" d="M40.051,0A39.833,39.833,0,0,0,0,39.611,39.833,39.833,0,0,0,40.051,79.222,39.833,39.833,0,0,0,80.1,39.611,39.833,39.833,0,0,0,40.051,0Z" transform="translate(9 6)" fill="#f88f05"/>
    </g>
    <g id="accidente" transform="translate(16.445 16.541)">
      <path id="Path_661850" data-name="Path 661850" d="M54.574,380.376a4.989,4.989,0,1,0,4.989-4.989A4.989,4.989,0,0,0,54.574,380.376Zm0,0" transform="translate(-22.458 -340.842)" fill="#6a563d"/>
      <path id="Path_661851" data-name="Path 661851" d="M343.594,380.376a4.989,4.989,0,1,0,4.989-4.989A4.989,4.989,0,0,0,343.594,380.376Zm0,0" transform="translate(-338.075 -340.842)" fill="#6a563d"/>
      <path id="Path_661852" data-name="Path 661852" d="M113.8,406.913a2.3,2.3,0,1,0,2.3-2.3A2.3,2.3,0,0,0,113.8,406.913Zm0,0" transform="translate(-81.755 -367.379)" fill="#3e3d42"/>
      <path id="Path_661853" data-name="Path 661853" d="M402.82,406.913a2.3,2.3,0,1,0,2.3-2.3A2.3,2.3,0,0,0,402.82,406.913Zm0,0" transform="translate(-397.372 -367.379)" fill="#3e3d42"/>
      <path id="Path_661854" data-name="Path 661854" d="M11.335,244.646h9.171l8.3-7.857H43.711l9.525,7.857V252.8l-1.956,1.956H48.9c0-.074.006-.147.006-.222a4.989,4.989,0,1,0-9.978,0c0,.074,0,.148.006.222H22.3c0-.074.006-.147.006-.222a4.989,4.989,0,1,0-9.978,0c0,.074,0,.148.005.222H9.455L7.5,252.8v-4.318Zm0,0" transform="translate(-6.81 -214.999)" fill="#b0c0d2"/>
      <g id="Group_970794" data-name="Group 970794" transform="translate(14.655 24.142)">
        <path id="Path_661855" data-name="Path 661855" d="M223,267.869h11.941v-5.521h-6.11Zm0,0" transform="translate(-223 -262.348)" fill="#727997"/>
        <path id="Path_661856" data-name="Path 661856" d="M93.992,267.869H85.066v-5.521H87.3Zm0,0" transform="translate(-69.358 -262.348)" fill="#727997"/>
        <path id="Path_661857" data-name="Path 661857" d="M227.118,352.707H223v2.209h4.118Zm0,0" transform="translate(-215.178 -344.392)" fill="#727997"/>
      </g>
      <path id="Path_661858" data-name="Path 661858" d="M193,267.869h11.941v-5.521h-6.11Zm0,0" transform="translate(-175.585 -238.206)" fill="#e1e3fa"/>
      <path id="Path_661859" data-name="Path 661859" d="M63.992,267.869H55.066v-5.521H57.3Zm0,0" transform="translate(-21.943 -238.206)" fill="#e1e3fa"/>
      <path id="Path_661860" data-name="Path 661860" d="M83.8,406.913a2.3,2.3,0,1,0,2.3-2.3A2.3,2.3,0,0,0,83.8,406.913Zm0,0" transform="translate(-48.994 -367.379)" fill="#ebe5dd"/>
      <path id="Path_661861" data-name="Path 661861" d="M372.82,406.913a2.3,2.3,0,1,0,2.3-2.3A2.3,2.3,0,0,0,372.82,406.913Zm0,0" transform="translate(-364.612 -367.379)" fill="#ebe5dd"/>
      <path id="Path_661862" data-name="Path 661862" d="M454.107,343.625v1.411l-1.1,1.1h-4v-.655l1.86-1.86Zm0,0" transform="translate(-448.31 -312.003)" fill="#ffe477"/>
      <path id="Path_661863" data-name="Path 661863" d="M197.118,352.707H193v2.209h4.118Zm0,0" transform="translate(-167.762 -320.249)" fill="#ebe5dd"/>
      <path id="Path_661866" data-name="Path 661866" d="M58.183,380.376a4.991,4.991,0,0,0-3.608-4.8,4.989,4.989,0,1,1,0,9.591A4.991,4.991,0,0,0,58.183,380.376Zm0,0" transform="translate(-18.849 -340.842)" fill="#3e3d42"/>
      <path id="Path_661867" data-name="Path 661867" d="M347.2,380.376a4.992,4.992,0,0,0-3.609-4.8,4.989,4.989,0,1,1,0,9.591A4.991,4.991,0,0,0,347.2,380.376Zm0,0" transform="translate(-334.466 -340.842)" fill="#3e3d42"/>
      <path id="Path_661868" data-name="Path 661868" d="M128.774,375.387a5,5,0,0,1,1.38.193,4.991,4.991,0,0,0-3.609,4.8c0,.074,0,.148.006.222h-2.761c0-.074-.006-.147-.006-.222A4.989,4.989,0,0,1,128.774,375.387Zm0,0" transform="translate(-94.429 -340.842)" fill="#727997"/>
      <path id="Path_661869" data-name="Path 661869" d="M15.451,254.372l1.574-1.574v-8.152L7.5,236.789h2.761l9.525,7.857V252.8l-1.956,1.956H15.448c0-.074.006-.147.006-.222,0-.054,0-.107,0-.16Zm0,0" transform="translate(26.641 -214.998)" fill="#727997"/>
      <path id="Path_661870" data-name="Path 661870" d="M417.8,375.387a5,5,0,0,1,1.38.193,4.991,4.991,0,0,0-3.608,4.8c0,.074,0,.148.005.222h-2.761c0-.074-.005-.147-.005-.222A4.989,4.989,0,0,1,417.8,375.387Zm0,0" transform="translate(-410.05 -340.842)" fill="#727997"/>
      <path id="Path_661871" data-name="Path 661871" d="M195.761,262.348H193v5.521h2.761Zm0,0" transform="translate(-166.405 -238.206)" fill="#a7adf0"/>
      <path id="Path_661872" data-name="Path 661872" d="M55.067,262.348H57.3l6.693,5.521H61.232l-6.165-5.086Zm0,0" transform="translate(-21.943 -238.206)" fill="#a7adf0"/>
      <path id="Path_661873" data-name="Path 661873" d="M84.72,406.913a2.3,2.3,0,0,0-.919-1.839,2.3,2.3,0,1,1,0,3.678A2.3,2.3,0,0,0,84.72,406.913Zm0,0" transform="translate(-48.076 -367.379)" fill="#acabb1"/>
      <path id="Path_661874" data-name="Path 661874" d="M373.739,406.913a2.3,2.3,0,0,0-.919-1.839,2.3,2.3,0,1,1,0,3.678A2.3,2.3,0,0,0,373.739,406.913Zm0,0" transform="translate(-363.692 -367.379)" fill="#acabb1"/>
      <path id="Path_661875" data-name="Path 661875" d="M450.1,345.036v-1.411h2.761v1.411l-1.1,1.1H449Zm0,0" transform="translate(-447.068 -312.003)" fill="#ffd817"/>
      <path id="Path_661876" data-name="Path 661876" d="M195.761,352.707H193v2.209h2.761Zm0,0" transform="translate(-166.405 -320.249)" fill="#acabb1"/>
      <path id="Path_661879" data-name="Path 661879" d="M192.789,254.848h7.075v6.9H185.5Zm5.694,1.38h-5.144l-4.373,4.141h9.518Zm0,0" transform="translate(-169.818 -231.396)"/>
      <path id="Path_661880" data-name="Path 661880" d="M34.192,254.848h3.171l8.366,6.9H34.192Zm1.38,5.521h6.314l-5.02-4.141H35.572Zm0,0" transform="translate(-1.759 -231.396)"/>
      <path id="Path_661881" data-name="Path 661881" d="M52.753,367.887a5.679,5.679,0,1,1-5.679,5.679A5.685,5.685,0,0,1,52.753,367.887Zm0,9.978a4.3,4.3,0,1,0-4.3-4.3A4.3,4.3,0,0,0,52.753,377.865Zm0,0" transform="translate(-15.648 -334.032)"/>
      <path id="Path_661882" data-name="Path 661882" d="M79.29,397.109a2.99,2.99,0,1,1-2.99,2.99A2.993,2.993,0,0,1,79.29,397.109Zm0,4.6a1.609,1.609,0,1,0-1.609-1.609A1.611,1.611,0,0,0,79.29,401.708Zm0,0" transform="translate(-42.185 -360.565)"/>
      <path id="Path_661883" data-name="Path 661883" d="M368.31,397.109a2.99,2.99,0,1,1-2.99,2.99A2.993,2.993,0,0,1,368.31,397.109Zm0,4.6A1.609,1.609,0,1,0,366.7,400.1,1.611,1.611,0,0,0,368.31,401.708Zm0,0" transform="translate(-357.802 -360.565)"/>
      <path id="Path_661884" data-name="Path 661884" d="M341.773,367.887a5.679,5.679,0,1,1-5.679,5.679A5.686,5.686,0,0,1,341.773,367.887Zm0,9.978a4.3,4.3,0,1,0-4.3-4.3A4.3,4.3,0,0,0,341.773,377.865Zm0,0" transform="translate(-331.265 -334.032)"/>
      <path id="Path_661885" data-name="Path 661885" d="M4.239,237.147h9.182l8.3-7.857H37.149l9.967,8.222v8.764l-2.36,2.36h-.825v-1.38h.254l1.551-1.551v-7.542l-9.082-7.492H22.269l-8.3,7.857H4.81l-.594.594H6.487v2.387l-1.509,1.509H1.38V245.7l1.551,1.551h.751v1.38H2.36L0,246.275v-4.89Zm.168,4.49.7-.7V240.5H2.836L1.7,241.636Zm0,0" transform="translate(0 -208.189)"/>
      <path id="Path_661886" data-name="Path 661886" d="M191,348.8h-5.5v-3.589H191Zm-1.38-2.209H186.88v.828h2.738Zm0,0" transform="translate(-160.952 -313.443)"/>
      <path id="Path_661888" data-name="Path 661888" d="M357.489,241.61l-1.728-1.728-.976.976,1.728,1.728Zm0,0" transform="translate(-343.021 -217.808)"/>
      <path id="Path_661889" data-name="Path 661889" d="M373.018,282.582h-2.444v1.38h2.444Zm0,0" transform="translate(-360.003 -256.578)"/>
      <path id="Path_661890" data-name="Path 661890" d="M328.11,226.383h-1.38v2.443h1.38Zm0,0" transform="translate(-311.061 -205.55)"/>
      <path id="Path_661891" data-name="Path 661891" d="M195.906,424.512H182.961v1.38h12.945Zm0,0" transform="translate(-165.627 -385.447)"/>
      <path id="Path_661892" data-name="Path 661892" d="M263,341.228h7.339v-1.38H263Zm8.26,0h1.38v-1.38h-1.38Zm2.3,0h1.38v-1.38h-1.38Zm0,0" transform="translate(-252.027 -308.574)" fill="#fff"/>
      <g id="Mask_Group_970769" data-name="Mask Group 970769" transform="translate(-10.96 0.249)" clip-path="url(#clip-path)">
        <g id="accidente_1_" data-name="accidente (1)" transform="translate(7.213 1.158)">
          <path id="Path_661939" data-name="Path 661939" transform="translate(43.837 0)" fill="#455e7e"/>
          <g id="Group_970805" data-name="Group 970805" transform="translate(0)">
            <g id="Group_970804" data-name="Group 970804" transform="translate(0.64 0.576)">
              <g id="Group_970803" data-name="Group 970803">
                <path id="Path_661940" data-name="Path 661940" d="M305.885,193.017l2.171,1.946,7.057-6.42-4.222-1.752Z" transform="translate(-298.107 -173.027)" fill="#ddebfd"/>
                <path id="Path_661941" data-name="Path 661941" d="M337.706,186.791l1.926.8-3.638,4.524a1.208,1.208,0,0,0,.152,1.689l-1.275,1.16-2.171-1.946Z" transform="translate(-324.922 -173.027)" fill="#cde2ff"/>
                <path id="Path_661942" data-name="Path 661942" d="M274,33.642l4.109,3.685a1.759,1.759,0,0,0,2.171.1,1.355,1.355,0,0,0,.119-2.15l-4.109-3.685a1.755,1.755,0,0,0-2.29,0A1.348,1.348,0,0,0,274,33.642Z" transform="translate(-261.092 -29.347)" fill="#dbedc8"/>
                <path id="Path_661943" data-name="Path 661943" d="M278.009,31.589a1.755,1.755,0,0,1,2.29,0l.148.133a1.343,1.343,0,0,0,.13,1.92l3.962,3.552a1.552,1.552,0,0,1-.25.229,1.759,1.759,0,0,1-2.171-.1l-4.109-3.685a1.348,1.348,0,0,1,0-2.053Z" transform="translate(-265.106 -29.347)" fill="#cbe7af"/>
                <path id="Path_661944" data-name="Path 661944" d="M319.6,138.066l-4.856-4.354-2.478-1.4a1.526,1.526,0,0,0-1.456-.015l-4.929,2.651,1.337,2.385,2.53-1.14a1.316,1.316,0,0,1,1.31.135l2.459,1.836a3.013,3.013,0,0,0,2.281.535Z" transform="translate(-302.596 -122.551)" fill="#bdd8fc"/>
                <g id="Group_970799" data-name="Group 970799" transform="translate(3.289 9.566)">
                  <path id="Path_661945" data-name="Path 661945" d="M340.418,182.216a1.108,1.108,0,0,1,.9.183l2.664,1.989a2.846,2.846,0,0,0,.682.374l-.97.161a3.013,3.013,0,0,1-2.281-.535l-2.459-1.836Z" transform="translate(-333.784 -178.344)" fill="#9dc7fb"/>
                  <path id="Path_661946" data-name="Path 661946" d="M390.291,132.295a1.526,1.526,0,0,1,1.456.015l.529.3-2.781,1.5a1.667,1.667,0,0,0-.745,2.3l-2.051.924-1.337-2.385Z" transform="translate(-385.362 -132.118)" fill="#9dc7fb"/>
                </g>
                <path id="Path_661947" data-name="Path 661947" d="M452.373,160.738l-1.841-3.284a.344.344,0,0,1,.179-.484l.481-.217a2.035,2.035,0,0,1,2.586.767l1.337,2.385-2.2.992A.425.425,0,0,1,452.373,160.738Z" transform="translate(-450.49 -145.126)" fill="#4f6d8f"/>
                <path id="Path_661948" data-name="Path 661948" d="M460.708,156.972l.481-.217a2.116,2.116,0,0,1,1.919.1l-.264.119a.344.344,0,0,0-.179.484l1.59,2.837-1.346.607a.424.424,0,0,1-.539-.16l-1.841-3.284A.344.344,0,0,1,460.708,156.972Z" transform="translate(-460.487 -145.128)" fill="#455e7e"/>
                <path id="Path_661949" data-name="Path 661949" d="M391.327,266.031l-2.9-2.6a.335.335,0,0,1,0-.509l.381-.342a2.087,2.087,0,0,1,2.724,0l2.1,1.887-1.743,1.563A.435.435,0,0,1,391.327,266.031Z" transform="translate(-383.689 -242.533)" fill="#4f6d8f"/>
                <path id="Path_661950" data-name="Path 661950" d="M398.743,262.936l.381-.342a2.093,2.093,0,0,1,2.506-.166,1.9,1.9,0,0,0-.218.166l-.381.342a.334.334,0,0,0,0,.509l2.039,1.828-.86.771a.435.435,0,0,1-.568,0l-2.9-2.6A.334.334,0,0,1,398.743,262.936Z" transform="translate(-394.003 -242.546)" fill="#455e7e"/>
                <path id="Path_661951" data-name="Path 661951" d="M232.442,80.736l5.548-4.974a3.149,3.149,0,0,1,1.8-.772l2.675-.254,1.119,1.32-.519,2.55a8.149,8.149,0,0,1-3.785,5.255L237.3,85.09Z" transform="translate(-220.292 -69.575)" fill="#bee49d"/>
                <path id="Path_661952" data-name="Path 661952" d="M248.822,75.761a3.148,3.148,0,0,1,1.8-.772l2.675-.254.192.226-.3.028a3.149,3.149,0,0,0-1.8.772l-3.855,3.456a1.994,1.994,0,0,0,0,3.036l2.114,1.9-1.519.941-4.856-4.354Z" transform="translate(-231.124 -69.574)" fill="#a3d8a4"/>
                <path id="Path_661953" data-name="Path 661953" d="M318.133,31.589a1.755,1.755,0,0,1,2.29,0l.8.721L318.9,34.329l-.766-.687A1.348,1.348,0,0,1,318.133,31.589Z" transform="translate(-305.23 -29.347)" fill="#ffdecf"/>
                <path id="Path_661954" data-name="Path 661954" d="M325.8,31.589a1.755,1.755,0,0,1,2.29,0l.148.133a1.333,1.333,0,0,0-.252,1.376l-1.421,1.232-.766-.687A1.348,1.348,0,0,1,325.8,31.589Z" transform="translate(-312.894 -29.347)" fill="#ffcdbe"/>
                <path id="Path_661955" data-name="Path 661955" d="M217.937,131.994l2.594,6.237a1.472,1.472,0,0,0,1.75.777,1.253,1.253,0,0,0,.912-1.7l-2.832-6.4a.359.359,0,0,0-.481-.157l-1.785.862A.294.294,0,0,0,217.937,131.994Z" transform="translate(-198.756 -121.258)" fill="#dbedc8"/>
                <path id="Path_661956" data-name="Path 661956" d="M223.338,131.617l1.785-.862a.359.359,0,0,1,.481.157l.2.458a.866.866,0,0,0-.467,1.114l2.391,5.748a1.273,1.273,0,0,0,.358.482,1.51,1.51,0,0,1-2.314-.482L223.18,132A.294.294,0,0,1,223.338,131.617Z" transform="translate(-203.998 -121.259)" fill="#cbe7af"/>
                <g id="Group_970802" data-name="Group 970802" transform="translate(21.469)">
                  <g id="Group_970801" data-name="Group 970801" transform="translate(0)">
                    <g id="Group_970800" data-name="Group 970800">
                      <path id="Path_661957" data-name="Path 661957" d="M152.14,14.163l.386.346a3.574,3.574,0,0,0,4.666,0l2.084-1.869a1.935,1.935,0,0,0,0-2.947l-1.766-1.583a2.518,2.518,0,0,0-3.287,0L152.14,9.98A2.747,2.747,0,0,0,152.14,14.163Z" transform="translate(-151.174 -7.501)" fill="#ffdecf"/>
                    </g>
                  </g>
                  <path id="Path_661958" data-name="Path 661958" d="M188,9.985l2.084-1.869a2.527,2.527,0,0,1,2.663-.4,2.325,2.325,0,0,0-.541.361l-2.084,1.869a2.747,2.747,0,0,0,0,4.184l.386.346a3.372,3.372,0,0,0,1.335.728,3.578,3.578,0,0,1-3.457-.69L188,14.168A2.747,2.747,0,0,1,188,9.985Z" transform="translate(-187.029 -7.506)" fill="#ffcdbe"/>
                  <path id="Path_661959" data-name="Path 661959" d="M152.278,8.6a2.382,2.382,0,0,1,.989.526l1.766,1.583a1.935,1.935,0,0,1,0,2.947l-2.084,1.869a3.339,3.339,0,0,1-1.036.629l.506-3.177a.94.94,0,0,0-.365-.886l-.5-.4a.925.925,0,0,1-.271-1.169Z" transform="translate(-146.929 -8.512)" fill="#4f6d8f"/>
                  <path id="Path_661960" data-name="Path 661960" d="M187.176,9.1l-.145.13.32-.618a2.372,2.372,0,0,1,.366.126A2.323,2.323,0,0,0,187.176,9.1Z" transform="translate(-182.004 -8.527)" fill="#455e7e"/>
                </g>
                <path id="Path_661961" data-name="Path 661961" d="M220.618,198.4l.619,1.4a1.253,1.253,0,0,1-.912,1.7,1.472,1.472,0,0,1-1.75-.777l-.659-1.584Z" transform="translate(-196.8 -183.745)" fill="#ffdecf"/>
                <path id="Path_661962" data-name="Path 661962" d="M224.915,201.737l.858,2.062a1.272,1.272,0,0,0,.358.482,1.51,1.51,0,0,1-2.314-.482l-.659-1.584Z" transform="translate(-202.041 -186.826)" fill="#ffcdbe"/>
              </g>
            </g>
            <path id="Path_661963" data-name="Path 661963" d="M.583,11.906l.481-.217a2.82,2.82,0,0,1,1.96-.129,2.6,2.6,0,0,1,1.1.64L8.537,9.826a2.219,2.219,0,0,1,2.129.022l2.044,1.157L16.1,7.967l-3-2.689a1.9,1.9,0,0,1,0-2.868,2.454,2.454,0,0,1,3.2,0l3.415,3.062c.122-.023.245-.042.37-.053l1.4-.133a3.335,3.335,0,0,1,1.149-2.638L24.715.779a3.213,3.213,0,0,1,4.195,0l1.766,1.583a2.472,2.472,0,0,1,0,3.761L28.592,7.992A4.156,4.156,0,0,1,25.8,9.027a4.326,4.326,0,0,1-1.55-.284l-.2.967a8,8,0,0,1-.569,1.743l2.2,4.964a1.834,1.834,0,0,1-1.323,2.458,2.149,2.149,0,0,1-2.537-1.127l-1.183-2.844c-.206.151-.418.3-.635.431l-1.935,1.2-7.014,6.382h0l0,0L9.31,24.481a1.132,1.132,0,0,1-1.476,0h0l-2.9-2.6a.876.876,0,0,1,0-1.324l.381-.342a2.709,2.709,0,0,1,1.816-.674h0a2.8,2.8,0,0,1,1.136.237l2.669-3.319L8.7,14.793a.613.613,0,0,0-.611-.063L3.361,16.862a1.114,1.114,0,0,1-1.4-.416h0L.119,13.162a.9.9,0,0,1,.464-1.256ZM15.389,3.225a1.06,1.06,0,0,0-1.382,0,.821.821,0,0,0,0,1.24l.32.287,1.405-1.218Zm1.252,1.122L15.235,5.565l1.77,1.587.888-.8a3.582,3.582,0,0,1,.543-.4ZM27.164,3.321l.5.4a1.481,1.481,0,0,1,.576,1.4l-.29,1.817,1.813-1.626a1.4,1.4,0,0,0,0-2.133L28,1.593a1.669,1.669,0,0,0-.224-.167l-.728,1.4A.391.391,0,0,0,27.164,3.321ZM23.54,6.831l.386.346a2.8,2.8,0,0,0,1.879.7,2.962,2.962,0,0,0,.716-.088l.451-2.832a.4.4,0,0,0-.154-.373l-.5-.4a1.467,1.467,0,0,1-.429-1.844l.6-1.161a1.737,1.737,0,0,0-.866.414L23.54,3.462A2.214,2.214,0,0,0,23.54,6.831Zm-.513,10.516a.811.811,0,0,0,.962.427.694.694,0,0,0,.5-.932l-.4-.907-1.482.4Zm-3.751-2.958a8.372,8.372,0,0,0,.887-.633l-1.037-2.494a.56.56,0,0,1,.377-.741.666.666,0,0,1,.826.338l1.829,4.4,1.457-.4L22.2,11.656l0-.005-.677-1.53a.558.558,0,0,1,.36-.747.671.671,0,0,1,.86.384c.02-.084.039-.168.057-.252l.3-1.451c-.06-.049-.4-.353-.458-.408a3.5,3.5,0,0,1-.889-1.226l-1.525.145A2.483,2.483,0,0,0,18.8,7.17l-5.093,4.567,4.023,3.607ZM8.04,21.032a1.392,1.392,0,0,0-1.816,0l-.211.189,2.558,2.294,1.119-1ZM9.269,20.5l1.327,1.19,5.17-4.7-1.795.3a3.827,3.827,0,0,1-.625.052,3.742,3.742,0,0,1-1.336-.245ZM5.56,14.583,7.516,13.7a2.017,2.017,0,0,1,2.01.207l2.459,1.836a2.314,2.314,0,0,0,1.754.411l2.6-.431L12.4,12.19,9.98,10.821a.815.815,0,0,0-.782-.008L4.78,13.19ZM3,15.737,4.413,15.1,3.365,13.23h0a1.245,1.245,0,0,0-.743-.576,1.409,1.409,0,0,0-.98.064l-.267.12Zm40.2,18.6H40.055a.579.579,0,1,1,0-1.152H43.2a.579.579,0,1,1,0,1.152Zm.38-19.9L33.077,21.349a4.469,4.469,0,0,1-1.8.678L24.6,23a.641.641,0,0,1-.737-.476.587.587,0,0,1,.531-.661l6.68-.972a3.1,3.1,0,0,0,1.247-.469l10.506-6.911a.692.692,0,0,1,.9.124.538.538,0,0,1-.138.8Zm-3.388,6.879H43.2a.579.579,0,1,1,0,1.152H40.195V23.4a1.085,1.085,0,0,1-1.137,1.02h-.812A2.524,2.524,0,0,1,35.6,22.042v-.3a2.535,2.535,0,0,1,2.716-2.373l4.5-3.122a.693.693,0,0,1,.9.1.537.537,0,0,1-.114.808l-3.686,2.56a.957.957,0,0,1,.284.672Zm-1.284.58s0,0,0,0,0,0,0,0V20.524h-.665a1.3,1.3,0,0,0-1.362,1.221v.3a1.3,1.3,0,0,0,1.362,1.221h.665ZM5.886,26.017l-1.653-1.1a.538.538,0,0,1-.133-.806.692.692,0,0,1,.9-.119l1.653,1.1a.538.538,0,0,1,.133.806A.692.692,0,0,1,5.886,26.017Zm2.489,2.891,1.208-.656.453-1.912A3.928,3.928,0,0,1,13.4,23.462L21.395,22.3a.638.638,0,0,1,.737.476.587.587,0,0,1-.531.661L13.606,24.6a2.7,2.7,0,0,0-2.315,1.98l-.346,1.46h5.9a5.441,5.441,0,0,1,4.5-2.228h5.219a5.716,5.716,0,0,1,3.318,1.046,4.744,4.744,0,0,1,1.86,2.679l.906,3.649h4.413a.579.579,0,1,1,0,1.152H32.932l.251,1.01H43.2a.579.579,0,1,1,0,1.152H29.512a6.754,6.754,0,0,1-10.96,0h-1.27a6.551,6.551,0,0,1-4.335-1.585l-.3-.261H11.561A3.859,3.859,0,0,1,7.733,31.87l-.26-1.1a1.693,1.693,0,0,1,.9-1.866Zm15.657,9.245A4.848,4.848,0,0,0,29.116,33.6a4.848,4.848,0,0,0-5.084-4.558A4.848,4.848,0,0,0,18.948,33.6,4.848,4.848,0,0,0,24.032,38.153Zm-6.75-2.806h.69a5.151,5.151,0,0,1-.308-1.752c0-3.148,2.857-5.71,6.368-5.71S30.4,30.447,30.4,33.6a5.15,5.15,0,0,1-.308,1.752h1.775l-1.381-5.56a3.928,3.928,0,0,0-3.925-2.824H21.342a3.9,3.9,0,0,0-3.97,3.045L16.736,33.6a1.351,1.351,0,0,1-1.378,1.056h-.725A5.3,5.3,0,0,0,17.282,35.347ZM8.73,30.536l.259,1.1A2.593,2.593,0,0,0,11.561,33.5h3.8a.107.107,0,0,0,.109-.084l.635-3.59a4.443,4.443,0,0,1,.162-.637H10.332l-1.292.7A.584.584,0,0,0,8.73,30.536ZM3.56,29.077l2.032-.789a.672.672,0,0,1,.844.3.555.555,0,0,1-.334.757l-2.032.789a.674.674,0,0,1-.844-.3A.555.555,0,0,1,3.56,29.077Zm20.471.942A3.8,3.8,0,0,1,28.02,33.6a3.8,3.8,0,0,1-3.988,3.576A3.8,3.8,0,0,1,20.043,33.6,3.8,3.8,0,0,1,24.032,30.019Zm0,6a2.439,2.439,0,1,0,0-4.849,2.439,2.439,0,1,0,0,4.849Zm-21.07-9.7,1.888.2a.594.594,0,0,1,.564.638.632.632,0,0,1-.712.506l-1.888-.2a.594.594,0,0,1-.564-.638A.631.631,0,0,1,2.962,26.32Z" transform="translate(-0.009 0)"/>
          </g>
        </g>
      </g>
    </g>
  </g>
</svg>
