<svg xmlns="http://www.w3.org/2000/svg" width="88.579" height="85" viewBox="0 0 88.579 85">
  <g id="_13" data-name="13" transform="translate(0)">
    <path id="Path_661895" data-name="Path 661895" d="M73.333,384.767a9.379,9.379,0,1,1-9.379-9.379A9.379,9.379,0,0,1,73.333,384.767Zm0,0" transform="translate(-45.133 -310.443)" fill="#6a563d"/>
    <path id="Path_661896" data-name="Path 661896" d="M362.352,384.767a9.379,9.379,0,1,1-9.379-9.379A9.379,9.379,0,0,1,362.352,384.767Zm0,0" transform="translate(-284.151 -310.443)" fill="#6a563d"/>
    <path id="Path_661897" data-name="Path 661897" d="M122.446,408.937a4.323,4.323,0,1,1-4.323-4.323A4.323,4.323,0,0,1,122.446,408.937Zm0,0" transform="translate(-94.112 -334.613)" fill="#3e3d42"/>
    <path id="Path_661898" data-name="Path 661898" d="M411.467,408.937a4.323,4.323,0,1,1-4.323-4.323A4.323,4.323,0,0,1,411.467,408.937Zm0,0" transform="translate(-333.131 -334.613)" fill="#3e3d42"/>
    <path id="Path_661899" data-name="Path 661899" d="M86.274,251.561H69.033l-15.6-14.772H25.406L7.5,251.561v15.326l3.676,3.676h4.479c-.006-.139-.011-.277-.011-.417a9.379,9.379,0,1,1,18.758,0c0,.14,0,.278-.011.417H65.657c-.006-.139-.011-.277-.011-.417a9.379,9.379,0,1,1,18.758,0c0,.14,0,.278-.01.417h5.413l3.676-3.676V258.77Zm0,0" transform="translate(-6.203 -195.823)" fill="#ff7956"/>
    <g id="Group_970798" data-name="Group 970798" transform="translate(14.717 45.388)">
      <path id="Path_661900" data-name="Path 661900" d="M245.448,272.728H223v-10.38h11.486Zm0,0" transform="translate(-199.137 -262.348)" fill="#ed4726"/>
      <path id="Path_661901" data-name="Path 661901" d="M85.066,272.728h16.78v-10.38h-4.2Zm0,0" transform="translate(-85.066 -262.348)" fill="#ed4726"/>
      <path id="Path_661902" data-name="Path 661902" d="M223,352.707h7.742v4.152H223Zm0,0" transform="translate(-199.137 -337.074)" fill="#ed4726"/>
    </g>
    <path id="Path_661903" data-name="Path 661903" d="M215.448,272.728H193v-10.38h11.486Zm0,0" transform="translate(-159.61 -216.96)" fill="#e1e3fa"/>
    <path id="Path_661904" data-name="Path 661904" d="M55.066,272.728h16.78v-10.38h-4.2Zm0,0" transform="translate(-45.54 -216.96)" fill="#e1e3fa"/>
    <path id="Path_661905" data-name="Path 661905" d="M92.446,408.937a4.323,4.323,0,1,1-4.323-4.323A4.323,4.323,0,0,1,92.446,408.937Zm0,0" transform="translate(-69.303 -334.613)" fill="#ebe5dd"/>
    <path id="Path_661906" data-name="Path 661906" d="M381.467,408.937a4.323,4.323,0,1,1-4.323-4.323A4.323,4.323,0,0,1,381.467,408.937Zm0,0" transform="translate(-308.321 -334.613)" fill="#ebe5dd"/>
    <path id="Path_661907" data-name="Path 661907" d="M449,343.625v2.653l2.076,2.076H458.6v-1.231l-3.5-3.5Zm0,0" transform="translate(-371.321 -284.176)" fill="#ffe477"/>
    <path id="Path_661908" data-name="Path 661908" d="M193,352.707h7.742v4.152H193Zm0,0" transform="translate(-159.61 -291.687)" fill="#ebe5dd"/>
    <path id="Path_661909" data-name="Path 661909" d="M254.963,44.229l5.673,5.673-5.311,5.311h-4.862l-3.242-3.242a5.474,5.474,0,0,1,7.742-7.742Zm0,0" transform="translate(-203.125 -35.251)" fill="#ffdaaa"/>
    <path id="Path_661910" data-name="Path 661910" d="M278.215,23.4l-6.762,6.762L265.1,23.81l5.032-5.032V9.223L268.407,7.5h-2.945v9.345L246.606,35.7l7.98,7.981h2.436L259.1,41.6l-5.9-5.9,3.461-3.462,9.657,9.657h7.63l6.613,6.613H283l2.082-2.082-9.2-9.2h-4.9l9.156-9.156H289.5l1.723-1.723V23.4Zm0,0" transform="translate(-203.942 -6.202)" fill="#a7adf0"/>
    <path id="Path_661911" data-name="Path 661911" d="M59.764,384.767a9.384,9.384,0,0,1,6.784-9.016,9.379,9.379,0,1,0,0,18.031,9.383,9.383,0,0,1-6.784-9.015Zm0,0" transform="translate(-45.133 -310.443)" fill="#3e3d42"/>
    <path id="Path_661912" data-name="Path 661912" d="M348.784,384.767a9.384,9.384,0,0,1,6.784-9.016,9.379,9.379,0,1,0,0,18.031,9.384,9.384,0,0,1-6.784-9.015Zm0,0" transform="translate(-284.151 -310.443)" fill="#3e3d42"/>
    <path id="Path_661913" data-name="Path 661913" d="M126.38,375.387a9.4,9.4,0,0,0-2.6.364,9.383,9.383,0,0,1,6.784,9.016c0,.14,0,.278-.011.417h5.19c.006-.139.011-.277.011-.417a9.38,9.38,0,0,0-9.379-9.379Zm0,0" transform="translate(-102.37 -310.443)" fill="#ed4726"/>
    <path id="Path_661914" data-name="Path 661914" d="M15.649,269.846l-2.959-2.959V251.561L30.6,236.789h-5.19L7.5,251.561v15.326l3.676,3.676h4.479c-.006-.139-.011-.277-.011-.417,0-.1,0-.2,0-.3Zm0,0" transform="translate(-6.203 -195.823)" fill="#ed4726"/>
    <path id="Path_661915" data-name="Path 661915" d="M415.4,375.387a9.392,9.392,0,0,0-2.6.364,9.384,9.384,0,0,1,6.784,9.016c0,.14,0,.278-.01.417h5.19c.006-.139.01-.277.01-.417a9.379,9.379,0,0,0-9.379-9.379Zm0,0" transform="translate(-341.391 -310.443)" fill="#ed4726"/>
    <path id="Path_661916" data-name="Path 661916" d="M193,262.348h5.19v10.38H193Zm0,0" transform="translate(-159.61 -216.96)" fill="#a7adf0"/>
    <path id="Path_661917" data-name="Path 661917" d="M71.847,262.348h-4.2l-12.583,10.38h5.19l11.59-9.561Zm0,0" transform="translate(-45.54 -216.96)" fill="#a7adf0"/>
    <path id="Path_661918" data-name="Path 661918" d="M88.991,408.937a4.318,4.318,0,0,1,1.727-3.458,4.323,4.323,0,1,0,0,6.915A4.316,4.316,0,0,1,88.991,408.937Zm0,0" transform="translate(-69.303 -334.613)" fill="#acabb1"/>
    <path id="Path_661919" data-name="Path 661919" d="M378.01,408.937a4.316,4.316,0,0,1,1.728-3.458,4.323,4.323,0,1,0,0,6.915A4.315,4.315,0,0,1,378.01,408.937Zm0,0" transform="translate(-308.32 -334.613)" fill="#acabb1"/>
    <path id="Path_661920" data-name="Path 661920" d="M454.19,346.277v-2.653H449v2.653l2.076,2.076h5.19Zm0,0" transform="translate(-371.321 -284.176)" fill="#ff9811"/>
    <path id="Path_661921" data-name="Path 661921" d="M193,352.707h5.19v4.152H193Zm0,0" transform="translate(-159.61 -291.687)" fill="#acabb1"/>
    <path id="Path_661922" data-name="Path 661922" d="M252.411,51.971a5.479,5.479,0,0,1,1.276-8.693,5.475,5.475,0,0,0-6.466,8.693l3.242,3.242h4.862l.164-.164Zm0,0" transform="translate(-203.125 -35.251)" fill="#ffbb85"/>
    <path id="Path_661923" data-name="Path 661923" d="M266.324,41.9h5.19L258.558,28.939l11.57-11.57V9.223L268.406,7.5h-2.945v9.345L246.606,35.7l7.98,7.981h2.436L258.4,42.3l-6.6-6.6,4.167-4.167Zm0,0" transform="translate(-203.942 -6.203)" fill="#7852ef"/>
    <path id="Path_661924" data-name="Path 661924" d="M198.8,254.848H185.5v12.975h27Zm-10.705,2.6h9.671l8.222,7.785H188.1Zm0,0" transform="translate(-153.408 -210.758)"/>
    <path id="Path_661925" data-name="Path 661925" d="M55.881,254.848H49.92L34.192,267.823H55.881Zm-2.6,10.38H41.415l9.437-7.785h2.434Zm0,0" transform="translate(-28.277 -210.758)"/>
    <path id="Path_661926" data-name="Path 661926" d="M57.75,367.887a10.677,10.677,0,1,0,10.677,10.677A10.689,10.689,0,0,0,57.75,367.887Zm0,18.758a8.082,8.082,0,1,1,8.082-8.081A8.091,8.091,0,0,1,57.75,386.645Zm0,0" transform="translate(-38.93 -304.241)"/>
    <path id="Path_661927" data-name="Path 661927" d="M81.921,397.109a5.621,5.621,0,1,0,5.621,5.621A5.627,5.627,0,0,0,81.921,397.109Zm0,8.647a3.026,3.026,0,1,1,3.026-3.026A3.029,3.029,0,0,1,81.921,405.756Zm0,0" transform="translate(-63.1 -328.407)"/>
    <path id="Path_661928" data-name="Path 661928" d="M370.941,397.109a5.621,5.621,0,1,0,5.621,5.621A5.627,5.627,0,0,0,370.941,397.109Zm0,8.647a3.026,3.026,0,1,1,3.026-3.026A3.029,3.029,0,0,1,370.941,405.756Zm0,0" transform="translate(-302.118 -328.407)"/>
    <path id="Path_661929" data-name="Path 661929" d="M346.771,367.887a10.677,10.677,0,1,0,10.676,10.677A10.689,10.689,0,0,0,346.771,367.887Zm0,18.758a8.082,8.082,0,1,1,8.081-8.081A8.091,8.091,0,0,1,346.771,386.645Zm0,0" transform="translate(-277.948 -304.241)"/>
    <path id="Path_661930" data-name="Path 661930" d="M80.609,244.061H63.347l-15.6-14.772H18.737L0,244.747v16.475l4.437,4.437H5.988v-2.6H5.511l-2.916-2.916V245.969L19.67,231.884H46.713l15.6,14.772H79.534l1.116,1.116H76.381v4.488l2.836,2.836h6.765v5.051l-2.916,2.916H81.655v2.6h2.486l4.437-4.437V252.03Zm-.316,8.441-1.316-1.316v-.818h4.269L85.38,252.5Zm0,0" transform="translate(0 -189.621)"/>
    <path id="Path_661931" data-name="Path 661931" d="M185.5,351.958h10.337v-6.747H185.5Zm2.6-4.152h5.147v1.557H188.1Zm0,0" transform="translate(-153.408 -285.488)"/>
    <path id="Path_661932" data-name="Path 661932" d="M268.9,15.9l-6.225,6.224-4.521-4.521,4.494-4.494V2.483L260.169,0h-4.78V10.1l-2.711,2.711L247.923,8.06a6.772,6.772,0,1,0-9.577,9.577l3.622,3.622h2.267L236,29.5l9.278,9.278h3.51l3.38-3.38-5.9-5.9,1.627-1.627,9.119,9.119h7.63l6.613,6.613h3.51l3.38-3.38-10.5-10.5h-2.3l6.562-6.562h9.352l2.482-2.483V15.9Zm-22.073,2.76h-3.787L240.181,15.8A4.177,4.177,0,0,1,246.088,9.9l4.756,4.755Zm34.321.945-.962.962h-9.352L259.085,32.324h7.491l7.9,7.9-.785.785H272.33l-6.613-6.613h-7.63L247.893,24.2l-5.3,5.3,5.9,5.9-.785.785h-1.361L239.666,29.5,257.985,11.18V2.6h1.11l.962.962v8.481l-5.569,5.569,8.191,8.191,7.3-7.3h11.173Zm0,0" transform="translate(-195.168)"/>
    <path id="Path_661933" data-name="Path 661933" d="M354.785,243.13l3.249-3.248,1.835,1.835-3.248,3.248Zm0,0" transform="translate(-293.406 -198.382)"/>
    <path id="Path_661934" data-name="Path 661934" d="M370.574,282.582h4.594v2.6h-4.594Zm0,0" transform="translate(-306.463 -233.694)"/>
    <path id="Path_661935" data-name="Path 661935" d="M326.73,226.383h2.6v4.593h-2.6Zm0,0" transform="translate(-270.204 -187.217)"/>
    <path id="Path_661936" data-name="Path 661936" d="M182.961,424.512H207.3v2.6H182.961Zm0,0" transform="translate(-151.308 -351.069)"/>
    <path id="Path_661937" data-name="Path 661937" d="M285.448,342.443h-13.8v-2.6h13.8Zm-15.528,0h-2.6v-2.6h2.6Zm-4.325,0H263v-2.6h2.6Zm0,0" transform="translate(-217.5 -281.052)" fill="#fff"/>
    <path id="Path_661938" data-name="Path 661938" d="M329.1,114.588l1.835-1.835,6.84,6.84-1.835,1.835Zm0,0" transform="translate(-272.168 -93.247)" fill="#fff"/>
  </g>
</svg>
