<svg xmlns="http://www.w3.org/2000/svg" width="89.65" height="79.817" viewBox="0 0 89.65 79.817">
  <g id="_32" data-name="32" transform="translate(-24.204 -38.001)">
    <path id="Path_667358" data-name="Path 667358" d="M62.151,48.718a1.425,1.425,0,0,1-1.425-1.425V45.276a1.425,1.425,0,1,1,2.851,0v2.017A1.425,1.425,0,0,1,62.151,48.718Z" transform="translate(-23.508 -3.766)" fill="#4c241d"/>
    <path id="Path_667359" data-name="Path 667359" d="M62.151,71.355a1.425,1.425,0,0,1-1.425-1.425V67.913a1.425,1.425,0,0,1,2.851,0V69.93A1.425,1.425,0,0,1,62.151,71.355Z" transform="translate(-23.508 -18.336)" fill="#4c241d"/>
    <path id="Path_667360" data-name="Path 667360" d="M50.02,60.851H48A1.425,1.425,0,1,1,48,58H50.02a1.425,1.425,0,1,1,0,2.851Z" transform="translate(-14.402 -12.873)" fill="#4c241d"/>
    <path id="Path_667361" data-name="Path 667361" d="M72.657,60.851H70.64a1.425,1.425,0,0,1,0-2.851h2.017a1.425,1.425,0,0,1,0,2.851Z" transform="translate(-28.973 -12.873)" fill="#4c241d"/>
    <circle id="Ellipse_4824" data-name="Ellipse 4824" cx="30.644" cy="30.644" r="30.644" transform="translate(35.792 47.978)" fill="#e8e6dd"/>
    <path id="Path_667362" data-name="Path 667362" d="M108.819,256.851H26.151a1.425,1.425,0,1,1,0-2.851h82.668a1.425,1.425,0,0,1,0,2.851Z" transform="translate(-0.336 -139.033)" fill="#4c241d"/>
    <circle id="Ellipse_4825" data-name="Ellipse 4825" cx="1.614" cy="1.614" r="1.614" transform="translate(53.42 49.927)" fill="#4c241d"/>
    <g id="Group_978427" data-name="Group 978427" transform="translate(24.204 97.213)">
      <path id="Path_667363" data-name="Path 667363" d="M28.2,212.38l51.831,9.732,3.591-3.676L28.993,208.177Z" transform="translate(-26.779 -206.751)" fill="#b5a19c"/>
      <path id="Path_667364" data-name="Path 667364" d="M77.46,220.96a1.459,1.459,0,0,1-.263-.024L25.366,211.2a1.425,1.425,0,0,1-1.138-1.664l.789-4.2a1.423,1.423,0,0,1,1.664-1.138l54.632,10.258a1.425,1.425,0,0,1,.756,2.4l-3.59,3.676A1.428,1.428,0,0,1,77.46,220.96Zm-50.167-12.3,49.681,9.329,1.2-1.225-50.614-9.5Z" transform="translate(-24.204 -204.174)" fill="#4c241d"/>
    </g>
    <g id="Group_978428" data-name="Group 978428" transform="translate(24.992 77.602)">
      <path id="Path_667365" data-name="Path 667365" d="M34.1,153.139l49.032,9.206A5.7,5.7,0,0,1,87.681,169L85.05,183.009,30.418,172.751" transform="translate(-28.992 -151.713)" fill="#ffce56"/>
      <path id="Path_667366" data-name="Path 667366" d="M82.476,181.859a1.428,1.428,0,0,1-.264-.024L27.58,171.577a1.425,1.425,0,1,1,.526-2.8l53.231,10,2.368-12.61a4.279,4.279,0,0,0-3.411-4.989l-49.032-9.207a1.425,1.425,0,1,1,.526-2.8L80.82,158.37a7.133,7.133,0,0,1,5.687,8.317L83.876,180.7A1.426,1.426,0,0,1,82.476,181.859Z" transform="translate(-26.417 -149.138)" fill="#4c241d"/>
    </g>
    <g id="Group_978429" data-name="Group 978429" transform="translate(28.675 60.792)">
      <path id="Path_667367" data-name="Path 667367" d="M43.909,105.963l2.909.546c8.724,1.638,16.232,6.786,20.16,13.823l4.593,8.228-30.818-5.787" transform="translate(-39.326 -104.537)" fill="#c1dbdc"/>
      <path id="Path_667368" data-name="Path 667368" d="M69,127.409a1.4,1.4,0,0,1-.263-.024L37.914,121.6a1.425,1.425,0,1,1,.526-2.8l27.828,5.225-3.11-5.57c-3.716-6.656-10.885-11.559-19.178-13.117l-2.909-.546a1.425,1.425,0,0,1,.526-2.8l2.909.546c9.115,1.712,17.018,7.143,21.141,14.529l4.593,8.228A1.425,1.425,0,0,1,69,127.409Z" transform="translate(-36.751 -101.961)" fill="#4c241d"/>
    </g>
    <g id="Group_978430" data-name="Group 978430" transform="translate(50.033 93.81)">
      <circle id="Ellipse_4826" data-name="Ellipse 4826" cx="9.977" cy="9.977" r="9.977" transform="translate(1.429 1.428)" fill="#6b4f5b"/>
      <path id="Path_667369" data-name="Path 667369" d="M108.1,217.432a11.4,11.4,0,1,1,11.2-9.3A11.416,11.416,0,0,1,108.1,217.432Zm-.022-19.958a8.583,8.583,0,1,0,1.6.15A8.6,8.6,0,0,0,108.079,197.475Zm9.824,10.4h.014Z" transform="translate(-96.692 -194.624)" fill="#4c241d"/>
    </g>
    <g id="Group_978431" data-name="Group 978431" transform="translate(54.311 98.088)">
      <circle id="Ellipse_4827" data-name="Ellipse 4827" cx="5.701" cy="5.701" r="5.701" transform="translate(1.426 1.426)" fill="#ccc"/>
      <path id="Path_667370" data-name="Path 667370" d="M115.828,220.884a7.127,7.127,0,1,1,7-5.813A7.142,7.142,0,0,1,115.828,220.884Zm0-11.4a4.277,4.277,0,1,0,.791.074A4.283,4.283,0,0,0,115.823,209.48Z" transform="translate(-108.698 -206.629)" fill="#4c241d"/>
    </g>
    <g id="Group_978432" data-name="Group 978432" transform="translate(73.818 90.485)">
      <path id="Path_667371" data-name="Path 667371" d="M175.353,195.073l-5.5-1.033a2.955,2.955,0,0,1-2.359-3.449l.244-1.3,6.24,1.172a2.2,2.2,0,0,1,1.758,2.572Z" transform="translate(-166.017 -187.867)" fill="#fff"/>
      <path id="Path_667372" data-name="Path 667372" d="M172.781,193.925a1.429,1.429,0,0,1-.264-.024l-5.5-1.033a4.386,4.386,0,0,1-3.5-5.113l.244-1.3a1.424,1.424,0,0,1,1.664-1.137l6.24,1.171a3.634,3.634,0,0,1,2.9,4.236l-.383,2.038a1.427,1.427,0,0,1-1.4,1.162Zm-6.477-5.542a1.532,1.532,0,0,0,1.237,1.683l4.1.77.12-.636a.779.779,0,0,0-.621-.908Z" transform="translate(-163.443 -185.294)" fill="#4c241d"/>
    </g>
    <g id="Group_978433" data-name="Group 978433" transform="translate(32.089 38.001)">
      <path id="Path_667373" data-name="Path 667373" d="M87.181,184.9a1.426,1.426,0,0,1-1.389-1.749,14.521,14.521,0,0,1,10.8-11.275l1.141-6.08a1.425,1.425,0,1,1,2.8.526l-1.315,7a1.427,1.427,0,0,1-1.133,1.137,11.8,11.8,0,0,0-9.522,9.334,1.425,1.425,0,0,1-1.386,1.1Z" transform="translate(-71.707 -119.514)" fill="#4c241d"/>
      <path id="Path_667374" data-name="Path 667374" d="M50.56,166.525a1.416,1.416,0,0,1-.264-.024l-2.8-.526a1.425,1.425,0,0,1,.525-2.8l2.8.526a1.425,1.425,0,0,1-.261,2.826Z" transform="translate(-46.332 -118.555)" fill="#4c241d"/>
      <path id="Path_667375" data-name="Path 667375" d="M174,218.192a1.428,1.428,0,0,1-.264-.024l-5.6-1.052a1.425,1.425,0,0,1,.526-2.8l5.6,1.052a1.425,1.425,0,0,1-.262,2.826Z" transform="translate(-123.98 -151.473)" fill="#4c241d"/>
      <path id="Path_667376" data-name="Path 667376" d="M196.823,56.9a1.425,1.425,0,0,1-1.223-2.155l7.011-11.754a1.428,1.428,0,0,1,1.594-.646l3.931,1.056.94-4.283a1.425,1.425,0,1,1,2.784.611l-1.26,5.741a1.424,1.424,0,0,1-1.761,1.071l-4.331-1.163-6.458,10.828a1.425,1.425,0,0,1-1.226.695Z" transform="translate(-142.282 -38.001)" fill="#4c241d"/>
      <path id="Path_667377" data-name="Path 667377" d="M154.576,66.506a1.422,1.422,0,0,1-.729-.2L143.4,60.072l-6.229,1.656a1.425,1.425,0,0,1-1.59-2.107l3.808-6.385a1.425,1.425,0,1,1,2.448,1.46l-2.014,3.378,3.425-.911a1.424,1.424,0,0,1,1.1.153l10.967,6.541a1.425,1.425,0,0,1-.732,2.65Z" transform="translate(-103.647 -47.36)" fill="#4c241d"/>
      <path id="Path_667378" data-name="Path 667378" d="M186.615,49.4a1.425,1.425,0,0,1-1.223-2.155l4.223-7.081a1.425,1.425,0,1,1,2.448,1.46l-4.223,7.081a1.422,1.422,0,0,1-1.225.7Z" transform="translate(-135.711 -38.947)" fill="#4c241d"/>
      <path id="Path_667379" data-name="Path 667379" d="M173.824,54.565a1.422,1.422,0,0,1-.729-.2l-7.081-4.223a1.425,1.425,0,1,1,1.46-2.448l7.081,4.223a1.425,1.425,0,0,1-.731,2.649Z" transform="translate(-122.921 -44.109)" fill="#4c241d"/>
    </g>
    <g id="Group_978434" data-name="Group 978434" transform="translate(79.092 39.639)">
      <path id="Path_667380" data-name="Path 667380" d="M202.745,104.416,192.2,75.9l5.391-10.852,7.645-1.932,2.212-7.337-5.727,4.159-7.645,1.932-3.486,7.659-5.8-22.935-2.548.644,10.993,59.577L188.7,121.926h13.443l.938-11.4-5.7-2.851Z" transform="translate(-180.819 -45.172)" fill="#bf7e68"/>
      <path id="Path_667381" data-name="Path 667381" d="M199.569,120.776H186.126a1.425,1.425,0,0,1-1.365-1.835l4.437-14.777L178.267,44.926a1.426,1.426,0,0,1,1.052-1.641l2.548-.645a1.426,1.426,0,0,1,1.731,1.033l4.8,19,1.8-3.961a1.427,1.427,0,0,1,.948-.792l7.379-1.865,5.5-4a1.426,1.426,0,0,1,2.2,1.565l-2.212,7.337a1.427,1.427,0,0,1-1.016.971L196,63.7l-4.824,9.713,10.331,27.935a1.425,1.425,0,0,1-.6,1.712l-3.157,1.918,3.393,1.7a1.425,1.425,0,0,1,.783,1.392l-.938,11.4a1.424,1.424,0,0,1-1.42,1.308Zm-11.528-2.851h10.215l.751-9.134-4.839-2.419a1.425,1.425,0,0,1-.1-2.493l4.358-2.648-10.136-27.41a1.424,1.424,0,0,1,.061-1.128l5.39-10.852a1.428,1.428,0,0,1,.927-.748l6.863-1.734.758-2.514-2.3,1.672a1.419,1.419,0,0,1-.488.229l-6.981,1.764-3.2,7.035a1.425,1.425,0,0,1-2.68-.241L181.68,47.715l10.383,56.27a1.422,1.422,0,0,1-.037.669Z" transform="translate(-178.243 -42.597)" fill="#4c241d"/>
    </g>
    <path id="Path_667382" data-name="Path 667382" d="M157.217,102.224a1.422,1.422,0,0,1-.729-.2l-3.289-1.962-6.375.607a1.425,1.425,0,0,1-1.527-1.725l.97-4.423-8.908-2.48a1.425,1.425,0,0,1,.764-2.746l10.207,2.842a1.425,1.425,0,0,1,1.01,1.679l-.84,3.831,4.892-.466a1.436,1.436,0,0,1,.865.195l3.689,2.2a1.425,1.425,0,0,1-.732,2.649Z" transform="translate(-72.164 -32.981)" fill="#4c241d"/>
    <path id="Path_667383" data-name="Path 667383" d="M219.144,139.648a1.425,1.425,0,0,1-1.223-2.155l5.968-10.006a1.425,1.425,0,1,1,2.448,1.46l-5.968,10.006A1.424,1.424,0,0,1,219.144,139.648Z" transform="translate(-124.561 -57.152)" fill="#4c241d"/>
    <path id="Path_667384" data-name="Path 667384" d="M156.131,132.546a1.422,1.422,0,0,1-.729-.2l-12.924-7.709-6.434,1.135a1.425,1.425,0,0,1-1.66-1.592l.794-5.932-5.056-2.113a1.425,1.425,0,0,1-.794-1.791l1.582-4.467a1.425,1.425,0,1,1,2.686.952l-1.132,3.2,4.819,2.014a1.426,1.426,0,0,1,.863,1.5l-.68,5.084,5.038-.889a1.421,1.421,0,0,1,.978.18l13.38,7.98a1.425,1.425,0,0,1-.731,2.649Z" transform="translate(-67.612 -45.652)" fill="#4c241d"/>
    <path id="Path_667385" data-name="Path 667385" d="M172.715,144.076a1.427,1.427,0,0,1-1.374-1.805l1.29-4.675a1.425,1.425,0,0,1,2.748.759l-1.29,4.675A1.426,1.426,0,0,1,172.715,144.076Z" transform="translate(-94.675 -63.432)" fill="#4c241d"/>
    <path id="Path_667386" data-name="Path 667386" d="M235.555,106.543a1.428,1.428,0,0,1-.382-.052l-5.847-1.628a1.425,1.425,0,1,1,.764-2.746l4.673,1.3,2.638-5.793L233.73,92.57a1.426,1.426,0,0,1,.8-2.22l6.791-1.716,1.071-4.881a1.425,1.425,0,1,1,2.784.611l-1.26,5.741a1.426,1.426,0,0,1-1.043,1.076l-5.6,1.416,2.922,4.023a1.425,1.425,0,0,1,.144,1.429l-3.487,7.659a1.426,1.426,0,0,1-1.3.835Z" transform="translate(-131.36 -28.728)" fill="#4c241d"/>
  </g>
</svg>
