<svg xmlns="http://www.w3.org/2000/svg" xmlns:xlink="http://www.w3.org/1999/xlink" width="412.47" height="1168" viewBox="0 0 412.47 1168">
  <defs>
    <clipPath id="clip-path">
      <rect id="Rectangle_353905" data-name="Rectangle 353905" width="412" height="1168" fill="#f9f7ec"/>
    </clipPath>
  </defs>
  <g id="movil1" transform="translate(8958 498)">
    <rect id="movil1-2" data-name="movil1" width="412.47" height="1167.491" transform="translate(-8958 -498)" fill="#f9f7ec"/>
    <g id="Mask_Group_970875" data-name="Mask Group 970875" transform="translate(-8958 -498)" clip-path="url(#clip-path)">
      <g id="Group_80522" data-name="Group 80522" transform="translate(-35.645 283.49)">
        <g id="Group_80521" data-name="Group 80521">
          <g id="Group_80520" data-name="Group 80520">
            <g id="Group_80519" data-name="Group 80519">
              <path id="Path_114056" data-name="Path 114056" d="M718.175,244.049a2.083,2.083,0,0,1-.019-.311c0-.225-.012-.517-.021-.885-.011-.8-.027-1.939-.046-3.4-.025-2.975-.062-7.269-.107-12.686l.192.178-69.627.113c.139-.129-.318.289.311-.29v4.423q0,2.2,0,4.363,0,4.326-.006,8.493l-.307-.283,49.644.129,14.636.08,3.954.038,1.033.018a3.466,3.466,0,0,1,.364.018,1.93,1.93,0,0,1-.324.019l-1,.018-3.887.038-14.565.08-49.858.129h-.309v-.285q0-4.161,0-8.493,0-2.164,0-4.363v-4.423c.63-.581.178-.162.319-.291l69.627.113h.194v.177c-.045,5.462-.081,9.79-.107,12.792q-.029,2.164-.046,3.359c-.009.355-.016.635-.021.853A1.356,1.356,0,0,1,718.175,244.049Z" transform="translate(-648.229 -226.453)" fill="#ebe7cf"/>
            </g>
          </g>
        </g>
      </g>
      <g id="Group_80528" data-name="Group 80528" transform="translate(0 1107.916)">
        <g id="Group_80524" data-name="Group 80524">
          <g id="Group_80523" data-name="Group 80523">
            <rect id="Rectangle_33924" data-name="Rectangle 33924" width="69.631" height="17.28" fill="#ebe7cf"/>
          </g>
        </g>
        <g id="Group_80527" data-name="Group 80527" transform="translate(28.821 17.406)">
          <g id="Group_80526" data-name="Group 80526">
            <g id="Group_80525" data-name="Group 80525">
              <path id="Path_114057" data-name="Path 114057" d="M465.842,68.383a2.375,2.375,0,0,1-.019-.312c0-.225-.011-.517-.019-.884q-.016-1.207-.047-3.4c-.025-2.975-.061-7.269-.107-12.685l.192.177-69.626.113c.139-.129-.318.289.31-.29v4.424q0,2.2,0,4.362,0,4.326,0,8.494l-.308-.284,49.644.129,14.637.08,3.954.038,1.032.018a2.91,2.91,0,0,1,.364.019,2.026,2.026,0,0,1-.324.018l-1,.018-3.887.038-14.565.08-49.858.129H395.9v-.284q0-4.162-.006-8.494,0-2.164,0-4.362V51.1c.63-.581.177-.162.319-.291l69.626.113h.195V51.1c-.046,5.46-.082,9.79-.106,12.79q-.031,2.164-.047,3.359c-.008.355-.015.635-.021.853A1.273,1.273,0,0,1,465.842,68.383Z" transform="translate(-395.897 -50.785)" fill="#ebe7cf"/>
            </g>
          </g>
        </g>
      </g>
      <g id="Group_989417" data-name="Group 989417" transform="translate(349.249 1125.56)">
        <g id="Group_80524-2" data-name="Group 80524" transform="translate(29.33)">
          <g id="Group_80523-2" data-name="Group 80523">
            <rect id="Rectangle_33924-2" data-name="Rectangle 33924" width="69.631" height="17.28" fill="#ebe7cf"/>
          </g>
        </g>
        <g id="Group_80527-2" data-name="Group 80527" transform="translate(0 17.406)">
          <g id="Group_80526-2" data-name="Group 80526">
            <g id="Group_80525-2" data-name="Group 80525">
              <path id="Path_114057-2" data-name="Path 114057" d="M396.092,68.383a2.375,2.375,0,0,0,.019-.312c0-.225.011-.517.019-.884q.016-1.207.047-3.4c.025-2.975.061-7.269.107-12.685l-.192.177,69.626.113c-.139-.129.318.289-.31-.29v4.424q0,2.2,0,4.362,0,4.326,0,8.494l.308-.284-49.644.129-14.637.08-3.954.038-1.032.018a2.91,2.91,0,0,0-.364.019,2.026,2.026,0,0,0,.324.018l1,.018,3.887.038,14.565.08,49.858.129h.307v-.284q0-4.162.006-8.494,0-2.164,0-4.362V51.1c-.63-.581-.177-.162-.319-.291l-69.626.113H395.9V51.1c.046,5.46.082,9.79.106,12.79q.031,2.164.047,3.359c.008.355.015.635.021.853A1.273,1.273,0,0,0,396.092,68.383Z" transform="translate(-395.897 -50.785)" fill="#ebe7cf"/>
            </g>
          </g>
        </g>
      </g>
      <g id="Group_80579" data-name="Group 80579" transform="translate(299.494 6.894)">
        <g id="Group_80524-3" data-name="Group 80524">
          <g id="Group_80523-3" data-name="Group 80523">
            <rect id="Rectangle_33924-3" data-name="Rectangle 33924" width="69.631" height="17.28" fill="#ebe7cf"/>
          </g>
        </g>
        <g id="Group_80527-3" data-name="Group 80527" transform="translate(28.821 17.406)">
          <g id="Group_80526-3" data-name="Group 80526">
            <g id="Group_80525-3" data-name="Group 80525">
              <path id="Path_114057-3" data-name="Path 114057" d="M465.842,68.383a2.375,2.375,0,0,1-.019-.312c0-.225-.011-.517-.019-.884q-.016-1.207-.047-3.4c-.025-2.975-.061-7.269-.107-12.685l.192.177-69.626.113c.139-.129-.318.289.31-.29v4.424q0,2.2,0,4.362,0,4.326,0,8.494l-.308-.284,49.644.129,14.637.08,3.954.038,1.032.018a2.91,2.91,0,0,1,.364.019,2.026,2.026,0,0,1-.324.018l-1,.018-3.887.038-14.565.08-49.858.129H395.9v-.284q0-4.162-.006-8.494,0-2.164,0-4.362V51.1c.63-.581.177-.162.319-.291l69.626.113h.195V51.1c-.046,5.46-.082,9.79-.106,12.79q-.031,2.164-.047,3.359c-.008.355-.015.635-.021.853A1.273,1.273,0,0,1,465.842,68.383Z" transform="translate(-395.897 -50.785)" fill="#ebe7cf"/>
            </g>
          </g>
        </g>
      </g>
      <g id="Group_989406" data-name="Group 989406" transform="translate(-40.666 135.114)">
        <g id="Group_80524-4" data-name="Group 80524" transform="translate(29.33)">
          <g id="Group_80523-4" data-name="Group 80523">
            <rect id="Rectangle_33924-4" data-name="Rectangle 33924" width="69.631" height="17.28" fill="#ebe7cf"/>
          </g>
        </g>
        <g id="Group_80527-4" data-name="Group 80527" transform="translate(0 17.406)">
          <g id="Group_80526-4" data-name="Group 80526">
            <g id="Group_80525-4" data-name="Group 80525">
              <path id="Path_114057-4" data-name="Path 114057" d="M396.092,68.383a2.374,2.374,0,0,0,.019-.312c0-.225.011-.517.019-.884q.016-1.207.047-3.4c.025-2.975.061-7.269.107-12.685l-.192.177,69.626.113c-.139-.129.318.289-.31-.29v4.424q0,2.2,0,4.362,0,4.326,0,8.494l.308-.284-49.644.129-14.637.08-3.954.038-1.032.018a2.913,2.913,0,0,0-.364.019,2.024,2.024,0,0,0,.324.018l1,.018,3.887.038,14.565.08,49.858.129h.307v-.284q0-4.162.006-8.494,0-2.164,0-4.362V51.1c-.63-.581-.177-.162-.319-.291l-69.626.113H395.9V51.1c.046,5.46.082,9.79.106,12.79q.031,2.164.047,3.359c.008.355.015.635.021.853A1.272,1.272,0,0,0,396.092,68.383Z" transform="translate(-395.897 -50.785)" fill="#ebe7cf"/>
            </g>
          </g>
        </g>
      </g>
      <g id="Group_80540" data-name="Group 80540" transform="translate(-61.325 15.597)">
        <g id="Group_80539" data-name="Group 80539">
          <g id="Group_80538" data-name="Group 80538">
            <g id="Group_80537" data-name="Group 80537">
              <path id="Path_114060" data-name="Path 114060" d="M696.949,80.493a2.322,2.322,0,0,1-.019-.311c0-.225-.011-.517-.019-.885-.011-.8-.027-1.939-.047-3.4-.025-2.975-.06-7.269-.106-12.686l.192.178-69.626.113c.139-.129-.318.289.31-.29v4.423q0,2.2,0,4.363,0,4.326,0,8.493l-.309-.283,49.644.129,14.637.08,3.954.038,1.032.018a3.088,3.088,0,0,1,.364.018,1.907,1.907,0,0,1-.324.019l-1,.018-3.887.038-14.565.08-49.858.129h-.307v-.285q0-4.161-.006-8.493,0-2.164,0-4.363V63.214c.63-.581.177-.162.319-.291l69.626.113h.195v.177C697.1,68.674,697.06,73,697.036,76q-.031,2.164-.047,3.359c-.008.355-.014.635-.021.853A1.241,1.241,0,0,1,696.949,80.493Z" transform="translate(-627.004 -62.896)" fill="#ebe7cf"/>
            </g>
          </g>
        </g>
      </g>
      <g id="Group_80544" data-name="Group 80544" transform="translate(-18.759 64.929)">
        <g id="Group_80543" data-name="Group 80543">
          <g id="Group_80542" data-name="Group 80542">
            <g id="Group_80541" data-name="Group 80541">
              <path id="Path_114061" data-name="Path 114061" d="M697.322,96a1.853,1.853,0,0,1-.025-.33c-.007-.245-.016-.546-.027-.918-.015-.846-.035-2.007-.06-3.472-.03-3.029-.074-7.311-.127-12.561l.238.22-34.812.07c-.283.259.38-.353.312-.289v2.273q0,1.132,0,2.25,0,2.234,0,4.4c0,2.89-.01,5.683-.014,8.35l-.3-.271,24.95.132,7.226.074,1.944.033a6.067,6.067,0,0,1,.7.033,4.5,4.5,0,0,1-.627.032l-1.884.033-7.16.075-25.146.13-.294,0V96c0-2.667-.01-5.46-.014-8.35q0-2.169,0-4.4,0-1.119,0-2.25V78.719c-.07.061.6-.552.317-.292l34.812.07h.242l0,.22c-.053,5.307-.1,9.634-.127,12.7q-.038,2.167-.06,3.423c-.011.355-.019.643-.027.877A1.138,1.138,0,0,1,697.322,96Z" transform="translate(-662.187 -78.362)" fill="#ebe7cf"/>
            </g>
          </g>
        </g>
      </g>
      <g id="Group_80550" data-name="Group 80550" transform="translate(313.494 886.28)">
        <g id="Group_80546" data-name="Group 80546">
          <g id="Group_80545" data-name="Group 80545">
            <rect id="Rectangle_33925" data-name="Rectangle 33925" width="69.631" height="17.28" fill="#ebe7cf"/>
          </g>
        </g>
        <g id="Group_80549" data-name="Group 80549" transform="translate(28.82 17.406)">
          <g id="Group_80548" data-name="Group 80548">
            <g id="Group_80547" data-name="Group 80547">
              <path id="Path_114062" data-name="Path 114062" d="M137.309,183.528a1.916,1.916,0,0,1-.019-.311c-.006-.226-.012-.517-.021-.885q-.016-1.206-.047-3.4c-.024-2.974-.06-7.269-.106-12.685l.192.177-69.626.113c.139-.129-.318.29.311-.29v4.424q0,2.2,0,4.362,0,4.328,0,8.494l-.309-.283,49.644.128,14.637.081,3.954.037,1.033.019a3.142,3.142,0,0,1,.364.018,1.906,1.906,0,0,1-.325.018l-.994.019-3.888.037-14.565.081-49.858.129H67.37v-.284q0-4.161-.006-8.494,0-2.164,0-4.362v-4.424c.63-.581.177-.161.319-.29l69.626.113h.195v.177c-.046,5.462-.082,9.79-.106,12.79-.021,1.443-.036,2.565-.047,3.359-.008.355-.015.637-.019.854A1.5,1.5,0,0,1,137.309,183.528Z" transform="translate(-67.363 -165.93)" fill="#ebe7cf"/>
            </g>
          </g>
        </g>
      </g>
      <g id="Group_989407" data-name="Group 989407" transform="translate(156.519 767.148)">
        <g id="Group_80546-2" data-name="Group 80546">
          <g id="Group_80545-2" data-name="Group 80545">
            <rect id="Rectangle_33925-2" data-name="Rectangle 33925" width="69.631" height="17.28" fill="#ebe7cf"/>
          </g>
        </g>
        <g id="Group_80549-2" data-name="Group 80549" transform="translate(28.82 17.406)">
          <g id="Group_80548-2" data-name="Group 80548">
            <g id="Group_80547-2" data-name="Group 80547">
              <path id="Path_114062-2" data-name="Path 114062" d="M137.309,183.528a1.916,1.916,0,0,1-.019-.311c-.006-.226-.012-.517-.021-.885q-.016-1.206-.047-3.4c-.024-2.974-.06-7.269-.106-12.685l.192.177-69.626.113c.139-.129-.318.29.311-.29v4.424q0,2.2,0,4.362,0,4.328,0,8.494l-.309-.283,49.644.128,14.637.081,3.954.037,1.033.019a3.142,3.142,0,0,1,.364.018,1.906,1.906,0,0,1-.325.018l-.994.019-3.888.037-14.565.081-49.858.129H67.37v-.284q0-4.161-.006-8.494,0-2.164,0-4.362v-4.424c.63-.581.177-.161.319-.29l69.626.113h.195v.177c-.046,5.462-.082,9.79-.106,12.79-.021,1.443-.036,2.565-.047,3.359-.008.355-.015.637-.019.854A1.5,1.5,0,0,1,137.309,183.528Z" transform="translate(-67.363 -165.93)" fill="#ebe7cf"/>
            </g>
          </g>
        </g>
      </g>
      <g id="Group_80556" data-name="Group 80556" transform="translate(-35.645 637.511)">
        <g id="Group_80552" data-name="Group 80552">
          <g id="Group_80551" data-name="Group 80551">
            <rect id="Rectangle_33926" data-name="Rectangle 33926" width="69.631" height="17.28" fill="#ebe7cf"/>
          </g>
        </g>
        <g id="Group_80555" data-name="Group 80555" transform="translate(28.821 17.406)">
          <g id="Group_80554" data-name="Group 80554">
            <g id="Group_80553" data-name="Group 80553">
              <path id="Path_114063" data-name="Path 114063" d="M577.773,305.65a2.351,2.351,0,0,1-.019-.312c0-.225-.011-.516-.019-.884q-.016-1.206-.047-3.4c-.025-2.975-.06-7.269-.106-12.685l.192.177-69.626.113c.139-.129-.318.29.311-.29v4.424q0,2.2,0,4.362,0,4.328,0,8.494l-.308-.284,49.644.129,14.637.081,3.954.037,1.032.018a2.917,2.917,0,0,1,.364.019,2.015,2.015,0,0,1-.324.018l-.994.019-3.889.037L558,305.8l-49.858.128h-.307v-.284q0-4.16-.006-8.494,0-2.164,0-4.362V288.37c.63-.581.177-.16.319-.291l69.626.113h.195v.177c-.046,5.462-.082,9.79-.107,12.79q-.031,2.164-.047,3.359c-.008.355-.015.635-.021.853A1.27,1.27,0,0,1,577.773,305.65Z" transform="translate(-507.828 -288.052)" fill="#ebe7cf"/>
            </g>
          </g>
        </g>
      </g>
      <g id="Group_989415" data-name="Group 989415" transform="translate(301.493 623.595)">
        <g id="Group_80552-2" data-name="Group 80552" transform="translate(26.231)">
          <g id="Group_80551-2" data-name="Group 80551">
            <rect id="Rectangle_33926-2" data-name="Rectangle 33926" width="62.275" height="15.455" fill="#ebe7cf"/>
          </g>
        </g>
        <g id="Group_80555-2" data-name="Group 80555" transform="translate(0 15.567)">
          <g id="Group_80554-2" data-name="Group 80554">
            <g id="Group_80553-2" data-name="Group 80553">
              <path id="Path_114063-2" data-name="Path 114063" d="M508,303.791a2.109,2.109,0,0,0,.017-.279c0-.2.01-.462.017-.791q.015-1.078.042-3.04c.023-2.661.054-6.5.1-11.345l-.172.159,62.271.1c-.124-.116.285.259-.278-.259v3.956q0,1.965,0,3.9,0,3.871,0,7.6l.276-.254-44.4.116-13.091.073-3.536.033-.923.016a2.607,2.607,0,0,0-.326.017,1.8,1.8,0,0,0,.29.016l.889.017,3.478.033,13.027.073,44.591.115h.275v-.254q0-3.721.005-7.6,0-1.935,0-3.9v-3.956c-.564-.519-.158-.144-.286-.26l-62.271.1h-.174v.159c.041,4.885.074,8.756.1,11.439q.028,1.935.042,3c.008.317.013.568.018.763A1.133,1.133,0,0,0,508,303.791Z" transform="translate(-507.828 -288.052)" fill="#ebe7cf"/>
            </g>
          </g>
        </g>
      </g>
      <g id="Group_989418" data-name="Group 989418" transform="translate(-54.013 362.037)">
        <g id="Group_80552-3" data-name="Group 80552" transform="translate(26.231)">
          <g id="Group_80551-3" data-name="Group 80551">
            <rect id="Rectangle_33926-3" data-name="Rectangle 33926" width="62.275" height="15.455" fill="#ebe7cf"/>
          </g>
        </g>
        <g id="Group_80555-3" data-name="Group 80555" transform="translate(0 15.567)">
          <g id="Group_80554-3" data-name="Group 80554">
            <g id="Group_80553-3" data-name="Group 80553">
              <path id="Path_114063-3" data-name="Path 114063" d="M508,303.791a2.109,2.109,0,0,0,.017-.279c0-.2.01-.462.017-.791q.015-1.078.042-3.04c.023-2.661.054-6.5.1-11.345l-.172.159,62.271.1c-.124-.116.285.259-.278-.259v3.956q0,1.965,0,3.9,0,3.871,0,7.6l.276-.254-44.4.116-13.091.073-3.536.033-.923.016a2.607,2.607,0,0,0-.326.017,1.8,1.8,0,0,0,.29.016l.889.017,3.478.033,13.027.073,44.591.115h.275v-.254q0-3.721.005-7.6,0-1.935,0-3.9v-3.956c-.564-.519-.158-.144-.286-.26l-62.271.1h-.174v.159c.041,4.885.074,8.756.1,11.439q.028,1.935.042,3c.008.317.013.568.018.763A1.133,1.133,0,0,0,508,303.791Z" transform="translate(-507.828 -288.052)" fill="#ebe7cf"/>
            </g>
          </g>
        </g>
      </g>
      <g id="Group_970437" data-name="Group 970437" transform="translate(323.494 333.887)">
        <g id="Group_80524-5" data-name="Group 80524" transform="translate(29.33)">
          <g id="Group_80523-5" data-name="Group 80523">
            <rect id="Rectangle_33924-5" data-name="Rectangle 33924" width="69.631" height="17.28" fill="#ebe7cf"/>
          </g>
        </g>
        <g id="Group_80527-5" data-name="Group 80527" transform="translate(0 17.406)">
          <g id="Group_80526-5" data-name="Group 80526">
            <g id="Group_80525-5" data-name="Group 80525">
              <path id="Path_114057-5" data-name="Path 114057" d="M396.092,68.383a2.375,2.375,0,0,0,.019-.312c0-.225.011-.517.019-.884q.016-1.207.047-3.4c.025-2.976.061-7.269.107-12.685l-.192.177,69.626.113c-.139-.129.318.289-.31-.29v4.424q0,2.2,0,4.362,0,4.326,0,8.494l.308-.284-49.644.129-14.637.08-3.954.038-1.032.018a2.911,2.911,0,0,0-.364.019,2.024,2.024,0,0,0,.324.018l1,.018,3.887.038,14.565.08,49.858.129h.307v-.284q0-4.162.006-8.494,0-2.164,0-4.362V51.1c-.63-.581-.177-.162-.319-.291l-69.626.113H395.9V51.1c.046,5.46.082,9.791.106,12.791q.031,2.164.047,3.359c.008.355.015.635.021.853A1.273,1.273,0,0,0,396.092,68.383Z" transform="translate(-395.897 -50.785)" fill="#ebe7cf"/>
            </g>
          </g>
        </g>
      </g>
    </g>
  </g>
</svg>
