<svg xmlns="http://www.w3.org/2000/svg" width="73.825" height="86.755" viewBox="0 0 73.825 86.755">
  <g id="_16" data-name="16" transform="translate(-1306.891 -7310.609)">
    <g id="policia_1_" data-name="policia (1)" transform="translate(1309.891 7310.608)">
      <path id="Path_675356" data-name="Path 675356" d="M46.169,127.193s-9.2,5.883-2.01,22.327c-.268,4.869,1.964,8.063,6.557,9.583.285,3.059,5.854,5.852,13.642,5.547,3.2,2.208,15.425,2.919,17.625-8.81,2.667,1.246,7.186-5.127,4.771-9.52,2.041-2.177,4.691-13.936-1.972-19.624-4.43-1.8-38.613.5-38.613.5Z" transform="translate(-29.892 -90.954)" fill="#240703"/>
      <path id="Path_675357" data-name="Path 675357" d="M95.841,166.4h17.432v20.673H95.841Z" transform="translate(-69.181 -120.111)" fill="#f9d7aa"/>
      <g id="Group_988584" data-name="Group 988584" transform="translate(26.66 47.236)">
        <path id="Path_675358" data-name="Path 675358" d="M95.841,169.8v8.017c2.2,2.4,6.062,5.434,11.093,4.61a12.945,12.945,0,0,0,6.339-2.862V169.8Z" transform="translate(-95.841 -169.805)" fill="#e8ac6b"/>
      </g>
      <path id="Path_675359" data-name="Path 675359" d="M70.825,230.724c-.959-9.628-3.144-11.165-8.985-13.808s-16.134-5.563-17.71-5.981c-1.3,2.712-5.8,6.4-8.716,6.815l-.005.006c-2.921-.42-7.414-4.1-8.712-6.814-1.576.417-11.869,3.338-17.71,5.981S.959,221.1,0,230.73c1.327.484,15.522,5.038,35.412,5.038l.006-.006C55.3,235.761,69.5,231.208,70.825,230.724Z" transform="translate(0 -152.258)" fill="#1b2d54"/>
      <g id="Group_988585" data-name="Group 988585" transform="translate(42.412 58.619)">
        <path id="Path_675360" data-name="Path 675360" d="M173.613,220.725a5.812,5.812,0,0,0,3.65-.813,18.452,18.452,0,0,0-5.382-3.2c-5.842-2.643-16.134-5.563-17.71-5.981a10.21,10.21,0,0,1-1.7,2.377c3.918,1.455,11.517,4.277,15.143,5.627A41.691,41.691,0,0,0,173.613,220.725Z" transform="translate(-152.467 -210.727)" fill="#0e1e35"/>
      </g>
      <g id="Group_988586" data-name="Group 988586" transform="translate(3.544 58.619)">
        <path id="Path_675361" data-name="Path 675361" d="M16.39,220.725a5.812,5.812,0,0,1-3.65-.813,18.452,18.452,0,0,1,5.382-3.2c5.842-2.643,16.134-5.563,17.71-5.981a10.21,10.21,0,0,0,1.7,2.377c-3.918,1.455-11.517,4.277-15.143,5.627a41.675,41.675,0,0,1-6,1.994Z" transform="translate(-12.74 -210.727)" fill="#0e1e35"/>
      </g>
      <path id="Path_675362" data-name="Path 675362" d="M182.168,109.663l1.307-4.182a3.065,3.065,0,0,1,3.513,1.835c1.213,2.474-1.961,7.557-4.7,7.984-.759-1.935-.121-5.638-.121-5.638Z" transform="translate(-131.313 -76.085)" fill="#f9d7aa"/>
      <path id="Path_675363" data-name="Path 675363" d="M59.194,109.663l-1.307-4.182a3.065,3.065,0,0,0-3.513,1.835c-1.213,2.474,1.961,7.557,4.7,7.984.759-1.935.121-5.638.121-5.638Z" transform="translate(-39.057 -76.085)" fill="#f9d7aa"/>
      <path id="Path_675364" data-name="Path 675364" d="M184.157,263.163a.9.9,0,0,1,.2-1.048.319.319,0,0,0-.03-.473,2.342,2.342,0,0,1-.409-.46c-.115-.154-.2-.166-.383-.077a2.4,2.4,0,0,1-1.426-.088v0h0v0a2.392,2.392,0,0,1-1.426.088c-.179-.09-.268-.077-.383.077a2.342,2.342,0,0,1-.409.46.319.319,0,0,0-.03.473.9.9,0,0,1,.2,1.048,5.313,5.313,0,0,0-.754,2.326,1.277,1.277,0,0,0,1.074,1.287c.806.263,1.413.281,1.727.6v0h0v0c.315-.32.921-.338,1.727-.6a1.278,1.278,0,0,0,1.074-1.287A5.328,5.328,0,0,0,184.157,263.163Z" transform="translate(-129.425 -188.407)" fill="#f6c505"/>
      <path id="Path_675365" data-name="Path 675365" d="M61.072,269.682l.005.005c.618,0,4.067-.724,5.96-1.132v-1.417a.925.925,0,0,0-.925-.925H56.043a.925.925,0,0,0-.925.925v1.419c1.894.408,5.331,1.129,5.949,1.129Z" transform="translate(-39.786 -192.159)" fill="#2b3d68"/>
      <circle id="Ellipse_5405" data-name="Ellipse 5405" cx="0.809" cy="0.809" r="0.809" transform="translate(20.483 74.773)" fill="#f6c505"/>
      <path id="Path_675366" data-name="Path 675366" d="M100.127,62.8q.009-.269.009-.539c0-11.159,3.2-23.75-16.27-23.935l-.436,0s-.346,0-.436,0c-19.47.185-16.27,12.776-16.27,23.935q0,.269.009.539c.006.179,1.463,7.961,2.669,10.037s6.866,11.909,13.637,11.909c.006-.006.788-.007.8,0,6.771,0,12.68-10.3,13.886-12.376s2.419-9.57,2.419-9.57h-.012Z" transform="translate(-48.022 -27.661)" fill="#f9d7aa"/>
      <path id="Path_675367" data-name="Path 675367" d="M118.394,22.058c1.66-1.252,5.077-4.173,10.114-.7,3.229,2.364,7.394,2.782,9.484,6.815s1.812,5.7.838,7.789-.259,2.767.927,3.385c1.515.788,1.212,3.894-.878,4.757-.918-.277-1.176-.666-1.818-.324a8.347,8.347,0,0,0-.874,1.872c-.186.278-1.144.278-1.013-.464a3.747,3.747,0,0,0-1.491-3.663c-1.576-1.067-2.094-2.562-1.07-4.228,1.227-2-2.5-12.138-14.647-8.522-1.043-1.391-1.182-4.984-1.182-4.984Z" transform="translate(-84.298 -14.232)" fill="#240703"/>
      <path id="Path_675368" data-name="Path 675368" d="M76.161,16.233c-.7-.881-3.3-3.835-8.86-2.815s-7.047,4.451-7.7,6.212c-.649,1.391-3.4,2.04-4.994,2.967s-2.053,3.8-1.218,5.842,2.358,5.921,1.111,5.921c-1.207,0-2.3,3.813-.574,5.788.65-.327,1.944-1.926,2.5,1.273.07.556.978.487,1.184,0a4.162,4.162,0,0,0,.019-2.8c-.417-1.094-.577-5.967,3.317-8.054s10.2-.331,15.394-7.5c.114-2.512-.182-6.836-.182-6.836Z" transform="translate(-38.245 -9.532)" fill="#240703"/>
      <g id="Group_988587" data-name="Group 988587" transform="translate(8.486 0.001)">
        <path id="Path_675369" data-name="Path 675369" d="M83.547,18.054a34.369,34.369,0,0,1-3.644-6.1c-1.126-2.451-1.888-5.035-2.617-5.7s-6.758-1.656-9.507-2.584S58.882.137,57.353,0h0c-1.528.135-7.678,2.749-10.426,3.677S38.147,5.6,37.418,6.262s-1.491,3.246-2.617,5.7a34.368,34.368,0,0,1-3.644,6.1c-1.159,1.557-.53,2.517.033,3.015s7.122,6.128,8.447,6.393c1.722.2,17.7.729,17.7.729h.022s15.981-.53,17.7-.729c1.325-.265,7.884-5.9,8.447-6.393s1.193-1.458.033-3.015Z" transform="translate(-30.505 -0.001)" fill="#1b2d54"/>
        <path id="Path_675370" data-name="Path 675370" d="M98.1,67.188c-.177-.725-6.547-6.908-17.052-6.29C70.542,60.28,64.172,66.463,64,67.188l-.663,3.206,3,1.722,14.709-1.193,0-.007,0,.007L95.76,72.116l3-1.722Z" transform="translate(-54.201 -43.926)" fill="#2b3d68"/>
        <path id="Path_675371" data-name="Path 675371" d="M116.9,27.023a1.743,1.743,0,0,1,.388-2.029.617.617,0,0,0-.058-.915,4.528,4.528,0,0,1-.792-.891c-.223-.3-.4-.321-.742-.148a4.636,4.636,0,0,1-2.76-.17v0h-.006v0a4.636,4.636,0,0,1-2.76.17c-.346-.173-.52-.149-.742.148a4.536,4.536,0,0,1-.792.891.617.617,0,0,0-.058.915,1.743,1.743,0,0,1,.387,2.029c-.454,1.031-1.526,2.7-1.46,4.5a2.473,2.473,0,0,0,2.078,2.49c1.56.509,2.734.544,3.343,1.163l0,.008,0,0,0,0,0-.008c.609-.619,1.784-.654,3.343-1.163a2.473,2.473,0,0,0,2.078-2.49C118.428,29.728,117.356,28.054,116.9,27.023Z" transform="translate(-86.085 -16.506)" fill="#f6c505"/>
        <path id="Path_675372" data-name="Path 675372" d="M92.535,89.787c-4.638-1.06-11.476-.221-11.476-.221s-6.861-.839-11.5.221-5.874,1.9-6.228,2.5c0,0,2.679,5.322,17.7,5.146l.011-.03.011.03c15.024.177,17.7-5.146,17.7-5.146C98.41,91.686,97.173,90.847,92.535,89.787Z" transform="translate(-54.201 -64.424)" fill="#1d1d1d"/>
        <path id="Path_675373" data-name="Path 675373" d="M81.059,83.715l-.011.007-.011-.007s-9.356-.927-17.7,3.114V88.22s5.594-2.716,17.7-2.716l.011-.01.011.01c12.109,0,17.7,2.716,17.7,2.716V86.829C90.415,82.787,81.059,83.715,81.059,83.715Z" transform="translate(-54.201 -60.362)" fill="#111"/>
      </g>
      <g id="Group_988588" data-name="Group 988588" transform="translate(31.495 68.026)">
        <path id="Path_675374" data-name="Path 675374" d="M118.608,245.3l-1.48-.755-1.58.755-2.328,12.4,1.058,2.293c.912.008,3.923.03,5.936-.008l.832-2.257Z" transform="translate(-113.22 -244.542)" fill="#1d1d1d"/>
      </g>
      <path id="Path_675375" data-name="Path 675375" d="M118.4,228.755h-.14c-.935,0-3.553.594-3.366,3.243a6.127,6.127,0,0,0,3.366,2.923.086.086,0,0,1,.14,0A6.127,6.127,0,0,0,121.764,232C121.951,229.349,119.333,228.755,118.4,228.755Z" transform="translate(-82.925 -165.121)" fill="#111"/>
      <g id="Group_988589" data-name="Group 988589" transform="translate(21.799 57.085)">
        <path id="Path_675376" data-name="Path 675376" d="M83.308,205.21s1.757,4.277,8.686,6.549a64.347,64.347,0,0,1-3.79,5.889c-.407.556-1.114,1.676-2.293.93s-5.943-7.219-7.546-10.38C79.63,207.35,81.588,206.3,83.308,205.21Z" transform="translate(-78.365 -205.21)" fill="#2b3d68"/>
        <path id="Path_675377" data-name="Path 675377" d="M136.047,205.21s-1.757,4.277-8.686,6.549a64.347,64.347,0,0,0,3.79,5.889c.407.556,1.114,1.676,2.293.93s5.943-7.219,7.546-10.38C139.725,207.35,137.767,206.3,136.047,205.21Z" transform="translate(-113.732 -205.21)" fill="#2b3d68"/>
      </g>
    </g>
    <g id="reportar" transform="translate(1246.891 7360.864)">
      <path id="XMLID_2123_" d="M70,10H96.52V45.074H70Z" transform="translate(-9.287 -9.287)" fill="#fff"/>
      <path id="XMLID_2082_" d="M151.719,13.992H137.39A1.39,1.39,0,0,1,136,12.6V10h17.109v2.6A1.39,1.39,0,0,1,151.719,13.992Z" transform="translate(-70.582 -9.287)" fill="#79b2ff"/>
      <path id="XMLID_1192_" d="M206.361,113.99h0a1.846,1.846,0,0,0,2.347,0l1.1,1.1-.468.644a1.2,1.2,0,0,0,.039,1.466l.128.158a2.983,2.983,0,0,1-.865,4.485l-2.279,1.27-2.279-1.27a2.983,2.983,0,0,1-.865-4.485l.128-.158a1.2,1.2,0,0,0,.039-1.466l-.468-.644,1.1-1.1a1.846,1.846,0,0,0,2.347,0h0Z" transform="translate(-132.391 -105.864)" fill="#ffcb7c"/>
      <path id="XMLID_743_" d="M87.232,0H60.713A.713.713,0,0,0,60,.713V35.787a.713.713,0,0,0,.713.713h26.52a.713.713,0,0,0,.713-.713V.713A.713.713,0,0,0,87.232,0ZM86.52,35.074H61.426V1.426h3.279V3.315a2.105,2.105,0,0,0,2.1,2.1h3.966a.713.713,0,0,0,0-1.426H66.808a.678.678,0,0,1-.677-.677V1.426H81.814V3.315a.678.678,0,0,1-.677.677H77.19a.713.713,0,0,0,0,1.426h3.947a2.105,2.105,0,0,0,2.1-2.1V1.426H86.52Z"/>
      <path id="XMLID_744_" d="M132.713,280a.713.713,0,1,0,.5.209A.718.718,0,0,0,132.713,280Z" transform="translate(-66.867 -260.039)"/>
      <path id="XMLID_1067_" d="M132.713,328.01a.713.713,0,1,0,.5.209A.718.718,0,0,0,132.713,328.01Z" transform="translate(-66.867 -304.626)"/>
      <path id="XMLID_1080_" d="M132.713,376.02a.713.713,0,1,0,.5.209A.718.718,0,0,0,132.713,376.02Z" transform="translate(-66.867 -349.214)"/>
      <path id="XMLID_1082_" d="M132.713,424.03a.713.713,0,1,0,.5.209A.718.718,0,0,0,132.713,424.03Z" transform="translate(-66.867 -393.801)"/>
      <path id="XMLID_1119_" d="M186.424,280H173.046a.713.713,0,0,0,0,1.426h13.379a.713.713,0,0,0,0-1.426Z" transform="translate(-104.325 -260.039)"/>
      <path id="XMLID_1120_" d="M186.424,328.01H173.046a.713.713,0,0,0,0,1.426h13.379a.713.713,0,0,0,0-1.426Z" transform="translate(-104.325 -304.626)"/>
      <path id="XMLID_1121_" d="M186.424,376.02H173.046a.713.713,0,0,0,0,1.426h13.379a.713.713,0,0,0,0-1.426Z" transform="translate(-104.325 -349.214)"/>
      <path id="XMLID_1122_" d="M186.424,424.03H173.046a.713.713,0,0,0,0,1.426h13.379a.713.713,0,0,0,0-1.426Z" transform="translate(-104.325 -393.801)"/>
      <path id="XMLID_1161_" d="M246.843,57.426a.713.713,0,1,0-.5-.209A.718.718,0,0,0,246.843,57.426Z" transform="translate(-172.861 -52.008)"/>
      <path id="XMLID_1193_" d="M193.377,107.625a3.7,3.7,0,0,0,1.072,5.556l2.279,1.27a.713.713,0,0,0,.694,0l2.279-1.27a3.7,3.7,0,0,0,1.072-5.556l-.128-.158a.491.491,0,0,1-.016-.6l.468-.644a.713.713,0,0,0-.073-.923l-1.1-1.1a.713.713,0,0,0-.991-.016,1.086,1.086,0,0,1-1.393-.024.71.71,0,0,0-.465-.172h-.006a.709.709,0,0,0-.458.168,1.088,1.088,0,0,1-1.4.028.713.713,0,0,0-.991.016l-1.1,1.1a.713.713,0,0,0-.073.923l.468.644a.491.491,0,0,1-.016.6Zm1.108.9.128-.158a1.917,1.917,0,0,0,.062-2.334l-.11-.152.248-.248a2.494,2.494,0,0,0,2.263-.089,2.494,2.494,0,0,0,2.263.089l.248.248-.11.152a1.917,1.917,0,0,0,.062,2.333l.128.158a2.27,2.27,0,0,1-.658,3.413l-1.932,1.077-1.932-1.077a2.27,2.27,0,0,1-.658-3.413Z" transform="translate(-123.102 -96.578)"/>
    </g>
  </g>
</svg>
