<svg xmlns="http://www.w3.org/2000/svg" width="76.683" height="84.856" viewBox="0 0 76.683 84.856">
  <g id="_19" data-name="19" transform="translate(-32.667 -16.776)">
    <g id="policia_2_" data-name="policia (2)" transform="translate(46.044 16.776)">
      <path id="Path_675403" data-name="Path 675403" d="M194.321,276.308l7.711-7.243-3.062-.569a3.65,3.65,0,0,1-2.541-3.518v-6.717h-14.32v6.717a3.65,3.65,0,0,1-2.541,3.518l-3.062.569,7.711,7.243A7.378,7.378,0,0,0,194.321,276.308Z" transform="translate(-157.617 -216.797)" fill="#ffe7cf"/>
      <path id="Path_675404" data-name="Path 675404" d="M259.666,258.262V267.8a3.65,3.65,0,0,0,2.541,3.518l6.039,1.12,3.594-3.376-3.062-.569a3.65,3.65,0,0,1-2.541-3.518v-6.717Z" transform="translate(-227.425 -216.798)" fill="#f4d3a6"/>
      <path id="Path_675405" data-name="Path 675405" d="M249.97,466.718Z" transform="translate(-219.286 -391.786)" fill="#ededed"/>
      <path id="Path_675406" data-name="Path 675406" d="M118.014,318.789l-10.885-2.022a1.455,1.455,0,0,0-1.137.265L96.8,323.9l-9.19-6.869a1.455,1.455,0,0,0-1.137-.265l-10.885,2.022a12.87,12.87,0,0,0-9.235,12.346v13.047a2.7,2.7,0,0,0,2.7,2.7h55.488a2.7,2.7,0,0,0,2.7-2.7V331.136A12.871,12.871,0,0,0,118.014,318.789Z" transform="translate(-65.148 -265.889)" fill="#2d5872"/>
      <g id="Group_988599" data-name="Group 988599" transform="translate(18.201 50.853)">
        <path id="Path_675407" data-name="Path 675407" d="M300.029,318.789l-10.885-2.022a1.455,1.455,0,0,0-1.137.265l-4.826,3.607,10.359,1.924c5.476,1.612,9.235,3.125,9.235,8.833v15.49h3.786a2.7,2.7,0,0,0,2.7-2.7V331.136A12.871,12.871,0,0,0,300.029,318.789Z" transform="translate(-265.365 -316.743)" fill="#1d4559"/>
        <path id="Path_675408" data-name="Path 675408" d="M172.219,317.347l5.957,8.336a1.647,1.647,0,0,0,1.984.558l5.51-2.341-9.19-6.869a1.456,1.456,0,0,0-1.137-.265Z" transform="translate(-172.219 -316.743)" fill="#1d4559"/>
        <path id="Path_675409" data-name="Path 675409" d="M269.45,317.347l-5.957,8.336a1.647,1.647,0,0,1-1.984.558L256,323.9l9.19-6.869a1.456,1.456,0,0,1,1.137-.265Z" transform="translate(-242.548 -316.743)" fill="#1d4559"/>
      </g>
      <path id="Path_675410" data-name="Path 675410" d="M146.656,7.5c-11.55,0-20.913,7.99-20.913,12.505s9.363,7.741,20.913,7.741,20.913-3.226,20.913-7.741S158.206,7.5,146.656,7.5Z" transform="translate(-115.004 -6.298)" fill="#2d5872"/>
      <path id="Path_675411" data-name="Path 675411" d="M238.755,7.5a25.433,25.433,0,0,0-3.3.217c9.983,1.3,17.615,8.212,17.615,12.289s-7.632,7.1-17.615,7.652c1.074.059,2.176.09,3.3.09,11.55,0,20.913-3.226,20.913-7.741S250.3,7.5,238.755,7.5Z" transform="translate(-207.103 -6.298)" fill="#1d4559"/>
      <path id="Path_675412" data-name="Path 675412" d="M179.52,84.6h-.954V80.8a13.051,13.051,0,0,0-4.419-9.916c-2.247-1.935-16.911-1.935-19.159,0a13.051,13.051,0,0,0-4.419,9.916v3.8h-.954a2.534,2.534,0,0,0-2.534,2.534v2.808a2.534,2.534,0,0,0,2.534,2.534h.958a13.025,13.025,0,0,0,4.416,9.62,14.335,14.335,0,0,0,19.159,0,13.025,13.025,0,0,0,4.416-9.62h.958a2.534,2.534,0,0,0,2.534-2.534V87.131A2.533,2.533,0,0,0,179.52,84.6Z" transform="translate(-132.915 -58.282)" fill="#ffe7cf"/>
      <path id="Path_675413" data-name="Path 675413" d="M254.053,84.6H253.1V80.8a13.051,13.051,0,0,0-4.419-9.916c-1.415-1.218-7.751-1.669-12.811-1.354,2.978.186,5.515.637,6.347,1.354a13.051,13.051,0,0,1,4.419,9.916v2.679l0,9a13.025,13.025,0,0,1-4.416,9.62,14.92,14.92,0,0,1-6.347,3.284,14.842,14.842,0,0,0,3.232.387,14.673,14.673,0,0,0,9.579-3.671,13.025,13.025,0,0,0,4.416-9.62h.958a2.534,2.534,0,0,0,2.534-2.534V87.132A2.533,2.533,0,0,0,254.053,84.6Z" transform="translate(-207.448 -58.284)" fill="#f4d3a6"/>
      <path id="Path_675414" data-name="Path 675414" d="M155.585,90.159v8.723A5.369,5.369,0,0,1,159.1,100.2a.455.455,0,0,0,.774-.327v-6.46h23.661v6.46a.455.455,0,0,0,.774.327,5.369,5.369,0,0,1,3.517-1.313V90.159C187.828,84.756,155.585,84.756,155.585,90.159Z" transform="translate(-140.054 -72.282)" fill="#ff6d3a"/>
      <path id="Path_675415" data-name="Path 675415" d="M171.707,123.336c-8.9,0-16.122-2.764-16.122-6.173h32.243C187.828,120.572,180.61,123.336,171.707,123.336Z" transform="translate(-140.054 -98.352)" fill="#2d5872"/>
      <path id="Path_675416" data-name="Path 675416" d="M155.585,66.986v4.285h32.243v-4.24a2.516,2.516,0,0,0-1.894-2.438,64.631,64.631,0,0,0-14.983-2.1,52.422,52.422,0,0,0-13.531,2.07A2.516,2.516,0,0,0,155.585,66.986Z" transform="translate(-140.054 -52.461)" fill="#1d4559"/>
      <g id="Group_988600" data-name="Group 988600" transform="translate(27.32 58.012)">
        <path id="Path_675417" data-name="Path 675417" d="M233.346,361.332l-4.332,1.84,2.533,2.944h3.6l2.533-2.944Z" transform="translate(-229.014 -361.332)" fill="#282c3a"/>
        <path id="Path_675418" data-name="Path 675418" d="M235.146,391.134h-3.6l-2.533,18.2h8.665Z" transform="translate(-229.014 -386.349)" fill="#282c3a"/>
      </g>
      <g id="Group_988601" data-name="Group 988601" transform="translate(14.448 70.026)">
        <path id="Path_675419" data-name="Path 675419" d="M321.251,441.069h-6.343a.763.763,0,0,1-.763-.763v-3.379a.763.763,0,0,1,.763-.763h6.343a.763.763,0,0,1,.763.763v3.379A.763.763,0,0,1,321.251,441.069Z" transform="translate(-287.605 -436.163)" fill="#1d4559"/>
        <path id="Path_675420" data-name="Path 675420" d="M155.946,441.069H149.6a.763.763,0,0,1-.763-.763v-3.379a.763.763,0,0,1,.763-.763h6.343a.763.763,0,0,1,.763.763v3.379A.763.763,0,0,1,155.946,441.069Z" transform="translate(-148.84 -436.163)" fill="#1d4559"/>
      </g>
      <path id="Path_675421" data-name="Path 675421" d="M74.993,344.18a2.767,2.767,0,0,0,3.89-.417l1.311-1.626a2.767,2.767,0,0,0-.417-3.89l-.94-.758a12.883,12.883,0,0,0-5.107,5.672Z" transform="translate(-71.341 -283.305)" fill="#ffbf14"/>
      <path id="Path_675422" data-name="Path 675422" d="M401.264,343.161a12.883,12.883,0,0,0-5.107-5.672l-.94.758a2.767,2.767,0,0,0-.417,3.89l1.311,1.626a2.767,2.767,0,0,0,3.89.417Z" transform="translate(-340.348 -283.305)" fill="#eaa200"/>
      <path id="Path_675423" data-name="Path 675423" d="M120.124,57.966l-.028-.047q-.1-.169-.212-.336-.06-.092-.121-.183-.074-.111-.151-.22-.1-.142-.2-.281c-.02-.028-.039-.056-.06-.083l-.045-.057q-.123-.164-.251-.323l-.089-.111c-.085-.1-.172-.206-.26-.307l-.11-.127c-.073-.083-.148-.163-.223-.244-.056-.06-.112-.121-.169-.18s-.087-.087-.13-.131a13.958,13.958,0,0,0-6.018-3.591,1.182,1.182,0,0,0-.12-.029L101.05,49.693h0c-.019,0-.039,0-.058-.008a2.667,2.667,0,0,0-1.5.19,2.806,2.806,0,0,1-.629-1.695V46.21a17.469,17.469,0,0,0,2-1.488,14.141,14.141,0,0,0,4.763-9.332,3.743,3.743,0,0,0,3.563-3.734V28.848a3.722,3.722,0,0,0-1.365-2.887V19.506c3.936-1.94,4.791-4.2,4.791-5.8,0-2.738-2.55-6.165-6.654-8.943a27.464,27.464,0,0,0-30.925,0c-4.1,2.779-6.654,6.205-6.654,8.943,0,1.6.855,3.857,4.791,5.8v6.454a3.723,3.723,0,0,0-1.365,2.887v2.808a3.743,3.743,0,0,0,3.563,3.734,14.14,14.14,0,0,0,4.763,9.332,17.47,17.47,0,0,0,2,1.488v1.971a2.806,2.806,0,0,1-.629,1.695,2.663,2.663,0,0,0-1.554-.182h0L69.07,51.715a1.18,1.18,0,0,0-.12.029,13.958,13.958,0,0,0-6.016,3.588c-.044.045-.089.089-.133.134s-.111.118-.166.178c-.076.082-.152.163-.226.246l-.108.125q-.132.152-.261.308l-.089.111q-.128.16-.252.323l-.045.057c-.021.027-.039.056-.06.083q-.1.139-.2.281-.077.11-.151.22-.061.091-.12.183-.109.167-.213.336l-.028.047a13.955,13.955,0,0,0-2.031,7.28v1.468a1.2,1.2,0,0,0,2.409,0V65.246a11.66,11.66,0,0,1,.509-3.417,3.94,3.94,0,0,0,2.463.864,4.011,4.011,0,0,0,.431-.023,3.945,3.945,0,0,0,2.668-1.456l1.311-1.626a3.971,3.971,0,0,0-.131-5.139c.346-.141.7-.268,1.062-.376l6.946-1.29,5.511,7.712a2.835,2.835,0,0,0,2.311,1.2,2.871,2.871,0,0,0,1.124-.23l.367-.156,1.6,1.865L85.122,79.793H69.986V70.026a1.2,1.2,0,1,0-2.409,0v9.767H62.759a1.5,1.5,0,0,1-1.5-1.5V72.319a1.2,1.2,0,0,0-2.409,0v5.975A3.913,3.913,0,0,0,62.759,82.2h55.488a3.913,3.913,0,0,0,3.909-3.909V65.246A13.959,13.959,0,0,0,120.124,57.966Zm-53.359.111L65.455,59.7a1.562,1.562,0,0,1-2.2.236l-.5-.405q.162-.289.339-.566l0-.006c.1-.159.208-.313.316-.466l.1-.138q.145-.2.3-.39l.079-.1q.173-.212.355-.414l.108-.118c.12-.131.243-.259.369-.384l.032-.033a11.637,11.637,0,0,1,1.511-1.251l.264.213a1.561,1.561,0,0,1,.235,2.2Zm47.709-2.2.264-.213a11.627,11.627,0,0,1,1.511,1.251l.032.033c.126.125.249.254.369.384l.108.118q.182.2.355.414l.079.1q.153.192.3.39c.034.046.066.092.1.138.108.153.215.308.316.466l0,.006q.177.278.339.566l-.5.405a1.562,1.562,0,0,1-2.2-.236l-1.311-1.626A1.563,1.563,0,0,1,114.475,55.88Zm-14.061-3.772h0a.254.254,0,0,1,.2-.046l1.263.235-4.857,6.8a.44.44,0,0,1-.533.15L92.9,57.723h0Zm-9.911,4.4-7.019-5.246a5.173,5.173,0,0,0,1.063-3.081v-.705a15.7,15.7,0,0,0,5.942,1.209h.027a15.71,15.71,0,0,0,5.942-1.209v.705a5.173,5.173,0,0,0,1.063,3.081Zm2.345,3.809-1.1,1.276H89.255l-1.1-1.276,2.344-1ZM73.176,16.761c-1.548-.954-2.382-2.008-2.382-3.051,0-2.171,2.9-5.124,5.6-6.948a25.056,25.056,0,0,1,28.224,0c2.7,1.824,5.6,4.777,5.6,6.948,0,1.042-.834,2.1-2.382,3.051V14.57a3.719,3.719,0,0,0-2.8-3.6,65.7,65.7,0,0,0-15.28-2.136h-.015a53.232,53.232,0,0,0-13.842,2.115,3.734,3.734,0,0,0-2.714,3.582v2.235Zm29.013,3.255h2.666l-.006.007-.062.065c-.043.045-.087.091-.134.136-.03.028-.061.057-.092.085s-.084.076-.128.114-.085.071-.13.106l-.113.089q-.084.064-.174.128l-.088.062c-.073.05-.148.1-.226.151l-.051.032a11.889,11.889,0,0,1-1.779.9c-.014.006-.027.014-.041.021A30.606,30.606,0,0,1,90.5,23.779a30.606,30.606,0,0,1-11.329-1.868c-.014-.006-.027-.015-.041-.021a11.888,11.888,0,0,1-1.779-.9l-.051-.032c-.078-.05-.153-.1-.226-.151l-.088-.062q-.09-.064-.174-.128l-.113-.089c-.044-.035-.088-.071-.13-.106s-.087-.076-.128-.114-.063-.057-.092-.085c-.047-.046-.091-.091-.134-.136l-.062-.065-.006-.007H96.372a1.2,1.2,0,1,0,0-2.409H75.585V14.525a1.316,1.316,0,0,1,.957-1.263,50.8,50.8,0,0,1,13.191-2.025h.014A63.242,63.242,0,0,1,104.432,13.3a1.311,1.311,0,0,1,.987,1.271v3.036h-3.23a1.2,1.2,0,1,0,0,2.409Zm3.23,2.694v2.8a6.685,6.685,0,0,0-1.882.627V23.788A12.178,12.178,0,0,0,105.419,22.709ZM77.467,23.788v2.347a6.684,6.684,0,0,0-1.882-.627v-2.8A12.182,12.182,0,0,0,77.467,23.788ZM81.709,42.9a11.82,11.82,0,0,1-4-8.733,1.2,1.2,0,0,0-1.2-1.179h-.958a1.331,1.331,0,0,1-1.329-1.329V28.848a1.323,1.323,0,0,1,.489-1.028,4.372,4.372,0,0,1,1.89.592l.02.013a2.785,2.785,0,0,1,.276.2l.031.026c.043.037.085.075.126.116s.073.068.111.1l.034.027q.043.034.088.065l.035.024c.041.026.082.051.125.074h0c.043.023.087.043.132.061l.037.015c.034.013.068.025.1.036l.039.012c.045.013.091.025.137.034h0c.048.009.1.016.144.021l.039,0q.055,0,.11.005h.041c.047,0,.095,0,.142-.007h0c.049,0,.1-.012.146-.022l.041-.009q.054-.012.108-.027l.042-.012c.048-.015.095-.031.141-.051a1.658,1.658,0,0,0,1.022-1.533V24.706A36.645,36.645,0,0,0,90.5,26.188a36.646,36.646,0,0,0,10.626-1.482v2.881a1.658,1.658,0,0,0,1.022,1.533c.047.02.094.036.142.051l.04.012c.037.01.073.02.11.028l.039.008a1.635,1.635,0,0,0,.294.029h.038c.038,0,.075,0,.113-.005l.037,0a1.638,1.638,0,0,0,.285-.056l.038-.012c.035-.011.07-.023.1-.037l.037-.015c.045-.019.089-.039.132-.061h0c.042-.022.084-.047.124-.073l.036-.024q.045-.031.088-.064l.034-.027c.038-.032.076-.064.111-.1s.083-.078.125-.115l.034-.029c.039-.033.079-.065.12-.1l.011-.009c.044-.033.089-.063.135-.093l.037-.024c.041-.026.082-.05.123-.074l.018-.01q.071-.039.142-.074l.036-.017c.043-.021.086-.04.128-.059l.018-.008c.049-.021.1-.041.148-.06l.026-.01q.07-.026.14-.049l.008,0q.078-.026.155-.048l.006,0a5.06,5.06,0,0,1,.932-.172,1.323,1.323,0,0,1,.489,1.028v2.808a1.331,1.331,0,0,1-1.329,1.329H104.5a1.2,1.2,0,0,0-1.2,1.179,11.82,11.82,0,0,1-4,8.733,13.133,13.133,0,0,1-17.588,0ZM88.1,57.723h0l-3.581,1.521a.441.441,0,0,1-.533-.15l-4.857-6.8,1.263-.235a.253.253,0,0,1,.2.046h0L88.1,57.723Zm-.549,22.07L89.751,64h1.5l2.2,15.791Zm32.192-1.5a1.5,1.5,0,0,1-1.5,1.5h-4.818V70.026a1.2,1.2,0,0,0-2.409,0v9.767H95.884L93.57,63.17l1.6-1.865.367.156a2.87,2.87,0,0,0,1.124.23,2.835,2.835,0,0,0,2.311-1.2l5.511-7.712,6.946,1.29c.362.109.716.236,1.062.376a3.977,3.977,0,0,0-.131,5.139l1.311,1.626a3.945,3.945,0,0,0,2.668,1.456,4.014,4.014,0,0,0,.431.023,3.941,3.941,0,0,0,2.463-.864,11.661,11.661,0,0,1,.509,3.417V78.293h0Z" transform="translate(-58.85)"/>
      <path id="Path_675424" data-name="Path 675424" d="M314.953,428.66H308.61a1.97,1.97,0,0,0-1.968,1.968v3.379a1.97,1.97,0,0,0,1.968,1.968h6.343a1.97,1.97,0,0,0,1.968-1.968v-3.379A1.97,1.97,0,0,0,314.953,428.66Zm-.441,4.906h-5.46v-2.5h5.46v2.5Z" transform="translate(-266.859 -359.838)"/>
      <path id="Path_675425" data-name="Path 675425" d="M149.649,435.974a1.97,1.97,0,0,0,1.968-1.968v-3.379a1.97,1.97,0,0,0-1.968-1.968h-6.343a1.97,1.97,0,0,0-1.968,1.968v3.379a1.97,1.97,0,0,0,1.968,1.968Zm-5.9-4.906h5.46v2.5h-5.46Z" transform="translate(-128.094 -359.838)"/>
    </g>
    <g id="Group_988590" data-name="Group 988590" transform="translate(32.667 70.917)">
      <g id="camara-de-fotos">
        <path id="Path_675378" data-name="Path 675378" d="M39.694,128.5,37.5,132.888h4.388V128.5Z" transform="translate(-34.758 -122.467)" fill="#8db3cf"/>
        <path id="Path_675379" data-name="Path 675379" d="M22.5,128.5h3.291v4.388H22.5Z" transform="translate(-20.855 -122.467)" fill="#a6cfe7"/>
        <path id="Path_675380" data-name="Path 675380" d="M444.5,353.5v7.679h2.194a2.194,2.194,0,0,0,2.194-2.194v-1.1Z" transform="translate(-411.993 -331.012)" fill="#2d3e53"/>
        <path id="Path_675381" data-name="Path 675381" d="M7.5,357.888v1.1a2.194,2.194,0,0,0,2.194,2.194H39.459a2.194,2.194,0,0,0,2.194-2.194V353.5H8.231Z" transform="translate(-6.952 -331.012)" fill="#435d7a"/>
        <path id="Path_675382" data-name="Path 675382" d="M421.082,158.5h-2.194l-4.388,9.324,4.388,9.324h2.194Z" transform="translate(-384.187 -150.273)" fill="#16202d"/>
        <path id="Path_675383" data-name="Path 675383" d="M7.5,158.5H41.653v18.649H7.5Z" transform="translate(-6.952 -150.273)" fill="#2d3e53"/>
        <path id="Path_675384" data-name="Path 675384" d="M10.889,407.1H.548a.548.548,0,0,1,0-1.1h10.34a.548.548,0,0,1,0,1.1Z" transform="translate(0 -379.673)"/>
        <path id="Path_675385" data-name="Path 675385" d="M366.5,407.1h-10.34a.548.548,0,1,1,0-1.1H366.5a.548.548,0,1,1,0,1.1Z" transform="translate(-329.601 -379.673)"/>
        <path id="Path_675386" data-name="Path 675386" d="M169.918,55.084A2.194,2.194,0,0,0,167.81,53.5h-8.776a2.194,2.194,0,0,0-2.108,1.584l-.809,2.8,7.3,4.388,7.3-4.388Z" transform="translate(-144.701 -52.952)" fill="#2d3e53"/>
        <path id="Path_675387" data-name="Path 675387" d="M132.945,124.713,129.709,113.5H115.1l-3.236,11.213Z" transform="translate(-103.682 -108.564)" fill="#435d7a"/>
        <path id="Path_675388" data-name="Path 675388" d="M34.7,174.037H2.742A2.746,2.746,0,0,1,0,171.294V151.548A.548.548,0,0,1,.548,151h9.919a.548.548,0,0,1,0,1.1H1.1v19.2a1.647,1.647,0,0,0,1.645,1.645H34.7a1.647,1.647,0,0,0,1.645-1.645V152.1h-9.37a.548.548,0,0,1,0-1.1H36.9a.548.548,0,0,1,.548.548v19.746A2.746,2.746,0,0,1,34.7,174.037Z" transform="translate(0 -143.321)"/>
        <path id="Path_675389" data-name="Path 675389" d="M163.776,107.1H149.166a.548.548,0,0,1,0-1.1h14.609a.548.548,0,0,1,0,1.1Z" transform="translate(-137.749 -101.612)"/>
        <path id="Path_675390" data-name="Path 675390" d="M104.91,62.7a.549.549,0,0,1-.527-.7l4.046-14.017A2.755,2.755,0,0,1,111.063,46h8.776a2.755,2.755,0,0,1,2.635,1.981L126.518,62a.548.548,0,1,1-1.054.3l-4.046-14.017a1.652,1.652,0,0,0-1.581-1.188h-8.776a1.652,1.652,0,0,0-1.581,1.188L105.436,62.3A.549.549,0,0,1,104.91,62.7Z" transform="translate(-96.729 -46)"/>
        <path id="Path_675391" data-name="Path 675391" d="M331.179,286H323.5v3.291h7.679a1.645,1.645,0,1,0,0-3.291Z" transform="translate(-299.842 -268.448)" fill="#bfebff"/>
        <path id="Path_675392" data-name="Path 675392" d="M399.137,282.888h-1.768a.548.548,0,1,1,0-1.1h1.768a1.1,1.1,0,0,0,0-2.194h-1.768a.548.548,0,1,1,0-1.1h1.768a2.194,2.194,0,0,1,0,4.388Z" transform="translate(-367.8 -261.497)"/>
        <path id="Path_675393" data-name="Path 675393" d="M256,158.5v21.94a10.97,10.97,0,0,0,0-21.94Z" transform="translate(-237.278 -150.273)" fill="#a6cfe7"/>
        <path id="Path_675394" data-name="Path 675394" d="M125.746,169.47c0-6.058-3.929-10.97-8.776-10.97a10.97,10.97,0,1,0,0,21.94C121.817,180.44,125.746,175.528,125.746,169.47Z" transform="translate(-98.248 -150.273)" fill="#bfebff"/>
        <path id="Path_675395" data-name="Path 675395" d="M110.018,174.037a11.518,11.518,0,1,1,11.518-11.518A11.531,11.531,0,0,1,110.018,174.037Zm0-21.94a10.421,10.421,0,1,0,10.421,10.421A10.433,10.433,0,0,0,110.018,152.1Z" transform="translate(-91.297 -143.321)"/>
        <path id="Path_675396" data-name="Path 675396" d="M256,218.5v13.164a6.582,6.582,0,1,0,0-13.164Z" transform="translate(-237.278 -205.885)" fill="#2d3e53"/>
        <path id="Path_675397" data-name="Path 675397" d="M176.97,225.082c0-3.635-1.965-6.582-4.388-6.582a6.582,6.582,0,0,0,0,13.164C175.005,231.664,176.97,228.717,176.97,225.082Z" transform="translate(-153.86 -205.885)" fill="#435d7a"/>
        <path id="Path_675398" data-name="Path 675398" d="M165.63,225.261a7.13,7.13,0,1,1,7.13-7.13A7.138,7.138,0,0,1,165.63,225.261Zm0-13.164a6.033,6.033,0,1,0,6.033,6.033A6.04,6.04,0,0,0,165.63,212.1Z" transform="translate(-146.909 -198.933)"/>
        <path id="Path_675399" data-name="Path 675399" d="M242.1,278.5l-1.1,2.194,1.1,2.194a2.194,2.194,0,1,0,0-4.388Z" transform="translate(-223.375 -261.497)" fill="#16202d"/>
        <path id="Path_675400" data-name="Path 675400" d="M226,280.694a2.194,2.194,0,0,0,2.194,2.194V278.5A2.194,2.194,0,0,0,226,280.694Z" transform="translate(-209.472 -261.497)" fill="#2d3e53"/>
        <path id="Path_675401" data-name="Path 675401" d="M221.242,276.485a2.756,2.756,0,0,1-.71-.093.549.549,0,0,1,.283-1.06,1.645,1.645,0,1,0-1.163-1.163.549.549,0,1,1-1.06.284,2.743,2.743,0,1,1,2.649,2.033Z" transform="translate(-202.521 -254.545)"/>
        <path id="Path_675402" data-name="Path 675402" d="M21.033,124.291a.549.549,0,0,1-.548-.548V122.1H16.1v1.645a.548.548,0,0,1-1.1,0v-2.194a.549.549,0,0,1,.548-.548h5.485a.549.549,0,0,1,.548.548v2.194A.548.548,0,0,1,21.033,124.291Z" transform="translate(-13.903 -115.515)"/>
      </g>
    </g>
  </g>
</svg>
