<svg xmlns="http://www.w3.org/2000/svg" width="68.088" height="83.601" viewBox="0 0 68.088 83.601">
  <g id="_2" data-name="2" transform="translate(-47.502)">
    <g id="Group_980647" data-name="Group 980647" transform="translate(48.726 1.213)">
      <g id="Group_980640" data-name="Group 980640" transform="translate(8.736 30.908)">
        <path id="Path_675296" data-name="Path 675296" d="M155.773,224.729h-4.221l-42.159,0c-.816-3.1-1.342-6.255-.362-9.358s3.429-5.388,5.062-8.164a15.367,15.367,0,0,0,1.311-10.483h34.687a15.367,15.367,0,0,0,1.311,10.483c1.633,2.776,4.082,5.062,5.062,8.164S156.59,221.627,155.773,224.729Z" transform="translate(-108.499 -196.723)" fill="#cc753a"/>
        <path id="Path_675297" data-name="Path 675297" d="M345.883,224.729h-4.221l.305-1.163c.71-2.7,1.324-5.032.714-6.967a15.025,15.025,0,0,0-2.459-4.072,41.889,41.889,0,0,1-2.361-3.5,19.489,19.489,0,0,1-1.837-12.308H340.2a15.367,15.367,0,0,0,1.311,10.483c1.633,2.776,4.082,5.062,5.062,8.164S346.7,221.627,345.883,224.729Z" transform="translate(-298.609 -196.723)" fill="#c6542c"/>
      </g>
      <g id="Group_980645" data-name="Group 980645" transform="translate(0)">
        <g id="Group_980642" data-name="Group 980642" transform="translate(15.522 18.839)">
          <path id="Path_675298" data-name="Path 675298" d="M225.815,298.9l.026.106q-.647.556-1.347,1.122a9.745,9.745,0,0,1-12.267,0q-.74-.6-1.421-1.185a17.164,17.164,0,0,0,.567-4.66,16.911,16.911,0,0,0-.185-2.258l-.382-2.559h15.035l-.389,2.6a16.894,16.894,0,0,0-.186,2.33,17.107,17.107,0,0,0,.549,4.508Z" transform="translate(-200.887 -262.248)" fill="#ffd6ae"/>
          <path id="Path_675299" data-name="Path 675299" d="M225.841,289.46l-.389,2.6a16.892,16.892,0,0,0-.186,2.33q-.365.306-.748.614a9.742,9.742,0,0,1-12.267,0q-.451-.365-.878-.725a16.916,16.916,0,0,0-.185-2.258l-.382-2.559Z" transform="translate(-200.887 -262.248)" fill="#ffb185"/>
          <path id="Path_675300" data-name="Path 675300" d="M201.557,129.338l-13.415-6.531-13.469,6.531a62.072,62.072,0,0,1,.206,10.348c-.028.323-.041.66-.041,1,0,3.167,2.692,6.951,8,11.245a8.38,8.38,0,0,0,10.55,0c5.311-4.3,8-8.081,8-11.249,0-.336-.013-.673-.041-1a62.033,62.033,0,0,1,.207-10.34Z" transform="translate(-170.655 -122.807)" fill="#ffd6ae"/>
          <g id="Group_980641" data-name="Group 980641" transform="translate(0 7.025)">
            <path id="Path_675301" data-name="Path 675301" d="M154.127,173.965a4.067,4.067,0,1,1,0-8.134Z" transform="translate(-150.06 -165.831)" fill="#ffb185"/>
            <path id="Path_675302" data-name="Path 675302" d="M339.019,173.965a4.067,4.067,0,1,0,0-8.134Z" transform="translate(-308.165 -165.831)" fill="#ffb185"/>
          </g>
        </g>
        <g id="Group_980643" data-name="Group 980643" transform="translate(0 55.513)">
          <path id="Path_675303" data-name="Path 675303" d="M117.124,373.06H58.512a3.51,3.51,0,0,1-3.5-3.822l.109-1.225.609-6.811c.031-.343.077-.682.137-1.016a11.538,11.538,0,0,1,8.811-9.209l15.76-3.568,7.54,3.667,7.495-3.6,8.463,1.915,7.018,1.587a11.542,11.542,0,0,1,8.8,9.124c.067.362.119.728.152,1.1l.6,6.7.119,1.332a3.51,3.51,0,0,1-3.5,3.822Z" transform="translate(-54.998 -347.41)" fill="#49525e"/>
          <path id="Path_675304" data-name="Path 675304" d="M371.4,379.4a3.51,3.51,0,0,1-3.5,3.822H363a3.51,3.51,0,0,0,3.5-3.822l-.718-8.034c-.446-4.988-1.989-8.987-11.069-11.812l7.018,1.587a11.539,11.539,0,0,1,8.949,10.225Z" transform="translate(-305.773 -357.568)" fill="#31353a"/>
          <path id="Path_675305" data-name="Path 675305" d="M242.41,372.418l-1.655,4.222h-3.8l-1.613-4.222,3.534-2.549Z" transform="translate(-205.895 -366.202)" fill="#9ca9b7"/>
          <path id="Path_675306" data-name="Path 675306" d="M232.3,426.549H220.329l4.064-15.212h3.8Z" transform="translate(-193.333 -400.899)" fill="#75818e"/>
        </g>
        <path id="Path_675307" data-name="Path 675307" d="M61.3,426.774l-.882,3.8c-.478,2.064-4.531,2.888-4.665,2.916l.609-6.811c.031-.343.077-.683.137-1.016Z" transform="translate(-55.632 -357.37)" fill="#fff24a"/>
        <path id="Path_675308" data-name="Path 675308" d="M428,432.952c-.478-.1-4.162-.944-4.618-2.9l-.88-3.8,4.747-1.1c.067.362.119.728.152,1.1Z" transform="translate(-362.498 -356.944)" fill="#ffbe2c"/>
        <path id="Path_675309" data-name="Path 675309" d="M187.642,127.275c0,4.08-7.4,7.746-16.557,7.746q-1.506,0-2.941-.127c-7.754-.681-13.649-3.986-13.649-7.619a3.975,3.975,0,0,1,.834-2.345h31.577A4.3,4.3,0,0,1,187.642,127.275Z" transform="translate(-138.25 -105.744)" fill="#49525e"/>
        <path id="Path_675310" data-name="Path 675310" d="M257.584,127.275c0,4.08-7.4,7.746-16.557,7.746q-1.506,0-2.941-.127c7.749-.681,13.619-3.986,13.619-7.619a4.3,4.3,0,0,0-.735-2.345h5.878A4.3,4.3,0,0,1,257.584,127.275Z" transform="translate(-208.191 -105.744)" fill="#31353a"/>
        <path id="Path_675311" data-name="Path 675311" d="M167.229,18.84c0,2.975-2.32,5.661-6.092,7.776H129.559c-3.636-2.1-5.863-4.866-5.863-7.776,0-5.589,8.215-10.524,18.851-11.3.162-.011.323-.023.487-.033.8-.051,1.621-.075,2.449-.075,12.021,0,21.746,5.316,21.746,11.41Z" transform="translate(-112.479 -7.43)" fill="#e6f3ff"/>
        <path id="Path_675312" data-name="Path 675312" d="M263.828,18.84c0,2.975-2.32,5.661-6.092,7.776h-5.878c3.772-2.115,6.092-4.8,6.092-7.776,0-5.588-8.177-10.522-18.8-11.3.162-.011.323-.023.487-.033.8-.051,1.621-.075,2.449-.075C254.1,7.43,263.828,12.746,263.828,18.84Z" transform="translate(-209.078 -7.43)" fill="#d6dced"/>
        <path id="Path_675313" data-name="Path 675313" d="M167.229,77.31c0,2.975-2.32,5.661-6.092,7.776H129.559c-3.636-2.1-5.863-4.866-5.863-7.776Z" transform="translate(-112.479 -65.9)" fill="#9ca9b7"/>
        <path id="Path_675314" data-name="Path 675314" d="M241.044,53.47v3.9c0,2.152-3.9,3.9-3.9,3.9a12.4,12.4,0,0,1-1.959-1.148c-.972-.705-1.94-1.677-1.94-2.75v-3.9Z" transform="translate(-204.141 -45.952)" fill="#fff24a"/>
        <path id="Path_675315" data-name="Path 675315" d="M250.985,53.47v3.9c0,2.152-3.9,3.9-3.9,3.9a12.4,12.4,0,0,1-1.959-1.148c.972-.705,1.94-1.677,1.94-2.75v-3.9Z" transform="translate(-214.081 -45.952)" fill="#ffbe2c"/>
        <g id="Group_980644" data-name="Group 980644" transform="translate(9.613 55.149)">
          <path id="Path_675316" data-name="Path 675316" d="M119.729,345.251l-3.957.89a2.471,2.471,0,1,0,1.14,4.808l3.957-.89a2.471,2.471,0,1,0-1.14-4.808Z" transform="translate(-113.87 -345.183)" fill="#31353a"/>
          <path id="Path_675317" data-name="Path 675317" d="M350.582,346.148l-3.957-.89a2.471,2.471,0,1,0-1.14,4.808l3.957.89a2.471,2.471,0,1,0,1.14-4.808Z" transform="translate(-306.074 -345.19)" fill="#31353a"/>
        </g>
        <path id="Path_675318" data-name="Path 675318" d="M323.088,77.31h5.878c0,2.975-2.32,5.661-6.092,7.776H317C320.768,82.971,323.088,80.285,323.088,77.31Z" transform="translate(-274.216 -65.9)" fill="#75818e"/>
      </g>
      <g id="Group_980646" data-name="Group 980646" transform="translate(23.333 53.286)">
        <path id="Path_675319" data-name="Path 675319" d="M199.36,341.938a5,5,0,0,1,0-7.068l1.1-1.1,7.068,7.068-1.1,1.1A5,5,0,0,1,199.36,341.938Z" transform="translate(-197.896 -333.773)" fill="#31353a"/>
        <path id="Path_675320" data-name="Path 675320" d="M265.033,341.938a5,5,0,0,0,0-7.068l-1.1-1.1-7.068,7.068,1.1,1.1A5,5,0,0,0,265.033,341.938Z" transform="translate(-247.239 -333.773)" fill="#31353a"/>
      </g>
    </g>
    <g id="Group_980648" data-name="Group 980648" transform="translate(47.502 0)">
      <path id="Path_675321" data-name="Path 675321" d="M115.572,78.446l-.719-8.03a12.717,12.717,0,0,0-8.679-10.966c.735-2.873,1.37-6.027.415-9.052a19.343,19.343,0,0,0-3.258-5.638,32.062,32.062,0,0,1-1.9-2.743,14.211,14.211,0,0,1-1.194-9.6h0a5.241,5.241,0,0,0,.153-1.2c0-.023,0-.046,0-.07a5.254,5.254,0,0,0-1.527-3.72,5.316,5.316,0,0,0-1.185-.9,5.578,5.578,0,0,0,1.662-3.785,5.406,5.406,0,0,0-.35-1.875c3.739-2.351,5.706-5.184,5.706-8.241,0-2.578-1.413-5.059-4.087-7.175a1.225,1.225,0,0,0-1.52,1.921,8.287,8.287,0,0,1,2.992,4.03H86.855V8.73A1.225,1.225,0,0,0,85.63,7.505h-7.8A1.225,1.225,0,0,0,76.606,8.73V11.4H61.331c1.307-4.894,10.279-8.954,20.4-8.954A34.047,34.047,0,0,1,94.951,4.963a1.225,1.225,0,0,0,.974-2.247A36.538,36.538,0,0,0,81.73,0C69.042,0,58.719,5.665,58.719,12.628c0,3,1.921,5.882,5.439,8.194a4.8,4.8,0,0,0-.409,1.922,5.646,5.646,0,0,0,1.778,3.9,5.338,5.338,0,0,0-.975.78,5.253,5.253,0,0,0-1.527,3.72c0,.023,0,.046,0,.07a5.233,5.233,0,0,0,.154,1.2h0a14.05,14.05,0,0,1-1.265,9.6,32.061,32.061,0,0,1-1.9,2.743A19.344,19.344,0,0,0,56.76,50.4a16.863,16.863,0,0,0,.167,9.047A12.718,12.718,0,0,0,48.24,70.414l-.719,8.032A4.735,4.735,0,0,0,52.24,83.6H66.474a1.225,1.225,0,1,0,0-2.449H63.885V71.593a1.225,1.225,0,0,0-2.449,0v9.558h-9.2a2.285,2.285,0,0,1-2.279-2.487l.032-.351c1.524-.425,4.217-1.47,4.717-3.623l.881-3.8a1.225,1.225,0,0,0-.916-1.47l-3.6-.836a10.262,10.262,0,0,1,.848-2.022l3.452.818A1.225,1.225,0,1,0,55.936,65l-2.44-.578a10.291,10.291,0,0,1,4.227-2.659,3.71,3.71,0,0,0,3.086,1.669,3.656,3.656,0,0,0,.843-.1l3.97-.893a3.7,3.7,0,0,0,2.819-3.151l2.408-.545a6.222,6.222,0,0,0,6.937,6.563l.738,1.93L74.805,81.151h-2.63a1.225,1.225,0,1,0,0,2.449h38.678a4.735,4.735,0,0,0,4.719-5.154Zm-63.248-4.31c-.1.434-.762.95-1.767,1.379-.109.047-.218.09-.326.131L50.646,71l2.282.529Zm60.112-3.259.42,4.692c-1.054-.4-2.039-.974-2.17-1.542l-.6-2.6Zm-8.944-10.854a1.251,1.251,0,0,1-1.515.922l-3.943-.887a1.245,1.245,0,0,1,.292-2.456,1.287,1.287,0,0,1,.3.035l3.943.887a1.246,1.246,0,0,1,.926,1.5Zm-2.127-13.8a17.244,17.244,0,0,1,2.889,4.915,11.2,11.2,0,0,1,.054,5.509,3.742,3.742,0,0,0-1.19-.508l-3.943-.887a3.7,3.7,0,0,0-4,1.651l-3.406-.77a6.2,6.2,0,0,0-1.052-1.4l-.793-.793a15.885,15.885,0,0,1,.1-3.889l.323-2.164a27.289,27.289,0,0,0,3.641-4.05,10.293,10.293,0,0,0,2.22-5.9v0c0-.381-.015-.754-.047-1.123-.014-.145-.027-.3-.039-.46a5.245,5.245,0,0,0,1.3-.439,17.175,17.175,0,0,0,1.842,7.242q.019.037.04.073a33.975,33.975,0,0,0,2.061,3ZM88.988,61.8a3.777,3.777,0,0,1-5.336,0l-.232-.232,5.336-5.336.232.232A3.777,3.777,0,0,1,88.988,61.8Zm-7.3-1.964-5.8-5.8q.079-.867.076-1.738a18.359,18.359,0,0,0-.119-2.024,9.584,9.584,0,0,0,5.847,2h.037a9.583,9.583,0,0,0,5.793-1.956A18.353,18.353,0,0,0,87.4,52.32q0,.864.074,1.727Zm-15.2-38.211H96.661a2.981,2.981,0,0,1,.234,1.12c0,3.078-6.557,6.521-15.333,6.521a26.77,26.77,0,0,1-11.2-2.224C67.754,25.8,66.2,24.2,66.2,22.744a2.466,2.466,0,0,1,.289-1.12Zm3.207,15.433c.093-.944.138-2.187.138-3.559,0-1.285-.039-2.684-.115-4.061a29.523,29.523,0,0,0,11.845,2.276,29.078,29.078,0,0,0,12.149-2.426c-.082,1.423-.123,2.876-.123,4.2,0,1.368.045,2.605.137,3.542.024.284.037.586.037.9a8.26,8.26,0,0,1-1.9,4.642,31.664,31.664,0,0,1-5.653,5.653,7.129,7.129,0,0,1-4.488,1.592H81.7a7.137,7.137,0,0,1-4.492-1.6,31.65,31.65,0,0,1-5.645-5.642,8.266,8.266,0,0,1-1.9-4.647c0-.312.012-.61.035-.874Zm28.252-5.87a2.856,2.856,0,0,1-1.906,2.648q0-.158,0-.319c0-1.566.06-3.325.175-4.974a2.848,2.848,0,0,1,1.731,2.613c0,.011,0,.022,0,.033ZM65.474,31.15a2.848,2.848,0,0,1,1.731-2.613c.116,1.652.176,3.414.176,4.985q0,.156,0,.309a2.856,2.856,0,0,1-1.906-2.648C65.474,31.172,65.474,31.161,65.474,31.15Zm13.582-21.2h5.35v2.673c0,.445-.529,1.1-1.414,1.743a11.006,11.006,0,0,1-1.261.786,11,11,0,0,1-1.261-.786c-.885-.646-1.414-1.3-1.414-1.743V9.955Zm-17.717,3.9H76.855c.864,2.117,3.723,3.5,4.376,3.791a1.225,1.225,0,0,0,1,0c.653-.292,3.513-1.674,4.376-3.791h15.47c-.531,1.877-2.264,3.726-5.016,5.323H66.141c-2.6-1.56-4.284-3.44-4.8-5.323ZM65.831,59.5a1.231,1.231,0,0,1-.76.555l-3.97.893a1.246,1.246,0,0,1-1.349-1.866,1.231,1.231,0,0,1,.76-.555l3.97-.893A1.246,1.246,0,0,1,65.831,59.5Zm2.081-2.6a3.7,3.7,0,0,0-3.981-1.652l-3.97.893a3.705,3.705,0,0,0-1.1.459,12.082,12.082,0,0,1,.24-5.461,17.244,17.244,0,0,1,2.889-4.915,33.941,33.941,0,0,0,2.061-3c.014-.024.027-.048.04-.073a17.552,17.552,0,0,0,1.893-7.257,5.242,5.242,0,0,0,1.317.449c-.012.17-.026.332-.041.485-.03.347-.046.718-.046,1.1v0a10.3,10.3,0,0,0,2.226,5.91v0h0a27.174,27.174,0,0,0,3.577,3.986l.325,2.175a15.874,15.874,0,0,1,.094,3.95l-.775.775a6.21,6.21,0,0,0-1.008,1.321Zm6.476,4.9a3.777,3.777,0,0,1,0-5.336l.232-.232,5.336,5.336-.232.232A3.777,3.777,0,0,1,74.389,61.8Zm7.068,1.732.232-.232.232.232a6.206,6.206,0,0,0,1.391,1.047l-.537,1.368H80.652l-.534-1.4A6.2,6.2,0,0,0,81.456,63.531ZM77.34,81.151,80.75,68.4h1.922l3.445,12.756Zm35.2-.744a2.265,2.265,0,0,1-1.69.744h-9.2V71.593a1.225,1.225,0,0,0-2.449,0v9.558H88.654L84.9,67.242l.756-1.927a6.271,6.271,0,0,0,.666.035,6.213,6.213,0,0,0,6.211-6.537l2.119.479a3.7,3.7,0,0,0,2.832,3.152l3.943.887a3.694,3.694,0,0,0,3.942-1.567,10.293,10.293,0,0,1,4.126,2.553l-2.421.574a1.225,1.225,0,1,0,.565,2.383l3.472-.823a10.26,10.26,0,0,1,.875,2.016l-3.651.847a1.225,1.225,0,0,0-.916,1.47l.881,3.8c.508,2.19,3.286,3.233,4.794,3.644l.039.44a2.255,2.255,0,0,1-.589,1.743Z" transform="translate(-47.502 0)"/>
      <path id="Path_675322" data-name="Path 675322" d="M310.374,430.963H305.7a1.225,1.225,0,1,0,0,2.449h4.679a1.225,1.225,0,1,0,0-2.449Z" transform="translate(-262.513 -360.594)"/>
      <path id="Path_675323" data-name="Path 675323" d="M173.263,432.188a1.225,1.225,0,0,0-1.225-1.225H167.36a1.225,1.225,0,1,0,0,2.449h4.679A1.225,1.225,0,0,0,173.263,432.188Z" transform="translate(-146.764 -360.594)"/>
      <path id="Path_675324" data-name="Path 675324" d="M230.539,259.31h6.592a1.225,1.225,0,1,0,0-2.449h-6.592a1.225,1.225,0,0,0,0,2.449Z" transform="translate(-199.627 -214.92)"/>
    </g>
  </g>
</svg>
