<svg xmlns="http://www.w3.org/2000/svg" width="76.999" height="76.999" viewBox="0 0 76.999 76.999">
  <g id="_21" data-name="21" transform="translate(-331 -1539)">
    <circle id="Ellipse_4724" data-name="Ellipse 4724" cx="38.5" cy="38.5" r="38.5" transform="translate(331 1539)" fill="#ff8a00"/>
    <g id="fotografo_1_" data-name="fotografo (1)" transform="translate(325.396 1552.164)">
      <g id="Group_989533" data-name="Group 989533" transform="translate(20.904)">
        <g id="Group_989532" data-name="Group 989532">
          <path id="Path_679590" data-name="Path 679590" d="M54.728,47.4H67.3l-3.228-9.685a7.358,7.358,0,0,0-5.623-4.9l-8.628-1.618v-2a9.8,9.8,0,0,0,3.949-6.384A4.084,4.084,0,0,0,57.18,18.8V13.076a13.076,13.076,0,1,0-26.152,0V18.8a4.094,4.094,0,0,0,3.4,4.028,9.822,9.822,0,0,0,3.96,6.385V31.2l-8.629,1.618a7.36,7.36,0,0,0-5.623,4.9L20.9,47.4H33.479V45.767H31.257l1.38-5.523-1.585-.4-1.48,5.919h-6.4l2.511-7.534a5.726,5.726,0,0,1,4.373-3.814l5.206-.976,1.331,5.989a2.453,2.453,0,0,0-1.479,2.248v6.538a2.455,2.455,0,0,0,2.452,2.452H50.642a2.455,2.455,0,0,0,2.452-2.452V41.681a2.454,2.454,0,0,0-1.478-2.248l1.331-5.989,5.206.976a5.727,5.727,0,0,1,4.373,3.814l2.511,7.534h-6.4l-1.48-5.919-1.585.4,1.38,5.523H54.728Zm-3.389-14.26L50.21,38.22l-.565-2.261H46.077l3.2-3.2Zm-2.561,6.087H39.43l.409-1.635h8.531ZM44.1,35.621l-4.086-4.086V30.157a9.717,9.717,0,0,0,8.173,0v1.382ZM53.911,21.1V16.5a2.437,2.437,0,0,1,0,4.6ZM34.3,21.109a2.452,2.452,0,0,1,0-4.624Zm-1.635-5.56V13.076a11.442,11.442,0,1,1,22.883,0v2.473a4.049,4.049,0,0,0-1.661-.758,1.969,1.969,0,0,0-1.947-1.715A2.023,2.023,0,0,0,50.5,13.7a8.976,8.976,0,0,1-5.024,2.547l.052-.1a1.993,1.993,0,0,0,.208-.883v-.206a1.973,1.973,0,0,0-3.368-1.4,9.132,9.132,0,0,1-6.439,2.691V14.711h-.817A4.044,4.044,0,0,0,32.662,15.549Zm3.269,5.7V17.98a10.754,10.754,0,0,0,7.594-3.169.351.351,0,0,1,.579.239v.206a.341.341,0,0,1-.036.152L42.781,17.98H44.1A10.643,10.643,0,0,0,51.7,14.81a.351.351,0,0,1,.579.239v6.2a8.173,8.173,0,0,1-16.345,0Zm3,11.507,3.2,3.2H38.562L38,38.22l-1.129-5.078Zm-1.362,16.28a.818.818,0,0,1-.817-.817V41.681a.818.818,0,0,1,.817-.817h2.543a5.7,5.7,0,0,0,0,8.173Zm6.538,0A4.086,4.086,0,1,1,48.19,44.95,4.091,4.091,0,0,1,44.1,49.036Zm7.355-.817a.818.818,0,0,1-.817.817H48.1a5.7,5.7,0,0,0,0-8.173h2.543a.818.818,0,0,1,.817.817Z" transform="translate(-20.904)"/>
        </g>
      </g>
      <g id="Group_989535" data-name="Group 989535" transform="translate(41.652 42.498)">
        <g id="Group_989534" data-name="Group 989534" transform="translate(0)">
          <path id="Path_679591" data-name="Path 679591" d="M226.452,416a2.452,2.452,0,1,0,2.452,2.452A2.455,2.455,0,0,0,226.452,416Zm0,3.269a.817.817,0,1,1,.817-.817A.818.818,0,0,1,226.452,419.269Z" transform="translate(-224 -416)"/>
        </g>
      </g>
    </g>
    <text id="_1" data-name="1" transform="translate(390 1563)" font-size="15" font-family="Roboto-Bold, Roboto" font-weight="700"><tspan x="-4.303" y="0">1</tspan></text>
    <text id="_2" data-name="2" transform="translate(399 1576)" font-size="15" font-family="Roboto-Bold, Roboto" font-weight="700"><tspan x="-4.303" y="0">2</tspan></text>
    <text id="_3" data-name="3" transform="translate(397 1593)" font-size="15" font-family="Roboto-Bold, Roboto" font-weight="700"><tspan x="-4.303" y="0">3</tspan></text>
  </g>
</svg>
