<svg xmlns="http://www.w3.org/2000/svg" width="80.346" height="82.306" viewBox="0 0 80.346 82.306">
  <g id="_11" data-name="11" transform="translate(-6.096)">
    <g id="Group_980622" data-name="Group 980622" transform="translate(11.411 1.206)">
      <g id="Group_980620" data-name="Group 980620">
        <g id="Group_980617" data-name="Group 980617" transform="translate(0 31.498)">
          <g id="Group_980610" data-name="Group 980610" transform="translate(0 0)">
            <path id="Path_675275" data-name="Path 675275" d="M39.226,204.163l2.9,5.016a.482.482,0,0,0,.418.241H62.38a.482.482,0,0,0,.418-.241l2.9-5.016a.482.482,0,0,0-.418-.723H39.643A.482.482,0,0,0,39.226,204.163Z" transform="translate(-39.16 -203.44)" fill="#fed402"/>
          </g>
          <g id="Group_980616" data-name="Group 980616">
            <g id="Group_980611" data-name="Group 980611" transform="translate(43.118 0)">
              <path id="Path_675276" data-name="Path 675276" d="M307.447,204.163l2.9,5.016a.482.482,0,0,0,.418.241H330.6a.482.482,0,0,0,.418-.241l2.9-5.016a.482.482,0,0,0-.418-.723H307.865A.482.482,0,0,0,307.447,204.163Z" transform="translate(-307.382 -203.44)" fill="#fed402"/>
            </g>
            <g id="Group_980612" data-name="Group 980612" transform="translate(0 0)">
              <path id="Path_675277" data-name="Path 675277" d="M39.226,204.163l2.9,5.016a.482.482,0,0,0,.418.241H62.38a.482.482,0,0,0,.418-.241l2.9-5.016a.482.482,0,0,0-.418-.723H39.643A.482.482,0,0,0,39.226,204.163Z" transform="translate(-39.16 -203.44)" fill="#ca6e59"/>
            </g>
            <g id="Group_980613" data-name="Group 980613" transform="translate(0)">
              <path id="Path_675278" data-name="Path 675278" d="M48.935,209.178l-2.9-5.016a.482.482,0,0,1,.418-.723H39.643a.482.482,0,0,0-.418.723l2.9,5.016a.482.482,0,0,0,.418.241h6.813A.482.482,0,0,1,48.935,209.178Z" transform="translate(-39.161 -203.439)" fill="#bb5d4c"/>
            </g>
            <g id="Group_980614" data-name="Group 980614" transform="translate(43.118 0)">
              <path id="Path_675279" data-name="Path 675279" d="M307.447,204.163l2.9,5.016a.482.482,0,0,0,.418.241H330.6a.482.482,0,0,0,.418-.241l2.9-5.016a.482.482,0,0,0-.418-.723H307.865A.482.482,0,0,0,307.447,204.163Z" transform="translate(-307.382 -203.44)" fill="#ca6e59"/>
            </g>
            <g id="Group_980615" data-name="Group 980615" transform="translate(43.118)">
              <path id="Path_675280" data-name="Path 675280" d="M318,209.178l-2.9-5.016a.482.482,0,0,1,.418-.723h-7.655a.482.482,0,0,0-.418.723l2.9,5.016a.482.482,0,0,0,.418.241h7.655A.482.482,0,0,1,318,209.178Z" transform="translate(-307.382 -203.439)" fill="#bb5d4c"/>
            </g>
          </g>
        </g>
        <path id="Path_675281" data-name="Path 675281" d="M242.407,133.4V103.927a.8.8,0,0,0-.8-.8H236.77a.8.8,0,0,0-.8.8V133.4h6.441Z" transform="translate(-204.329 -87.751)" fill="#bb5d4c"/>
        <path id="Path_675282" data-name="Path 675282" d="M238.694,133.4V103.927a.8.8,0,0,1,.8-.8H236.77a.8.8,0,0,0-.8.8V133.4h2.728Z" transform="translate(-204.329 -87.751)" fill="#a44f3e"/>
        <g id="Group_980618" data-name="Group 980618" transform="translate(30.358 0)">
          <circle id="Ellipse_5403" data-name="Ellipse 5403" cx="4.5" cy="4.5" r="4.5" fill="#883f2e"/>
        </g>
        <g id="Group_980619" data-name="Group 980619" transform="translate(30.358)">
          <path id="Path_675283" data-name="Path 675283" d="M232.025,12a4.5,4.5,0,0,1,2.491-4.026,4.5,4.5,0,1,0,0,8.053A4.5,4.5,0,0,1,232.025,12Z" transform="translate(-228.005 -7.5)" fill="#6d3326"/>
        </g>
      </g>
      <g id="Group_980621" data-name="Group 980621" transform="translate(6.196 45.652)">
        <path id="Path_675284" data-name="Path 675284" d="M224.285,298.393V294.7a3.215,3.215,0,0,0-3.215-3.215h-8.6a3.215,3.215,0,0,0-3.215,3.215v3.693Z" transform="translate(-188.108 -291.485)" fill="#883f2e"/>
        <path id="Path_675285" data-name="Path 675285" d="M214.68,298.393V294.7a3.215,3.215,0,0,1,3.215-3.215H212.47a3.215,3.215,0,0,0-3.215,3.215v3.693Z" transform="translate(-188.107 -291.485)" fill="#6d3326"/>
        <path id="Path_675286" data-name="Path 675286" d="M198.445,341.779v-4.567a2.755,2.755,0,0,0-2.755-2.755H173.927a2.755,2.755,0,0,0-2.755,2.755v4.567Z" transform="translate(-156.146 -327.549)" fill="#bb5d4c"/>
        <path id="Path_675287" data-name="Path 675287" d="M177.952,341.779v-4.567a2.755,2.755,0,0,1,2.755-2.755h-6.779a2.755,2.755,0,0,0-2.755,2.755v4.567Z" transform="translate(-156.147 -327.549)" fill="#a44f3e"/>
        <path id="Path_675288" data-name="Path 675288" d="M82,379.006A4.294,4.294,0,0,0,77.7,383.3v8.158A4.294,4.294,0,0,0,82,395.752h1.74V384.373h8.78v11.379h49.166V379.006Z" transform="translate(-77.703 -364.937)" fill="#fff3de"/>
      </g>
    </g>
    <g id="Group_980631" data-name="Group 980631" transform="translate(7.302 60.927)">
      <g id="Group_980626" data-name="Group 980626" transform="translate(0)">
        <g id="Group_980623" data-name="Group 980623">
          <path id="Path_675289" data-name="Path 675289" d="M28.2,395.752a4.294,4.294,0,0,1-4.294-4.294V383.3a4.294,4.294,0,0,1,4.294-4.294H21.969a8.373,8.373,0,0,0,0,16.746H28.2Z" transform="translate(-13.596 -379.006)" fill="#3675bb"/>
        </g>
        <g id="Group_980624" data-name="Group 980624">
          <path id="Path_675290" data-name="Path 675290" d="M17.663,387.379a8.373,8.373,0,0,1,8.373-8.373H21.969a8.373,8.373,0,0,0,0,16.746h4.067A8.373,8.373,0,0,1,17.663,387.379Z" transform="translate(-13.596 -379.006)" fill="#2b68b6"/>
        </g>
        <g id="Group_980625" data-name="Group 980625" transform="translate(10.305 0.006)">
          <path id="Path_675291" data-name="Path 675291" d="M83.737,391.076a4.289,4.289,0,0,1-1.968-3.608V379.31c0-.09,0-.18.009-.269a4.294,4.294,0,0,0-4.076,4.288v8.158A4.294,4.294,0,0,0,82,395.782h1.74Z" transform="translate(-77.703 -379.041)" fill="#ffe5c2"/>
          <path id="Path_675292" data-name="Path 675292" d="M169.857,458.174h49.166v4.02H169.857Z" transform="translate(-155.043 -445.453)" fill="#ffe5c2"/>
        </g>
      </g>
      <g id="Group_980630" data-name="Group 980630" transform="translate(16.34 5.367)">
        <g id="Group_980627" data-name="Group 980627" transform="translate(0)">
          <path id="Path_675293" data-name="Path 675293" d="M124.02,426.718V412.395h-8.78v14.323a.482.482,0,0,0,.757.4l3.633-2.514,3.633,2.514A.482.482,0,0,0,124.02,426.718Z" transform="translate(-115.24 -412.395)" fill="#fb2b3a"/>
        </g>
        <g id="Group_980629" data-name="Group 980629" transform="translate(0)">
          <g id="Group_980628" data-name="Group 980628">
            <path id="Path_675294" data-name="Path 675294" d="M119.282,412.395H115.24v14.323a.482.482,0,0,0,.757.4l3.285-2.274Z" transform="translate(-115.24 -412.395)" fill="#e41f2d"/>
          </g>
        </g>
      </g>
    </g>
    <path id="Path_675295" data-name="Path 675295" d="M85.237,76.468H82.792V62.133h2.444a1.206,1.206,0,1,0,0-2.411H61.111v-3.2A3.965,3.965,0,0,0,57.15,52.56H54.989V50.073A4.425,4.425,0,0,0,50.7,45.655V26.2a1.206,1.206,0,0,0-2.411,0V45.652H44.255V17.783h4.029v2.793a1.206,1.206,0,1,0,2.411,0v-3.2a2.012,2.012,0,0,0-2.009-2.009H47.475V11.283a5.722,5.722,0,0,0,4.371-4.371H66.622v2.2L54.834,31.51a1.685,1.685,0,0,0-1.283,2.52l2.9,5.015a1.692,1.692,0,0,0,1.462.844H69.257a1.206,1.206,0,0,0,0-2.411H58.325l-2.06-3.569H79.391l-2.06,3.569H74.884a1.206,1.206,0,0,0,0,2.411h2.865a1.692,1.692,0,0,0,1.462-.844l2.9-5.016a1.685,1.685,0,0,0-1.284-2.52L69.034,9.111v-2.2h4.513a1.206,1.206,0,0,0,0-2.411h-21.7a5.705,5.705,0,0,0-11.153,0h-21.7a1.206,1.206,0,1,0,0,2.411H23.5v2.2L11.716,31.51a1.685,1.685,0,0,0-1.284,2.52h0l2.9,5.016a1.693,1.693,0,0,0,1.462.844H34.631a1.692,1.692,0,0,0,1.462-.844l2.9-5.016A1.685,1.685,0,0,0,37.7,31.51L25.916,9.111v-2.2H40.692a5.722,5.722,0,0,0,4.371,4.371v4.089H43.852a2.012,2.012,0,0,0-2.009,2.009V45.655a4.425,4.425,0,0,0-4.294,4.418V52.56H35.388a3.966,3.966,0,0,0-3.961,3.961v3.2H15.675a9.579,9.579,0,1,0,0,19.158h6.761v1.739a1.688,1.688,0,0,0,2.648,1.388l2.947-2.04,2.947,2.04a1.688,1.688,0,0,0,2.648-1.388V78.879h51.61a1.206,1.206,0,1,0,0-2.411ZM66.622,31.5H57.565l9.058-17.21Zm2.411-17.21L78.091,31.5H69.034Zm-45.529,0V31.5H14.447Zm10.708,23.19H15.208l-2.06-3.569H36.273Zm.761-5.98H25.916V14.288Zm8-25.792A3.295,3.295,0,1,1,46.269,9,3.3,3.3,0,0,1,42.975,5.706ZM39.96,50.072a2.012,2.012,0,0,1,2.009-2.009h8.6a2.012,2.012,0,0,1,2.009,2.009V52.56H39.96Zm-24.286,26.4a7.167,7.167,0,1,1,0-14.335h1.678a5.468,5.468,0,0,0-.952,3.088v8.158a5.467,5.467,0,0,0,.952,3.088Zm15.541,2.77-2.5-1.729a1.205,1.205,0,0,0-1.372,0l-2.5,1.729V67.5h6.369ZM80.381,65.089H54.32a1.206,1.206,0,1,0,0,2.411H80.381v3.6H54.32a1.206,1.206,0,1,0,0,2.411H80.381v2.956H33.627V67.5H43.8a1.206,1.206,0,0,0,0-2.411H21.9a1.206,1.206,0,1,0,0,2.411h.535v8.968H21.9a3.092,3.092,0,0,1-3.088-3.088V65.221A3.092,3.092,0,0,1,21.9,62.133H41.286a1.206,1.206,0,1,0,0-2.411H33.838v-3.2a1.551,1.551,0,0,1,1.55-1.55H57.15a1.552,1.552,0,0,1,1.55,1.55v3.2H46.912a1.206,1.206,0,1,0,0,2.411H80.381Z" transform="translate(0 0)"/>
  </g>
</svg>
