<svg xmlns="http://www.w3.org/2000/svg" width="89.071" height="63.815" viewBox="0 0 89.071 63.815">
  <g id="_6" data-name="6" transform="translate(0 -19.104)">
    <path id="Path_675101" data-name="Path 675101" d="M270.744,307.539a.245.245,0,0,0,0,.047v.164a2.012,2.012,0,0,0,.492,1.248,1.913,1.913,0,0,0,1.26.545.262.262,0,0,1,.224.156.244.244,0,0,1,.02.153l-.132.669a.27.27,0,0,1-.261.216H264.81a1.115,1.115,0,0,1-.526-.095,1.155,1.155,0,0,1-.7-.971l-.044-10.936V291.1a.9.9,0,0,1,.59-.393.85.85,0,0,1,.14-.012,4.547,4.547,0,0,1,4.276,4.539l.184.59.3.972.181.59.3.97.181.59.018.055.635.913.411.59,2.505,3.595a.97.97,0,0,1-.6,1.484h-.028l-.393.085a1.944,1.944,0,0,0-1.524,1.855Zm0,0" transform="translate(-211.707 -233.173)" fill="#fcc924"/>
    <path id="Path_675102" data-name="Path 675102" d="M272.76,318.111l-.267.852a.257.257,0,0,1-.126.033h-7.537a1.11,1.11,0,0,1-.525-.095,1.158,1.158,0,0,1-.7-.971l-.044-10.936v-6.018a4.551,4.551,0,0,1,3.405,4.4l1.166,3.766,3.524,5.065a1.944,1.944,0,0,0-.889,1.59c0,.015,0,.032,0,.047v.164a2.017,2.017,0,0,0,.492,1.248,1.915,1.915,0,0,0,1.261.545.263.263,0,0,1,.224.156A.681.681,0,0,1,272.76,318.111Zm0,0" transform="translate(-211.722 -241.432)" fill="#eaae06"/>
    <path id="Path_675103" data-name="Path 675103" d="M263.671,290.734V310.8a.9.9,0,0,1-.9-.9V291.633a.9.9,0,0,1,.754-.887.767.767,0,0,1,.139-.012Zm0,0" transform="translate(-211.089 -233.204)" fill="#0c1e88"/>
    <g id="Group_980518" data-name="Group 980518" transform="translate(55.295 62.071)">
      <path id="Path_675104" data-name="Path 675104" d="M282.887,314.414h-1.746v-.59H282.7Zm0,0" transform="translate(-281.141 -313.824)" fill="#eaae06"/>
      <path id="Path_675105" data-name="Path 675105" d="M288.357,330.285H286.75v-.59h1.426Zm0,0" transform="translate(-285.647 -326.574)" fill="#eaae06"/>
      <path id="Path_675106" data-name="Path 675106" d="M292.5,338.2h-1.918v-.59h1.507Zm0,0" transform="translate(-288.722 -332.934)" fill="#eaae06"/>
      <path id="Path_675107" data-name="Path 675107" d="M285.7,321.766H284.27v.59h1.613Zm0,0" transform="translate(-283.654 -320.204)" fill="#eaae06"/>
    </g>
    <path id="Path_675108" data-name="Path 675108" d="M280.48,363.863h10.074v4.754H280.48Zm0,0" transform="translate(-225.315 -291.95)" fill="#f7aa8f"/>
    <path id="Path_675109" data-name="Path 675109" d="M280.48,373.863h10.074v4.754H280.48Zm0,0" transform="translate(-225.315 -299.983)" fill="#ff8c5f"/>
    <path id="Path_675110" data-name="Path 675110" d="M353.7,361.238h-24.28V358.7a1.822,1.822,0,0,1,1.825-1.823H353.7" transform="translate(-264.632 -286.337)" fill="#727272"/>
    <path id="Path_675111" data-name="Path 675111" d="M353.7,372.293h-24.28v-1.878H353.7" transform="translate(-264.632 -297.213)" fill="#4c4c4c"/>
    <path id="Path_675112" data-name="Path 675112" d="M278.2,381.344h10.074v5.586H278.2Zm0,0" transform="translate(-223.483 -305.993)" fill="#f7aa8f"/>
    <path id="Path_675113" data-name="Path 675113" d="M278.2,401.844h10.074V403.4H278.2Zm0,0" transform="translate(-223.483 -322.461)" fill="#ff8c5f"/>
    <path id="Path_675114" data-name="Path 675114" d="M256.33,328v.163a2.014,2.014,0,0,0,.493,1.249,1.906,1.906,0,0,0,1.259.545.266.266,0,0,1,.244.319l-.13.668a.27.27,0,0,1-.263.214h-7.667a1.134,1.134,0,0,1-.2-.029,1.156,1.156,0,0,1-.9-1.037V311.992a.9.9,0,0,1,.751-.887l.148.012a4.552,4.552,0,0,1,4.081,4.524v.01l.181.59.3.972.183.59.3.97.183.59.014.047.641.92.411.59,2.5,3.588a.972.972,0,0,1-.6,1.485h-.029l-.393.085A1.951,1.951,0,0,0,256.33,328Zm0,0" transform="translate(-200.165 -249.569)" fill="#fcd977"/>
    <path id="Path_675115" data-name="Path 675115" d="M252.5,365.668a14.476,14.476,0,0,0-2.413-6.99q-.289-.431-.608-.841a.962.962,0,0,0-.291-.251v9.96a.943.943,0,0,0,.9.943.2.2,0,0,0,.053,0h2.843a11.7,11.7,0,0,1-.454-2.456Zm0,0" transform="translate(-200.18 -286.908)" fill="#fcc924"/>
    <path id="Path_675116" data-name="Path 675116" d="M252.975,328.408l-.029-.366a14.51,14.51,0,0,0-2.856-7.616v-9.372a.9.9,0,0,0-.9.9v18.264a.9.9,0,0,0,.9.9V321.3a14.475,14.475,0,0,1,2.413,6.99l.029.366a11.7,11.7,0,0,0,.454,2.456h.519A11.6,11.6,0,0,1,252.975,328.408Zm0,0" transform="translate(-200.181 -249.528)" fill="#0c1e88"/>
    <path id="Path_675117" data-name="Path 675117" d="M268.316,334.817H266.57v-.59h1.566Zm0,0" transform="translate(-214.141 -268.143)" fill="#eaae06"/>
    <path id="Path_675118" data-name="Path 675118" d="M273.3,350.684H271.57v-.59h1.546Zm0,0" transform="translate(-218.158 -280.889)" fill="#eaae06"/>
    <path id="Path_675119" data-name="Path 675119" d="M276.693,358.016H274.98v.59H277.1Zm0,0" transform="translate(-220.897 -287.253)" fill="#eaae06"/>
    <path id="Path_675120" data-name="Path 675120" d="M271.041,342.754h-1.682v-.59h1.5Zm0,0" transform="translate(-216.382 -274.519)" fill="#eaae06"/>
    <path id="Path_675121" data-name="Path 675121" d="M341.652,385.984h-27.23v-5.271a1.658,1.658,0,0,1,1.659-1.658h25.571" transform="translate(-252.582 -304.154)" fill="#727272"/>
    <path id="Path_675122" data-name="Path 675122" d="M314.371,404.645h27.24v1.9h-27.24Zm0,0" transform="translate(-252.541 -324.711)" fill="#4c4c4c"/>
    <path id="Path_675123" data-name="Path 675123" d="M29.37,117.937l-14.448-.124H0V95.363H18.276a1.929,1.929,0,0,1,1.77,1.159Zm0,0" transform="translate(0 -76.259)" fill="#2044b4"/>
    <path id="Path_675124" data-name="Path 675124" d="M26.33,128.635H0v-19.8H17.068a.813.813,0,0,1,.747.488Zm0,0" transform="translate(0 -87.082)" fill="#fff"/>
    <path id="Path_675125" data-name="Path 675125" d="M25.2,133.189H0V114.5H16.961Zm0,0" transform="translate(0 -91.635)" fill="#cecece"/>
    <path id="Path_675126" data-name="Path 675126" d="M42.483,214.556v18.319H22.435l-.02-.018-.165-.156-.092-.086c-.256-.228-.519-.446-.787-.651a11.167,11.167,0,0,0-12.277-.711,11.006,11.006,0,0,0-1.077.711,8.213,8.213,0,0,0-.787.651l-.274.24-.02.018H0V208.856H29.37Zm0,0" transform="translate(0 -167.43)" fill="#6175e9"/>
    <path id="Path_675127" data-name="Path 675127" d="M0,241.5H4.02a1.725,1.725,0,0,1,1.722,1.725,2.707,2.707,0,0,1-2.708,2.709H0" transform="translate(0 -193.657)" fill="#0c1e88"/>
    <path id="Path_675128" data-name="Path 675128" d="M0,237.977H4.02A1.722,1.722,0,0,1,5.743,239.7a2.708,2.708,0,0,1-2.708,2.708H0" transform="translate(0 -190.823)" fill="#2044b4"/>
    <path id="Path_675129" data-name="Path 675129" d="M175.288,251.776h-4.156a5.847,5.847,0,0,1-5.812-5.879v-1.079a1.259,1.259,0,0,1,1.251-1.263h8.719" transform="translate(-132.805 -195.304)" fill="#0c1e88"/>
    <path id="Path_675130" data-name="Path 675130" d="M175.288,237.844v8.229h-4.156a5.846,5.846,0,0,1-5.812-5.878v-1.088a1.259,1.259,0,0,1,1.251-1.263Zm0,0" transform="translate(-132.805 -190.717)" fill="#2044b4"/>
    <path id="Path_675131" data-name="Path 675131" d="M199.485,246.018v4.9a2.715,2.715,0,0,1-1.278.314,2.765,2.765,0,0,1,0-5.531A2.716,2.716,0,0,1,199.485,246.018Zm0,0" transform="translate(-157.002 -197.03)" fill="#fc8c5c"/>
    <path id="Path_675132" data-name="Path 675132" d="M71.852,190.572h-3.54v-1.1a3.377,3.377,0,0,0-3.374-3.374H60.265a1.394,1.394,0,0,0-1.394,1.394v1.43a2.9,2.9,0,0,0,2.895,2.9H71.852a.622.622,0,0,0,0-1.242Zm0,0" transform="translate(-47.293 -149.144)" fill="#0c1e88"/>
    <path id="Path_675133" data-name="Path 675133" d="M58.871,187.489v1.43a2.9,2.9,0,0,0,2.895,2.9h5.155v-2.346a3.376,3.376,0,0,0-3.374-3.374H60.266a1.394,1.394,0,0,0-1.394,1.394Zm0,0" transform="translate(-47.293 -149.145)" fill="#6175e9"/>
    <path id="Path_675134" data-name="Path 675134" d="M65.961,187.489v1.43a2.9,2.9,0,0,0,2.895,2.9h4.179v-2.346a3.375,3.375,0,0,0-3.373-3.374H67.355a1.394,1.394,0,0,0-1.394,1.394Zm0,0" transform="translate(-52.988 -149.145)" fill="#3c51d1"/>
    <path id="Path_675135" data-name="Path 675135" d="M131.359,368.516h18.368v1.272H131.359Zm0,0" transform="translate(-105.524 -295.688)" fill="#fff"/>
    <path id="Path_675136" data-name="Path 675136" d="M131.359,369.895h18.368v1.272H131.359Zm0,0" transform="translate(-105.524 -296.796)" fill="#0c1e88"/>
    <path id="Path_675137" data-name="Path 675137" d="M0,368.516H3.558v1.272H0Zm0,0" transform="translate(0 -295.688)" fill="#fff"/>
    <path id="Path_675138" data-name="Path 675138" d="M0,369.895H3.558v1.272H0Zm0,0" transform="translate(0 -296.796)" fill="#0c1e88"/>
    <path id="Path_675139" data-name="Path 675139" d="M187.5,329.645h7.326v7.687H187.5Zm0,0" transform="translate(-150.623 -264.462)" fill="#cecece"/>
    <path id="Path_675140" data-name="Path 675140" d="M167,329.645h4.032v7.687H167Zm0,0" transform="translate(-134.155 -264.462)" fill="#fcc924"/>
    <path id="Path_675141" data-name="Path 675141" d="M123.332,329.645v7.687h-7.01a11.133,11.133,0,0,0-3.4-7.425l-.02-.018-.165-.156-.1-.086Zm0,0" transform="translate(-90.487 -264.462)" fill="#0c1e88"/>
    <path id="Path_675142" data-name="Path 675142" d="M7.252,329.645c-.094.083-.2.171-.281.26a11.135,11.135,0,0,0-3.4,7.427H0v-7.687Zm0,0" transform="translate(0 -264.462)" fill="#0c1e88"/>
    <path id="Path_675143" data-name="Path 675143" d="M131.462,326.336v.893H109.673a11.092,11.092,0,0,0-1.052-.893Zm0,0" transform="translate(-87.258 -261.804)" fill="#8397ea"/>
    <path id="Path_675144" data-name="Path 675144" d="M8.009,326.336l-.767.651-.285.242H0v-.893Zm0,0" transform="translate(0 -261.804)" fill="#8397ea"/>
    <path id="Path_675145" data-name="Path 675145" d="M32.182,312.619c-.075-.089-.151-.174-.228-.26a12.815,12.815,0,0,0-18.407-.652c-.218.209-.429.427-.631.652-.073.081-.144.161-.211.242a.05.05,0,0,0-.016.018,12.742,12.742,0,0,0-3.041,7.426h1.663a11.131,11.131,0,0,1,3.4-7.426c.092-.089.2-.177.281-.26l.767-.652A11.017,11.017,0,0,1,16.837,311a11.168,11.168,0,0,1,12.277.711,8.4,8.4,0,0,1,.787.652l.1.086.165.156.02.018a11.131,11.131,0,0,1,3.4,7.426h1.639a12.757,12.757,0,0,0-3.039-7.426Zm0,0" transform="translate(-7.751 -247.174)" fill="#0c1e88"/>
    <path id="Path_675146" data-name="Path 675146" d="M37.423,323.909a9.441,9.441,0,1,0,8.148,9.358,9.441,9.441,0,0,0-8.148-9.358Zm-1.3,12.726a3.369,3.369,0,1,1,3.367-3.367,3.369,3.369,0,0,1-3.367,3.367Zm0,0" transform="translate(-21.44 -259.783)" fill="#4c4c4c"/>
    <path id="Path_675147" data-name="Path 675147" d="M47.82,324.273a9.441,9.441,0,0,0,0,18.715,9.441,9.441,0,0,0,0-18.715ZM46.524,337a3.369,3.369,0,1,1,3.367-3.367A3.369,3.369,0,0,1,46.524,337Zm0,0" transform="translate(-31.838 -260.147)" fill="#727272"/>
    <path id="Path_675148" data-name="Path 675148" d="M54.467,346.715a4.945,4.945,0,1,0,4.942,4.942A4.945,4.945,0,0,0,54.467,346.715Zm0,8.312a3.369,3.369,0,1,1,3.367-3.367A3.369,3.369,0,0,1,54.467,355.027Zm0,0" transform="translate(-39.78 -278.175)" fill="#4c4c4c"/>
    <path id="Path_675162" data-name="Path 675162" d="M300.564,230.441a.983.983,0,0,1-.983-.983,7.1,7.1,0,0,0-7.094-7.093h-.148a9.071,9.071,0,0,1-9.061-9.061v-2.966a4.692,4.692,0,0,0-4.685-4.687.983.983,0,1,1,0-1.967,6.66,6.66,0,0,1,6.652,6.654V213.3a7.1,7.1,0,0,0,7.094,7.094h.148a9.071,9.071,0,0,1,9.061,9.06A.983.983,0,0,1,300.564,230.441Zm0,0" transform="translate(-223.009 -163.275)" fill="#4c4c4c"/>
    <path id="Path_675163" data-name="Path 675163" d="M352.324,234.1a.983.983,0,0,1-.983-.983,7.1,7.1,0,0,0-7.09-7.094h-.15a9.07,9.07,0,0,1-9.061-9.061.983.983,0,1,1,1.967,0,7.1,7.1,0,0,0,7.093,7.092h.151a9.071,9.071,0,0,1,9.059,9.061.982.982,0,0,1-.985.985Zm0,0" transform="translate(-269.144 -173.15)" fill="#4c4c4c"/>
  </g>
</svg>
