<svg xmlns="http://www.w3.org/2000/svg" width="55.852" height="72.524" viewBox="0 0 55.852 72.524">
  <g id="_9" data-name="9" transform="translate(-58.85)">
    <path id="Path_675187" data-name="Path 675187" d="M192.223,274.183l6.8-6.39-2.7-.5a3.22,3.22,0,0,1-2.242-3.1v-5.926H181.45v5.926a3.22,3.22,0,0,1-2.242,3.1l-2.7.5,6.8,6.39A6.509,6.509,0,0,0,192.223,274.183Z" transform="translate(-100.991 -221.679)" fill="#ffe7cf"/>
    <path id="Path_675188" data-name="Path 675188" d="M259.666,258.262v8.418a3.22,3.22,0,0,0,2.242,3.1l5.328.988,3.171-2.978-2.7-.5a3.22,3.22,0,0,1-2.242-3.1v-5.926Z" transform="translate(-172.371 -221.68)" fill="#f4d3a6"/>
    <path id="Path_675189" data-name="Path 675189" d="M249.97,466.718Z" transform="translate(-164.048 -400.608)" fill="#ededed"/>
    <path id="Path_675190" data-name="Path 675190" d="M111.931,318.548l-9.6-1.784a1.284,1.284,0,0,0-1,.234l-8.108,6.06L85.108,317a1.284,1.284,0,0,0-1-.234l-9.6,1.784a11.355,11.355,0,0,0-8.148,10.893v11.511a2.386,2.386,0,0,0,2.386,2.386h48.955a2.386,2.386,0,0,0,2.386-2.386V329.441A11.356,11.356,0,0,0,111.931,318.548Z" transform="translate(-6.44 -271.877)" fill="#2d5872"/>
    <g id="Group_980535" data-name="Group 980535" transform="translate(74.908 44.866)">
      <path id="Path_675191" data-name="Path 675191" d="M298.045,318.548l-9.6-1.784a1.284,1.284,0,0,0-1,.234l-4.258,3.183,9.139,1.7c4.831,1.422,8.148,2.757,8.148,7.793v13.666h3.34a2.386,2.386,0,0,0,2.386-2.386V329.441A11.356,11.356,0,0,0,298.045,318.548Z" transform="translate(-267.463 -316.743)" fill="#1d4559"/>
      <path id="Path_675192" data-name="Path 675192" d="M172.219,317.276l5.256,7.355a1.453,1.453,0,0,0,1.75.493l4.861-2.065L175.978,317a1.284,1.284,0,0,0-1-.234Z" transform="translate(-172.219 -316.743)" fill="#1d4559"/>
      <path id="Path_675193" data-name="Path 675193" d="M267.866,317.276l-5.256,7.355a1.453,1.453,0,0,1-1.75.493L256,323.059l8.108-6.06a1.284,1.284,0,0,1,1-.234Z" transform="translate(-244.132 -316.743)" fill="#1d4559"/>
    </g>
    <path id="Path_675194" data-name="Path 675194" d="M144.194,7.5c-10.19,0-18.45,7.049-18.45,11.033s8.26,6.83,18.45,6.83,18.45-2.847,18.45-6.83S154.384,7.5,144.194,7.5Z" transform="translate(-57.419 -6.439)" fill="#2d5872"/>
    <path id="Path_675195" data-name="Path 675195" d="M238.367,7.5a22.438,22.438,0,0,0-2.91.191C244.264,8.844,251,14.939,251,18.535s-6.734,6.266-15.541,6.751c.948.052,1.92.079,2.91.079,10.19,0,18.45-2.847,18.45-6.83S248.557,7.5,238.367,7.5Z" transform="translate(-151.591 -6.439)" fill="#1d4559"/>
    <path id="Path_675196" data-name="Path 675196" d="M175.7,82.811h-.842V79.459a11.514,11.514,0,0,0-3.9-8.749c-1.983-1.707-14.92-1.707-16.9,0a11.514,11.514,0,0,0-3.9,8.749v3.353h-.842a2.235,2.235,0,0,0-2.235,2.235v2.477a2.235,2.235,0,0,0,2.235,2.235h.845a11.492,11.492,0,0,0,3.9,8.487,12.647,12.647,0,0,0,16.9,0,11.492,11.492,0,0,0,3.9-8.487h.845a2.235,2.235,0,0,0,2.235-2.235V85.046A2.235,2.235,0,0,0,175.7,82.811Z" transform="translate(-75.732 -59.595)" fill="#ffe7cf"/>
    <path id="Path_675197" data-name="Path 675197" d="M251.912,82.813h-.842V79.46a11.514,11.514,0,0,0-3.9-8.749c-1.248-1.075-6.838-1.473-11.3-1.194,2.627.164,4.865.562,5.6,1.194a11.514,11.514,0,0,1,3.9,8.749v2.364l0,7.937a11.492,11.492,0,0,1-3.9,8.487,13.164,13.164,0,0,1-5.6,2.9,13.1,13.1,0,0,0,2.852.341,12.945,12.945,0,0,0,8.452-3.238,11.492,11.492,0,0,0,3.9-8.487h.845a2.235,2.235,0,0,0,2.235-2.235V85.048A2.235,2.235,0,0,0,251.912,82.813Z" transform="translate(-151.944 -59.596)" fill="#f4d3a6"/>
    <path id="Path_675198" data-name="Path 675198" d="M155.585,89.682v7.7a4.737,4.737,0,0,1,3.1,1.159.4.4,0,0,0,.682-.288v-5.7h20.876v5.7a.4.4,0,0,0,.682.288,4.737,4.737,0,0,1,3.1-1.159v-7.7C184.032,84.915,155.585,84.915,155.585,89.682Z" transform="translate(-83.033 -73.91)" fill="#ff6d3a"/>
    <path id="Path_675199" data-name="Path 675199" d="M169.808,122.609c-7.855,0-14.223-2.438-14.223-5.446h28.447C184.032,120.171,177.664,122.609,169.808,122.609Z" transform="translate(-83.033 -100.567)" fill="#2d5872"/>
    <path id="Path_675200" data-name="Path 675200" d="M155.585,66.457v3.781h28.447V66.5a2.22,2.22,0,0,0-1.671-2.151,57.023,57.023,0,0,0-13.219-1.852A46.25,46.25,0,0,0,157.2,64.32,2.219,2.219,0,0,0,155.585,66.457Z" transform="translate(-83.033 -53.642)" fill="#1d4559"/>
    <g id="Group_980536" data-name="Group 980536" transform="translate(82.953 51.182)">
      <path id="Path_675201" data-name="Path 675201" d="M232.836,361.332l-3.822,1.624,2.234,2.6h3.176l2.235-2.6Z" transform="translate(-229.014 -361.332)" fill="#282c3a"/>
      <path id="Path_675202" data-name="Path 675202" d="M234.424,391.134h-3.176l-2.234,16.058h7.645Z" transform="translate(-229.014 -386.913)" fill="#282c3a"/>
    </g>
    <g id="Group_980537" data-name="Group 980537" transform="translate(71.597 61.781)">
      <path id="Path_675203" data-name="Path 675203" d="M320.415,440.491h-5.6a.673.673,0,0,1-.673-.673v-2.982a.673.673,0,0,1,.673-.673h5.6a.673.673,0,0,1,.673.673v2.982A.673.673,0,0,1,320.415,440.491Z" transform="translate(-290.73 -436.163)" fill="#1d4559"/>
      <path id="Path_675204" data-name="Path 675204" d="M155.11,440.491h-5.6a.673.673,0,0,1-.673-.673v-2.982a.673.673,0,0,1,.673-.673h5.6a.673.673,0,0,1,.673.673v2.982A.673.673,0,0,1,155.11,440.491Z" transform="translate(-148.84 -436.163)" fill="#1d4559"/>
    </g>
    <path id="Path_675205" data-name="Path 675205" d="M74.845,343.392a2.441,2.441,0,0,0,3.432-.368l1.156-1.434a2.441,2.441,0,0,0-.368-3.432l-.829-.669a11.366,11.366,0,0,0-4.506,5Z" transform="translate(-12.772 -289.684)" fill="#ffbf14"/>
    <path id="Path_675206" data-name="Path 675206" d="M400.43,342.493a11.366,11.366,0,0,0-4.506-5l-.829.669a2.441,2.441,0,0,0-.368,3.432l1.156,1.434a2.441,2.441,0,0,0,3.432.368Z" transform="translate(-287.837 -289.684)" fill="#eaa200"/>
    <path id="Path_675207" data-name="Path 675207" d="M112.91,51.141l-.025-.042q-.091-.149-.187-.3-.053-.081-.107-.162c-.044-.065-.088-.13-.133-.194q-.087-.125-.178-.248l-.053-.074-.039-.051q-.109-.144-.222-.285l-.079-.1q-.112-.137-.229-.271l-.1-.112c-.065-.073-.131-.144-.2-.215-.049-.053-.1-.107-.149-.159s-.077-.077-.115-.116a12.314,12.314,0,0,0-5.31-3.168,1.04,1.04,0,0,0-.106-.025l-9.6-1.784h0l-.051-.007A2.353,2.353,0,0,0,94.71,44a2.476,2.476,0,0,1-.555-1.5V40.769a15.41,15.41,0,0,0,1.765-1.313,12.476,12.476,0,0,0,4.2-8.233,3.3,3.3,0,0,0,3.144-3.294V25.452a3.284,3.284,0,0,0-1.2-2.547V17.21c3.472-1.711,4.227-3.706,4.227-5.114,0-2.415-2.25-5.439-5.871-7.89a24.231,24.231,0,0,0-27.284,0c-3.621,2.451-5.871,5.475-5.871,7.89,0,1.408.755,3.4,4.227,5.114V22.9a3.284,3.284,0,0,0-1.2,2.547v2.477a3.3,3.3,0,0,0,3.144,3.294,12.475,12.475,0,0,0,4.2,8.233A15.411,15.411,0,0,0,79.4,40.769v1.739a2.475,2.475,0,0,1-.555,1.5,2.35,2.35,0,0,0-1.371-.161h0l-9.6,1.784a1.041,1.041,0,0,0-.106.025,12.315,12.315,0,0,0-5.308,3.166l-.118.118c-.05.051-.1.1-.147.157-.067.072-.134.144-.2.217l-.1.11q-.117.134-.23.272l-.078.1q-.113.141-.222.285l-.039.051c-.018.024-.035.049-.053.074q-.09.123-.178.248-.068.1-.133.194l-.106.161q-.1.147-.188.3l-.025.041a12.312,12.312,0,0,0-1.792,6.423v1.3a1.063,1.063,0,1,0,2.125,0v-1.3a10.288,10.288,0,0,1,.449-3.015,3.476,3.476,0,0,0,2.173.762,3.539,3.539,0,0,0,.38-.021,3.481,3.481,0,0,0,2.354-1.284l1.156-1.434a3.5,3.5,0,0,0-.115-4.534c.305-.124.617-.236.937-.332l6.128-1.138,4.862,6.8a2.5,2.5,0,0,0,2.039,1.056,2.533,2.533,0,0,0,.991-.2l.324-.138,1.415,1.645L82.028,70.4H68.675V61.781a1.063,1.063,0,1,0-2.125,0V70.4H62.3a1.324,1.324,0,0,1-1.323-1.323V63.8a1.063,1.063,0,1,0-2.125,0v5.271A3.452,3.452,0,0,0,62.3,72.524h48.955a3.452,3.452,0,0,0,3.448-3.448V57.564A12.315,12.315,0,0,0,112.91,51.141Zm-47.076.1-1.156,1.434a1.378,1.378,0,0,1-1.938.208l-.444-.358q.143-.255.3-.5l0-.006c.089-.14.183-.276.279-.411l.088-.122q.128-.175.263-.344l.07-.088q.152-.187.314-.365l.095-.1c.106-.115.214-.229.326-.339l.028-.029a10.268,10.268,0,0,1,1.333-1.1l.233.188a1.378,1.378,0,0,1,.208,1.938ZM107.926,49.3l.233-.188a10.257,10.257,0,0,1,1.333,1.1l.028.029c.111.11.219.224.326.339l.095.1q.161.179.314.365l.07.088q.135.169.263.344l.088.122c.1.135.19.271.279.411l0,.006q.156.245.3.5l-.444.358a1.378,1.378,0,0,1-1.938-.208l-1.156-1.434A1.379,1.379,0,0,1,107.926,49.3ZM95.52,45.973h0a.224.224,0,0,1,.173-.04l1.115.207-4.285,6a.388.388,0,0,1-.471.132l-3.159-1.342h0Zm-8.744,3.882-6.192-4.628a4.564,4.564,0,0,0,.938-2.718v-.622a13.854,13.854,0,0,0,5.243,1.066h.024a13.86,13.86,0,0,0,5.243-1.066v.622a4.564,4.564,0,0,0,.938,2.718Zm2.068,3.36-.968,1.125h-2.2l-.968-1.125,2.068-.879ZM71.49,14.787c-1.366-.842-2.1-1.772-2.1-2.692,0-1.916,2.559-4.521,4.937-6.13a22.106,22.106,0,0,1,24.9,0c2.378,1.61,4.937,4.215,4.937,6.13,0,.92-.736,1.85-2.1,2.692V12.855a3.281,3.281,0,0,0-2.47-3.18A57.961,57.961,0,0,0,86.11,7.789H86.1A46.964,46.964,0,0,0,73.884,9.655a3.294,3.294,0,0,0-2.395,3.16v1.972Zm25.6,2.871h2.352l-.005.006-.054.058c-.038.04-.077.08-.118.12-.026.025-.054.05-.081.075s-.074.067-.113.1-.075.062-.114.094l-.1.078q-.074.057-.153.113l-.078.055c-.065.044-.131.089-.2.133l-.045.028a10.488,10.488,0,0,1-1.569.795c-.013.005-.024.013-.036.018a27,27,0,0,1-10,1.648,27,27,0,0,1-10-1.648c-.012-.006-.024-.013-.036-.018a10.488,10.488,0,0,1-1.569-.795l-.045-.028c-.069-.044-.135-.088-.2-.133l-.078-.055q-.079-.056-.153-.113l-.1-.078c-.039-.031-.077-.062-.114-.094s-.076-.067-.113-.1-.055-.05-.081-.075c-.042-.04-.081-.08-.118-.12l-.054-.058-.005-.006H91.954a1.063,1.063,0,1,0,0-2.125H73.615V12.815a1.161,1.161,0,0,1,.844-1.114A44.82,44.82,0,0,1,86.1,9.915h.013a55.8,55.8,0,0,1,12.956,1.819,1.157,1.157,0,0,1,.871,1.121v2.678h-2.85a1.063,1.063,0,0,0,0,2.125Zm2.85,2.377V22.5a5.9,5.9,0,0,0-1.66.553v-2.07A10.743,10.743,0,0,0,99.936,20.036Zm-24.661.952v2.07a5.9,5.9,0,0,0-1.66-.553V20.036A10.749,10.749,0,0,0,75.275,20.988Zm3.742,16.858a10.428,10.428,0,0,1-3.527-7.7,1.063,1.063,0,0,0-1.062-1.04h-.845a1.174,1.174,0,0,1-1.173-1.173V25.452a1.167,1.167,0,0,1,.431-.907,3.857,3.857,0,0,1,1.667.522l.018.011a2.457,2.457,0,0,1,.243.179l.027.023c.038.033.075.066.111.1s.065.06.1.088l.03.024q.038.03.078.057l.031.021c.036.023.072.045.11.065h0c.038.02.077.038.117.054l.033.013c.03.012.06.022.091.032l.034.011c.04.012.08.022.121.03h0c.042.008.084.014.127.019l.034,0q.048,0,.1,0h.036c.042,0,.084,0,.126-.006h0c.043,0,.086-.011.129-.019l.036-.008q.048-.01.095-.024l.037-.011c.042-.013.084-.028.125-.045a1.463,1.463,0,0,0,.9-1.353V21.8A32.331,32.331,0,0,0,86.776,23.1,32.331,32.331,0,0,0,96.151,21.8v2.541a1.462,1.462,0,0,0,.9,1.353c.041.017.083.032.125.045l.036.01c.032.009.065.017.1.024l.034.007a1.443,1.443,0,0,0,.259.025h.034c.033,0,.066,0,.1,0l.032,0a1.445,1.445,0,0,0,.251-.049l.033-.01c.031-.01.061-.021.092-.032l.033-.013c.04-.016.079-.034.117-.054h0c.037-.02.074-.042.11-.065l.032-.021q.04-.027.078-.057l.03-.024c.034-.028.067-.057.1-.088s.073-.069.11-.1l.03-.025c.035-.029.07-.057.106-.084l.01-.008c.039-.029.079-.056.119-.082l.033-.021c.036-.023.072-.044.108-.065l.016-.009q.062-.035.125-.066l.031-.015.113-.052.016-.007c.044-.019.087-.036.131-.053l.023-.009.124-.044.007,0,.137-.042h.005a4.465,4.465,0,0,1,.822-.152,1.167,1.167,0,0,1,.431.907v2.477A1.174,1.174,0,0,1,99.969,29.1h-.845a1.063,1.063,0,0,0-1.062,1.04,10.428,10.428,0,0,1-3.527,7.7,11.586,11.586,0,0,1-15.517,0Zm5.641,13.081h0L81.5,52.269a.389.389,0,0,1-.471-.132l-4.285-6,1.115-.207a.223.223,0,0,1,.173.04h0l6.627,4.954ZM84.174,70.4l1.939-13.932h1.326L89.377,70.4Zm28.4-1.323a1.324,1.324,0,0,1-1.323,1.323H107V61.781a1.063,1.063,0,1,0-2.125,0V70.4H91.523L89.482,55.732,90.9,54.087l.324.138a2.532,2.532,0,0,0,.991.2,2.5,2.5,0,0,0,2.039-1.056l4.862-6.8,6.128,1.138c.32.1.632.208.937.332a3.509,3.509,0,0,0-.116,4.534l1.157,1.434a3.48,3.48,0,0,0,2.354,1.284,3.542,3.542,0,0,0,.38.021,3.477,3.477,0,0,0,2.173-.762,10.287,10.287,0,0,1,.449,3.015V69.075Z"/>
    <path id="Path_675208" data-name="Path 675208" d="M313.974,428.66h-5.6a1.738,1.738,0,0,0-1.736,1.736v2.982a1.738,1.738,0,0,0,1.736,1.736h5.6a1.738,1.738,0,0,0,1.736-1.736V430.4A1.738,1.738,0,0,0,313.974,428.66Zm-.389,4.328h-4.818v-2.2h4.818v2.2Z" transform="translate(-212.693 -367.941)"/>
    <path id="Path_675209" data-name="Path 675209" d="M148.67,435.113a1.738,1.738,0,0,0,1.736-1.736V430.4a1.738,1.738,0,0,0-1.736-1.736h-5.6a1.738,1.738,0,0,0-1.736,1.736v2.982a1.738,1.738,0,0,0,1.736,1.736Zm-5.207-4.328h4.818v2.2h-4.818Z" transform="translate(-70.804 -367.94)"/>
  </g>
</svg>
