<svg xmlns="http://www.w3.org/2000/svg" width="1328" height="783.124" viewBox="0 0 1328 783.124"><g transform="translate(-180 -1888)"><path d="M0,0H1328V783.124H0Z" transform="translate(180 1888)" fill="#f9f7ec"/><g transform="translate(184.278 1927)"><g transform="translate(788.831 444.763)"><path d="M718.175,245.549a2.45,2.45,0,0,1-.019-.338c0-.244-.012-.561-.021-.961-.011-.872-.027-2.1-.046-3.688-.025-3.229-.062-7.888-.107-13.767l.192.194-69.627.122c.139-.14-.318.313.311-.315v4.8q0,2.386,0,4.735,0,4.695-.006,9.217l-.307-.307,49.644.14,14.636.087,3.954.041,1.033.019a3.2,3.2,0,0,1,.364.019,1.778,1.778,0,0,1-.324.021l-1,.019-3.887.041-14.565.087-49.858.14h-.309v-.31q0-4.515,0-9.217,0-2.348,0-4.735v-4.8c.63-.63.178-.175.319-.316l69.627.122h.194v.192c-.045,5.927-.081,10.625-.107,13.882q-.029,2.348-.046,3.645c-.009.385-.016.69-.021.926A1.593,1.593,0,0,1,718.175,245.549Z" transform="translate(-648.229 -226.453)" fill="#ebe7cf"/></g><g transform="translate(429.399)"><rect width="69.631" height="18.753" fill="#ebe7cf"/><g transform="translate(28.821 18.889)"><path d="M465.842,69.883a2.793,2.793,0,0,1-.019-.339c0-.244-.011-.561-.019-.959q-.016-1.31-.047-3.689c-.025-3.229-.061-7.888-.107-13.766l.192.192-69.626.122c.139-.14-.318.313.31-.315v4.8q0,2.385,0,4.734,0,4.695,0,9.218l-.308-.309,49.644.14,14.637.087,3.954.041,1.032.019a2.686,2.686,0,0,1,.364.021,1.868,1.868,0,0,1-.324.019l-1,.019-3.887.041-14.565.087-49.858.14H395.9v-.309q0-4.517-.006-9.218,0-2.348,0-4.734v-4.8c.63-.63.177-.175.319-.316l69.626.122h.195v.194c-.046,5.926-.082,10.625-.106,13.881q-.031,2.348-.047,3.645c-.008.385-.015.69-.021.926A1.5,1.5,0,0,1,465.842,69.883Z" transform="translate(-395.897 -50.785)" fill="#ebe7cf"/></g></g><g transform="translate(1183.722 130.243)"><rect width="69.631" height="18.753" fill="#ebe7cf"/><g transform="translate(28.821 18.889)"><path d="M465.842,69.883a2.793,2.793,0,0,1-.019-.339c0-.244-.011-.561-.019-.959q-.016-1.31-.047-3.689c-.025-3.229-.061-7.888-.107-13.766l.192.192-69.626.122c.139-.14-.318.313.31-.315v4.8q0,2.385,0,4.734,0,4.695,0,9.218l-.308-.309,49.644.14,14.637.087,3.954.041,1.032.019a2.686,2.686,0,0,1,.364.021,1.868,1.868,0,0,1-.324.019l-1,.019-3.887.041-14.565.087-49.858.14H395.9v-.309q0-4.517-.006-9.218,0-2.348,0-4.734v-4.8c.63-.63.177-.175.319-.316l69.626.122h.195v.194c-.046,5.926-.082,10.625-.106,13.881q-.031,2.348-.047,3.645c-.008.385-.015.69-.021.926A1.5,1.5,0,0,1,465.842,69.883Z" transform="translate(-395.897 -50.785)" fill="#ebe7cf"/></g></g><g transform="translate(48.073 593.32)"><path d="M153.222,309.44a2.314,2.314,0,0,1-.021-.338c0-.246-.011-.561-.019-.961-.011-.872-.027-2.1-.047-3.688-.025-3.229-.061-7.889-.107-13.767l.192.192L83.6,291c.139-.14-.318.313.311-.315v4.8q0,2.386,0,4.734,0,4.7,0,9.218l-.309-.307,49.644.139,14.637.088,3.954.04,1.032.021a2.9,2.9,0,0,1,.365.019,1.8,1.8,0,0,1-.325.021l-.994.019-3.888.04-14.565.088-49.858.14h-.307v-.309q0-4.515-.006-9.218,0-2.346,0-4.734v-4.8c.63-.632.177-.175.319-.316l69.626.122h.195v.192c-.046,5.927-.082,10.625-.106,13.882-.021,1.566-.036,2.783-.047,3.644-.008.386-.014.691-.021.927A1.7,1.7,0,0,1,153.222,309.44Z" transform="translate(-83.276 -290.344)" fill="#ebe7cf"/></g><g transform="translate(90.639 683.12)"><path d="M153.594,324.947a2.173,2.173,0,0,1-.025-.357c-.007-.266-.016-.594-.027-1q-.022-1.379-.059-3.769c-.031-3.286-.075-7.933-.128-13.631l.24.24c-9.267.019-21.47.046-34.813.076-.283.281.381-.384.312-.313v2.466q0,1.229,0,2.441,0,2.426,0,4.781c0,3.136-.01,6.168-.015,9.062l-.3-.3,24.95.143,7.226.081,1.944.036a5.789,5.789,0,0,1,.7.035,3.781,3.781,0,0,1-.625.036l-1.885.036-7.16.08-25.146.143h-.294v-.3c0-2.894-.01-5.926-.015-9.062q0-2.354,0-4.781,0-1.212,0-2.441V306.2c-.069.067.6-.6.317-.317l34.813.076h.241l0,.238c-.053,5.76-.1,10.457-.127,13.778-.025,1.568-.046,2.809-.06,3.715-.011.385-.019.7-.025.952A1.253,1.253,0,0,1,153.594,324.947Z" transform="translate(-118.459 -305.81)" fill="#ebe7cf"/></g><g transform="translate(761.142 33.542)"><path d="M696.949,81.992a2.731,2.731,0,0,1-.019-.338c0-.244-.011-.561-.019-.961-.011-.872-.027-2.1-.047-3.688-.025-3.229-.06-7.888-.106-13.767l.192.194-69.626.122c.139-.14-.318.313.31-.315v4.8q0,2.386,0,4.735,0,4.695,0,9.217l-.309-.307,49.644.14,14.637.087,3.954.041,1.032.019a2.849,2.849,0,0,1,.364.019,1.76,1.76,0,0,1-.324.021l-1,.019-3.887.041-14.565.087-49.858.14h-.307v-.31q0-4.515-.006-9.217,0-2.348,0-4.735v-4.8c.63-.63.177-.175.319-.316l69.626.122h.195v.192c-.046,5.927-.082,10.625-.107,13.882q-.031,2.348-.047,3.645c-.008.385-.014.69-.021.926A1.458,1.458,0,0,1,696.949,81.992Z" transform="translate(-627.004 -62.896)" fill="#ebe7cf"/></g><g transform="translate(805.283 137.615)"><path d="M697.322,97.5a2.177,2.177,0,0,1-.025-.358c-.007-.266-.016-.593-.027-1-.015-.918-.035-2.178-.06-3.767-.03-3.287-.074-7.934-.127-13.631l.238.238-34.812.076c-.283.281.38-.384.312-.313v2.467q0,1.229,0,2.441,0,2.425,0,4.78c0,3.136-.01,6.168-.014,9.062l-.3-.294,24.95.143,7.226.08,1.944.036a5.6,5.6,0,0,1,.7.036,4.153,4.153,0,0,1-.627.035l-1.884.036-7.16.081-25.146.142-.294,0v-.3c0-2.894-.01-5.926-.014-9.062q0-2.354,0-4.78,0-1.214,0-2.441V78.749c-.07.067.6-.6.317-.317l34.812.076h.242l0,.238c-.053,5.759-.1,10.456-.127,13.778q-.038,2.352-.06,3.714c-.011.385-.019.7-.027.952A1.337,1.337,0,0,1,697.322,97.5Z" transform="translate(-662.187 -78.362)" fill="#ebe7cf"/></g><g transform="translate(0 274.511)"><rect width="69.631" height="18.753" fill="#ebe7cf"/><g transform="translate(28.82 18.889)"><path d="M137.309,185.027a2.253,2.253,0,0,1-.019-.338c-.006-.246-.012-.561-.021-.961q-.016-1.308-.047-3.689c-.024-3.228-.06-7.888-.106-13.766l.192.192-69.626.122c.139-.14-.318.315.311-.315v4.8q0,2.386,0,4.734,0,4.7,0,9.218l-.309-.307,49.644.139,14.637.088,3.954.04,1.033.021a2.9,2.9,0,0,1,.364.019,1.757,1.757,0,0,1-.325.019l-.994.021-3.888.04-14.565.088-49.858.14H67.37v-.309q0-4.515-.006-9.218,0-2.348,0-4.734v-4.8c.63-.63.177-.174.319-.315l69.626.122h.195v.192c-.046,5.927-.082,10.625-.106,13.881-.021,1.566-.036,2.784-.047,3.645-.008.385-.015.691-.019.927A1.757,1.757,0,0,1,137.309,185.027Z" transform="translate(-67.363 -165.93)" fill="#ebe7cf"/></g></g><g transform="translate(340.187 399.679)"><rect width="69.631" height="18.753" fill="#ebe7cf"/><g transform="translate(28.821 18.889)"><path d="M577.773,307.149a2.766,2.766,0,0,1-.019-.339c0-.244-.011-.56-.019-.959q-.016-1.308-.047-3.689c-.025-3.229-.06-7.888-.106-13.766l.192.192-69.626.122c.139-.14-.318.315.311-.315v4.8q0,2.385,0,4.734,0,4.7,0,9.218l-.308-.308,49.644.14,14.637.088,3.954.04,1.032.019a2.684,2.684,0,0,1,.364.021,1.86,1.86,0,0,1-.324.019l-.994.021-3.889.04L558,307.318l-49.858.139h-.307v-.309q0-4.515-.006-9.218,0-2.348,0-4.734v-4.8c.63-.63.177-.174.319-.316l69.626.122h.195v.192c-.046,5.927-.082,10.625-.107,13.881q-.031,2.348-.047,3.645c-.008.385-.015.69-.021.926A1.492,1.492,0,0,1,577.773,307.149Z" transform="translate(-507.828 -288.052)" fill="#ebe7cf"/></g></g><g transform="translate(234.496 724.316)"><path d="M293.243,365.779a2.517,2.517,0,0,1-.019-.339c0-.244-.012-.561-.021-.959q-.016-1.31-.046-3.689c-.025-3.229-.062-7.888-.106-13.766l.192.192-69.627.122c.139-.14-.318.313.311-.315v4.8q0,2.385,0,4.734,0,4.695-.006,9.218l-.307-.309,49.644.14,14.636.087,3.954.041,1.033.019a2.694,2.694,0,0,1,.364.021,1.886,1.886,0,0,1-.324.019l-1,.019-3.887.041-14.565.087-49.858.14H223.3v-.309q0-4.517,0-9.218v-4.734q0-1.194,0-2.4v-2.405c.63-.63.178-.175.319-.316l69.627.122h.194v.194c-.045,5.926-.081,10.625-.106,13.881q-.029,2.348-.046,3.645c-.008.385-.016.69-.021.926A1.62,1.62,0,0,1,293.243,365.779Z" transform="translate(-223.297 -346.681)" fill="#ebe7cf"/></g><g transform="translate(161.173 129.58)"><path d="M246.7,92.356a2.67,2.67,0,0,1-.018-.339c-.006-.244-.012-.561-.021-.959q-.016-1.31-.047-3.689c-.025-3.229-.06-7.888-.106-13.766l.192.192-69.626.122c.139-.14-.318.313.311-.315v2.406q0,1.2,0,2.394,0,2.385,0,4.734,0,4.695,0,9.218l-.309-.309,49.644.14,14.637.087,3.954.041,1.032.019a2.686,2.686,0,0,1,.364.021,1.868,1.868,0,0,1-.324.019l-.995.019-3.888.041-14.565.087-49.858.14h-.307v-.309q0-4.517-.006-9.218V73.6c.63-.63.177-.175.319-.316l69.626.122h.195V73.6c-.046,5.926-.082,10.625-.106,13.881q-.031,2.348-.047,3.645c-.008.385-.014.69-.021.926A1.493,1.493,0,0,1,246.7,92.356Z" transform="translate(-176.759 -73.258)" fill="#ebe7cf"/></g><g transform="translate(881.234 689.191)"><g transform="translate(29.33)"><rect width="69.631" height="18.753" fill="#ebe7cf"/></g><g transform="translate(0 18.89)"><path d="M396.092,69.883a2.793,2.793,0,0,0,.019-.339c0-.244.011-.561.019-.959q.016-1.31.047-3.689c.025-3.229.061-7.888.107-13.766l-.192.192,69.626.122c-.139-.14.318.313-.31-.315v4.8q0,2.385,0,4.734,0,4.695,0,9.218l.308-.309-49.644.14-14.637.087-3.954.041-1.032.019a2.686,2.686,0,0,0-.364.021,1.868,1.868,0,0,0,.324.019l1,.019,3.887.041,14.565.087,49.858.14h.307v-.309q0-4.517.006-9.218,0-2.348,0-4.734v-4.8c-.63-.63-.177-.175-.319-.316l-69.626.122H395.9v.194c.046,5.926.082,10.625.106,13.881q.031,2.348.047,3.645c.008.385.015.69.021.926A1.5,1.5,0,0,0,396.092,69.883Z" transform="translate(-395.897 -50.785)" fill="#ebe7cf"/></g></g></g></g></svg>