<svg xmlns="http://www.w3.org/2000/svg" xmlns:xlink="http://www.w3.org/1999/xlink" width="170.294" height="61.665" viewBox="0 0 170.294 61.665"><defs><clipPath id="a"><rect width="170.294" height="61.664" fill="none"/></clipPath><clipPath id="b"><rect width="170.294" height="61.664" fill="#f88f05" opacity="0.1"/></clipPath><clipPath id="c"><rect width="165.393" height="2.842" fill="none"/></clipPath><clipPath id="d"><rect width="87.278" height="18.232" fill="none"/></clipPath><clipPath id="e"><rect width="82.372" height="11.919" fill="none"/></clipPath><clipPath id="f"><rect width="150.716" height="6.764" fill="none"/></clipPath><clipPath id="g"><rect width="18.159" height="11.285" fill="none"/></clipPath><clipPath id="h"><rect width="76.712" height="15.038" fill="none"/></clipPath><clipPath id="i"><rect width="9.893" height="14.025" fill="none"/></clipPath><clipPath id="j"><rect width="7.863" height="12.875" fill="none"/></clipPath><clipPath id="k"><rect width="20.677" height="15.133" fill="none"/></clipPath><clipPath id="l"><rect width="19.785" height="19.783" fill="none"/></clipPath><clipPath id="m"><rect width="17.867" height="17.862" fill="none"/></clipPath><clipPath id="p"><rect width="61.243" height="2.375" fill="none"/></clipPath><clipPath id="q"><rect width="30.148" height="12.657" fill="#c8d9dc"/></clipPath></defs><g transform="translate(0)"><g transform="translate(0)" clip-path="url(#a)"><g clip-path="url(#b)"><g transform="translate(3.466 58.822)" opacity="0.31"><g clip-path="url(#c)"><path d="M169.363,253.7H8.44c-1.093,0-2.152-.48-2.152-1.067l-.166-.708c0-.587.894-1.067,1.987-1.067h161.42c1.093,0,1.987.48,1.987,1.067l-.331.708c0,.587-.728,1.067-1.821,1.067" transform="translate(-6.122 -250.856)" fill="#235b68"/></g></g><path d="M274.765,36.98q.311.455.6.94c3.814,6.3,5.532,16.321,6.166,21.083.048.364.094.725.136,1.067.048.407.086.746.113,1.007.042.393.061.609.061.609h.014l.572.043,17.122,1.284.487-3.89a7.452,7.452,0,0,0,1.751-1.462c1.356-1.608.814-3.015-.024-3.374-1.882-.8-5.606-1.486-13.078.831q-.685.213-1.413.46s-.194-1.2-.462-2.688a50.588,50.588,0,0,0-1.1-5.109q-.076-.229-.152-.453c-.035-.1-.069-.2-.1-.3a57.437,57.437,0,0,0-3.1-7.587q-.368-.711-.743-1.345a17.266,17.266,0,0,0-1.524-2.2,6.68,6.68,0,0,0-1.248-1.208c.432.064.647.083.647.083,2.625.565,1.532-3.62,1.532-3.62-.417-1.987-1.1-2.474-1.1-2.474-.687-.521-2.822,1.014-2.822,1.014-3.266,1.834-1.4,3.955-.933,4.418q.306.09.611.169c-1.372.544-2.005,2.708-2.005,2.708" transform="translate(-196.749 -21.866)" fill="#2a3236"/><path d="M285.745,158.379c.048.364.094.725.136,1.068.044.366.086.71.12,1.014.026.226.049.43.067.6.041.37.065.6.065.6l1.1.046,16.528.685.488-3.89Z" transform="translate(-200.959 -121.241)" fill="#2f393d"/><path d="M417.025,39.183q.311.455.6.94c3.814,6.3,5.532,16.321,6.166,21.083.048.364.094.725.135,1.067.048.407.086.746.113,1.007.042.393.061.608.061.608h.014l.572.043,17.122,1.284.487-3.891a7.446,7.446,0,0,0,1.751-1.462c1.356-1.608.813-3.015-.024-3.374-1.882-.8-5.606-1.486-13.078.831q-.685.213-1.414.46s-.194-1.2-.462-2.688a50.581,50.581,0,0,0-1.1-5.109q-.076-.229-.153-.453c-.034-.1-.069-.2-.1-.3a57.428,57.428,0,0,0-3.1-7.587q-.367-.711-.743-1.345a17.269,17.269,0,0,0-1.523-2.2,6.681,6.681,0,0,0-1.248-1.208c.433.064.647.083.647.083,2.625.565,1.532-3.62,1.532-3.62-.417-1.987-1.1-2.474-1.1-2.474-.687-.521-2.822,1.014-2.822,1.014-3.266,1.834-1.4,3.955-.934,4.418q.306.09.611.169c-1.372.544-2.005,2.708-2.005,2.708" transform="translate(-372.367 -23.552)" fill="#2a3236"/><path d="M428.005,160.582c.048.364.094.725.135,1.067.044.366.086.711.12,1.014.026.227.049.43.067.6.041.37.065.6.065.6l1.1.046,16.528.685.488-3.89Z" transform="translate(-376.577 -122.928)" fill="#2f393d"/><path d="M215.378,71.123c4.931.859,11.343,5.012,11.343,5.012,2.084.476.453-9.634.58-10.139a.622.622,0,0,0,.014-.069c-2.134-1.463-5.925-3.565-9.574-3.656a17.794,17.794,0,0,1-2.363,8.853" transform="translate(-107.999 -47.669)" fill="#0b2728"/><path d="M267.947,68.8a.67.67,0,0,0,1.268.405l3.015-9.428a.67.67,0,0,0-1.268-.405Z" transform="translate(-164.785 -45.146)" fill="#0b2728"/><path d="M266.949,76.331c-.042.131.421.4,1.033.592s1.144.248,1.186.117l1.261-3.941c.042-.131-.421-.4-1.034-.592s-1.143-.249-1.186-.117Z" transform="translate(-162.733 -55.36)" fill="#0b2728"/><path d="M253.591,77.25l-5.39-1.416-1.153,3.191,5.787,2.441Z" transform="translate(-141.226 -58.052)" fill="#0b2728"/><g transform="translate(28.633 1.186)" opacity="0.88"><g clip-path="url(#d)"><path d="M235.6,7.96l-3.668,3.782.491,3.4,9.252,6.679,77.236,1.474.3-1.5L316.944,18.5l-10.419-5.139L294.41,8.345,286.6,6.107l-6.081-.973L269.13,5.06l-13.338.846L243.963,6.1Z" transform="translate(-231.928 -5.06)" fill="#d2e1f1"/></g></g><g transform="translate(27.25 1.175)" opacity="0.88" style="mix-blend-mode:screen;isolation:isolate"><g clip-path="url(#e)"><path d="M341.119,16.928s-28.326-6.338-82.372-3.38l3.137-3.654,7.4-3.5,12.32-.541,13.927-.842,9.3.061,8.688.99,6.043.662,7.713,3.289Z" transform="translate(-258.747 -5.009)" fill="#0c5961"/></g></g><path d="M381.294,25.672l-8.244-.144L371.418,10.4c1.447.1,2.831.219,4.129.365Z" transform="translate(-298.092 -7.964)" fill="#39454a"/><path d="M41.429,137.518l2.437,1.913,32.966.216,2.141-2.393.283-6.939-2.008-5.071-3.409-4.919-3.917-3.5-5.407-1.631-5.755-.726-7.2,1.825-4.32,3.621L43.5,124.126l-2.025,5.62Z" transform="translate(81.325 -87.627)" fill="#2a3236"/><path d="M491.208,132.048l1.317,2.073,33.171.559,3.877-3.732-.136-4.527-3.772-9.162-5.707-4.893-6.862-3.474-7.864.729-8.489,2.593-4.188,5.886-2.421,5.724Z" transform="translate(-474.208 -83.359)" fill="#2a3236"/><path d="M170.239,44.774a5.69,5.69,0,0,1-2.841,4.59c-.159.093-.324.178-.493.255a5.887,5.887,0,0,1-.913.326l-7.837,2.076h-.109a17.918,17.918,0,0,0-1.246-13.9,17.1,17.1,0,0,0-30.214-.148,17.913,17.913,0,0,0-1.4,13.837l-73.7-.483a17.8,17.8,0,0,0,.708-3.159c.007-.058.015-.118.022-.176a18.022,18.022,0,0,0,.128-2.035,17.737,17.737,0,0,0-2.47-9.185,17.461,17.461,0,0,0-6.31-6.246c-.076-.046-.153-.089-.23-.131a16.912,16.912,0,0,0-8.127-2.131,17.16,17.16,0,0,0-14.532,7.926,17.915,17.915,0,0,0-2.116,14.7L3.822,43.743A6.774,6.774,0,0,1,.273,35.748a6.453,6.453,0,0,1,.236-.673L2.17,31.027a8.131,8.131,0,0,0,.224-5.557L1.8,23.6a5.58,5.58,0,0,1,2.192-6.324L6.6,15.513l.307-.208.253-.171L20.5,6.114a26.456,26.456,0,0,1,3.684-2.08A25.93,25.93,0,0,1,31.758,1.85,277,277,0,0,1,78.705.408a37.892,37.892,0,0,1,13.772,3.2l.192.086L120.9,16.306l.069.03.634.283a19.794,19.794,0,0,0,2.721.982,24.255,24.255,0,0,0,3.119.661c15.064,2.2,19.815,3.029,25,4.014,1.09.207,2.2.421,3.426.655a20.253,20.253,0,0,1,8.669,3.805,12.423,12.423,0,0,1,1.437,1.3c.2.211.391.428.575.652a12.834,12.834,0,0,1,1.954,3.238q.177.422.326.858c.109.324.208.653.292.987.265,1.045.476,2.055.639,3.02a35.258,35.258,0,0,1,.472,7.98m-55.82-27.6a.751.751,0,0,0-.459-.753s-1.972-.929-4.834-2.256h0c-5.811-2.69-15.288-7.009-19.387-8.48a34.681,34.681,0,0,0-5.469-1.683c-1.245-.227-2.647-.42-4.168-.582-1.3-.137-2.682-.252-4.129-.345-6.738-.436-14.825-.418-21.813-.164-2.554.093-4.961.218-7.1.365a62.523,62.523,0,0,0-8.338.943c-.975.235-5.578,1.417-7.481,2.908a1.723,1.723,0,0,0-.455,2.6,38.687,38.687,0,0,0,4.168,4.166,12.63,12.63,0,0,0,3.438,2.139c.041.016.081.032.122.047a8.793,8.793,0,0,0,2.431.586c.071.008.141.013.21.019.141.008.282.014.425.017l8.1.136,27.93.467,3.623.061.182,0,4.44.075,24.1.4,3.679.061a.747.747,0,0,0,.731-.482c.009-.023.016-.046.023-.071a.742.742,0,0,0,.033-.176" transform="translate(0 0)" fill="#f88f05"/><path d="M550.64,154.261a11.834,11.834,0,1,1-11.756-11.911A11.834,11.834,0,0,1,550.64,154.261Z" transform="translate(-503.913 -108.971)" fill="none" stroke="#ea750a" stroke-miterlimit="10" stroke-width="1"/><g transform="translate(1.733 15.513)" opacity="0.63" style="mix-blend-mode:screen;isolation:isolate"><g clip-path="url(#f)"><path d="M226.823,72.921c-28.533-.37-114.5-1.479-150.716-1.857a5.574,5.574,0,0,1,2.256-3.142l2.611-1.765,31.911.566a8.8,8.8,0,0,0,2.431.586c.071.008.141.013.21.019.141.008.283.014.425.017l8.1.136,27.93.467,3.623.061.182,0,4.44.075,24.1.4,3.679.061a.746.746,0,0,0,.73-.483l9.966.177a24.341,24.341,0,0,0,3.119.661c15.064,2.2,19.815,3.029,25,4.014" transform="translate(-76.107 -66.157)" fill="#2a718d"/></g></g><path d="M675.021,76.924l-1.706.859a2.091,2.091,0,0,1-.7.212c-.025,0-.05.007-.074.008l-3.406.3-7.232.646a5.439,5.439,0,0,1,.25-1.037,5.576,5.576,0,0,1,1.585-2.369l10.98.072a.688.688,0,0,1,.306,1.3" transform="translate(-660.313 -57.834)" fill="#a80b0b"/><path d="M624.125,18.086l-17.17,10.421-5.09-.033.254-.171,13.34-9.019a26.456,26.456,0,0,1,3.684-2.08l.882.156Z" transform="translate(-594.959 -13.168)" fill="#c8d9dc"/><g transform="translate(6.906 4.033)" opacity="0.65" style="mix-blend-mode:screen;isolation:isolate"><g clip-path="url(#g)"><path d="M637.51,17.357l-16.08,11.129-2.08-.014.253-.171,13.34-9.019a26.476,26.476,0,0,1,3.684-2.081Z" transform="translate(-619.351 -17.201)" fill="#0c5961"/></g></g><path d="M592.552,9.446l12.106-1.368L602.391,11.1,600.1,12.493l-7.614-2.259a.4.4,0,0,1,.069-.788" transform="translate(-573.225 -6.184)" fill="#d68205"/><path d="M366.962,97.841l-12.591-.261a.471.471,0,0,1,.02-.941l12.591.261a.471.471,0,1,1-.019.941" transform="translate(-280.135 -73.978)" fill="#39454a"/><g transform="translate(49.876 36.766)" opacity="0.17" style="mix-blend-mode:multiply;isolation:isolate"><g clip-path="url(#h)"><path d="M263.106,158a17.913,17.913,0,0,0-1.4,13.837l-73.7-.482a17.8,17.8,0,0,0,.707-3.159l.023-.176a18.018,18.018,0,0,0,.128-2.035,17.736,17.736,0,0,0-2.47-9.185c24.466.467,53.156.957,76.712,1.2" transform="translate(-186.394 -156.794)" fill="#2a718d"/></g></g><path d="M242.785,64.159l-3.679-.061-.827-3.678c2.862,1.327,4.834,2.256,4.834,2.256a.775.775,0,0,1-.328,1.483" transform="translate(-129.153 -46.252)" fill="#3f4d52"/><path d="M505.36,21.525l1.21,4.825-8.1-.136a8.8,8.8,0,0,1-3.188-.669l8.668-12.753c2.141-.147,4.548-.272,7.1-.365l-5.327,7.25a2.212,2.212,0,0,0-.363,1.847" transform="translate(-456.892 -9.514)" fill="#39454a"/><path d="M544.383,84.925c-.076-.046-.153-.089-.231-.13l-3.562-10.37a2.5,2.5,0,0,1,.4-2.363l.773-.993c.07.007.141.013.21.019l-.844,1.082a2.329,2.329,0,0,0-.368,2.2Z" transform="translate(-500.817 -54.404)" fill="#1b4859"/><path d="M270.019,103.226a2.148,2.148,0,0,1-2.138,1.849h-.012l-68.045-.834c.007-.058.015-.118.022-.177l30.682.376.178,0,37.164.455h.012a1.971,1.971,0,0,0,1.962-1.7c.728-5.2,2.14-18.09-.432-25.479a3.952,3.952,0,0,0-2.354-2.41l-5.045-1.88a.741.741,0,0,0,.033-.176l5.072,1.89a4.126,4.126,0,0,1,2.459,2.516c2.584,7.425,1.17,20.351.44,25.563" transform="translate(-147.628 -56.079)" fill="#1b4859"/><g transform="translate(156.801 37.995)" opacity="0.17" style="mix-blend-mode:multiply;isolation:isolate"><g transform="translate(0)"><g clip-path="url(#i)"><path d="M24.916,163.666,22.26,174.588l-1.9.5-3.654.968H16.6a17.879,17.879,0,0,0,.858-5.37,17.731,17.731,0,0,0-2.1-8.533c3.434-.015,6.424-.046,8.878-.1.35-.006.689-.015,1.015-.022l-.4,1.631Z" transform="translate(-15.353 -162.035)" fill="#2a718d"/></g></g></g><path d="M377.664,74.007a108.931,108.931,0,0,1,1.665,31c0,.032-.006.064-.009.1l-.177-.019c0-.026.006-.053.008-.079a108.688,108.688,0,0,0-1.669-31Z" transform="translate(-298.017 -56.651)" fill="#1b4859"/><path d="M18.628,120.771l-4.592-.321a1.535,1.535,0,0,1-.943-.412L11.02,118.1a1.59,1.59,0,0,0-.645-.367l-3.444-1a.783.783,0,0,1-.547-.586l-.157-.725a.4.4,0,0,1,.424-.482c1.435.126,5.489.508,9.123,1.086a12.937,12.937,0,0,1,2.856,4.749" transform="translate(150.208 -87.985)" fill="#c1e9f4"/><g transform="translate(162.432 36.775)" opacity="0.55" style="mix-blend-mode:multiply;isolation:isolate"><g transform="translate(0)"><g clip-path="url(#j)"><path d="M7.808,164.83a5.691,5.691,0,0,1-2.841,4.59l-3.51.282-.028,0a1.348,1.348,0,0,1-1.362-1.76l3.32-10.3a1.177,1.177,0,0,1,1.126-.814l2.823.019a35.246,35.246,0,0,1,.472,7.98" transform="translate(0 -156.832)" fill="#2a718d"/></g></g></g><path d="M18.65,156.832l-.3,1.22-.4,1.631L15.52,169.7a1.346,1.346,0,0,1-1.362-1.761l3.181-9.87.139-.428a1.177,1.177,0,0,1,1.126-.814Z" transform="translate(148.341 -120.057)" fill="#c1e9f4"/><path d="M681.109,77l1.022,1.121c-.025,0-.05.007-.074.008l-3.406.3-.319-.676-6.664.287a5.534,5.534,0,0,1,1.065-1.845l5.659.037.745-.523,3.492.023Z" transform="translate(-669.832 -57.959)" fill="#e30f0f"/><path d="M18.742,122.171l-4.232-.25-.942-.725-1.976-1.524-3.771-1.192-.213-.067,0-.528s5.109.544,9.176,1.047q.336.4.637.838a12.885,12.885,0,0,1,1.023,1.749c.1.214.2.432.294.652" transform="translate(149.769 -90.243)" fill="#e8f6f9"/><path d="M249.634,64.109a1.371,1.371,0,0,0,.482.594,2.778,2.778,0,0,0,1.415.564c1.545.134,8.407.569,9.764.16.042-.012.078-.026.109-.038,1.087-.413-1.515-1.093-4.266-1.577a26.984,26.984,0,0,0-6.3-.512,1.837,1.837,0,0,0-1.055.276.446.446,0,0,0-.146.533" transform="translate(-149.89 -48.44)" fill="#f88f05"/><path d="M250.712,65.085a1.371,1.371,0,0,0,.482.594,2.778,2.778,0,0,0,1.415.564c1.545.134,8.407.569,9.764.16.042-.012.078-.026.109-.038a102.225,102.225,0,0,0-11.624-1.813.446.446,0,0,0-.146.533" transform="translate(-150.969 -49.415)" fill="#d68205"/><path d="M281.363,66.823a1.371,1.371,0,0,0,.482.594l4.037.1.056-.581Z" transform="translate(-181.619 -51.154)" fill="#c1e9f4"/><g transform="translate(0 35.747)" opacity="0.17" style="mix-blend-mode:multiply;isolation:isolate"><g clip-path="url(#k)"><path d="M658.744,152.887a17.913,17.913,0,0,0-2.116,14.7l-14.738-7.138a6.774,6.774,0,0,1-3.549-8c4.175.093,11.323.249,20.4.437" transform="translate(-638.067 -152.45)" fill="#2a718d"/></g></g><path d="M539.554,167.712a11.927,11.927,0,0,1-14.14-9.183,11.777,11.777,0,0,1-.233-1.682,11.917,11.917,0,0,1,19.926-9.6,12.061,12.061,0,0,1,1.921,2.241,11.864,11.864,0,0,1,1.48,3.182c.088.3.166.6.231.907a11.937,11.937,0,0,1-9.184,14.14m9.011-14.1c-.058-.272-.125-.54-.2-.8a11.677,11.677,0,0,0-1.465-3.2,11.8,11.8,0,0,0-9.193-5.29,11.744,11.744,0,0,0-9.315,19.636,11.87,11.87,0,0,0,5.441,3.381,11.744,11.744,0,0,0,14.732-13.729" transform="translate(-501.847 -110.331)" fill="#cedee6"/><path d="M542.064,146.047a14.988,14.988,0,1,1-14.988-14.988,14.988,14.988,0,0,1,14.988,14.988" transform="translate(-491.847 -100.328)" fill="#4b5961"/><path d="M546.334,152.2a13.1,13.1,0,1,1-13.1-13.1,13.1,13.1,0,0,1,13.1,13.1" transform="translate(-498.003 -106.482)" fill="#3b464d"/><path d="M544.325,165.912a11.836,11.836,0,1,1,2.619-16.529c.109.15.214.3.313.454a11.818,11.818,0,0,1-2.931,16.075" transform="translate(-502.14 -110.62)" fill="#c5d4db"/><g transform="translate(23.415 33.906)" opacity="0.65" style="mix-blend-mode:screen;isolation:isolate"><g clip-path="url(#l)"><path d="M561.8,147.664l-.065.065-16.589,16.589-.063.064a11.9,11.9,0,0,1-.826-1.013,11.772,11.772,0,0,1-2.24-6.241L554.542,144.6a11.814,11.814,0,0,1,7.256,3.065" transform="translate(-542.014 -144.599)" fill="#c5d4db"/></g></g><g transform="translate(28.724 39.217)" opacity="0.76" style="mix-blend-mode:screen;isolation:isolate"><g clip-path="url(#m)"><path d="M545.417,170.433,530.74,185.11a11.794,11.794,0,0,1-3.19-1.471l16.391-16.391a11.723,11.723,0,0,1,1.476,3.185" transform="translate(-527.55 -167.248)" fill="#c5d4db"/></g></g><path d="M568.686,150.782h-4.881l.691,2.838,1.749,1.01,1.431,4.039h1.851Z" transform="translate(-531.437 -115.426)" fill="#2f393d"/><path d="M579.607,160.471l-3.072,3.793,2.641,1.249,1.885-.724,4.039,1.43,1.165-1.439Z" transform="translate(-551.161 -122.843)" fill="#2f393d"/><path d="M587.232,187.7l1.015,4.774,2.633-1.266.624-1.921,3.653-2.239-.385-1.811Z" transform="translate(-562.56 -141.802)" fill="#2f393d"/><path d="M582.332,206.257l4.349,2.216.672-2.843-1.1-1.694.559-4.248-1.649-.84Z" transform="translate(-553.607 -152.22)" fill="#2f393d"/><path d="M550.861,213.992l4.459-1.985-1.786-2.312-2.008-.211-2.95-3.108-1.691.753Z" transform="translate(-513.262 -157.984)" fill="#2f393d"/><path d="M538,199.127l1.263-4.714-2.921-.067-1.428,1.428-4.272.336-.479,1.788Z" transform="translate(-493.279 -148.774)" fill="#2f393d"/><path d="M542.164,163.077l-2.869-3.949-1.89,2.228.211,2.008-2.427,3.532,1.088,1.5Z" transform="translate(-497.364 -121.815)" fill="#2f393d"/><path d="M571.576,188.59a1.956,1.956,0,1,1-1.956-1.957,1.957,1.957,0,0,1,1.956,1.957" transform="translate(-534.391 -142.87)" fill="#2f393d"/><path d="M86.152,167.712a11.927,11.927,0,0,1-14.14-9.183,11.812,11.812,0,0,1-.233-1.682,11.922,11.922,0,0,1,23.326-4.183c.088.3.166.6.231.907a11.937,11.937,0,0,1-9.184,14.14m9.011-14.1c-.058-.272-.125-.54-.2-.8a11.678,11.678,0,0,0-1.465-3.2,11.8,11.8,0,0,0-9.193-5.29,11.744,11.744,0,0,0-9.315,19.636,11.871,11.871,0,0,0,5.441,3.381,11.744,11.744,0,0,0,14.732-13.729" transform="translate(57.871 -110.331)" fill="#cedee6"/><path d="M88.663,146.047a14.988,14.988,0,1,1-14.988-14.988,14.988,14.988,0,0,1,14.988,14.988" transform="translate(67.87 -100.328)" fill="#4b5961"/><path d="M92.933,152.2a13.1,13.1,0,1,1-13.1-13.1,13.1,13.1,0,0,1,13.1,13.1" transform="translate(61.715 -106.482)" fill="#3b464d"/><path d="M90.924,165.912a11.836,11.836,0,1,1,2.618-16.529c.109.15.214.3.313.454a11.817,11.817,0,0,1-2.931,16.075" transform="translate(57.577 -110.62)" fill="#c5d4db"/><g transform="translate(129.731 33.906)" opacity="0.65" style="mix-blend-mode:screen;isolation:isolate"><g transform="translate(0)"><g clip-path="url(#l)"><path d="M108.4,147.664l-.065.065L91.743,164.318l-.064.064a11.892,11.892,0,0,1-.826-1.013,11.774,11.774,0,0,1-2.241-6.241L101.141,144.6a11.814,11.814,0,0,1,7.256,3.065" transform="translate(-88.613 -144.599)" fill="#c5d4db"/></g></g></g><g transform="translate(135.04 39.217)" opacity="0.76" style="mix-blend-mode:screen;isolation:isolate"><g transform="translate(0)"><g clip-path="url(#m)"><path d="M92.015,170.433,77.338,185.11a11.791,11.791,0,0,1-3.19-1.471l16.391-16.391a11.724,11.724,0,0,1,1.476,3.185" transform="translate(-74.148 -167.248)" fill="#c5d4db"/></g></g></g><path d="M115.284,150.782H110.4l.691,2.838,1.749,1.01,1.431,4.039h1.851Z" transform="translate(28.28 -115.426)" fill="#2f393d"/><path d="M126.205,160.471l-3.072,3.793,2.641,1.249,1.886-.724,4.039,1.43,1.165-1.439Z" transform="translate(8.557 -122.843)" fill="#2f393d"/><path d="M133.83,187.7l1.015,4.774,2.632-1.266.624-1.921,3.653-2.239-.385-1.811Z" transform="translate(-2.842 -141.802)" fill="#2f393d"/><path d="M128.931,206.257l4.349,2.216.672-2.843-1.1-1.694.559-4.248-1.649-.84Z" transform="translate(6.11 -152.22)" fill="#2f393d"/><path d="M97.459,213.992l4.459-1.985-1.786-2.312-2.008-.211-2.95-3.108-1.691.753Z" transform="translate(46.456 -157.984)" fill="#2f393d"/><path d="M84.594,199.127l1.263-4.714-2.921-.067-1.428,1.428-4.272.336-.479,1.788Z" transform="translate(66.439 -148.774)" fill="#2f393d"/><path d="M88.762,163.077l-2.869-3.949L84,161.356l.211,2.008L81.788,166.9l1.088,1.5Z" transform="translate(62.354 -121.815)" fill="#2f393d"/><path d="M118.175,188.59a1.956,1.956,0,1,1-1.957-1.957,1.957,1.957,0,0,1,1.957,1.957" transform="translate(25.327 -142.87)" fill="#2f393d"/><g transform="translate(26.203 1.495)" opacity="0.63" style="mix-blend-mode:screen;isolation:isolate"><g clip-path="url(#p)"><path d="M353.319,8.751c2.494-.395,5.016-.705,7.542-1,.316-.036.635-.054.954-.076l.955-.073c.636-.049,1.272-.1,1.909-.146,1.275-.086,2.548-.185,3.824-.26s2.551-.159,3.829-.225l3.834-.192L380,6.629l.96-.037.96-.026,1.921-.052,1.921-.052c.64-.016,1.282-.02,1.922-.031l3.845-.052h3.846c.641,0,1.282-.006,1.923.005l1.923.029c1.282.022,2.564.032,3.846.064l3.844.121c.639.042,1.279.076,1.917.126l1.912.158q1.911.16,3.817.333-1.925-.018-3.845-.048L408.8,7.133c-.64-.009-1.28,0-1.92,0l-3.83-.121c-1.277-.032-2.556-.042-3.833-.064L397.3,6.916c-.639-.011-1.278,0-1.917-.005h-3.834l-3.833.052c-.639.011-1.278.015-1.916.031l-1.915.052-1.915.052-.958.026-.957.037-3.827.15L372.4,7.5c-1.274.066-2.545.151-3.818.225s-2.542.174-3.813.259-2.537.2-3.805.3q-3.823.209-7.647.467" transform="translate(-353.319 -6.376)" fill="#2a718d"/></g></g><path d="M244.117,28.242l-1.957-.089L238.88,28S216,16.46,210.629,15.593l5.252.034Z" transform="translate(-123.212 -11.937)" fill="#c8d9dc"/><g transform="translate(90.826 3.679)" opacity="0.49" style="mix-blend-mode:screen;isolation:isolate"><g transform="translate(0)"><g clip-path="url(#q)"><path d="M240.484,28.345l-2.732-.124L210.336,15.688l1.843.012Z" transform="translate(-210.336 -15.688)" fill="#c8d9dc"/></g></g></g><path d="M23.043,119.77c-3.367-.444-7.913-1.06-9.6-1.29l-.213-.067,0-.528s5.11.544,9.176,1.047q.336.4.637.838" transform="translate(144.151 -90.243)" fill="#bfe1e8"/><path d="M12.782,132.979l-4.232-.25L7.608,132c1.135.1,3.378.275,4.88.323.1.214.2.432.294.652" transform="translate(155.729 -101.051)" fill="#bfe1e8"/></g></g></g></svg>