<svg xmlns="http://www.w3.org/2000/svg" xmlns:xlink="http://www.w3.org/1999/xlink" width="119.598" height="121.916" viewBox="0 0 119.598 121.916"><defs><clipPath id="a"><rect width="85.233" height="91.566" transform="translate(-4)" fill="none"/></clipPath></defs><g transform="translate(3.464 40.617) rotate(-30)"><g clip-path="url(#a)"><path d="M370.442,608.23a4.242,4.242,0,0,0-.137-1.587" transform="translate(-340.038 -523.409)" fill="#382d36"/><path d="M446.7,164.044l6.418,5.806,4.259-3.335-6.313-5.488Z" transform="translate(-437.433 -138.933)" fill="#edb47c"/><path d="M299.422,186.622a4.806,4.806,0,0,0,2.909-1.145,8.836,8.836,0,0,0,1.649-2.759s3.393-1.915,4.928-1.488c1.24.345,3.682,3.2,4.782,4.358,3.9,4.1,11.549,10.614,11.549,10.614l-8.5,9.045s-13.686-8-19.23-13.632c-.9-.921,1.911-4.994,1.911-4.994" transform="translate(-284.802 -156.312)" fill="#fff"/><path d="M279.693,104.006c2.14-1.718,5.753-7.859,7.03-11.049l2.647,1.059a49.467,49.467,0,0,1-5.689,10.313c-1.848,2.38-3.263,2.548-4.129,2.075-1.216-.667-1.059-1.434.141-2.4" transform="translate(-246.377 -80.203)" fill="#edb47c"/><path d="M452.108,444.344l2.021,2.474a.4.4,0,0,1-.614.5l-2.009-2.484Z" transform="translate(-434.934 -383.378)" fill="#edb47c"/><path d="M436.891,437.488l2.959,3.62a.512.512,0,1,1-.793.648l-2.96-3.619Z" transform="translate(-418.566 -377.462)" fill="#edb47c"/><path d="M426.023,433.339l2.959,3.62a.513.513,0,1,1-.794.649l-2.959-3.619Z" transform="translate(-406.207 -373.883)" fill="#edb47c"/><path d="M422.18,425.742l2.634,3.224a.456.456,0,0,1-.707.577l-2.635-3.223Z" transform="translate(-401.512 -367.328)" fill="#edb47c"/><path d="M437.32,402.691a5.312,5.312,0,0,0,3.043,1.293l-.223,1.37,1.291,1.577-4.866,2.16c-1.3-1.83-.743-4.158-1.741-5.154Z" transform="translate(-419.858 -347.44)" fill="#edb47c"/><path d="M427.988,411.119l3.432.281a.635.635,0,1,1,0,1.27l-3.669.049Z" transform="translate(-409.509 -354.711)" fill="#edb47c"/><path d="M281.9,112.32l-.649,4.314s7.735,1.014,12.845-2.555c5.285-3.693,7.189-11.225,7.189-11.225l-3.311-1.354s-2.994,6.371-6.113,8.755c-3.9,2.982-9.961,2.066-9.961,2.066" transform="translate(-258.645 -87.573)" fill="#2f393d"/><path d="M115.543,308.587l18.943,7.636,11.8,12.423,1.845-2.473-10.366-14.4-15.6-11.566Z" transform="translate(-82.752 -259.016)" fill="#53586d"/><path d="M40.424,268.061l18.381-10.079,18.134-3.029-.492-3.175-16.955.847L40.23,257.476Z" transform="translate(-1.226 -217.233)" fill="#53586d"/><path d="M299.422,185.569s5.34,3,6.778,1.034c1.125-1.541-2.22-4.938-2.22-4.938s2.544-2.087,4.08-1.66c1.24.345,4.53,3.372,5.63,4.53,3.9,4.1,11.549,10.614,11.549,10.614l-8.5,9.045s-13.686-8-19.23-13.632c-.9-.921,1.911-4.994,1.911-4.994" transform="translate(-284.802 -155.258)" fill="#2f393d"/><path d="M297.332,292.953l7.893-9.987,1.092.92-7.5,9.681Z" transform="translate(-265.879 -244.141)" fill="#fff"/><path d="M333.648,338.43,335.7,339.6l1.059-1.1-2.106-1.3Z" transform="translate(-301.303 -290.934)" fill="#212f42"/><path d="M468.191,247.732c.013-.773-3.862-.941-3.862-.941a28.216,28.216,0,0,0-2.718,11.03c.031,6.447,4.759,11.782,4.759,11.782l3.149-1.7s-3.021-6.359-2.882-10.282c.173-4.908,1.495-6.35,1.556-9.891" transform="translate(-451.619 -212.93)" fill="#2f393d"/><path d="M488.7,100.447a6.532,6.532,0,0,0,3.164-2.009c.815-1.2-.128-6.738-.128-6.738s-2.391-4.7-5.11-5.192c-2.581-.467-6.254,1.491-6.891,4.034-.671,2.675,2.834,7.345,2.834,7.345s4.654,2.818,6.131,2.56" transform="translate(-476.506 -72.882)" fill="#fdcb93"/><path d="M546.915,168.373c.866.623,1.365,1.408,1.116,1.754s-1.152.122-2.017-.5-1.366-1.408-1.116-1.754,1.152-.123,2.018.5" transform="translate(-541.615 -144.699)" fill="#fdcb93"/><path d="M476.373,121.584c.153,1.055.618,1.861,1.04,1.8s.641-.966.488-2.021-.619-1.861-1.041-1.8-.64.966-.487,2.021" transform="translate(-462.07 -103.155)" fill="#fdcb93"/><path d="M553.211,170.258c.46.344.752.731.652.865s-.553-.037-1.014-.381-.752-.731-.652-.865.554.037,1.014.381" transform="translate(-548.411 -146.529)" fill="#edb47c"/><path d="M480.851,124.266c.062.572.246,1.02.412,1s.25-.5.188-1.066-.246-1.02-.412-1-.249.5-.188,1.066" transform="translate(-466.21 -106.296)" fill="#edb47c"/><path d="M508.75,154.19s.012.587.407.348,1.028-.977.979-1.147-1.386.8-1.386.8" transform="translate(-498.709 -132.328)" fill="#edb47c"/><path d="M541.57,153.376a.538.538,0,1,1-.75-.108.536.536,0,0,1,.75.108" transform="translate(-534.615 -132.148)" fill="#2a2725"/><path d="M534.857,151.468c.147-.03.287-.075.428-.117l.035-.01.008-.058a1.386,1.386,0,0,1,.036-.17c.016-.057.034-.114.052-.17s.042-.109.067-.162a1.7,1.7,0,0,1,.077-.157c.028-.051.058-.1.09-.148s.068-.093.1-.141.073-.089.113-.131.078-.086.123-.123l.064-.058.017-.015.013-.01.037-.029a1.446,1.446,0,0,1,.143-.107l.069-.045c.025-.013.049-.026.075-.041a.944.944,0,0,1,.153-.069l.08-.024.082-.016a.867.867,0,0,1,.168,0,.734.734,0,0,1,.335.123.609.609,0,0,0-.3-.248.764.764,0,0,0-.2-.045l-.105,0c-.034,0-.068.008-.1.012a1.132,1.132,0,0,0-.2.052,1.083,1.083,0,0,0-.188.086,1.526,1.526,0,0,0-.167.1l-.039.026-.023.017-.019.016-.078.064a1.871,1.871,0,0,0-.145.138c-.046.048-.086.1-.129.155a1.914,1.914,0,0,0-.11.168,1.39,1.39,0,0,0-.089.179,1.888,1.888,0,0,0-.07.188c-.02.063-.034.129-.047.193a1.52,1.52,0,0,0-.023.2,1.558,1.558,0,0,0,0,.2l.042-.069c-.124.08-.248.158-.367.249" transform="translate(-529.372 -128.981)"/><path d="M548.137,134.966a3.52,3.52,0,0,1-.114-1.729,5.448,5.448,0,0,1,1.429-1.251l.643.674s-1.491.927-1.683,1.378a4.463,4.463,0,0,0-.276.928" transform="translate(-544.042 -113.878)" fill="#2a2725"/><path d="M506.3,130.353a.538.538,0,1,0,.2-.73.535.535,0,0,0-.2.73" transform="translate(-495.526 -111.778)" fill="#2a2725"/><path d="M498.306,126.87c-.131.072-.253.154-.376.235l.079-.011a1.38,1.38,0,0,0-.183-.084,1.519,1.519,0,0,0-.19-.058c-.064-.014-.13-.028-.2-.036s-.133-.01-.2-.011a1.454,1.454,0,0,0-.2.01c-.068.006-.133.021-.2.033s-.131.033-.193.056a1.7,1.7,0,0,0-.185.077l-.09.045-.022.011-.026.014-.04.026a1.553,1.553,0,0,0-.161.113,1.039,1.039,0,0,0-.154.136,1.2,1.2,0,0,0-.129.162c-.017.03-.036.059-.052.09l-.04.1a.756.756,0,0,0-.039.2.6.6,0,0,0,.105.377.72.72,0,0,1,.021-.355.9.9,0,0,1,.071-.153l.048-.068c.02-.02.037-.042.054-.063a.946.946,0,0,1,.124-.113c.023-.016.045-.034.067-.052l.07-.045a1.454,1.454,0,0,1,.155-.087l.041-.023.015-.008.02-.009.079-.035a1.7,1.7,0,0,1,.162-.064c.054-.02.11-.033.165-.05s.112-.029.169-.036.114-.018.172-.023.115-.007.173-.007.118,0,.177,0,.117.013.175.021a1.288,1.288,0,0,1,.171.036l.056.016.023-.027c.095-.112.192-.224.279-.345" transform="translate(-485.087 -109.463)"/><path d="M503.61,109.5s-.917-.9-1.469-.919a18.285,18.285,0,0,0-1.944.162l.217.976a12.863,12.863,0,0,1,2.248-.416,4.483,4.483,0,0,1,.949.2" transform="translate(-491.006 -93.681)" fill="#2a2725"/><path d="M495.763,171.374h.029a.789.789,0,0,0,.773-.562.762.762,0,0,0-.253-.838,1.62,1.62,0,0,0-.909-.284.7.7,0,0,0-.589.226.913.913,0,0,0,.064.87,1,1,0,0,0,.884.59m-.36-1.538a1.491,1.491,0,0,1,.824.257.613.613,0,0,1,.2.676.649.649,0,0,1-.637.458h-.025a.881.881,0,0,1-.755-.511.8.8,0,0,1-.074-.718.577.577,0,0,1,.469-.163" transform="translate(-483.247 -146.407)" fill="#98633c"/><path d="M257.665,44.414l.391-3.17a.4.4,0,0,1,.788.1l-.408,3.169Z" transform="translate(-212.967 -35.285)" fill="#edb47c"/><path d="M265.421,33.212l.572-4.64a.513.513,0,0,1,1.018.126l-.573,4.64Z" transform="translate(-222.199 -24.264)" fill="#edb47c"/><path d="M275.925,28.216l.573-4.64a.512.512,0,1,1,1.017.126l-.572,4.639Z" transform="translate(-234.144 -19.954)" fill="#edb47c"/><path d="M286.986,32.483l.511-4.131a.456.456,0,1,1,.906.111l-.509,4.132Z" transform="translate(-246.547 -24.115)" fill="#edb47c"/><path d="M261.5,56.685a5.319,5.319,0,0,0-1.169-3.094l1.145-.785.249-2.024,4.922,2.025c-.421,2.208-2.492,3.411-2.522,4.82Z" transform="translate(-221.137 -43.815)" fill="#edb47c"/><path d="M289.575,59.052l-2.168-2.675a.635.635,0,1,1,.92-.874l2.572,2.618Z" transform="translate(-249.074 -47.717)" fill="#edb47c"/><path d="M296.441,290.7l2.2,1.315,1.059-1.1-1.958-1.6Z" transform="translate(-259.137 -249.623)" fill="#212f42"/><path d="M498.5,321.489a12.9,12.9,0,0,0,.193,3.082c.342,1,1.963.6,2.4-.316.355-.738.247-2.459-.651-3.025-.66-.416-1.947-.225-1.946.258" transform="translate(-488.444 -276.96)" fill="#212f42"/><path d="M317.116,169.917a12.488,12.488,0,0,0,2.43-2.053c.633-.851-.618-1.811-1.624-1.655-.809.126-2.165,1.191-2.122,2.252.032.78.918,1.731,1.316,1.456" transform="translate(-281.813 -143.39)" fill="#212f42"/><path d="M274.608,64.324c.051.061.282.241.344.191l.144-.118c.062-.05-.07-.312-.121-.374l-1.785-2.172c-.051-.061-1.228-1.912-1.289-1.861l-.143.118a18.679,18.679,0,0,0,1.067,2.044Z" transform="translate(-231.163 -51.759)" fill="#dd9d66"/><path d="M241,12.657a.734.734,0,0,0,1.031.115l4.115-3.383a.733.733,0,0,0,.087-1.033L239.595.277a.733.733,0,0,0-1.031-.115l-4.116,3.382a.733.733,0,0,0-.088,1.033Z" transform="translate(-197.305 -0.001)" fill="#fffffe"/><rect width="9.033" height="5.675" transform="matrix(-0.635, -0.773, 0.773, -0.635, 43.377, 11.38)" fill="#c9bed1"/><path d="M249.689,39.058l4.385-3.6L243.955,32.08Z" transform="translate(-206.312 -27.678)" fill="#797085"/><path d="M296.924,11.523l1.905-1.566-.132-.162-1.9,1.567Z" transform="translate(-258.318 -8.451)" fill="#c9bed1"/><path d="M249.443,69.71a.956.956,0,0,0,.963-.149.955.955,0,0,0-.251-1.625.956.956,0,0,0-.712,1.774m.421-1.047a.172.172,0,0,1,.069.05.169.169,0,0,1,.039.127.173.173,0,0,1-.238.143.168.168,0,0,1-.068-.05.173.173,0,0,1,.024-.244.17.17,0,0,1,.174-.027" transform="translate(-203.663 -58.556)" fill="#c9bed1"/><path d="M52.369,474.388l2.976,2.79,7.159-7.562a2.412,2.412,0,0,0-2.9-.585c-1.3.479-1.836,2.268-3.081,2.705a4.81,4.81,0,0,1-1.944.292Z" transform="translate(11.544 -404.489)" fill="#2f393d"/><rect width="0.911" height="10.414" transform="translate(67.553 73.312) rotate(-136.849)" fill="#fff"/><rect width="1.124" height="0.293" transform="translate(67.294 68.605) rotate(-109.283)" fill="#fff"/><rect width="1.226" height="0.294" transform="translate(67.918 68.573) rotate(-117.079)" fill="#fff"/><rect width="1.268" height="0.294" transform="matrix(-0.524, -0.851, 0.851, -0.524, 68.456, 68.454)" fill="#fff"/><rect width="1.188" height="0.293" transform="matrix(-0.623, -0.782, 0.782, -0.623, 68.92, 68.143)" fill="#fff"/><path d="M85.811,487.932l.2-.214-.835-.784-.2.214Z" transform="translate(-16.437 -420.125)" fill="#fff"/><path d="M115.871,473.281l-1.468-2.066-3.138,3.6,2.027,1.67Z" transform="translate(-49.903 -406.562)" fill="#7398a2"/><path d="M6.659,209.7l4.08-.03-.026-10.413a2.411,2.411,0,0,0-2.5,1.573c-.61,1.242.232,2.909-.368,4.084a4.821,4.821,0,0,1-1.207,1.552Z" transform="translate(69.584 -171.901)" fill="#2f393d"/><rect width="10.414" height="0.91" transform="translate(80.323 37.768) rotate(-90.421)" fill="#fff"/><rect width="1.124" height="0.293" transform="matrix(-0.891, -0.455, 0.455, -0.891, 77.801, 34.529)" fill="#fff"/><rect width="1.227" height="0.293" transform="matrix(-0.944, -0.33, 0.33, -0.944, 78.232, 34.075)" fill="#fff"/><path d="M20.322,241.207l.075-.283-1.225-.325-.075.284Z" transform="translate(58.217 -207.588)" fill="#fff"/><path d="M19.635,238.21l.04-.291-1.178-.16-.04.291Z" transform="translate(59.026 -205.137)" fill="#fff"/><rect width="0.293" height="1.144" transform="matrix(-0.008, -1, 1, -0.008, 77.614, 32.526)" fill="#fff"/><path d="M40.617,249.3l-2.526-.2.75,4.717,2.582-.483Z" transform="translate(34.585 -214.92)" fill="#7398a2"/><path d="M56.252,5.843c-4.1-.866-5.243,1.21-5.1,2.43.066.565-2.679-2.5-2.705-3.327-.034-1.024,0-1.571,1.161-1.9,0-1.059.8-1.391,1.987-1.593C53.31,1.165,55.62.119,55.752.488s.336,1.156.516,1.065S57.739.1,58.252.019s.5.091.6.411c.057.18.154.858.557.458a1.509,1.509,0,0,1,1.9.37A5.141,5.141,0,0,1,62.359,4.2a9.645,9.645,0,0,1-1.07,3.655A8.236,8.236,0,0,0,58.9,6.337a19.248,19.248,0,0,0-2.651-.494" transform="matrix(0.809, -0.588, 0.588, 0.809, -42.461, 44.007)"/></g></g></svg>