<svg xmlns="http://www.w3.org/2000/svg" xmlns:xlink="http://www.w3.org/1999/xlink" width="97.078" height="102.874" viewBox="0 0 97.078 102.874"><defs><clipPath id="a"><rect width="81.716" height="70.775" fill="none"/></clipPath></defs><g transform="matrix(0.391, -0.921, 0.921, 0.391, 0, 75.22)"><g transform="translate(0)" clip-path="url(#a)"><path d="M113.877,84.91q-.523,1.513-1.048,3.028c1.151-.507,1.469-.594,1.942-.315a.144.144,0,0,1,.011.24c-.321.233-.731.528-1.173.826a5.342,5.342,0,0,1-4.511.679c.018-.574.215-2.055.234-2.625a2.5,2.5,0,0,1,.195-1.069,1.353,1.353,0,0,1,.118-.189.43.43,0,0,1,.038-.075,2.48,2.48,0,0,1,.982-.942c.384-.21.043.041.439-.213a1.675,1.675,0,0,1,.605-.3,4.417,4.417,0,0,0,.459-.056c.131-.05.241-.187.385-.233a1.278,1.278,0,0,1,.827.039.483.483,0,0,1,.689.066c.266.316.012.774-.19,1.135" transform="translate(-88.103 -73.012)" fill="#fdcb93"/><path d="M153.092,365.661q-.71-1.34-1.423-2.681c1.151.307,1.461.342,1.863.011a.137.137,0,0,0-.025-.226c-.335-.171-.761-.387-1.219-.6a5.059,5.059,0,0,0-4.32.023c.1.535.5,1.891.6,2.422a2.366,2.366,0,0,0,.338.972,1.261,1.261,0,0,0,.138.16.4.4,0,0,0,.047.064,2.347,2.347,0,0,0,1.056.738c.39.14.034-.045.442.135a1.587,1.587,0,0,0,.61.191,4.163,4.163,0,0,1,.437-.015c.13.028.252.14.394.162a1.212,1.212,0,0,0,.768-.157.457.457,0,0,0,.635-.163c.2-.335-.1-.726-.344-1.034" transform="translate(-119.495 -297.592)" fill="#fdcb93"/><path d="M220.115,55.9l2.958-4.037a2.6,2.6,0,0,0,.673-1.552c-.027-.659-.7-.954-1.193-1.4a24.669,24.669,0,0,0-5.643-4.11c-.264-.148-.638-.277-.833-.045-.18.215-.03.537.12.773a26.447,26.447,0,0,1,2.4,5.875,4.363,4.363,0,0,1-.7,2.6c.641.586,1.57,1.3,2.212,1.889" transform="translate(-174.43 -41.547)" fill="#30323d"/><path d="M370.623,210.705l5.084-4.3c.548-.463,1.231-.958,1.918-.75.623.189.935.869,1.156,1.482q.465,1.3.83,2.625a2.587,2.587,0,0,1,.092,1.509,1.8,1.8,0,0,1-1.066,1.017,5.322,5.322,0,0,1-1.486.287l-5.343.513a4.794,4.794,0,0,0-1.184-2.385" transform="translate(-299.302 -171.545)" fill="#30323c"/><path d="M127.551,110.135s7.961-17.861,18.576-31.027l4.9,3.368s-9.206,12.245-12.73,27.367a2.485,2.485,0,0,0,2.524,3.059c6.328-.286,21.014-1.478,33.578-6.442a7.622,7.622,0,0,1,1.939,6.532s-25.822,7.553-36.233,13.37c0,0-6.328-13.268-12.554-16.228" transform="translate(-103.006 -69.388)" fill="#53586d"/><path d="M74.207,150.171a7.287,7.287,0,0,1-4.853,2.265,25.547,25.547,0,0,1-5.944-.1c-.039.013-.074.031-.114.048,2.034,2.444,3.963,4.329,3.963,4.329L65.6,158.485c-3.247-1.235-8.785-5.2-11.29-7.057-.009,0-.013-.013-.022-.018a24.534,24.534,0,0,1-8.44-18.241l0,0c.031-.668.048-1.331.044-1.99-.1-8.894,4.617-17.975,11.6-23.487a13.81,13.81,0,0,1,2.985,1.567,27.552,27.552,0,0,0-6.445,22.143,45.194,45.194,0,0,1,7.728.266,15.134,15.134,0,0,1,7.122,2.819,13.928,13.928,0,0,1,4.6,7.131,25.043,25.043,0,0,1,.737,8.549" transform="translate(-37.018 -92.475)" fill="#2f393d"/><path d="M71.183,235.159a6.583,6.583,0,0,0,2.289,3.189,3.91,3.91,0,0,0,3.617.486,5.543,5.543,0,0,0,2.825-3.666,5.648,5.648,0,0,0-.142-4.261,26.37,26.37,0,0,0-8.589,4.252" transform="translate(-57.485 -191.975)" fill="#fdcb93"/><path d="M75.671,224.051a1.489,1.489,0,0,1-1.332-1.407,1.332,1.332,0,0,1,.286-.962.885.885,0,0,1,.928-.282.668.668,0,0,1,.415.824,4.075,4.075,0,0,0,1.386-3.365,2.95,2.95,0,0,0,1.808-.9,2.99,2.99,0,0,0,.812-1.863,15.276,15.276,0,0,0-4.356-1.915,5.156,5.156,0,0,0-4.5.928,5.923,5.923,0,0,0-1.647,3.213,5.157,5.157,0,0,0,.058,3,4.311,4.311,0,0,0,2.494,2.275,14.539,14.539,0,0,0,3.652.451" transform="translate(-55.943 -178.35)" fill="#30323c"/><path d="M111.307,297.125c-2.86-2.834-8.929-10.8-10.288-14.694-.152-.435-.815-.238-.662.2,1.4,4.01,7.521,12.089,10.47,15.011.323.32.8-.2.48-.518" transform="translate(-81.026 -233.388)" fill="#30323c"/><rect width="3.445" height="0.313" transform="translate(78.527 39.88) rotate(-106)" fill="#fff"/><rect width="2.377" height="0.313" transform="translate(77.276 39.88) rotate(-106)" fill="#fff"/><rect width="2.377" height="0.313" transform="translate(76.208 39.88) rotate(-106)" fill="#fff"/><rect width="1.2" height="0.313" transform="matrix(-0.891, -0.455, 0.455, -0.891, 43.846, 7.038)" fill="#fff"/><rect width="1.2" height="0.313" transform="matrix(-0.891, -0.455, 0.455, -0.891, 43.846, 7.038)" fill="#fff"/><rect width="1.2" height="0.313" transform="matrix(-0.891, -0.455, 0.455, -0.891, 43.846, 8.106)" fill="#fff"/></g></g></svg>