<svg xmlns="http://www.w3.org/2000/svg" width="39.84" height="45.155" viewBox="0 0 39.84 45.155"><path d="M236.129,371.525l1.081.832-.457-1.285Zm-13.711-13.609-10.218-.283,8.885,6.087-8.885,6.088,10.766-.3-3.611,10.147,8.536-6.568,3.043,10.332,3.044-10.332,2.151-1.562-3.545-2.729-1.65,5.6-1.649-5.6-4.625,3.561,1.956-5.5-5.834.162,4.815-3.3-4.815-3.3,6.383.177-5.378-8.4,7.46,6.575,1.688-5.733,1.691,5.738,5.9-5.225-3.544,7.032,6.11-.169-4.816,3.3,4.816,3.3-5.835-.162,1.5,4.215,2.151-1.563,10.766.3-8.886-6.088,8.886-6.087-10.491.291,7.605-15.091-12.846,11.382-3-10.192-3,10.2-18.1-15.954Z" transform="translate(-209.83 -338.264)" fill="#dee4f0"/></svg>