<svg xmlns="http://www.w3.org/2000/svg" xmlns:xlink="http://www.w3.org/1999/xlink" width="400" height="222" viewBox="0 0 400 222">
  <defs>
    <clipPath id="clip-path">
      <path id="Rectangle_353876" data-name="Rectangle 353876" d="M12,0H388a12,12,0,0,1,12,12V222a0,0,0,0,1,0,0H0a0,0,0,0,1,0,0V12A12,12,0,0,1,12,0Z" transform="translate(180 4735)" fill="#727997"/>
    </clipPath>
    <clipPath id="clip-path-2">
      <rect id="Rectangle_353854" data-name="Rectangle 353854" width="540.468" height="385.327" fill="none"/>
    </clipPath>
    <clipPath id="clip-path-3">
      <rect id="Rectangle_340509" data-name="Rectangle 340509" width="233.872" height="84.686" fill="none"/>
    </clipPath>
    <clipPath id="clip-path-5">
      <rect id="Rectangle_340493" data-name="Rectangle 340493" width="227.141" height="3.903" fill="none"/>
    </clipPath>
    <clipPath id="clip-path-6">
      <rect id="Rectangle_340494" data-name="Rectangle 340494" width="119.862" height="25.039" fill="none"/>
    </clipPath>
    <clipPath id="clip-path-7">
      <rect id="Rectangle_340495" data-name="Rectangle 340495" width="113.124" height="16.369" fill="none"/>
    </clipPath>
    <clipPath id="clip-path-8">
      <rect id="Rectangle_340496" data-name="Rectangle 340496" width="206.984" height="9.289" fill="none"/>
    </clipPath>
    <clipPath id="clip-path-9">
      <rect id="Rectangle_340497" data-name="Rectangle 340497" width="24.939" height="15.498" fill="none"/>
    </clipPath>
    <clipPath id="clip-path-10">
      <rect id="Rectangle_340498" data-name="Rectangle 340498" width="105.352" height="20.652" fill="none"/>
    </clipPath>
    <clipPath id="clip-path-11">
      <rect id="Rectangle_340499" data-name="Rectangle 340499" width="13.587" height="19.26" fill="none"/>
    </clipPath>
    <clipPath id="clip-path-12">
      <rect id="Rectangle_340500" data-name="Rectangle 340500" width="10.798" height="17.681" fill="none"/>
    </clipPath>
    <clipPath id="clip-path-13">
      <rect id="Rectangle_340501" data-name="Rectangle 340501" width="28.396" height="20.782" fill="none"/>
    </clipPath>
    <clipPath id="clip-path-14">
      <rect id="Rectangle_340502" data-name="Rectangle 340502" width="27.171" height="27.169" fill="none"/>
    </clipPath>
    <clipPath id="clip-path-15">
      <rect id="Rectangle_340503" data-name="Rectangle 340503" width="24.538" height="24.531" fill="none"/>
    </clipPath>
    <clipPath id="clip-path-18">
      <rect id="Rectangle_340506" data-name="Rectangle 340506" width="84.108" height="3.262" fill="none"/>
    </clipPath>
    <clipPath id="clip-path-19">
      <rect id="Rectangle_340507" data-name="Rectangle 340507" width="41.403" height="17.383" fill="none"/>
    </clipPath>
    <clipPath id="clip-path-20">
      <rect id="Rectangle_340520" data-name="Rectangle 340520" width="118.975" height="127.815" fill="none"/>
    </clipPath>
  </defs>
  <g id="_10" data-name="10" transform="translate(-180 -4735)" clip-path="url(#clip-path)">
    <g id="Group_989193" data-name="Group 989193" transform="translate(109.766 4571.673)">
      <path id="Path_679201" data-name="Path 679201" d="M0,0V260.12l77.66-.012H88.045l10.589-.008h7.951l23.523-.02h31.447l15-.008h18.708l10.993-.008h14.974l9.066-.008,28.01-.012h17.2l37.781-.015H351.2l15.083-.008,17.8-.008,11.857,0h1.84l1.582,0,2.776,0h36.266l7.634,0h16.935l6.917,0,28.949-.012,32.97-.012h8.656V0Z" transform="translate(0 0)" fill="#b6dff0"/>
      <g id="Group_989192" data-name="Group 989192">
        <g id="Group_989191" data-name="Group 989191" clip-path="url(#clip-path-2)">
          <path id="Path_679202" data-name="Path 679202" d="M478.55,158.549h0s-303.358-4.112-359.195-5.877C98.115,152,51.293,153.625,0,156.026V143.107c59.7-2.01,111.108-3.222,127.96-2.188,47.986,2.936,350.59,17.631,350.59,17.631" transform="translate(0 -75.256)" fill="#f8ffff"/>
          <path id="Path_679203" data-name="Path 679203" d="M1118.187,175.185v1.37c-11.1.157-20.3.283-26.993.374l-12.3.17,12.3-.6,26.993-1.316" transform="translate(-577.721 -93.807)" fill="#f8ffff"/>
          <path id="Path_679204" data-name="Path 679204" d="M540.467,211.88v13.628q-13.613.085-26.993.161-25.153.144-49.341.235-3.755.017-7.485.028c-19.136.066-37.725.1-55.645.109h-1.636c-16.678,0-32.768-.026-48.169-.087q-13.323-.055-25.935-.144-13.515-.095-26.146-.235l-30.53-.346C135.649,223.7,50.044,222.349,0,221.451v-4.674c74.21-.642,197.342-1.808,268.587-3.03,16.941-.289,30.949-.583,40.668-.875,4.116-.124,9.5-.233,16.008-.33,7.3-.109,16.005-.2,25.935-.281,13.861-.113,30.094-.2,48.169-.256L401,212c17.087-.057,35.782-.093,55.645-.113l7.485-.007c15.831-.013,32.35-.017,49.341-.011q13.319,0,26.993.013" transform="translate(-0.001 -113.447)" fill="#f8ffff"/>
          <path id="Path_679205" data-name="Path 679205" d="M540.467,491.415V648.428H0V498.01h.02c.5-.025,1.012-.053,1.534-.073,1.055-.045,2.125-.1,3.193-.146,10.771-.5,22.037-1.018,32.992-1.521.607-.031,1.22-.056,1.821-.085,2.2-.106,4.394-.2,6.561-.3h.007c.813-.035,1.62-.076,2.432-.11H48.6l4.875-.226q2.264-.115,4.485-.212c1.48-.069,2.937-.135,4.381-.2.946-.046,1.888-.091,2.817-.131h.018c.048,0,.1-.005.146-.005,22.359-1.035,39.322-1.808,41.162-1.867a.68.68,0,0,1,.1-.006h.007c3.187-.071,11.992-.065,23.523-.014h.292c.692,0,1.39,0,2.1.01h.35c3.628.018,7.49.038,11.5.062h0c7.657.044,15.862.1,24.054.158,3.265.021,6.53.046,9.754.071.509,0,1.025,0,1.54.009,1.22.01,2.447.016,3.672.025h.183c.366.006.722.006,1.088.01.35.006.7.006,1.061.01,11.94.09,22.931.177,31.036.237,7.861.06,13,.1,13.645.085q13.92-.234,28.185-.452,4.983-.082,10.017-.153l5.867-.082,1.055-.015q18.791-.286,38.054-.513,5.831-.075,11.7-.141,6.392-.073,12.825-.139c1.294-.016,2.6-.031,3.909-.046q4.591-.05,9.2-.1,7.518-.08,15.085-.15,1.9-.017,3.8-.034l3.106-.029h.109l3.537-.033,3.109-.027,4.144-.033q5.968-.051,11.962-.094h.068l1.666-.013,1.584-.013,1.636-.014c.146,0,.291,0,.437,0l.631-.006,2.475-.01c1.214-.008,2.432-.018,3.644-.03h.191c.176,0,.352,0,.529,0q1.194-.007,2.386-.015,2.63-.013,5.262-.031c1.845-.011,3.676-.025,5.516-.03l2.821-.016,3.106-.018,3.643-.019q1.553-.006,3.1-.016l3.659-.018q6.842-.033,13.693-.059l1.405-.006c.444,0,.885,0,1.329,0s.9,0,1.346,0c.156,0,.311,0,.465,0q1.322,0,2.641-.008l3.644-.013h.048l1.152,0c.635,0,1.27,0,1.908,0l3.855-.01q14.471-.036,28.948-.037,7.319,0,14.631.009,7.257.009,14.5.026h0c2.278,0,4.546.01,6.824.019q2.835.006,5.662.018" transform="translate(-0.001 -263.101)" fill="#799642"/>
          <path id="Path_679206" data-name="Path 679206" d="M359.859,433.175v29.086H202.9l-3.167-.055-.579-.008-5.907-.105h-.137l-3.312-.059-.873-.016-4.529-.082h0l-3.28-.055-8.143-.144-4.455-.079-.411-.008h-.035l-8.287-.149c-.466.274-.943.529-1.425.759h-54.3c-.606-.274-1.19-.568-1.765-.873-.231-.13-.466-.258-.693-.388a3.863,3.863,0,0,1-.149.392l-2.129.039-.153,0-2.392.039h-.094l-.184,0h0l-1.108.023-12.872.227-.4.008-.141,0-.27,0-.325.007-1.436.024-3.528.063-8.757.152h0l-.415.008h0l-.356.008h-.091l-.375,0-.674.015h0l-.3,0-.474.008-10.8.191-.289,0-1.641.027H0v-43.34A31.94,31.94,0,0,1,6,416.8a9.151,9.151,0,0,1,5.911.462c5.77,2.505,6.784,7.246,7.908,11.5a22.709,22.709,0,0,0,1.366,4.044,9.9,9.9,0,0,0,2.545,3.245,17.95,17.95,0,0,0,2.4,1.7c.853.513,1.739.99,2.627,1.476a35.767,35.767,0,0,1,4.2-5.982c4.882-5.566,11.944-9.712,22.173-9.787q3.171-.024,6.029.071a108.25,108.25,0,0,1,11.443.92c17.346,2.376,22.772,8.381,25.723,11.028,4.463,4,7.939,5.794,11.235,6.338,5.3.873,10.158-1.5,17.945-3.167h.008c4.885-1.041,9.74-2.377,14.042-3.68h0c7.375-2.243,13.11-4.412,14.5-4.9a1.534,1.534,0,0,1,.325-.1,22.488,22.488,0,0,1,7.524,7.462,23.046,23.046,0,0,1,1.859,3.731A27.732,27.732,0,0,0,170,435.814c2.666-3.977,5.669-8.252,13.792-10.585a56.208,56.208,0,0,1,15.361-1.77c.258,0,.524,0,.791,0a29.849,29.849,0,0,1,14.59,3.609,27.437,27.437,0,0,1,4.58,3.2,32.479,32.479,0,0,1,6.381,7.579c.286.454.556.912.818,1.374.431-.235.865-.47,1.292-.7q.8-.44,1.566-.908c.208-.129.415-.258.622-.4a11.007,11.007,0,0,0,4.095-4.408c.145-.286.294-.576.45-.861,2.983-5.343,9.4-9.944,21.954-10.155a15.348,15.348,0,0,1,5.653,1.116,27.355,27.355,0,0,1,3.969,1.911,49.628,49.628,0,0,1,7.786,5.708v0c2.313,2.032,3.789,3.625,3.856,3.664a42.875,42.875,0,0,0,5.919-2.94,23.724,23.724,0,0,0,2.932-2.122,14.1,14.1,0,0,0,3.609-4.6c1.836-3.8,2.325-8.671,4.216-13.079,2.149-5.03,6.127-9.461,15.992-11.024a53.478,53.478,0,0,1,8.483-.6c17.8.012,24.5,7.356,27.892,14.386.063.125.121.247.176.372,2.216,4.748,2.983,9.29,4.7,11.255a3.007,3.007,0,0,0,.755.654,29.9,29.9,0,0,1,4.964,3.758,31.014,31.014,0,0,1,2.658,2.924" transform="translate(0 -214.096)" fill="#799642"/>
          <path id="Path_679207" data-name="Path 679207" d="M384.994,486.334a7.2,7.2,0,0,1-1.1,1.841c-.008.006-.011.015-.019.022l-.046.055H330.543a15.063,15.063,0,0,1-1.623-1.919,10.491,10.491,0,0,1-1.958-8.35,11.578,11.578,0,0,1,.474-1.684c2.5-6.749,10.224-6.425,12.9-12.32,1.045-2.3,1.357-5.222,2.367-7.915,1.245-3.326,3.554-6.3,9.638-7.323a30.2,30.2,0,0,1,5.042-.38c5.263,0,8.89,1.151,11.458,2.856,6.18,4.1,6.2,11.388,8.015,13.591a1.9,1.9,0,0,0,.451.413,17.446,17.446,0,0,1,1.662,1.209,18.314,18.314,0,0,1,3.82,4.322c3.354,5.247,3.867,11.672,2.2,15.58" transform="translate(-174.969 -240.087)" fill="#669151"/>
          <path id="Path_679208" data-name="Path 679208" d="M328.224,476.735c5.871-4.529,15.669-8.111,21.1-11.489,4.609-2.868,4.4-11.13,3.812-16.069-11.006,1.852-9.669,10.1-12.006,15.24-2.678,5.893-10.4,5.57-12.9,12.318" transform="translate(-175.755 -240.523)" fill="#3e6d37"/>
          <path id="Path_679209" data-name="Path 679209" d="M952.6,423.052v20.83a78.033,78.033,0,0,1-6.119,15.459H819.031l-1.429-.023-.278-.008-14.512-.251h-.141l-8.859-.156-11.6-.2-4.526-.078-.415-.008-7.52-.129-.082-28.061a22.728,22.728,0,0,1,5.238,7.7,28.206,28.206,0,0,0,4.3-5.348c4.028-5.923,8.816-12.507,30.406-12.351,13.1.094,21.085,6.651,25.959,14.386.286.45.56.912.826,1.378.442-.235.877-.47,1.316-.708,2.587-1.409,5.026-2.94,6.385-5.708,2.807-5.7,9.317-10.8,22.749-11.024,9.853-.161,21.41,12.288,21.605,12.406a44.123,44.123,0,0,0,6.009-2.94A16.529,16.529,0,0,0,901.1,421.5c3.284-6.69,2.322-16.7,12.347-21.672l.258.023c1.683.2,3.543.47,5.516.834,2.028.372,4.177.842,6.37,1.437C936.428,405.052,948.4,411,952.6,423.052" transform="translate(-412.136 -214.096)" fill="#799642"/>
          <path id="Path_679210" data-name="Path 679210" d="M704.244,489.926a7.9,7.9,0,0,1-.875,1.919H652.117a13.023,13.023,0,0,1-1.4-1.919,9.636,9.636,0,0,1-1.3-7.024,10.94,10.94,0,0,1,.447-1.583c2.348-6.342,9.607-6.039,12.125-11.576.073-.163.146-.333.212-.5,1.908-4.846,1.076-12.135,11.068-13.816A28.483,28.483,0,0,1,678,455.07c16.843.009,15.891,12.526,18.3,15.453a1.8,1.8,0,0,0,.424.389c7.194,4.621,9.214,13.7,7.522,19.013" transform="translate(-347.639 -243.678)" fill="#54843d"/>
          <path id="Path_679211" data-name="Path 679211" d="M650.6,481.727c5.517-4.256,14.724-7.621,19.823-10.8,4.33-2.695,4.139-10.458,3.583-15.1-10.343,1.74-9.086,9.491-11.282,14.32-2.516,5.538-9.776,5.233-12.124,11.576" transform="translate(-348.378 -244.086)" fill="#3e6d37"/>
          <path id="Path_679212" data-name="Path 679212" d="M607.41,472.033a12.922,12.922,0,0,1-.733,1.919H533.355a17.106,17.106,0,0,1-1.2-1.919,14.625,14.625,0,0,1-.717-1.512v0a13.783,13.783,0,0,1-1.056-6.209v0a13.222,13.222,0,0,1,.255-1.879,15.853,15.853,0,0,1,.656-2.319c3.439-9.291,14.071-8.844,17.761-16.956.05-.111.1-.222.147-.333.1-.225.189-.457.274-.688s.17-.469.25-.709.159-.481.232-.725c.039-.123.073-.247.108-.37q.219-.745.409-1.518c.162-.642.32-1.3.485-1.952.1-.395.2-.793.3-1.191.092-.355.189-.713.289-1.07.914-3.215,2.225-6.376,5.139-8.77a13.687,13.687,0,0,1,1.577-1.117c.285-.176.582-.342.895-.506a19.147,19.147,0,0,1,3.77-1.45c.412-.111.837-.216,1.276-.311s.9-.185,1.373-.265a41.368,41.368,0,0,1,6.943-.522,25.042,25.042,0,0,1,9.465,1.484,12.028,12.028,0,0,1,6.638,6.74c2.61,5.7.239,11.261,3.6,16.792.679,1.114,3.346,2.375,6.326,4.676a27.683,27.683,0,0,1,3.678,3.378,23.15,23.15,0,0,1,4.734,8.051,14.907,14.907,0,0,1,.451,9.257" transform="translate(-283.99 -225.785)" fill="#9bc146"/>
          <path id="Path_679213" data-name="Path 679213" d="M532.372,460.708c8.081-6.234,21.569-11.163,29.039-15.814,6.343-3.947,6.063-15.32,5.248-22.118-15.151,2.548-13.31,13.9-16.526,20.978-3.687,8.112-14.322,7.666-17.761,16.955" transform="translate(-285.071 -226.385)" fill="#86a749"/>
          <path id="Path_679214" data-name="Path 679214" d="M571.2,504.984a.333.333,0,0,1-.208-.07.254.254,0,0,1-.026-.39,16.474,16.474,0,0,0,2.069-2.571,49.713,49.713,0,0,0,3.8-7.208c.787-1.769,1.541-3.632,2.306-5.692a30.612,30.612,0,0,0,.931-3.246,26.144,26.144,0,0,1,1.126-3.745.326.326,0,0,1,.4-.164.268.268,0,0,1,.185.354,25.778,25.778,0,0,0-1.1,3.672,30.882,30.882,0,0,1-.948,3.3c-.769,2.07-1.527,3.942-2.319,5.722a50.134,50.134,0,0,1-3.846,7.284,17.088,17.088,0,0,1-2.143,2.661.334.334,0,0,1-.234.092" transform="translate(-305.696 -258.036)" fill="#dedb7a"/>
          <path id="Path_679215" data-name="Path 679215" d="M552.438,503.961a.321.321,0,0,1-.273-.142c-.243-.383-.49-.758-.738-1.132-.449-.68-.914-1.383-1.336-2.125-1.619-2.838-3.326-5.891-4.845-9.246l-.278-.612c-1.563-3.429-3.926-8.612-3.135-12.436a.315.315,0,0,1,.364-.223.281.281,0,0,1,.251.322c-.758,3.667,1.564,8.761,3.1,12.132l.279.613c1.51,3.335,3.21,6.375,4.823,9.2.414.727.874,1.422,1.318,2.1.249.377.5.755.743,1.141a.26.26,0,0,1-.121.375.342.342,0,0,1-.152.035" transform="translate(-290.053 -255.979)" fill="#dedb7a"/>
          <path id="Path_679216" data-name="Path 679216" d="M582.234,491.124h-.025c-3.562-.243-4.1-6.987-4.1-10.986a.315.315,0,0,1,.626,0c0,2.392.259,10.213,3.523,10.435a.29.29,0,0,1,.288.3.3.3,0,0,1-.312.255" transform="translate(-309.562 -256.954)" fill="#dedb7a"/>
          <path id="Path_679217" data-name="Path 679217" d="M550.209,497.393a.32.32,0,0,1-.279-.15.261.261,0,0,1,.136-.372c2.371-1.074,5.5-4.388,5.214-7.814a.289.289,0,0,1,.288-.3.3.3,0,0,1,.335.254c.324,3.832-3.121,7.246-5.552,8.347a.343.343,0,0,1-.143.031" transform="translate(-294.455 -261.719)" fill="#dedb7a"/>
          <path id="Path_679218" data-name="Path 679218" d="M584.842,516.644a12.537,12.537,0,0,1-3.177-.567,11.664,11.664,0,0,0-2.807-.523.278.278,0,1,1,0-.552h0a12.339,12.339,0,0,1,2.983.547c1.756.47,3.414.915,4.95.058a7.627,7.627,0,0,0,3.729-4.4.318.318,0,0,1,.386-.19.273.273,0,0,1,.216.34,8.174,8.174,0,0,1-4,4.715,4.593,4.593,0,0,1-2.289.57" transform="translate(-309.797 -273.632)" fill="#dedb7a"/>
          <path id="Path_679219" data-name="Path 679219" d="M541.083,508.218a7.639,7.639,0,0,1-3.615-.933c-3.166-1.679-5.866-5.626-7.046-10.3a.278.278,0,0,1,.238-.329.315.315,0,0,1,.373.209c1.145,4.532,3.734,8.344,6.758,9.948a6.826,6.826,0,0,0,4.946.651.32.32,0,0,1,.385.193.273.273,0,0,1-.219.339,7.682,7.682,0,0,1-1.819.223" transform="translate(-284.024 -265.942)" fill="#dedb7a"/>
          <path id="Path_679220" data-name="Path 679220" d="M992.285,470.053a14.277,14.277,0,0,1-1.061,1.919H920.243a19.717,19.717,0,0,1-1.511-1.919,14.392,14.392,0,0,1-2.579-11.324,15.961,15.961,0,0,1,.655-2.319c3.439-9.291,14.072-8.844,17.761-16.956.051-.111.1-.222.146-.336.1-.225.189-.453.274-.685s.169-.469.25-.709.157-.481.231-.728c.039-.124.073-.247.107-.37.147-.5.282-1,.409-1.518.166-.642.324-1.292.486-1.952.1-.395.2-.79.3-1.188.934-3.572,2.19-7.181,5.428-9.84.12-.1.243-.2.37-.293.251-.195.513-.38.786-.558a19.875,19.875,0,0,1,7.734-2.8,41.362,41.362,0,0,1,6.943-.521c10.478.006,13.921,3.461,16.1,8.22,2.61,5.707.239,11.265,3.6,16.793,1.377,2.264,10.953,5.133,14.739,16.108a14.365,14.365,0,0,1-.189,10.975" transform="translate(-490.423 -223.805)" fill="#86a749"/>
          <path id="Path_679221" data-name="Path 679221" d="M917.888,457.008c8.081-6.234,21.569-11.163,29.039-15.814,6.343-3.948,6.063-15.32,5.248-22.118-15.151,2.548-13.309,13.9-16.526,20.978-3.687,8.112-14.322,7.665-17.761,16.955" transform="translate(-491.505 -224.404)" fill="#718c3d"/>
          <path id="Path_679222" data-name="Path 679222" d="M383.319,504.105s-.868-25.365-20.14-25.517-16.249,9.366-22.576,12.758c-8.62,4.621-5.666,11.854-5.666,11.854Z" transform="translate(-179.089 -256.271)" fill="#86a749"/>
          <path id="Path_679223" data-name="Path 679223" d="M375.064,511.91a.3.3,0,0,1-.176-.055,12.291,12.291,0,0,1-1.845-1.679,30.015,30.015,0,0,1-3.305-4.585c-.679-1.119-1.329-2.3-1.99-3.6a15.8,15.8,0,0,1-.818-2.085,13.109,13.109,0,0,0-.936-2.288.232.232,0,0,1,.123-.328.3.3,0,0,1,.373.109,13.427,13.427,0,0,1,.972,2.367,15.268,15.268,0,0,0,.793,2.025c.655,1.292,1.3,2.459,1.972,3.567a29.52,29.52,0,0,0,3.25,4.512,11.7,11.7,0,0,0,1.763,1.6.225.225,0,0,1,.038.344.294.294,0,0,1-.215.09" transform="translate(-195.965 -266.273)" fill="#9bc146"/>
          <path id="Path_679224" data-name="Path 679224" d="M390.987,511.267a.3.3,0,0,1-.168-.05.227.227,0,0,1-.052-.343c.209-.242.424-.48.638-.717.38-.421.772-.857,1.126-1.311a65.391,65.391,0,0,0,4.126-5.769l.239-.385c1.307-2.1,3.281-5.276,2.645-7.534a.244.244,0,0,1,.2-.3.281.281,0,0,1,.336.178c.689,2.445-1.349,5.72-2.7,7.888l-.238.384a66.147,66.147,0,0,1-4.155,5.812c-.365.468-.764.91-1.149,1.339-.212.234-.423.469-.63.71a.293.293,0,0,1-.221.1" transform="translate(-209.215 -264.981)" fill="#9bc146"/>
          <path id="Path_679225" data-name="Path 679225" d="M372.017,503.21a.265.265,0,0,1-.277-.231.258.258,0,0,1,.261-.258c2.783-.139,3-4.995,3-6.48a.262.262,0,0,1,.277-.245h0a.263.263,0,0,1,.277.245c0,2.042-.348,6.809-3.527,6.968h-.016" transform="translate(-199.057 -265.593)" fill="#9bc146"/>
          <path id="Path_679226" data-name="Path 679226" d="M397.881,507.145a.283.283,0,0,1-.1-.016c-2.1-.7-5.072-2.871-4.789-5.326a.269.269,0,0,1,.3-.219.255.255,0,0,1,.248.268c-.242,2.1,2.419,4.15,4.433,4.819a.237.237,0,0,1,.162.315.277.277,0,0,1-.259.158" transform="translate(-210.428 -268.585)" fill="#9bc146"/>
          <path id="Path_679227" data-name="Path 679227" d="M361.733,519.229a5.046,5.046,0,0,1-1.937-.353,5.986,5.986,0,0,1-3.451-2.994.237.237,0,0,1,.159-.316.288.288,0,0,1,.358.141,5.486,5.486,0,0,0,3.168,2.725,7.543,7.543,0,0,0,4.285-.034,14.044,14.044,0,0,1,2.538-.341h0a.246.246,0,1,1,0,.489,13.414,13.414,0,0,0-2.422.33,14.242,14.242,0,0,1-2.7.353" transform="translate(-190.803 -276.064)" fill="#9bc146"/>
          <path id="Path_679228" data-name="Path 679228" d="M399.108,513.942a8.848,8.848,0,0,1-1.558-.139.248.248,0,0,1-.217-.289.28.28,0,0,1,.327-.191c4.75.847,8.716-2.775,10.038-6.614a.286.286,0,0,1,.346-.163.241.241,0,0,1,.184.3c-1.28,3.718-4.73,7.091-9.121,7.091" transform="translate(-212.759 -271.237)" fill="#9bc146"/>
          <path id="Path_679229" data-name="Path 679229" d="M764.619,499.85s-.993-29.035-23.053-29.208-18.6,10.721-25.842,14.6c-9.866,5.289-6.486,13.568-6.486,13.568Z" transform="translate(-379.479 -252.015)" fill="#86a749"/>
          <path id="Path_679230" data-name="Path 679230" d="M755.17,508.785a.339.339,0,0,1-.2-.064,14.02,14.02,0,0,1-2.112-1.921,34.352,34.352,0,0,1-3.783-5.249c-.778-1.28-1.522-2.628-2.277-4.118a18.015,18.015,0,0,1-.936-2.387,14.991,14.991,0,0,0-1.072-2.619.265.265,0,0,1,.142-.376.338.338,0,0,1,.426.124,15.4,15.4,0,0,1,1.112,2.71,17.427,17.427,0,0,0,.907,2.317c.749,1.479,1.488,2.814,2.258,4.082a33.824,33.824,0,0,0,3.72,5.165,13.437,13.437,0,0,0,2.018,1.838.257.257,0,0,1,.044.393.334.334,0,0,1-.245.1" transform="translate(-398.797 -263.465)" fill="#9bc146"/>
          <path id="Path_679231" data-name="Path 679231" d="M773.4,508.049a.348.348,0,0,1-.192-.058.26.26,0,0,1-.06-.393c.24-.277.485-.549.73-.821.435-.483.885-.982,1.289-1.5a74.964,74.964,0,0,0,4.723-6.6l.274-.441c1.5-2.406,3.756-6.04,3.027-8.624a.28.28,0,0,1,.231-.34.323.323,0,0,1,.385.2c.789,2.8-1.544,6.548-3.087,9.029l-.273.44a75.52,75.52,0,0,1-4.757,6.653c-.417.535-.874,1.042-1.315,1.532-.242.268-.484.537-.721.813a.337.337,0,0,1-.253.11" transform="translate(-413.964 -261.986)" fill="#9bc146"/>
          <path id="Path_679232" data-name="Path 679232" d="M751.683,498.825a.3.3,0,0,1-.317-.264.3.3,0,0,1,.3-.3c3.186-.159,3.437-5.718,3.438-7.417a.32.32,0,0,1,.634,0c0,2.337-.4,7.794-4.036,7.975h-.018" transform="translate(-402.337 -262.687)" fill="#9bc146"/>
          <path id="Path_679233" data-name="Path 679233" d="M781.288,503.328a.343.343,0,0,1-.111-.018c-2.4-.8-5.806-3.285-5.482-6.1a.308.308,0,0,1,.347-.25.293.293,0,0,1,.284.308c-.277,2.408,2.769,4.75,5.074,5.516a.271.271,0,0,1,.185.361.319.319,0,0,1-.3.181" transform="translate(-415.353 -266.11)" fill="#9bc146"/>
          <path id="Path_679234" data-name="Path 679234" d="M739.911,517.163a5.782,5.782,0,0,1-2.217-.4,6.843,6.843,0,0,1-3.951-3.428.27.27,0,0,1,.182-.361.33.33,0,0,1,.41.16,6.28,6.28,0,0,0,3.626,3.121c1.527.623,3.243.286,4.9-.04a16.1,16.1,0,0,1,2.906-.391h0a.282.282,0,1,1,0,.56,15.29,15.29,0,0,0-2.773.378,16.3,16.3,0,0,1-3.092.4" transform="translate(-392.889 -274.672)" fill="#9bc146"/>
          <path id="Path_679235" data-name="Path 679235" d="M782.693,511.109a10.156,10.156,0,0,1-1.783-.159.285.285,0,0,1-.249-.331.321.321,0,0,1,.374-.219c5.437.971,9.977-3.176,11.491-7.57a.328.328,0,0,1,.4-.187.277.277,0,0,1,.211.35c-1.466,4.256-5.414,8.117-10.441,8.117" transform="translate(-418.021 -269.146)" fill="#9bc146"/>
          <path id="Path_679236" data-name="Path 679236" d="M830.888,485.79a.08.08,0,0,1-.015.021,16.009,16.009,0,0,1-1.886,1.9H781.453c-.347-.253-.679-.515-1-.786a.054.054,0,0,1-.015-.009c-.224-.188-.439-.385-.656-.586a1.148,1.148,0,0,0-.084-.086c-.158-.148-.308-.3-.459-.45-2.695-2.761-4.118-6.194-3.369-9.827a11.5,11.5,0,0,1,.462-1.629c2.414-6.518,9.877-6.206,12.464-11.9,2.259-4.966.968-12.934,11.6-14.723a29.294,29.294,0,0,1,4.869-.367c17.314.009,16.335,12.881,18.814,15.889a1.763,1.763,0,0,0,.432.4c8.775,5.636,10.066,17.724,6.377,22.154" transform="translate(-415.352 -239.543)" fill="#54843d"/>
          <path id="Path_679237" data-name="Path 679237" d="M777.093,474.757c5.671-4.375,15.138-7.835,20.38-11.1,4.452-2.771,4.256-10.752,3.684-15.524-10.633,1.789-9.341,9.759-11.6,14.723-2.587,5.693-10.05,5.38-12.464,11.9" transform="translate(-416.113 -239.965)" fill="#3e6d37"/>
          <path id="Path_679238" data-name="Path 679238" d="M466.8,490.072v0a14.684,14.684,0,0,1-.085,1.511,12.133,12.133,0,0,1-.347,1.919H410.9c-.07-.127-.135-.253-.2-.383a10.357,10.357,0,0,1-.613-1.536,9.477,9.477,0,0,1-.247-4.8,11.526,11.526,0,0,1,.463-1.625c2.413-6.521,9.877-6.209,12.464-11.9.073-.164.147-.333.212-.506.062-.145.116-.293.166-.441.042-.111.077-.222.112-.333.035-.1.065-.194.1-.293.05-.154.1-.308.139-.466.092-.315.177-.635.258-.959.193-.737.37-1.5.567-2.255.05-.188.1-.373.15-.558.108-.388.224-.78.351-1.166.112-.33.228-.66.359-.984.05-.123.1-.247.154-.367.019-.049.039-.1.062-.145.066-.151.139-.3.212-.447s.135-.275.212-.407a9.78,9.78,0,0,1,.817-1.277c.054-.074.112-.148.174-.219.092-.12.193-.238.3-.352.054-.062.108-.124.166-.182a8,8,0,0,1,.613-.592c.077-.071.162-.142.247-.209s.17-.139.259-.207.177-.133.269-.2a11,11,0,0,1,2.553-1.333c.092-.037.185-.068.277-.1q.226-.084.463-.157l.274-.083c.093-.028.189-.056.285-.081s.212-.058.324-.086c.081-.021.165-.043.25-.062q.2-.051.416-.092.422-.093.868-.167a29.314,29.314,0,0,1,4.869-.364c1.056,0,2.047.049,2.972.142,9.361.922,12.252,6.219,13.8,10.54.806,2.252,1.245,4.238,2.044,5.207a1.877,1.877,0,0,0,.432.4,18.123,18.123,0,0,1,7.259,9.4v0a18.841,18.841,0,0,1,1.056,6.209" transform="translate(-219.356 -245.339)" fill="#669151"/>
          <path id="Path_679239" data-name="Path 679239" d="M411.072,485.577c5.671-4.375,15.137-7.835,20.38-11.1,4.452-2.771,4.256-10.752,3.683-15.523-10.633,1.788-9.341,9.758-11.6,14.723-2.587,5.693-10.051,5.381-12.465,11.9" transform="translate(-220.118 -245.758)" fill="#3e6d37"/>
          <path id="Path_679240" data-name="Path 679240" d="M551.6,503.367l-11.728.219-36.39.681s.863-25.226,20.029-25.377,16.159,9.317,22.453,12.689c8.571,4.6,5.635,11.789,5.635,11.789" transform="translate(-269.6 -256.432)" fill="#9bc146"/>
          <path id="Path_679241" data-name="Path 679241" d="M574.685,503.367l-11.728.219a14.8,14.8,0,0,0-.507-10.266C558.7,485.53,546.6,478.89,546.6,478.89c19.167-.151,16.159,9.317,22.453,12.689,8.571,4.6,5.635,11.789,5.635,11.789" transform="translate(-292.688 -256.432)" fill="#86a749"/>
          <path id="Path_679242" data-name="Path 679242" d="M541.029,511.784a.292.292,0,0,1-.212-.088c-5.383-5.724-9.97-11-11.558-17.637a.245.245,0,0,1,.213-.288.277.277,0,0,1,.327.188c1.563,6.525,6.107,11.753,11.443,17.427a.224.224,0,0,1-.036.342.3.3,0,0,1-.176.056" transform="translate(-283.401 -264.399)" fill="#dedb7a"/>
          <path id="Path_679243" data-name="Path 679243" d="M552.9,515.284a.265.265,0,0,1-.274-.222c-.835-8.33,9.15-13.448,9.251-13.5a.3.3,0,0,1,.376.091.229.229,0,0,1-.1.332c-.1.049-9.778,5.016-8.974,13.033a.255.255,0,0,1-.251.264H552.9" transform="translate(-295.891 -268.557)" fill="#dedb7a"/>
          <path id="Path_679244" data-name="Path 679244" d="M539.245,504.879a.3.3,0,0,1-.176-.055.224.224,0,0,1-.037-.343c.378-.4.78-.8,1.169-1.18,1.714-1.681,3.333-3.269,3.272-5.811a.26.26,0,0,1,.269-.249.266.266,0,0,1,.282.239c.065,2.734-1.7,4.469-3.412,6.147-.385.377-.783.767-1.154,1.164a.289.289,0,0,1-.213.089" transform="translate(-288.604 -266.26)" fill="#dedb7a"/>
          <path id="Path_679245" data-name="Path 679245" d="M527.626,520.668a18.437,18.437,0,0,1-6.651-1.11.233.233,0,0,1-.141-.321.292.292,0,0,1,.364-.124c3.579,1.4,7.816,1.171,10.74.733a.274.274,0,0,1,.318.2.248.248,0,0,1-.226.281,29.985,29.985,0,0,1-4.405.343" transform="translate(-278.881 -277.96)" fill="#dedb7a"/>
          <path id="Path_679246" data-name="Path 679246" d="M555.974,514.4a.272.272,0,0,1-.267-.183.243.243,0,0,1,.2-.3,20.178,20.178,0,0,1,3.082-.3c2.781-.141,5.932-.3,6.927-2.326a.291.291,0,0,1,.362-.127.234.234,0,0,1,.143.32c-1.129,2.3-4.461,2.469-7.4,2.619a19.687,19.687,0,0,0-2.979.289.325.325,0,0,1-.068.007" transform="translate(-297.562 -273.706)" fill="#dedb7a"/>
          <path id="Path_679247" data-name="Path 679247" d="M560.751,503.069a.277.277,0,0,1-.262-.166c-.145-.38-.32-.76-.505-1.164a6.947,6.947,0,0,1-.944-3.787.27.27,0,0,1,.306-.213.252.252,0,0,1,.241.271,6.631,6.631,0,0,0,.908,3.546c.18.393.367.8.517,1.192a.237.237,0,0,1-.174.307.3.3,0,0,1-.087.014" transform="translate(-299.333 -266.525)" fill="#dedb7a"/>
          <path id="Path_679248" data-name="Path 679248" d="M895.278,503.367l-11.728.219-36.389.681s.863-25.227,20.029-25.377,16.159,9.317,22.453,12.688c8.571,4.6,5.635,11.789,5.635,11.789" transform="translate(-453.633 -256.432)" fill="#9bc146"/>
          <path id="Path_679249" data-name="Path 679249" d="M918.367,503.367l-11.728.219a14.8,14.8,0,0,0-.507-10.266c-3.753-7.791-15.853-14.431-15.853-14.431,19.166-.151,16.159,9.317,22.453,12.688,8.572,4.6,5.635,11.789,5.635,11.789" transform="translate(-476.721 -256.432)" fill="#7f9e45"/>
          <path id="Path_679250" data-name="Path 679250" d="M884.71,511.784a.291.291,0,0,1-.213-.088c-5.383-5.724-9.969-11-11.558-17.637a.246.246,0,0,1,.213-.288.278.278,0,0,1,.327.188c1.562,6.526,6.107,11.753,11.443,17.427a.225.225,0,0,1-.037.343.3.3,0,0,1-.176.056" transform="translate(-467.433 -264.399)" fill="#dedb7a"/>
          <path id="Path_679251" data-name="Path 679251" d="M896.582,515.284a.264.264,0,0,1-.274-.222c-.834-8.331,9.15-13.449,9.251-13.5a.3.3,0,0,1,.376.091.228.228,0,0,1-.1.332c-.1.049-9.778,5.017-8.974,13.034a.255.255,0,0,1-.25.264h-.025" transform="translate(-479.923 -268.557)" fill="#dedb7a"/>
          <path id="Path_679252" data-name="Path 679252" d="M882.927,504.879a.291.291,0,0,1-.175-.056.224.224,0,0,1-.037-.342c.379-.4.781-.8,1.169-1.18,1.714-1.682,3.332-3.269,3.272-5.811a.26.26,0,0,1,.27-.249.265.265,0,0,1,.281.238c.066,2.735-1.7,4.469-3.412,6.147-.385.378-.783.768-1.154,1.165a.29.29,0,0,1-.213.089" transform="translate(-472.637 -266.26)" fill="#dedb7a"/>
          <path id="Path_679253" data-name="Path 679253" d="M871.307,520.668a18.429,18.429,0,0,1-6.651-1.11.233.233,0,0,1-.141-.321.293.293,0,0,1,.364-.124c3.579,1.4,7.816,1.172,10.74.733a.274.274,0,0,1,.318.2.248.248,0,0,1-.225.281,30.1,30.1,0,0,1-4.406.342" transform="translate(-462.913 -277.96)" fill="#dedb7a"/>
          <path id="Path_679254" data-name="Path 679254" d="M899.656,514.4a.271.271,0,0,1-.267-.183.243.243,0,0,1,.2-.3,20.048,20.048,0,0,1,3.082-.3c2.781-.142,5.933-.3,6.927-2.326a.29.29,0,0,1,.362-.127.233.233,0,0,1,.144.32c-1.129,2.3-4.461,2.469-7.4,2.619a19.678,19.678,0,0,0-2.98.289.338.338,0,0,1-.067.007" transform="translate(-481.595 -273.706)" fill="#dedb7a"/>
          <path id="Path_679255" data-name="Path 679255" d="M904.432,503.069a.275.275,0,0,1-.261-.165c-.145-.379-.32-.76-.505-1.164a6.951,6.951,0,0,1-.945-3.787.271.271,0,0,1,.307-.212.252.252,0,0,1,.241.271,6.633,6.633,0,0,0,.908,3.545c.18.393.367.8.518,1.193a.238.238,0,0,1-.174.307.3.3,0,0,1-.088.013" transform="translate(-483.365 -266.526)" fill="#dedb7a"/>
          <path id="Path_679256" data-name="Path 679256" d="M194.094,472.82a17.576,17.576,0,0,1-4.175,3.637A17.821,17.821,0,0,1,188,477.5a19.13,19.13,0,0,1-2.236.876H168.892c-.709-.164-1.368-.33-1.963-.487-.84-.222-1.55-.429-2.1-.586q-.613.338-1.226.648-.433.217-.867.425H142.4a.351.351,0,0,0-.039-.028c-.4-.287-.8-.6-1.2-.928-.031,0-1.816.2-1.846.2a8.151,8.151,0,0,1-.644-1.166c-.6-1.2-1.407-2.912-1.565-3.06a.907.907,0,0,0-.1-.1c-3.335-3.162-5.151-7.19-4.268-11.465a13.281,13.281,0,0,1,.513-1.817c2.695-7.273,11.018-6.925,13.906-13.276.944-2.076,1.33-4.621,2.07-7.1,1.233-4.133,3.451-8.075,10.868-9.324a32.7,32.7,0,0,1,5.432-.4c19.319.009,18.224,14.365,20.988,17.721a2.052,2.052,0,0,0,.482.447,20.092,20.092,0,0,1,7.861,9.846c2.205,5.775,1.742,11.907-.767,14.889" transform="translate(-70.961 -230.209)" fill="#9bc146"/>
          <path id="Path_679257" data-name="Path 679257" d="M134.1,460.487c6.327-4.881,16.886-8.741,22.734-12.382,4.966-3.09,4.747-11.994,4.109-17.316-11.861,2-10.42,10.885-12.938,16.422-2.886,6.352-11.212,6-13.9,13.276" transform="translate(-71.81 -230.676)" fill="#799642"/>
          <path id="Path_679258" data-name="Path 679258" d="M233.156,498.667s1.028-30.055,23.863-30.235,19.252,11.1,26.75,15.117c10.213,5.475,6.714,14.045,6.714,14.045Z" transform="translate(-124.849 -250.832)" fill="#86a749"/>
          <path id="Path_679259" data-name="Path 679259" d="M296.88,507.915a.354.354,0,0,0,.208-.065,14.559,14.559,0,0,0,2.187-1.99,35.537,35.537,0,0,0,3.916-5.433c.8-1.326,1.576-2.721,2.357-4.263a18.674,18.674,0,0,0,.969-2.47,15.55,15.55,0,0,1,1.109-2.71.275.275,0,0,0-.146-.39.35.35,0,0,0-.441.129,15.957,15.957,0,0,0-1.152,2.8,18.091,18.091,0,0,1-.939,2.4c-.775,1.53-1.54,2.913-2.337,4.226a35,35,0,0,1-3.851,5.346,13.88,13.88,0,0,1-2.089,1.9.267.267,0,0,0-.045.408.348.348,0,0,0,.254.106" transform="translate(-158.795 -262.684)" fill="#9bc146"/>
          <path id="Path_679260" data-name="Path 679260" d="M277.835,507.153a.36.36,0,0,0,.2-.059.269.269,0,0,0,.062-.406c-.249-.288-.5-.569-.756-.85-.45-.5-.915-1.015-1.334-1.554a77.76,77.76,0,0,1-4.889-6.835l-.283-.457c-1.548-2.489-3.888-6.251-3.134-8.927a.289.289,0,0,0-.239-.352.333.333,0,0,0-.4.211c-.816,2.9,1.6,6.777,3.2,9.346l.282.455a78.2,78.2,0,0,0,4.924,6.886c.432.555.9,1.079,1.362,1.586.251.278.5.556.747.841a.349.349,0,0,0,.262.113" transform="translate(-142.918 -261.153)" fill="#9bc146"/>
          <path id="Path_679261" data-name="Path 679261" d="M308.078,497.606a.314.314,0,0,0,.328-.274.305.305,0,0,0-.309-.306c-3.3-.165-3.558-5.919-3.559-7.677a.331.331,0,0,0-.657,0c0,2.42.413,8.067,4.179,8.256h.019" transform="translate(-162.72 -261.878)" fill="#9bc146"/>
          <path id="Path_679262" data-name="Path 679262" d="M275.572,502.268a.333.333,0,0,0,.115-.019c2.487-.825,6.01-3.4,5.675-6.31a.319.319,0,0,0-.36-.259.3.3,0,0,0-.294.318c.287,2.493-2.866,4.917-5.252,5.71a.281.281,0,0,0-.192.373.329.329,0,0,0,.308.188" transform="translate(-147.386 -265.423)" fill="#9bc146"/>
          <path id="Path_679263" data-name="Path 679263" d="M310.724,516.587a5.979,5.979,0,0,0,2.294-.419,7.09,7.09,0,0,0,4.09-3.548.28.28,0,0,0-.189-.374.342.342,0,0,0-.424.167,6.5,6.5,0,0,1-3.753,3.229c-1.581.645-3.358.3-5.077-.041a16.634,16.634,0,0,0-3.008-.4h0a.292.292,0,1,0,0,.58,15.854,15.854,0,0,1,2.87.391,16.85,16.85,0,0,0,3.2.419" transform="translate(-162.959 -274.284)" fill="#9bc146"/>
          <path id="Path_679264" data-name="Path 679264" d="M266.292,510.322a10.462,10.462,0,0,0,1.846-.165.293.293,0,0,0,.257-.341.332.332,0,0,0-.387-.227c-5.628,1-10.327-3.287-11.894-7.836a.339.339,0,0,0-.41-.193.286.286,0,0,0-.218.362c1.517,4.4,5.6,8.4,10.807,8.4" transform="translate(-136.798 -268.565)" fill="#9bc146"/>
          <path id="Path_679265" data-name="Path 679265" d="M72.225,491.422l-16.374.306-50.8.951s1.2-35.218,27.963-35.429,22.559,13.007,31.346,17.715c11.967,6.417,7.868,16.458,7.868,16.458" transform="translate(-2.704 -244.844)" fill="#9bc146"/>
          <path id="Path_679266" data-name="Path 679266" d="M104.459,491.422l-16.374.306c1.174-4.4,1.566-9.61-.708-14.332-5.238-10.876-22.131-20.146-22.131-20.146C92,457.039,87.8,470.256,96.592,474.964c11.967,6.417,7.868,16.458,7.868,16.458" transform="translate(-34.938 -244.844)" fill="#86a749"/>
          <path id="Path_679267" data-name="Path 679267" d="M57.472,503.172a.405.405,0,0,1-.3-.123c-7.516-7.992-13.919-15.361-16.137-24.622a.342.342,0,0,1,.3-.4.387.387,0,0,1,.457.262c2.181,9.11,8.526,16.409,15.976,24.33a.313.313,0,0,1-.05.478.414.414,0,0,1-.246.078" transform="translate(-21.971 -255.966)" fill="#dedb7a"/>
          <path id="Path_679268" data-name="Path 679268" d="M74.046,508.06a.37.37,0,0,1-.383-.31C72.5,496.12,86.437,488.975,86.578,488.9a.413.413,0,0,1,.524.127.32.32,0,0,1-.144.464c-.137.068-13.651,7-12.529,18.2a.354.354,0,0,1-.349.368h-.034" transform="translate(-39.408 -261.772)" fill="#dedb7a"/>
          <path id="Path_679269" data-name="Path 679269" d="M54.982,493.534a.418.418,0,0,1-.245-.078.313.313,0,0,1-.052-.478c.529-.564,1.09-1.115,1.633-1.648,2.392-2.347,4.651-4.564,4.567-8.113a.362.362,0,0,1,.377-.347.37.37,0,0,1,.393.333c.091,3.817-2.377,6.239-4.764,8.581-.537.528-1.093,1.073-1.611,1.625a.406.406,0,0,1-.3.124" transform="translate(-29.236 -258.565)" fill="#dedb7a"/>
          <path id="Path_679270" data-name="Path 679270" d="M38.762,515.575a25.74,25.74,0,0,1-9.285-1.549.325.325,0,0,1-.2-.449.407.407,0,0,1,.507-.173c5,1.953,10.912,1.635,14.995,1.023a.384.384,0,0,1,.444.278.347.347,0,0,1-.315.392,41.935,41.935,0,0,1-6.15.478" transform="translate(-15.661 -274.899)" fill="#dedb7a"/>
          <path id="Path_679271" data-name="Path 679271" d="M78.337,506.827a.38.38,0,0,1-.373-.256.339.339,0,0,1,.279-.413,27.974,27.974,0,0,1,4.3-.423c3.882-.2,8.283-.422,9.67-3.247a.406.406,0,0,1,.506-.177.326.326,0,0,1,.2.447c-1.576,3.209-6.227,3.447-10.332,3.656a27.414,27.414,0,0,0-4.158.4.442.442,0,0,1-.095.01" transform="translate(-41.742 -268.959)" fill="#dedb7a"/>
          <path id="Path_679272" data-name="Path 679272" d="M85.005,491.007a.385.385,0,0,1-.365-.232c-.2-.529-.446-1.061-.706-1.625-.773-1.685-1.574-3.427-1.319-5.287a.379.379,0,0,1,.428-.3.352.352,0,0,1,.336.378c-.231,1.686.531,3.345,1.268,4.951.252.548.512,1.115.721,1.663a.333.333,0,0,1-.242.431.433.433,0,0,1-.123.018" transform="translate(-44.213 -258.936)" fill="#dedb7a"/>
          <path id="Path_679273" data-name="Path 679273" d="M996.729,485.931l18.509.345,57.43,1.075s-1.362-39.813-31.611-40.051-25.5,14.7-35.436,20.025c-13.527,7.255-8.893,18.606-8.893,18.606" transform="translate(-533.312 -239.516)" fill="#9bc146"/>
          <path id="Path_679274" data-name="Path 679274" d="M996.729,485.931l18.509.345c-1.327-4.97-1.77-10.863.8-16.2,5.922-12.3,25.019-22.775,25.019-22.775-30.249-.238-25.5,14.7-35.436,20.025-13.527,7.255-8.893,18.606-8.893,18.606" transform="translate(-533.312 -239.516)" fill="#86a749"/>
          <path id="Path_679275" data-name="Path 679275" d="M1079.9,499.214a.459.459,0,0,0,.334-.138c8.5-9.035,15.734-17.364,18.242-27.835a.388.388,0,0,0-.336-.455.436.436,0,0,0-.516.3c-2.467,10.3-9.638,18.548-18.06,27.5a.354.354,0,0,0,.057.54.468.468,0,0,0,.278.088" transform="translate(-578.027 -252.089)" fill="#dedb7a"/>
          <path id="Path_679276" data-name="Path 679276" d="M1065.423,504.738a.417.417,0,0,0,.432-.35c1.318-13.147-14.439-21.225-14.6-21.3a.467.467,0,0,0-.593.143.362.362,0,0,0,.163.524c.155.077,15.432,7.916,14.163,20.569a.4.4,0,0,0,.4.417h.04" transform="translate(-562.572 -258.652)" fill="#dedb7a"/>
          <path id="Path_679277" data-name="Path 679277" d="M1095.444,488.316a.476.476,0,0,0,.277-.087.355.355,0,0,0,.058-.542c-.6-.638-1.231-1.26-1.845-1.862-2.7-2.653-5.259-5.16-5.164-9.172a.41.41,0,0,0-.425-.392.419.419,0,0,0-.444.377c-.1,4.314,2.688,7.052,5.385,9.7.607.6,1.236,1.211,1.822,1.836a.455.455,0,0,0,.336.14" transform="translate(-582.541 -255.025)" fill="#dedb7a"/>
          <path id="Path_679278" data-name="Path 679278" d="M1102.151,513.236a29.094,29.094,0,0,0,10.5-1.752.367.367,0,0,0,.222-.506.462.462,0,0,0-.574-.2c-5.648,2.209-12.336,1.848-16.951,1.156a.432.432,0,0,0-.5.315.391.391,0,0,0,.356.443,47.368,47.368,0,0,0,6.953.541" transform="translate(-586.257 -273.492)" fill="#dedb7a"/>
          <path id="Path_679279" data-name="Path 679279" d="M1058.693,503.346a.429.429,0,0,0,.421-.29.383.383,0,0,0-.315-.467,31.722,31.722,0,0,0-4.864-.477c-4.389-.223-9.363-.478-10.933-3.672a.459.459,0,0,0-.572-.2.368.368,0,0,0-.227.5c1.782,3.628,7.041,3.9,11.68,4.134a31.061,31.061,0,0,1,4.7.456.522.522,0,0,0,.107.011" transform="translate(-558.054 -266.778)" fill="#dedb7a"/>
          <path id="Path_679280" data-name="Path 679280" d="M1067.025,485.461a.436.436,0,0,0,.413-.262c.228-.6.5-1.2.8-1.838.874-1.905,1.779-3.875,1.49-5.977a.427.427,0,0,0-.484-.336.4.4,0,0,0-.38.427c.261,1.905-.6,3.782-1.433,5.6-.285.62-.579,1.261-.816,1.881a.375.375,0,0,0,.274.486.485.485,0,0,0,.138.021" transform="translate(-571.131 -255.446)" fill="#dedb7a"/>
          <path id="Path_679281" data-name="Path 679281" d="M541.695,530.689v.75a.661.661,0,0,1-.718.584H3.012a.662.662,0,0,1-.718-.584v-.75a.662.662,0,0,1,.718-.584H540.977a.661.661,0,0,1,.718.584" transform="translate(-1.228 -283.857)" fill="#799642"/>
          <path id="Path_679282" data-name="Path 679282" d="M252.635,593.047c8.14-.129,5.244,1.844,4.467,2.271-10.933,6.005,16.137,8.385,57.24,8.323,26.065-.039,47.093-3.376,73.137-3.851a164.939,164.939,0,0,0,17.491-1.149c2.378-.378,1.576-2.4-.933-2.533-3-.154-11.975-.632-11.975-.632-1.413-.235-1.267-1.109.208-1.256,15.082-1.509,28.551-.854,47.094-.935,14.875-.065,17.986-7.091-12.928-6.706l-67.913-.9c-1.444-.133-1.668-.971-.329-1.239,0,0,1.643-.079,2.19-.109,2.409-.129,2.91-1.927-.7-2.055-24.5-.871-44.972-1.486-66.751,1.114-3.016.36-6.007.766-9.073,1.035-7.74.68-28.35.7-36.251.7-34.485,0-39.993,8.636,5.029,7.92" transform="translate(-117.968 -311.392)" fill="#86a749"/>
          <path id="Path_679283" data-name="Path 679283" d="M1011.458,544.419v12.71c-5.538.013-11.851-.011-18.824-.019-20.987-.031-41.521-.418-62.493-.781a140.131,140.131,0,0,1-14.085-.875c-1.914-.289-1.268-1.834.753-1.932,2.41-.117,9.643-.481,9.643-.481,1.138-.178,1.021-.846-.167-.957-12.145-1.151-22.99-.65-37.923-.714-11.977-.048-14.483-5.4,10.411-5.112l54.685-.683c1.164-.1,1.344-.74.266-.944,0,0-1.322-.061-1.764-.083-1.938-.1-2.343-1.468.565-1.566,19.732-.663,36.213-1.133,53.75.849,1.729.2,3.448.409,5.184.587" transform="translate(-470.992 -290.447)" fill="#86a749"/>
          <rect id="Rectangle_353853" data-name="Rectangle 353853" width="540.466" height="82.89" transform="translate(0 302.437)" fill="#90999e"/>
          <path id="Path_679284" data-name="Path 679284" d="M110.563,559.017c16.01-.081,10.314,1.156,8.786,1.424-21.5,3.766,22.944,3.484,103.787,3.446,51.265-.025,101.42-.343,152.645-.642,11.8-.069,27.4-.366,34.4-.721,4.678-.237,3.1-1.508-1.835-1.588-5.891-.1-23.554-.4-23.554-.4-2.78-.147-2.493-.7.409-.788,29.663-.947,56.155-.535,92.627-.586,29.256-.041,35.376-4.447-25.427-4.206L318.828,554.4c-2.841-.083-3.281-.609-.648-.777,0,0,3.232-.05,4.307-.068,4.737-.081,5.724-1.209-1.381-1.289-48.2-.546-88.453-.932-131.29.7-5.932.226-11.815.48-17.845.649-15.223.426-55.76.439-71.3.439-67.826,0-78.66,5.416,9.891,4.968" transform="translate(-25.154 -295.47)" fill="#86a749"/>
        </g>
      </g>
    </g>
    <g id="Group_989371" data-name="Group 989371" transform="translate(247.986 4849.75)">
      <g id="Group_970756" data-name="Group 970756" transform="translate(0)" clip-path="url(#clip-path-3)">
        <g id="Group_970755" data-name="Group 970755">
          <g id="Group_970754" data-name="Group 970754" clip-path="url(#clip-path-3)">
            <g id="Group_970711" data-name="Group 970711" transform="translate(4.76 80.783)" opacity="0.31">
              <g id="Group_970710" data-name="Group 970710">
                <g id="Group_970709" data-name="Group 970709" clip-path="url(#clip-path-5)">
                  <path id="Path_661638" data-name="Path 661638" d="M230.307,254.759H9.3c-1.5,0-2.956-.66-2.956-1.466l-.227-.972c0-.806,1.228-1.466,2.728-1.466H230.534c1.5,0,2.728.659,2.728,1.466l-.455.972c0,.806-1,1.466-2.5,1.466" transform="translate(-6.122 -250.856)" fill="#235b68"/>
                </g>
              </g>
            </g>
            <path id="Path_661639" data-name="Path 661639" d="M274.764,40.123q.427.625.83,1.291c5.237,8.656,7.6,22.414,8.468,28.954.066.5.129,1,.186,1.466.066.559.118,1.024.155,1.383.057.54.084.836.084.836h.019l.786.059,23.514,1.764.669-5.343a10.235,10.235,0,0,0,2.4-2.008c1.862-2.208,1.117-4.141-.033-4.633-2.585-1.106-7.7-2.04-17.96,1.141q-.94.293-1.941.631s-.267-1.65-.635-3.692a69.48,69.48,0,0,0-1.517-7.017q-.1-.314-.209-.622c-.048-.139-.1-.278-.142-.415A78.888,78.888,0,0,0,285.186,43.5q-.5-.977-1.02-1.847a23.717,23.717,0,0,0-2.093-3.025,9.175,9.175,0,0,0-1.714-1.659c.594.088.888.113.888.113,3.6.776,2.1-4.971,2.1-4.971-.573-2.729-1.516-3.4-1.516-3.4-.943-.716-3.875,1.392-3.875,1.392-4.485,2.519-1.929,5.431-1.282,6.068q.42.124.84.233c-1.885.746-2.754,3.718-2.754,3.718" transform="translate(-167.622 -19.365)" fill="#2a3236"/>
            <path id="Path_661640" data-name="Path 661640" d="M285.745,158.379c.066.5.129,1,.186,1.466.061.5.118.976.165,1.392.035.311.067.59.092.828.056.508.089.818.089.818l1.512.063,22.7.941.669-5.343Z" transform="translate(-169.305 -107.376)" fill="#2f393d"/>
            <path id="Path_661641" data-name="Path 661641" d="M417.025,42.326q.427.625.83,1.291c5.237,8.656,7.6,22.414,8.468,28.954.065.5.129,1,.186,1.466.066.559.118,1.024.155,1.383.057.54.084.836.084.836h.019l.786.059,23.514,1.764.67-5.343a10.227,10.227,0,0,0,2.4-2.007c1.862-2.208,1.117-4.141-.033-4.633-2.585-1.106-7.7-2.04-17.96,1.141q-.941.293-1.941.631s-.267-1.65-.635-3.692a69.471,69.471,0,0,0-1.517-7.017q-.1-.314-.21-.622c-.047-.139-.095-.278-.141-.415A78.879,78.879,0,0,0,427.446,45.7q-.5-.977-1.02-1.847a23.717,23.717,0,0,0-2.092-3.025,9.174,9.174,0,0,0-1.714-1.659c.594.088.888.113.888.113,3.605.776,2.1-4.971,2.1-4.971-.573-2.729-1.516-3.4-1.516-3.4-.943-.716-3.875,1.392-3.875,1.392-4.485,2.519-1.929,5.431-1.282,6.068q.42.124.84.233c-1.885.746-2.754,3.718-2.754,3.718" transform="translate(-355.694 -20.859)" fill="#2a3236"/>
            <path id="Path_661642" data-name="Path 661642" d="M428.005,160.582c.066.5.129,1,.186,1.466.061.5.118.976.165,1.393.035.311.067.59.092.828.056.508.089.818.089.818l1.512.063,22.7.941.669-5.343Z" transform="translate(-357.377 -108.87)" fill="#2f393d"/>
            <path id="Path_661643" data-name="Path 661643" d="M215.379,74.428c6.772,1.179,15.578,6.883,15.578,6.883,2.862.654.622-13.231.8-13.924a.875.875,0,0,0,.019-.1c-2.93-2.009-8.137-4.9-13.148-5.021a24.437,24.437,0,0,1-3.245,12.158" transform="translate(-67.91 -42.217)" fill="#0b2728"/>
            <path id="Path_661644" data-name="Path 661644" d="M267.957,72.473a.92.92,0,0,0,1.742.557l4.14-12.948a.92.92,0,0,0-1.742-.556Z" transform="translate(-126.28 -39.983)" fill="#0b2728"/>
            <path id="Path_661645" data-name="Path 661645" d="M266.95,77.829c-.057.18.578.545,1.419.813s1.571.341,1.628.161l1.732-5.413c.057-.18-.578-.544-1.42-.813s-1.57-.341-1.628-.161Z" transform="translate(-123.825 -49.029)" fill="#0b2728"/>
            <path id="Path_661646" data-name="Path 661646" d="M256.034,77.779l-7.4-1.945-1.583,4.382L255,83.568Z" transform="translate(-101.719 -51.413)" fill="#0b2728"/>
            <g id="Group_970714" data-name="Group 970714" transform="translate(39.323 1.629)" opacity="0.88">
              <g id="Group_970713" data-name="Group 970713">
                <g id="Group_970712" data-name="Group 970712" clip-path="url(#clip-path-6)">
                  <path id="Path_661647" data-name="Path 661647" d="M236.965,9.043l-5.037,5.194L232.6,18.9l12.706,9.173L351.38,30.1l.41-2.055-3.105-4.525-14.309-7.058L317.737,9.572,307.009,6.5l-8.352-1.336-15.638-.1L264.7,6.221l-16.245.266Z" transform="translate(-231.928 -5.06)" fill="#0c5961"/>
                </g>
              </g>
            </g>
            <g id="Group_970717" data-name="Group 970717" transform="translate(37.424 1.613)" opacity="0.88" style="mix-blend-mode: screen;isolation: isolate">
              <g id="Group_970716" data-name="Group 970716">
                <g id="Group_970715" data-name="Group 970715" clip-path="url(#clip-path-7)">
                  <path id="Path_661648" data-name="Path 661648" d="M371.871,21.378s-38.9-8.7-113.124-4.642l4.308-5.018,10.158-4.81,16.919-.744,19.127-1.156,12.778.084,11.932,1.359,8.3.909,10.592,4.517Z" transform="translate(-258.747 -5.009)" fill="#0c5961"/>
                </g>
              </g>
            </g>
            <path id="Path_661649" data-name="Path 661649" d="M384.981,31.372l-11.322-.2L371.418,10.4c1.988.134,3.888.3,5.671.5Z" transform="translate(-270.716 -7.054)" fill="#39454a"/>
            <path id="Path_661650" data-name="Path 661650" d="M41.429,146.123l3.346,2.627,45.273.3,2.94-3.286.388-9.53-2.757-6.965-4.681-6.756L80.559,117.7l-7.426-2.24-7.9-1-9.887,2.506-5.933,4.972-5.13,5.786-2.78,7.718Z" transform="translate(127.153 -77.606)" fill="#2a3236"/>
            <path id="Path_661651" data-name="Path 661651" d="M491.609,140.693l1.809,2.846,45.555.768,5.325-5.125-.187-6.217-5.18-12.583-7.838-6.719-9.424-4.771-10.8,1-11.658,3.561-5.751,8.083-3.325,7.861Z" transform="translate(-468.263 -73.826)" fill="#2a3236"/>
            <path id="Path_661652" data-name="Path 661652" d="M233.8,61.49a7.815,7.815,0,0,1-3.9,6.3c-.219.127-.445.244-.677.35a8.083,8.083,0,0,1-1.254.448L217.2,71.441h-.15a24.607,24.607,0,0,0-1.711-19.094,23.487,23.487,0,0,0-41.493-.2,24.6,24.6,0,0,0-1.919,19L70.71,70.482a24.451,24.451,0,0,0,.972-4.339c.01-.08.02-.162.031-.242a24.751,24.751,0,0,0,.176-2.795A24.359,24.359,0,0,0,68.5,50.493a23.98,23.98,0,0,0-8.666-8.577c-.1-.064-.21-.123-.317-.179a23.226,23.226,0,0,0-11.161-2.927A23.566,23.566,0,0,0,28.4,49.694,24.6,24.6,0,0,0,25.49,69.876l-20.241-9.8A9.3,9.3,0,0,1,.375,49.094,8.866,8.866,0,0,1,.7,48.17L2.98,42.61a11.166,11.166,0,0,0,.307-7.631l-.82-2.566a7.663,7.663,0,0,1,3.01-8.685l3.585-2.423.422-.286.348-.235L28.152,8.4a36.333,36.333,0,0,1,5.06-2.857,35.611,35.611,0,0,1,10.4-3C66.436-.392,93.38-.378,108.089.56A52.038,52.038,0,0,1,127,4.951l.263.118,38.777,17.324.094.042.87.389a27.184,27.184,0,0,0,3.737,1.348,33.312,33.312,0,0,0,4.284.908c20.687,3.026,27.212,4.16,34.334,5.513,1.5.284,3.02.578,4.705.9a27.815,27.815,0,0,1,11.905,5.226,17.064,17.064,0,0,1,1.974,1.788c.275.29.537.588.79.895a17.626,17.626,0,0,1,2.684,4.448q.243.58.448,1.179c.15.445.285.9.4,1.356.364,1.435.653,2.822.878,4.147A48.421,48.421,0,0,1,233.8,61.49m-76.66-37.9a1.031,1.031,0,0,0-.631-1.035s-2.708-1.276-6.638-3.1h0c-7.98-3.694-21-9.625-26.625-11.646A47.629,47.629,0,0,0,115.729,5.5c-1.71-.312-3.636-.576-5.724-.8-1.783-.189-3.683-.347-5.671-.474C95.08,3.629,83.974,3.653,74.377,4c-3.507.127-6.813.3-9.753.5A85.866,85.866,0,0,0,53.173,5.8c-1.338.323-7.66,1.945-10.273,3.994-1.206.945-1.639,2.29-.624,3.565A53.128,53.128,0,0,0,48,19.079a17.345,17.345,0,0,0,4.721,2.938c.056.022.111.044.167.064a12.075,12.075,0,0,0,3.338.805c.1.01.194.018.289.026.194.011.388.019.584.023l11.126.187,38.358.641,4.975.083.25,0,6.1.1,33.1.554,5.053.084a1.025,1.025,0,0,0,1-.662c.012-.032.022-.063.032-.1a1.017,1.017,0,0,0,.045-.242" transform="translate(0 0)" fill="#2a718d"/>
            <path id="Path_661653" data-name="Path 661653" d="M559.476,158.708A16.252,16.252,0,1,1,543.33,142.35,16.252,16.252,0,0,1,559.476,158.708Z" transform="translate(-495.304 -96.509)" fill="none" stroke="#ea750a" stroke-miterlimit="10" stroke-width="1"/>
            <g id="Group_970720" data-name="Group 970720" transform="translate(2.379 21.305)" opacity="0.63" style="mix-blend-mode: screen;isolation: isolate">
              <g id="Group_970719" data-name="Group 970719">
                <g id="Group_970718" data-name="Group 970718" clip-path="url(#clip-path-8)">
                  <path id="Path_661654" data-name="Path 661654" d="M283.091,75.446c-39.185-.509-157.253-2.031-206.984-2.55a7.656,7.656,0,0,1,3.1-4.315l3.585-2.423,43.825.777a12.089,12.089,0,0,0,3.338.805c.1.01.194.018.288.026.194.011.388.02.584.023l11.126.187,38.358.641,4.975.083.25,0,6.1.1,33.1.554,5.053.084a1.025,1.025,0,0,0,1-.663l13.686.242a33.427,33.427,0,0,0,4.283.908c20.687,3.026,27.212,4.16,34.335,5.513" transform="translate(-76.107 -66.157)" fill="#2a718d"/>
                </g>
              </g>
            </g>
            <path id="Path_661655" data-name="Path 661655" d="M679.919,77.437l-2.343,1.18a2.872,2.872,0,0,1-.964.292c-.034,0-.068.009-.1.012l-4.677.418-9.933.888a7.476,7.476,0,0,1,.344-1.424,7.658,7.658,0,0,1,2.177-3.254l15.079.1a.945.945,0,0,1,.42,1.79" transform="translate(-659.72 -51.22)" fill="#a80b0b"/>
            <path id="Path_661656" data-name="Path 661656" d="M632.435,18.415l-23.58,14.312-6.99-.046.348-.235,18.32-12.387a36.328,36.328,0,0,1,5.06-2.857l1.211.214Z" transform="translate(-592.381 -11.662)" fill="#0c5961"/>
            <g id="Group_970723" data-name="Group 970723" transform="translate(9.484 5.539)" opacity="0.65" style="mix-blend-mode: screen;isolation: isolate">
              <g id="Group_970722" data-name="Group 970722">
                <g id="Group_970721" data-name="Group 970721" clip-path="url(#clip-path-9)">
                  <path id="Path_661657" data-name="Path 661657" d="M644.29,17.415,622.207,32.7l-2.856-.019.348-.235,18.32-12.387a36.37,36.37,0,0,1,5.06-2.857Z" transform="translate(-619.351 -17.201)" fill="#0c5961"/>
                </g>
              </g>
            </g>
            <path id="Path_661658" data-name="Path 661658" d="M592.686,9.957l16.626-1.879L606.2,12.23l-3.15,1.912-10.456-3.1a.554.554,0,0,1,.1-1.082" transform="translate(-566.143 -5.477)" fill="#2a718d"/>
            <path id="Path_661659" data-name="Path 661659" d="M371.835,98.29l-17.292-.359a.647.647,0,0,1,.027-1.293L371.862,97a.647.647,0,0,1-.027,1.293" transform="translate(-252.592 -65.518)" fill="#c5d4db"/>
            <g id="Group_970726" data-name="Group 970726" transform="translate(68.496 50.492)" opacity="0.17" style="mix-blend-mode: multiply;isolation: isolate">
              <g id="Group_970725" data-name="Group 970725">
                <g id="Group_970724" data-name="Group 970724" clip-path="url(#clip-path-10)">
                  <path id="Path_661660" data-name="Path 661660" d="M291.746,158.444a24.6,24.6,0,0,0-1.919,19l-101.219-.662a24.455,24.455,0,0,0,.972-4.339l.031-.242a24.755,24.755,0,0,0,.176-2.795,24.358,24.358,0,0,0-3.392-12.614c33.6.642,73,1.314,105.352,1.65" transform="translate(-186.394 -156.794)" fill="#2a718d"/>
                </g>
              </g>
            </g>
            <path id="Path_661661" data-name="Path 661661" d="M244.468,65.555l-5.053-.084-1.136-5.051c3.931,1.823,6.638,3.1,6.638,3.1a1.064,1.064,0,0,1-.45,2.036" transform="translate(-88.412 -40.963)" fill="#3f4d52"/>
            <path id="Path_661662" data-name="Path 661662" d="M509.123,24.921l1.661,6.627-11.126-.187a12.084,12.084,0,0,1-4.378-.918l11.9-17.514c2.94-.2,6.246-.374,9.753-.5l-7.316,9.957a3.038,3.038,0,0,0-.5,2.537" transform="translate(-442.56 -8.426)" fill="#39454a"/>
            <path id="Path_661663" data-name="Path 661663" d="M545.85,90.1c-.1-.064-.21-.123-.317-.179l-4.892-14.241a3.439,3.439,0,0,1,.543-3.245l1.061-1.363c.1.01.194.018.289.026l-1.159,1.486a3.2,3.2,0,0,0-.505,3.018Z" transform="translate(-486.02 -48.183)" fill="#1b4859"/>
            <path id="Path_661664" data-name="Path 661664" d="M296.226,114.415a2.95,2.95,0,0,1-2.936,2.539h-.017l-93.449-1.145c.01-.08.02-.162.031-.242l42.136.516.245,0,51.039.625h.017a2.708,2.708,0,0,0,2.694-2.332c1-7.139,2.939-24.844-.593-34.991a5.427,5.427,0,0,0-3.232-3.309L285.233,73.5a1.02,1.02,0,0,0,.045-.242l6.966,2.6a5.666,5.666,0,0,1,3.377,3.456c3.549,10.2,1.607,27.948.6,35.107" transform="translate(-128.142 -49.665)" fill="#1b4859"/>
            <g id="Group_970729" data-name="Group 970729" transform="translate(215.341 52.18)" opacity="0.17" style="mix-blend-mode: multiply;isolation: isolate">
              <g id="Group_970728" data-name="Group 970728" transform="translate(0)">
                <g id="Group_970727" data-name="Group 970727" clip-path="url(#clip-path-11)">
                  <path id="Path_661665" data-name="Path 661665" d="M28.486,164.275l-3.648,15-2.607.691-5.018,1.33h-.15a24.554,24.554,0,0,0,1.178-7.375A24.351,24.351,0,0,0,15.353,162.2c4.716-.02,8.822-.063,12.192-.136.48-.009.946-.02,1.394-.03l-.546,2.239Z" transform="translate(-15.353 -162.035)" fill="#2a718d"/>
                </g>
              </g>
            </g>
            <path id="Path_661666" data-name="Path 661666" d="M377.732,74.008c1.488,7.466,4.161,24.406,2.287,42.569,0,.043-.008.087-.013.131l-.242-.026c0-.036.008-.073.011-.109,1.882-18.185-.808-35.145-2.292-42.569Z" transform="translate(-268.349 -50.172)" fill="#1b4859"/>
            <path id="Path_661667" data-name="Path 661667" d="M23.262,122.95l-6.307-.44a2.108,2.108,0,0,1-1.3-.565l-2.847-2.669a2.184,2.184,0,0,0-.886-.5L7.2,117.4a1.075,1.075,0,0,1-.751-.8l-.216-1a.548.548,0,0,1,.582-.662c1.971.174,7.539.7,12.529,1.491a17.767,17.767,0,0,1,3.922,6.521" transform="translate(208.608 -77.923)" fill="#c1e9f4"/>
            <g id="Group_970732" data-name="Group 970732" transform="translate(223.074 50.505)" opacity="0.55" style="mix-blend-mode: multiply;isolation: isolate">
              <g id="Group_970731" data-name="Group 970731" transform="translate(0)">
                <g id="Group_970730" data-name="Group 970730" clip-path="url(#clip-path-12)">
                  <path id="Path_661668" data-name="Path 661668" d="M10.722,167.817a7.815,7.815,0,0,1-3.9,6.3L2,174.508c-.012,0-.027,0-.039,0a1.851,1.851,0,0,1-1.871-2.417L4.65,157.949A1.617,1.617,0,0,1,6.2,156.832l3.877.025a48.4,48.4,0,0,1,.649,10.959" transform="translate(0 -156.832)" fill="#2a718d"/>
                </g>
              </g>
            </g>
            <path id="Path_661669" data-name="Path 661669" d="M20.351,156.832l-.406,1.675-.546,2.239L16.053,174.51a1.849,1.849,0,0,1-1.871-2.418l4.369-13.555.19-.588a1.616,1.616,0,0,1,1.547-1.117Z" transform="translate(208.983 -106.327)" fill="#c1e9f4"/>
            <path id="Path_661670" data-name="Path 661670" d="M684.634,77.481l1.4,1.539c-.034,0-.068.009-.1.011l-4.677.418-.438-.929-9.151.394a7.6,7.6,0,0,1,1.462-2.534l7.771.051,1.023-.718,4.8.031Z" transform="translate(-669.146 -51.331)" fill="#e30f0f"/>
            <path id="Path_661671" data-name="Path 661671" d="M22.9,123.771l-5.812-.344-1.293-1-2.714-2.093L7.9,118.7l-.293-.092,0-.725s7.017.746,12.6,1.438q.462.556.875,1.15a17.7,17.7,0,0,1,1.405,2.4c.143.294.277.594.4.895" transform="translate(208.524 -79.923)" fill="#e8f6f9"/>
            <path id="Path_661672" data-name="Path 661672" d="M249.646,64.419a1.883,1.883,0,0,0,.662.816,3.816,3.816,0,0,0,1.944.775c2.122.184,11.546.781,13.409.22.058-.016.107-.035.15-.052,1.493-.567-2.08-1.5-5.858-2.166a37.057,37.057,0,0,0-8.658-.7,2.523,2.523,0,0,0-1.448.379.613.613,0,0,0-.2.731" transform="translate(-112.664 -42.9)" fill="#348bad"/>
            <path id="Path_661673" data-name="Path 661673" d="M250.725,65.283a1.883,1.883,0,0,0,.662.816,3.815,3.815,0,0,0,1.944.775c2.122.184,11.546.781,13.409.22.058-.016.107-.035.15-.052a140.39,140.39,0,0,0-15.964-2.491.613.613,0,0,0-.2.731" transform="translate(-113.743 -43.764)" fill="#2a718d"/>
            <path id="Path_661674" data-name="Path 661674" d="M281.363,66.823a1.883,1.883,0,0,0,.662.816l5.545.141.077-.8Z" transform="translate(-144.381 -45.304)" fill="#c1e9f4"/>
            <g id="Group_970735" data-name="Group 970735" transform="translate(0 49.093)" opacity="0.17" style="mix-blend-mode: multiply;isolation: isolate">
              <g id="Group_970734" data-name="Group 970734">
                <g id="Group_970733" data-name="Group 970733" clip-path="url(#clip-path-13)">
                  <path id="Path_661675" data-name="Path 661675" d="M666.463,153.051a24.6,24.6,0,0,0-2.906,20.182l-20.241-9.8a9.3,9.3,0,0,1-4.875-10.98c5.734.128,15.55.342,28.021.6" transform="translate(-638.067 -152.45)" fill="#2a718d"/>
                </g>
              </g>
            </g>
            <path id="Path_661676" data-name="Path 661676" d="M544.931,176.518a16.38,16.38,0,0,1-19.419-12.611,16.219,16.219,0,0,1-.32-2.311,16.372,16.372,0,0,1,32.035-5.744c.121.407.228.824.318,1.246a16.393,16.393,0,0,1-12.613,19.419m12.375-19.368c-.08-.374-.172-.742-.274-1.1a16.036,16.036,0,0,0-2.012-4.389,16.2,16.2,0,0,0-12.625-7.264A16.129,16.129,0,0,0,529.6,171.36,16.3,16.3,0,0,0,537.074,176a16.128,16.128,0,0,0,20.232-18.855" transform="translate(-493.146 -97.714)" fill="#cedee6"/>
            <path id="Path_661677" data-name="Path 661677" d="M553.255,151.643a20.584,20.584,0,1,1-20.584-20.584,20.584,20.584,0,0,1,20.584,20.584" transform="translate(-484.29 -88.854)" fill="#4b5961"/>
            <path id="Path_661678" data-name="Path 661678" d="M556.118,157.093A17.994,17.994,0,1,1,538.123,139.1a17.994,17.994,0,0,1,17.994,17.994" transform="translate(-489.742 -94.305)" fill="#3b464d"/>
            <path id="Path_661679" data-name="Path 661679" d="M551.34,173.9a16.255,16.255,0,1,1,3.6-22.7c.15.206.293.415.429.623A16.23,16.23,0,0,1,551.34,173.9" transform="translate(-493.406 -97.969)" fill="#c5d4db"/>
            <g id="Group_970738" data-name="Group 970738" transform="translate(32.157 46.565)" opacity="0.65" style="mix-blend-mode: screen;isolation: isolate">
              <g id="Group_970737" data-name="Group 970737">
                <g id="Group_970736" data-name="Group 970736" clip-path="url(#clip-path-14)">
                  <path id="Path_661680" data-name="Path 661680" d="M569.185,148.808l-.09.09L546.313,171.68l-.087.087a16.34,16.34,0,0,1-1.135-1.392,16.17,16.17,0,0,1-3.077-8.571L559.22,144.6a16.224,16.224,0,0,1,9.966,4.209" transform="translate(-542.014 -144.599)" fill="#c5d4db"/>
                </g>
              </g>
            </g>
            <g id="Group_970741" data-name="Group 970741" transform="translate(39.448 53.859)" opacity="0.76" style="mix-blend-mode: screen;isolation: isolate">
              <g id="Group_970740" data-name="Group 970740">
                <g id="Group_970739" data-name="Group 970739" clip-path="url(#clip-path-15)">
                  <path id="Path_661681" data-name="Path 661681" d="M552.088,171.622l-20.156,20.156a16.2,16.2,0,0,1-4.382-2.02l22.511-22.511a16.1,16.1,0,0,1,2.027,4.374" transform="translate(-527.55 -167.248)" fill="#c5d4db"/>
                </g>
              </g>
            </g>
            <path id="Path_661682" data-name="Path 661682" d="M570.508,150.782h-6.7l.949,3.9,2.4,1.387,1.965,5.547h2.542Z" transform="translate(-519.353 -102.225)" fill="#2f393d"/>
            <path id="Path_661683" data-name="Path 661683" d="M580.754,160.471l-4.218,5.209,3.627,1.715,2.589-.994,5.547,1.964,1.6-1.976Z" transform="translate(-541.688 -108.794)" fill="#2f393d"/>
            <path id="Path_661684" data-name="Path 661684" d="M587.232,188.62l1.393,6.556,3.615-1.739.857-2.638,5.017-3.075-.528-2.487Z" transform="translate(-553.349 -125.586)" fill="#2f393d"/>
            <path id="Path_661685" data-name="Path 661685" d="M582.331,209.023l5.972,3.043.924-3.9-1.511-2.326.768-5.835-2.265-1.154Z" transform="translate(-542.883 -134.812)" fill="#2f393d"/>
            <path id="Path_661686" data-name="Path 661686" d="M552.345,216.836l6.123-2.726-2.453-3.175-2.758-.29-4.051-4.268-2.323,1.034Z" transform="translate(-500.709 -139.917)" fill="#2f393d"/>
            <path id="Path_661687" data-name="Path 661687" d="M540.921,200.912l1.735-6.474-4.011-.092-1.961,1.961-5.866.462-.658,2.456Z" transform="translate(-479.511 -131.76)" fill="#2f393d"/>
            <path id="Path_661688" data-name="Path 661688" d="M544.768,164.551l-3.94-5.423-2.6,3.059.29,2.758-3.333,4.85,1.494,2.057Z" transform="translate(-483.242 -107.884)" fill="#2f393d"/>
            <path id="Path_661689" data-name="Path 661689" d="M573.037,189.32a2.687,2.687,0,1,1-2.687-2.687,2.687,2.687,0,0,1,2.687,2.687" transform="translate(-521.969 -126.532)" fill="#2f393d"/>
            <path id="Path_661690" data-name="Path 661690" d="M91.529,176.518a16.379,16.379,0,0,1-19.419-12.611,16.222,16.222,0,0,1-.32-2.311,16.372,16.372,0,0,1,32.035-5.744c.121.407.228.824.318,1.246a16.393,16.393,0,0,1-12.613,19.419M103.9,157.149c-.08-.374-.172-.742-.274-1.1a16.037,16.037,0,0,0-2.012-4.389,16.2,16.2,0,0,0-12.625-7.264A16.129,16.129,0,0,0,76.2,171.36,16.3,16.3,0,0,0,83.672,176,16.128,16.128,0,0,0,103.9,157.149" transform="translate(106.265 -97.714)" fill="#cedee6"/>
            <path id="Path_661691" data-name="Path 661691" d="M99.854,151.643A20.584,20.584,0,1,1,79.27,131.059a20.584,20.584,0,0,1,20.584,20.584" transform="translate(115.119 -88.854)" fill="#4b5961"/>
            <path id="Path_661692" data-name="Path 661692" d="M102.716,157.093A17.994,17.994,0,1,1,84.722,139.1a17.994,17.994,0,0,1,17.994,17.994" transform="translate(109.667 -94.305)" fill="#3b464d"/>
            <path id="Path_661693" data-name="Path 661693" d="M97.939,173.9a16.255,16.255,0,1,1,3.6-22.7c.15.206.293.415.429.623A16.229,16.229,0,0,1,97.939,173.9" transform="translate(106.003 -97.969)" fill="#c5d4db"/>
            <g id="Group_970744" data-name="Group 970744" transform="translate(178.165 46.565)" opacity="0.65" style="mix-blend-mode: screen;isolation: isolate">
              <g id="Group_970743" data-name="Group 970743" transform="translate(0)">
                <g id="Group_970742" data-name="Group 970742" clip-path="url(#clip-path-14)">
                  <path id="Path_661694" data-name="Path 661694" d="M115.784,148.808l-.09.09L92.912,171.68l-.087.087a16.337,16.337,0,0,1-1.135-1.392,16.169,16.169,0,0,1-3.077-8.571L105.819,144.6a16.224,16.224,0,0,1,9.966,4.209" transform="translate(-88.613 -144.599)" fill="#c5d4db"/>
                </g>
              </g>
            </g>
            <g id="Group_970747" data-name="Group 970747" transform="translate(185.456 53.859)" opacity="0.76" style="mix-blend-mode: screen;isolation: isolate">
              <g id="Group_970746" data-name="Group 970746" transform="translate(0)">
                <g id="Group_970745" data-name="Group 970745" clip-path="url(#clip-path-15)">
                  <path id="Path_661695" data-name="Path 661695" d="M98.686,171.622,78.53,191.779a16.193,16.193,0,0,1-4.382-2.02l22.511-22.511a16.1,16.1,0,0,1,2.027,4.374" transform="translate(-74.148 -167.248)" fill="#c5d4db"/>
                </g>
              </g>
            </g>
            <path id="Path_661696" data-name="Path 661696" d="M117.106,150.782h-6.7l.949,3.9,2.4,1.387,1.965,5.547h2.542Z" transform="translate(80.057 -102.225)" fill="#2f393d"/>
            <path id="Path_661697" data-name="Path 661697" d="M127.352,160.471l-4.218,5.209,3.627,1.715,2.589-.994,5.547,1.964,1.6-1.976Z" transform="translate(57.722 -108.794)" fill="#2f393d"/>
            <path id="Path_661698" data-name="Path 661698" d="M133.83,188.62l1.394,6.556,3.615-1.739.857-2.638,5.017-3.075-.528-2.487Z" transform="translate(46.061 -125.586)" fill="#2f393d"/>
            <path id="Path_661699" data-name="Path 661699" d="M128.931,209.023l5.972,3.043.923-3.9-1.51-2.326.768-5.835-2.265-1.154Z" transform="translate(56.526 -134.812)" fill="#2f393d"/>
            <path id="Path_661700" data-name="Path 661700" d="M98.944,216.836l6.123-2.726-2.453-3.175-2.758-.29-4.051-4.268-2.322,1.034Z" transform="translate(98.701 -139.917)" fill="#2f393d"/>
            <path id="Path_661701" data-name="Path 661701" d="M87.52,200.912l1.735-6.474-4.011-.092-1.961,1.961-5.866.462-.658,2.456Z" transform="translate(119.9 -131.76)" fill="#2f393d"/>
            <path id="Path_661702" data-name="Path 661702" d="M91.366,164.551l-3.94-5.423-2.6,3.059.29,2.758-3.333,4.85,1.494,2.057Z" transform="translate(116.168 -107.884)" fill="#2f393d"/>
            <path id="Path_661703" data-name="Path 661703" d="M119.636,189.32a2.687,2.687,0,1,1-2.687-2.687,2.687,2.687,0,0,1,2.687,2.687" transform="translate(77.441 -126.532)" fill="#2f393d"/>
            <g id="Group_970750" data-name="Group 970750" transform="translate(35.985 2.053)" opacity="0.63" style="mix-blend-mode: screen;isolation: isolate">
              <g id="Group_970749" data-name="Group 970749">
                <g id="Group_970748" data-name="Group 970748" clip-path="url(#clip-path-18)">
                  <path id="Path_661704" data-name="Path 661704" d="M353.319,9.638c3.425-.542,6.889-.968,10.358-1.373.434-.05.873-.074,1.31-.1l1.311-.1c.874-.067,1.747-.143,2.622-.2,1.751-.118,3.5-.254,5.252-.357s3.5-.219,5.258-.309L384.7,6.93l5.271-.206,1.318-.051,1.319-.036,2.638-.071,2.638-.071c.879-.022,1.76-.028,2.64-.043l5.28-.072,5.283,0c.88,0,1.761-.008,2.641.007l2.641.039c1.761.03,3.522.044,5.282.088l5.279.167c.878.058,1.756.1,2.632.173l2.626.217q2.625.22,5.242.458-2.644-.025-5.281-.066l-2.635-.045c-.878-.013-1.758,0-2.637-.006l-5.26-.166c-1.754-.044-3.51-.057-5.264-.088l-2.633-.039c-.877-.015-1.755,0-2.633-.007l-5.266,0-5.265.071c-.877.015-1.755.02-2.632.043l-2.63.071-2.63.071-1.315.036-1.314.051-5.256.206-5.25.262c-1.749.091-3.5.207-5.243.309s-3.49.238-5.236.356-3.484.273-5.226.409q-5.251.286-10.5.641" transform="translate(-353.319 -6.376)" fill="#2a718d"/>
                </g>
              </g>
            </g>
            <path id="Path_661705" data-name="Path 661705" d="M256.619,32.964l-2.688-.122-4.5-.207S218,16.783,210.629,15.593l7.213.047Z" transform="translate(-90.576 -10.572)" fill="#0c5961"/>
            <g id="Group_970753" data-name="Group 970753" transform="translate(124.735 5.052)" opacity="0.49" style="mix-blend-mode: screen;isolation: isolate">
              <g id="Group_970752" data-name="Group 970752">
                <g id="Group_970751" data-name="Group 970751" clip-path="url(#clip-path-19)">
                  <path id="Path_661706" data-name="Path 661706" d="M251.739,33.071l-3.752-.17-37.65-17.212,2.531.017Z" transform="translate(-210.336 -15.688)" fill="#0c5961"/>
                </g>
              </g>
            </g>
            <path id="Path_661707" data-name="Path 661707" d="M26.707,120.473c-4.625-.61-10.868-1.456-13.189-1.771l-.293-.092,0-.725s7.017.747,12.6,1.438q.462.556.875,1.15" transform="translate(202.906 -79.922)" fill="#bfe1e8"/>
            <path id="Path_661708" data-name="Path 661708" d="M14.714,133.343,8.9,133l-1.293-1c1.558.132,4.639.377,6.7.444.143.294.277.594.4.895" transform="translate(216.709 -89.495)" fill="#bfe1e8"/>
          </g>
        </g>
      </g>
    </g>
    <g id="Group_989372" data-name="Group 989372" transform="translate(435.195 4775.736)">
      <path id="Path_661709" data-name="Path 661709" d="M228.247,383.5l-1.47,1.131.622-1.748ZM246.9,364.993l13.9-.385-12.086,8.28,12.086,8.28-14.644-.406,4.911,13.8-11.61-8.934-4.139,14.053-4.14-14.053-2.925-2.125,4.821-3.712,2.244,7.617,2.244-7.617,6.29,4.843-2.66-7.48,7.936.22-6.549-4.488,6.549-4.487-8.682.24,7.315-11.419-10.146,8.943-2.3-7.8-2.3,7.805-8.021-7.106,4.821,9.565L221.5,368.4l6.55,4.487-6.55,4.488,7.937-.22-2.039,5.733-2.925-2.126-14.644.406,12.086-8.28-12.086-8.28,14.27.4-10.344-20.527,17.472,15.481,4.085-13.863,4.086,13.87,24.62-21.7Z" transform="translate(-185.562 -273.502)" fill="#f6f6f6"/>
      <g id="Group_974248" data-name="Group 974248" transform="translate(0 0)">
        <g id="Mask_Group_970758" data-name="Mask Group 970758" clip-path="url(#clip-path-20)">
          <path id="Path_661710" data-name="Path 661710" d="M370.5,608.858a5.92,5.92,0,0,0-.191-2.215" transform="translate(-322.473 -490.458)" fill="#382d36"/>
          <path id="Path_661711" data-name="Path 661711" d="M446.7,165.238l8.959,8.1,5.945-4.655-8.812-7.661Z" transform="translate(-428.18 -130.187)" fill="#edb47c"/>
          <path id="Path_661712" data-name="Path 661712" d="M300.25,188.781s2.723-.122,4.061-1.6a12.333,12.333,0,0,0,2.3-3.851s4.737-2.672,6.879-2.078c1.731.481,5.139,4.467,6.675,6.083,5.447,5.73,16.121,14.816,16.121,14.816l-11.863,12.626s-19.1-11.164-26.842-19.028c-1.263-1.286,2.668-6.972,2.668-6.972" transform="translate(-274.258 -146.471)" fill="#fff"/>
          <path id="Path_661713" data-name="Path 661713" d="M280.08,108.379c2.987-2.4,8.031-10.97,9.813-15.422l3.7,1.478c-.694,2.45-5.094,10.727-7.941,14.4-2.58,3.322-4.555,3.557-5.764,2.9-1.7-.931-1.478-2,.2-3.347" transform="translate(-227.993 -75.154)" fill="#edb47c"/>
          <path id="Path_661714" data-name="Path 661714" d="M452.346,444.344l2.821,3.453a.554.554,0,0,1-.857.7l-2.8-3.467Z" transform="translate(-422.79 -359.243)" fill="#edb47c"/>
          <path id="Path_661715" data-name="Path 661715" d="M437.205,437.488l4.13,5.053a.715.715,0,1,1-1.108.9l-4.132-5.052Z" transform="translate(-406.043 -353.7)" fill="#edb47c"/>
          <path id="Path_661716" data-name="Path 661716" d="M426.337,433.339l4.13,5.053a.716.716,0,1,1-1.108.905l-4.13-5.052Z" transform="translate(-393.094 -350.346)" fill="#edb47c"/>
          <path id="Path_661717" data-name="Path 661717" d="M422.46,425.742l3.677,4.5a.637.637,0,0,1-.987.806l-3.678-4.5Z" transform="translate(-388.027 -344.203)" fill="#edb47c"/>
          <path id="Path_661718" data-name="Path 661718" d="M438.308,402.691c1.263,1.519,4.248,1.8,4.248,1.8l-.311,1.912,1.8,2.2-6.792,3.015c-1.822-2.555-1.038-5.8-2.43-7.194Z" transform="translate(-408.35 -325.567)" fill="#edb47c"/>
          <path id="Path_661719" data-name="Path 661719" d="M428.083,411.119l4.791.392a.886.886,0,1,1-.006,1.773l-5.121.068Z" transform="translate(-396.705 -332.381)" fill="#edb47c"/>
          <path id="Path_661720" data-name="Path 661720" d="M282.161,116.6l-.906,6.021s10.8,1.416,17.93-3.566c7.378-5.155,10.034-15.669,10.034-15.669L304.6,101.5s-4.18,8.893-8.533,12.221c-5.445,4.163-13.9,2.884-13.9,2.884" transform="translate(-244.111 -82.06)" fill="#108479"/>
          <path id="Path_661721" data-name="Path 661721" d="M115.543,311.906l26.442,10.659,16.472,17.342,2.576-3.452-14.469-20.1-21.777-16.145Z" transform="translate(-64.188 -242.71)" fill="#212f42"/>
          <path id="Path_661722" data-name="Path 661722" d="M40.5,274.507l25.658-14.069,25.313-4.229-.687-4.431-23.667,1.182L40.23,259.731Z" transform="translate(19.799 -203.557)" fill="#212f42"/>
          <path id="Path_661723" data-name="Path 661723" d="M300.25,187.794s7.454,4.194,9.462,1.444c1.57-2.152-3.1-6.892-3.1-6.892s3.551-2.913,5.695-2.318c1.731.482,6.323,4.707,7.859,6.323,5.447,5.73,16.121,14.816,16.121,14.816l-11.863,12.626s-19.1-11.164-26.842-19.028c-1.263-1.286,2.668-6.972,2.668-6.972" transform="translate(-274.258 -145.484)" fill="#108479"/>
          <path id="Path_661724" data-name="Path 661724" d="M297.332,296.906l11.018-13.941,1.525,1.285L299.4,297.764Z" transform="translate(-247.844 -228.772)" fill="#fff"/>
          <path id="Path_661725" data-name="Path 661725" d="M333.648,338.918l2.863,1.631,1.479-1.535L335.05,337.2Z" transform="translate(-282.915 -272.618)" fill="#212f42"/>
          <path id="Path_661726" data-name="Path 661726" d="M470.8,248.1c.019-1.079-5.391-1.313-5.391-1.313s-3.829,7.671-3.794,15.4c.043,9,6.643,16.447,6.643,16.447l4.4-2.371s-4.217-8.877-4.023-14.352c.241-6.851,2.087-8.863,2.171-13.807" transform="translate(-442.08 -199.525)" fill="#108479"/>
          <path id="Path_661728" data-name="Path 661728" d="M492.278,105.993a9.118,9.118,0,0,0,4.416-2.8c1.137-1.677-.179-9.405-.179-9.405s-3.338-6.559-7.132-7.247c-3.6-.653-8.729,2.081-9.618,5.631-.936,3.734,3.955,10.253,3.955,10.253s6.5,3.933,8.558,3.573" transform="translate(-469.679 -67.515)" fill="#fdcb93"/>
          <path id="Path_661729" data-name="Path 661729" d="M547.739,168.635c1.208.869,1.905,1.966,1.558,2.448s-1.608.17-2.816-.7-1.907-1.965-1.558-2.448,1.609-.172,2.816.7" transform="translate(-534.758 -135.59)" fill="#fdcb93"/>
          <path id="Path_661730" data-name="Path 661730" d="M476.392,122.385c.213,1.473.863,2.6,1.452,2.512s.894-1.349.681-2.821-.864-2.6-1.453-2.512-.894,1.349-.68,2.821" transform="translate(-450.844 -96.661)" fill="#fdcb93"/>
          <path id="Path_661731" data-name="Path 661731" d="M553.62,170.427c.642.48,1.049,1.02.91,1.207s-.772-.051-1.415-.532-1.05-1.021-.91-1.207.773.052,1.415.532" transform="translate(-541.336 -137.305)" fill="#edb47c"/>
          <path id="Path_661732" data-name="Path 661732" d="M480.859,124.688c.086.8.344,1.424.575,1.4s.349-.692.262-1.488-.343-1.423-.575-1.4-.348.691-.263,1.488" transform="translate(-454.839 -99.604)" fill="#edb47c"/>
          <path id="Path_661733" data-name="Path 661733" d="M508.75,154.514s.016.819.569.486,1.435-1.364,1.367-1.6-1.935,1.115-1.935,1.115" transform="translate(-489.15 -123.998)" fill="#edb47c"/>
          <path id="Path_661734" data-name="Path 661734" d="M541.954,153.461a.751.751,0,1,1-1.047-.151.748.748,0,0,1,1.047.151" transform="translate(-526.661 -123.828)" fill="#2a2725"/>
          <path id="Path_661735" data-name="Path 661735" d="M534.857,152.251c.2-.042.4-.1.6-.163l.049-.014.011-.081a1.95,1.95,0,0,1,.05-.237c.023-.08.047-.159.073-.237s.059-.152.093-.227a2.385,2.385,0,0,1,.108-.219c.039-.071.082-.138.126-.206s.1-.13.139-.2.1-.125.157-.182.108-.12.172-.172l.09-.081.023-.02.018-.014.052-.04a2.025,2.025,0,0,1,.2-.15l.1-.063c.035-.018.069-.036.1-.057a1.316,1.316,0,0,1,.214-.1c.037-.011.074-.021.112-.034l.114-.022a1.211,1.211,0,0,1,.235-.006,1.025,1.025,0,0,1,.467.172.85.85,0,0,0-.422-.346,1.066,1.066,0,0,0-.283-.063l-.147,0c-.047,0-.1.011-.144.017a1.578,1.578,0,0,0-.279.073,1.508,1.508,0,0,0-.262.12,2.126,2.126,0,0,0-.233.142l-.055.036-.032.024-.027.022-.108.089a2.617,2.617,0,0,0-.2.193c-.065.067-.12.144-.18.216a2.678,2.678,0,0,0-.154.235,1.944,1.944,0,0,0-.125.25,2.64,2.64,0,0,0-.1.262c-.028.088-.047.18-.065.27a2.116,2.116,0,0,0-.033.274,2.179,2.179,0,0,0,.005.282l.059-.1c-.173.111-.347.221-.513.348" transform="translate(-521.617 -120.861)"/>
          <path id="Path_661736" data-name="Path 661736" d="M548.216,136.146a4.914,4.914,0,0,1-.159-2.413,7.605,7.605,0,0,1,2-1.746l.9.941s-2.081,1.294-2.349,1.923a6.228,6.228,0,0,0-.385,1.3" transform="translate(-536.916 -106.709)" fill="#2a2725"/>
          <path id="Path_661737" data-name="Path 661737" d="M506.326,130.67a.75.75,0,1,0,.283-1.019.747.747,0,0,0-.283,1.019" transform="translate(-485.705 -104.741)" fill="#2a2725"/>
          <path id="Path_661738" data-name="Path 661738" d="M499.333,126.87c-.183.1-.353.215-.525.328l.11-.016a1.923,1.923,0,0,0-.255-.117,2.119,2.119,0,0,0-.265-.081c-.09-.019-.181-.039-.272-.05s-.186-.014-.279-.015a2.027,2.027,0,0,0-.279.014c-.094.008-.185.03-.278.047s-.182.046-.269.078a2.381,2.381,0,0,0-.258.108l-.125.062-.03.016-.036.02-.055.036a2.153,2.153,0,0,0-.224.157,1.446,1.446,0,0,0-.215.19,1.678,1.678,0,0,0-.18.226c-.024.042-.05.083-.073.125l-.056.136a1.057,1.057,0,0,0-.055.284.845.845,0,0,0,.147.526,1,1,0,0,1,.029-.5,1.26,1.26,0,0,1,.1-.214l.067-.1c.027-.029.051-.059.076-.088a1.318,1.318,0,0,1,.174-.158c.033-.023.063-.047.094-.072l.1-.063a2.034,2.034,0,0,1,.217-.122l.057-.032.021-.011.027-.012.111-.049a2.363,2.363,0,0,1,.226-.089c.076-.028.154-.047.231-.07s.156-.041.236-.05.16-.025.24-.033.161-.01.242-.01.165,0,.247.006.163.019.244.029a1.791,1.791,0,0,1,.238.05l.079.022.033-.038c.132-.157.268-.313.389-.482" transform="translate(-475.297 -102.572)"/>
          <path id="Path_661739" data-name="Path 661739" d="M504.962,109.864s-1.281-1.256-2.051-1.283a25.521,25.521,0,0,0-2.714.227l.3,1.362a17.954,17.954,0,0,1,3.138-.581,6.258,6.258,0,0,1,1.324.275" transform="translate(-481.784 -87.783)" fill="#2a2725"/>
          <path id="Path_661740" data-name="Path 661740" d="M496.172,172.042h.041a1.1,1.1,0,0,0,1.079-.784,1.064,1.064,0,0,0-.353-1.17,2.262,2.262,0,0,0-1.269-.4.98.98,0,0,0-.822.315,1.274,1.274,0,0,0,.09,1.214,1.4,1.4,0,0,0,1.235.823m-.5-2.148a2.082,2.082,0,0,1,1.151.359.855.855,0,0,1,.276.943.905.905,0,0,1-.889.639l-.035,0a1.23,1.23,0,0,1-1.054-.714,1.116,1.116,0,0,1-.1-1,.806.806,0,0,1,.655-.227" transform="translate(-473.117 -137.19)" fill="#98633c"/>
          <path id="Path_661741" data-name="Path 661741" d="M257.665,45.807l.546-4.425a.554.554,0,0,1,1.1.135l-.569,4.423Z" transform="translate(-189.689 -33.063)" fill="#edb47c"/>
          <path id="Path_661742" data-name="Path 661742" d="M265.421,35.227l.8-6.477a.716.716,0,0,1,1.421.175l-.8,6.477Z" transform="translate(-199.505 -22.737)" fill="#edb47c"/>
          <path id="Path_661743" data-name="Path 661743" d="M275.926,30.231l.8-6.476a.715.715,0,1,1,1.42.175l-.8,6.475Z" transform="translate(-212.021 -18.698)" fill="#edb47c"/>
          <path id="Path_661744" data-name="Path 661744" d="M286.986,34.277l.713-5.766a.637.637,0,1,1,1.264.155l-.711,5.768Z" transform="translate(-224.956 -22.597)" fill="#edb47c"/>
          <path id="Path_661745" data-name="Path 661745" d="M261.967,59.022c.224-1.963-1.632-4.318-1.632-4.318l1.6-1.1.347-2.825,6.871,2.827c-.587,3.083-3.478,4.761-3.52,6.728Z" transform="translate(-200.036 -41.057)" fill="#edb47c"/>
          <path id="Path_661746" data-name="Path 661746" d="M290.5,60.536,287.476,56.8a.886.886,0,1,1,1.284-1.22l3.59,3.654Z" transform="translate(-228.385 -44.713)" fill="#edb47c"/>
          <path id="Path_661747" data-name="Path 661747" d="M296.441,291.244l3.068,1.835,1.478-1.533-2.734-2.227Z" transform="translate(-238.786 -233.909)" fill="#212f42"/>
          <path id="Path_661748" data-name="Path 661748" d="M498.5,321.682a17.993,17.993,0,0,0,.269,4.3c.478,1.4,2.74.839,3.356-.441.5-1.03.344-3.433-.909-4.222-.922-.58-2.717-.315-2.717.36" transform="translate(-478.881 -259.524)" fill="#18a89d"/>
          <path id="Path_661749" data-name="Path 661749" d="M317.638,171.391a17.432,17.432,0,0,0,3.391-2.866c.883-1.188-.862-2.528-2.266-2.31-1.13.176-3.022,1.662-2.962,3.143.045,1.089,1.282,2.417,1.837,2.033" transform="translate(-262.775 -134.363)" fill="#18a89d"/>
          <path id="Path_661750" data-name="Path 661750" d="M275.737,66.04c.07.086.393.337.48.267l.2-.165c.086-.07-.1-.436-.169-.521l-2.491-3.031c-.071-.085-1.714-2.668-1.8-2.6l-.2.164a26.071,26.071,0,0,0,1.49,2.854Z" transform="translate(-209.511 -48.5)" fill="#dd9d66"/>
          <path id="Path_661751" data-name="Path 661751" d="M243.7,17.668a1.024,1.024,0,0,0,1.439.161l5.745-4.722A1.023,1.023,0,0,0,251,11.664L241.735.386A1.024,1.024,0,0,0,240.3.226l-5.745,4.721a1.023,1.023,0,0,0-.122,1.442Z" transform="translate(-177.12 -0.001)" fill="#fffffe"/>
          <rect id="Rectangle_340510" data-name="Rectangle 340510" width="12.608" height="7.921" transform="matrix(-0.635, -0.773, 0.773, -0.635, 66.132, 15.885)" fill="#c9bed1"/>
          <path id="Path_661752" data-name="Path 661752" d="M251.96,41.821l6.12-5.029L243.955,32.08Z" transform="translate(-185.827 -25.936)" fill="#797085"/>
          <path id="Path_661753" data-name="Path 661753" d="M296.976,12.207l2.66-2.185-.184-.226-2.659,2.187Z" transform="translate(-237.503 -7.919)" fill="#c9bed1"/>
          <path id="Path_661754" data-name="Path 661754" d="M249.68,70.439a1.335,1.335,0,0,0,1.344-.208,1.333,1.333,0,0,0-.35-2.268,1.334,1.334,0,0,0-.994,2.476m.588-1.462a.241.241,0,0,1,.1.07.236.236,0,0,1,.054.178.242.242,0,0,1-.332.2.235.235,0,0,1-.1-.07.241.241,0,0,1,.034-.34.237.237,0,0,1,.243-.038" transform="translate(-180.195 -54.87)" fill="#c9bed1"/>
          <path id="Path_661755" data-name="Path 661755" d="M52.369,476.6l4.154,3.894,9.993-10.556a3.367,3.367,0,0,0-4.045-.817c-1.811.669-2.563,3.165-4.3,3.776a6.714,6.714,0,0,1-2.713.407Z" transform="translate(42.429 -379.025)" fill="#2f393d"/>
          <rect id="Rectangle_340511" data-name="Rectangle 340511" width="1.271" height="14.536" transform="translate(99.879 102.335) rotate(-136.849)" fill="#fff"/>
          <rect id="Rectangle_340512" data-name="Rectangle 340512" width="1.569" height="0.409" transform="translate(99.517 95.764) rotate(-109.283)" fill="#fff"/>
          <rect id="Rectangle_340513" data-name="Rectangle 340513" width="1.712" height="0.41" transform="translate(100.389 95.72) rotate(-117.079)" fill="#fff"/>
          <rect id="Rectangle_340514" data-name="Rectangle 340514" width="1.77" height="0.41" transform="matrix(-0.524, -0.851, 0.851, -0.524, 101.139, 95.553)" fill="#fff"/>
          <rect id="Rectangle_340515" data-name="Rectangle 340515" width="1.658" height="0.409" transform="matrix(-0.623, -0.782, 0.782, -0.623, 101.788, 95.119)" fill="#fff"/>
          <path id="Path_661756" data-name="Path 661756" d="M86.141,488.327l.281-.3-1.166-1.094-.28.3Z" transform="translate(16.279 -393.676)" fill="#fff"/>
          <path id="Path_661757" data-name="Path 661757" d="M117.694,474.1l-2.049-2.884-4.38,5.027,2.83,2.332Z" transform="translate(-20.029 -380.967)" fill="#7398a2"/>
          <path id="Path_661758" data-name="Path 661758" d="M6.668,213.841l5.695-.042-.036-14.536a3.365,3.365,0,0,0-3.494,2.2c-.851,1.733.324,4.061-.514,5.7a6.729,6.729,0,0,1-1.684,2.167Z" transform="translate(105.341 -161.079)" fill="#2f393d"/>
          <rect id="Rectangle_340516" data-name="Rectangle 340516" width="14.537" height="1.27" transform="translate(117.704 52.72) rotate(-90.421)" fill="#fff"/>
          <rect id="Rectangle_340517" data-name="Rectangle 340517" width="1.569" height="0.41" transform="matrix(-0.891, -0.455, 0.455, -0.891, 114.184, 48.198)" fill="#fff"/>
          <rect id="Rectangle_340518" data-name="Rectangle 340518" width="1.712" height="0.409" transform="matrix(-0.944, -0.33, 0.33, -0.944, 114.786, 47.564)" fill="#fff"/>
          <path id="Path_661759" data-name="Path 661759" d="M20.807,241.447l.1-.395L19.2,240.6l-.105.4Z" transform="translate(94.407 -194.52)" fill="#fff"/>
          <path id="Path_661760" data-name="Path 661760" d="M20.1,238.388l.056-.406-1.644-.223-.056.406Z" transform="translate(95.283 -192.223)" fill="#fff"/>
          <rect id="Rectangle_340519" data-name="Rectangle 340519" width="0.409" height="1.597" transform="matrix(-0.008, -1, 1, -0.008, 113.922, 45.403)" fill="#fff"/>
          <path id="Path_661761" data-name="Path 661761" d="M41.617,249.376l-3.527-.279,1.047,6.584,3.6-.674Z" transform="translate(68.939 -201.39)" fill="#7398a2"/>
          <path id="Path_664243" data-name="Path 664243" d="M10.908,8.157c-5.725-1.209-7.319,1.69-7.122,3.392C3.878,12.337.048,8.062.011,6.9c-.047-1.43,0-2.193,1.621-2.648,0-1.478,1.115-1.942,2.773-2.224C6.8,1.626,10.025.166,10.211.681s.47,1.614.72,1.487S12.983.137,13.7.027s.7.127.844.574c.08.251.214,1.2.778.639a2.106,2.106,0,0,1,2.65.516,7.176,7.176,0,0,1,1.461,4.1,13.463,13.463,0,0,1-1.493,5.1,11.5,11.5,0,0,0-3.33-2.115,26.868,26.868,0,0,0-3.7-.689" transform="matrix(0.809, -0.588, 0.588, 0.809, 1.014, 21.686)"/>
        </g>
      </g>
    </g>
  </g>
</svg>
