<svg xmlns="http://www.w3.org/2000/svg" xmlns:xlink="http://www.w3.org/1999/xlink" width="400" height="222" viewBox="0 0 400 222">
  <defs>
    <clipPath id="clip-path">
      <path id="Rectangle_353901" data-name="Rectangle 353901" d="M12,0H388a12,12,0,0,1,12,12V222a0,0,0,0,1,0,0H0a0,0,0,0,1,0,0V12A12,12,0,0,1,12,0Z" transform="translate(180 4735)" fill="#727997"/>
    </clipPath>
    <clipPath id="clip-path-2">
      <rect id="Rectangle_353879" data-name="Rectangle 353879" width="540.468" height="385.327" fill="none"/>
    </clipPath>
    <clipPath id="clip-path-3">
      <rect id="Rectangle_353896" data-name="Rectangle 353896" width="239.645" height="86.777" fill="none"/>
    </clipPath>
    <clipPath id="clip-path-5">
      <rect id="Rectangle_353880" data-name="Rectangle 353880" width="232.747" height="4" fill="none"/>
    </clipPath>
    <clipPath id="clip-path-6">
      <rect id="Rectangle_353881" data-name="Rectangle 353881" width="122.82" height="25.657" fill="none"/>
    </clipPath>
    <clipPath id="clip-path-7">
      <rect id="Rectangle_353882" data-name="Rectangle 353882" width="115.917" height="16.773" fill="none"/>
    </clipPath>
    <clipPath id="clip-path-8">
      <rect id="Rectangle_353883" data-name="Rectangle 353883" width="212.093" height="9.518" fill="none"/>
    </clipPath>
    <clipPath id="clip-path-9">
      <rect id="Rectangle_353884" data-name="Rectangle 353884" width="25.554" height="15.881" fill="none"/>
    </clipPath>
    <clipPath id="clip-path-10">
      <rect id="Rectangle_353885" data-name="Rectangle 353885" width="107.952" height="21.162" fill="none"/>
    </clipPath>
    <clipPath id="clip-path-11">
      <rect id="Rectangle_353886" data-name="Rectangle 353886" width="13.922" height="19.736" fill="none"/>
    </clipPath>
    <clipPath id="clip-path-12">
      <rect id="Rectangle_353887" data-name="Rectangle 353887" width="11.064" height="18.118" fill="none"/>
    </clipPath>
    <clipPath id="clip-path-13">
      <rect id="Rectangle_353888" data-name="Rectangle 353888" width="29.097" height="21.295" fill="none"/>
    </clipPath>
    <clipPath id="clip-path-14">
      <rect id="Rectangle_353889" data-name="Rectangle 353889" width="27.842" height="27.839" fill="none"/>
    </clipPath>
    <clipPath id="clip-path-15">
      <rect id="Rectangle_353890" data-name="Rectangle 353890" width="25.144" height="25.136" fill="none"/>
    </clipPath>
    <clipPath id="clip-path-17">
      <rect id="Rectangle_353892" data-name="Rectangle 353892" width="25.143" height="25.136" fill="none"/>
    </clipPath>
    <clipPath id="clip-path-18">
      <rect id="Rectangle_353893" data-name="Rectangle 353893" width="86.184" height="3.342" fill="none"/>
    </clipPath>
    <clipPath id="clip-path-19">
      <rect id="Rectangle_353894" data-name="Rectangle 353894" width="42.425" height="17.812" fill="none"/>
    </clipPath>
    <clipPath id="clip-path-20">
      <rect id="Rectangle_340532" data-name="Rectangle 340532" width="154.779" height="37.851" fill="none"/>
    </clipPath>
    <clipPath id="clip-path-22">
      <rect id="Rectangle_340528" data-name="Rectangle 340528" width="0.025" height="0.023" fill="none"/>
    </clipPath>
    <clipPath id="clip-path-23">
      <rect id="Rectangle_340530" data-name="Rectangle 340530" width="3.548" height="1.416" fill="none"/>
    </clipPath>
  </defs>
  <g id="_11" data-name="11" transform="translate(-180 -4735)" clip-path="url(#clip-path)">
    <g id="Group_989253" data-name="Group 989253" transform="translate(109.766 4571.673)">
      <path id="Path_679401" data-name="Path 679401" d="M0,0V260.12l77.66-.012H88.045l10.589-.008h7.951l23.523-.02h31.447l15-.008h18.708l10.993-.008h14.974l9.066-.008,28.01-.012h17.2l37.781-.015H351.2l15.083-.008,17.8-.008,11.857,0h1.84l1.582,0,2.776,0h36.266l7.634,0h16.935l6.917,0,28.949-.012,32.97-.012h8.656V0Z" transform="translate(0 0)" fill="#b6dff0"/>
      <g id="Group_989252" data-name="Group 989252">
        <g id="Group_989251" data-name="Group 989251" clip-path="url(#clip-path-2)">
          <path id="Path_679402" data-name="Path 679402" d="M478.55,158.549h0s-303.358-4.112-359.195-5.877C98.115,152,51.293,153.625,0,156.026V143.107c59.7-2.01,111.108-3.222,127.96-2.188,47.986,2.936,350.59,17.631,350.59,17.631" transform="translate(0 -75.256)" fill="#f8ffff"/>
          <path id="Path_679403" data-name="Path 679403" d="M1118.187,175.185v1.37c-11.1.157-20.3.283-26.993.374l-12.3.17,12.3-.6,26.993-1.316" transform="translate(-577.721 -93.807)" fill="#f8ffff"/>
          <path id="Path_679404" data-name="Path 679404" d="M540.467,211.88v13.628q-13.613.085-26.993.161-25.153.144-49.341.235-3.755.017-7.485.028c-19.136.066-37.725.1-55.645.109h-1.636c-16.678,0-32.768-.026-48.169-.087q-13.323-.055-25.935-.144-13.515-.095-26.146-.235l-30.53-.346C135.649,223.7,50.044,222.349,0,221.451v-4.674c74.21-.642,197.342-1.808,268.587-3.03,16.941-.289,30.949-.583,40.668-.875,4.116-.124,9.5-.233,16.008-.33,7.3-.109,16.005-.2,25.935-.281,13.861-.113,30.094-.2,48.169-.256L401,212c17.087-.057,35.782-.093,55.645-.113l7.485-.007c15.831-.013,32.35-.017,49.341-.011q13.319,0,26.993.013" transform="translate(-0.001 -113.447)" fill="#f8ffff"/>
          <path id="Path_679405" data-name="Path 679405" d="M540.467,491.415V648.428H0V498.01h.02c.5-.025,1.012-.053,1.534-.073,1.055-.045,2.125-.1,3.193-.146,10.771-.5,22.037-1.018,32.992-1.521.607-.031,1.22-.056,1.821-.085,2.2-.106,4.394-.2,6.561-.3h.007c.813-.035,1.62-.076,2.432-.11H48.6l4.875-.226q2.264-.115,4.485-.212c1.48-.069,2.937-.135,4.381-.2.946-.046,1.888-.091,2.817-.131h.018c.048,0,.1-.005.146-.005,22.359-1.035,39.322-1.808,41.162-1.867a.68.68,0,0,1,.1-.006h.007c3.187-.071,11.992-.065,23.523-.014h.292c.692,0,1.39,0,2.1.01h.35c3.628.018,7.49.038,11.5.062h0c7.657.044,15.862.1,24.054.158,3.265.021,6.53.046,9.754.071.509,0,1.025,0,1.54.009,1.22.01,2.447.016,3.672.025h.183c.366.006.722.006,1.088.01.35.006.7.006,1.061.01,11.94.09,22.931.177,31.036.237,7.861.06,13,.1,13.645.085q13.92-.234,28.185-.452,4.983-.082,10.017-.153l5.867-.082,1.055-.015q18.791-.286,38.054-.513,5.831-.075,11.7-.141,6.392-.073,12.825-.139c1.294-.016,2.6-.031,3.909-.046q4.591-.05,9.2-.1,7.518-.08,15.085-.15,1.9-.017,3.8-.034l3.106-.029h.109l3.537-.033,3.109-.027,4.144-.033q5.968-.051,11.962-.094h.068l1.666-.013,1.584-.013,1.636-.014c.146,0,.291,0,.437,0l.631-.006,2.475-.01c1.214-.008,2.432-.018,3.644-.03h.191c.176,0,.352,0,.529,0q1.194-.007,2.386-.015,2.63-.013,5.262-.031c1.845-.011,3.676-.025,5.516-.03l2.821-.016,3.106-.018,3.643-.019q1.553-.006,3.1-.016l3.659-.018q6.842-.033,13.693-.059l1.405-.006c.444,0,.885,0,1.329,0s.9,0,1.346,0c.156,0,.311,0,.465,0q1.322,0,2.641-.008l3.644-.013h.048l1.152,0c.635,0,1.27,0,1.908,0l3.855-.01q14.471-.036,28.948-.037,7.319,0,14.631.009,7.257.009,14.5.026h0c2.278,0,4.546.01,6.824.019q2.835.006,5.662.018" transform="translate(-0.001 -263.101)" fill="#799642"/>
          <path id="Path_679406" data-name="Path 679406" d="M359.859,433.175v29.086H202.9l-3.167-.055-.579-.008-5.907-.105h-.137l-3.312-.059-.873-.016-4.529-.082h0l-3.28-.055-8.143-.144-4.455-.079-.411-.008h-.035l-8.287-.149c-.466.274-.943.529-1.425.759h-54.3c-.606-.274-1.19-.568-1.765-.873-.231-.13-.466-.258-.693-.388a3.863,3.863,0,0,1-.149.392l-2.129.039-.153,0-2.392.039h-.094l-.184,0h0l-1.108.023-12.872.227-.4.008-.141,0-.27,0-.325.007-1.436.024-3.528.063-8.757.152h0l-.415.008h0l-.356.008h-.091l-.375,0-.674.015h0l-.3,0-.474.008-10.8.191-.289,0-1.641.027H0v-43.34A31.94,31.94,0,0,1,6,416.8a9.151,9.151,0,0,1,5.911.462c5.77,2.505,6.784,7.246,7.908,11.5a22.709,22.709,0,0,0,1.366,4.044,9.9,9.9,0,0,0,2.545,3.245,17.95,17.95,0,0,0,2.4,1.7c.853.513,1.739.99,2.627,1.476a35.767,35.767,0,0,1,4.2-5.982c4.882-5.566,11.944-9.712,22.173-9.787q3.171-.024,6.029.071a108.25,108.25,0,0,1,11.443.92c17.346,2.376,22.772,8.381,25.723,11.028,4.463,4,7.939,5.794,11.235,6.338,5.3.873,10.158-1.5,17.945-3.167h.008c4.885-1.041,9.74-2.377,14.042-3.68h0c7.375-2.243,13.11-4.412,14.5-4.9a1.534,1.534,0,0,1,.325-.1,22.488,22.488,0,0,1,7.524,7.462,23.046,23.046,0,0,1,1.859,3.731A27.732,27.732,0,0,0,170,435.814c2.666-3.977,5.669-8.252,13.792-10.585a56.208,56.208,0,0,1,15.361-1.77c.258,0,.524,0,.791,0a29.849,29.849,0,0,1,14.59,3.609,27.437,27.437,0,0,1,4.58,3.2,32.479,32.479,0,0,1,6.381,7.579c.286.454.556.912.818,1.374.431-.235.865-.47,1.292-.7q.8-.44,1.566-.908c.208-.129.415-.258.622-.4a11.007,11.007,0,0,0,4.095-4.408c.145-.286.294-.576.45-.861,2.983-5.343,9.4-9.944,21.954-10.155a15.348,15.348,0,0,1,5.653,1.116,27.355,27.355,0,0,1,3.969,1.911,49.628,49.628,0,0,1,7.786,5.708v0c2.313,2.032,3.789,3.625,3.856,3.664a42.875,42.875,0,0,0,5.919-2.94,23.724,23.724,0,0,0,2.932-2.122,14.1,14.1,0,0,0,3.609-4.6c1.836-3.8,2.325-8.671,4.216-13.079,2.149-5.03,6.127-9.461,15.992-11.024a53.478,53.478,0,0,1,8.483-.6c17.8.012,24.5,7.356,27.892,14.386.063.125.121.247.176.372,2.216,4.748,2.983,9.29,4.7,11.255a3.007,3.007,0,0,0,.755.654,29.9,29.9,0,0,1,4.964,3.758,31.014,31.014,0,0,1,2.658,2.924" transform="translate(0 -214.096)" fill="#799642"/>
          <path id="Path_679407" data-name="Path 679407" d="M384.994,486.334a7.2,7.2,0,0,1-1.1,1.841c-.008.006-.011.015-.019.022l-.046.055H330.543a15.063,15.063,0,0,1-1.623-1.919,10.491,10.491,0,0,1-1.958-8.35,11.578,11.578,0,0,1,.474-1.684c2.5-6.749,10.224-6.425,12.9-12.32,1.045-2.3,1.357-5.222,2.367-7.915,1.245-3.326,3.554-6.3,9.638-7.323a30.2,30.2,0,0,1,5.042-.38c5.263,0,8.89,1.151,11.458,2.856,6.18,4.1,6.2,11.388,8.015,13.591a1.9,1.9,0,0,0,.451.413,17.446,17.446,0,0,1,1.662,1.209,18.314,18.314,0,0,1,3.82,4.322c3.354,5.247,3.867,11.672,2.2,15.58" transform="translate(-174.969 -240.087)" fill="#669151"/>
          <path id="Path_679408" data-name="Path 679408" d="M328.224,476.735c5.871-4.529,15.669-8.111,21.1-11.489,4.609-2.868,4.4-11.13,3.812-16.069-11.006,1.852-9.669,10.1-12.006,15.24-2.678,5.893-10.4,5.57-12.9,12.318" transform="translate(-175.755 -240.523)" fill="#3e6d37"/>
          <path id="Path_679409" data-name="Path 679409" d="M952.6,423.052v20.83a78.033,78.033,0,0,1-6.119,15.459H819.031l-1.429-.023-.278-.008-14.512-.251h-.141l-8.859-.156-11.6-.2-4.526-.078-.415-.008-7.52-.129-.082-28.061a22.728,22.728,0,0,1,5.238,7.7,28.206,28.206,0,0,0,4.3-5.348c4.028-5.923,8.816-12.507,30.406-12.351,13.1.094,21.085,6.651,25.959,14.386.286.45.56.912.826,1.378.442-.235.877-.47,1.316-.708,2.587-1.409,5.026-2.94,6.385-5.708,2.807-5.7,9.317-10.8,22.749-11.024,9.853-.161,21.41,12.288,21.605,12.406a44.123,44.123,0,0,0,6.009-2.94A16.529,16.529,0,0,0,901.1,421.5c3.284-6.69,2.322-16.7,12.347-21.672l.258.023c1.683.2,3.543.47,5.516.834,2.028.372,4.177.842,6.37,1.437C936.428,405.052,948.4,411,952.6,423.052" transform="translate(-412.136 -214.096)" fill="#799642"/>
          <path id="Path_679410" data-name="Path 679410" d="M704.244,489.926a7.9,7.9,0,0,1-.875,1.919H652.117a13.023,13.023,0,0,1-1.4-1.919,9.636,9.636,0,0,1-1.3-7.024,10.94,10.94,0,0,1,.447-1.583c2.348-6.342,9.607-6.039,12.125-11.576.073-.163.146-.333.212-.5,1.908-4.846,1.076-12.135,11.068-13.816A28.483,28.483,0,0,1,678,455.07c16.843.009,15.891,12.526,18.3,15.453a1.8,1.8,0,0,0,.424.389c7.194,4.621,9.214,13.7,7.522,19.013" transform="translate(-347.639 -243.678)" fill="#54843d"/>
          <path id="Path_679411" data-name="Path 679411" d="M650.6,481.727c5.517-4.256,14.724-7.621,19.823-10.8,4.33-2.695,4.139-10.458,3.583-15.1-10.343,1.74-9.086,9.491-11.282,14.32-2.516,5.538-9.776,5.233-12.124,11.576" transform="translate(-348.378 -244.086)" fill="#3e6d37"/>
          <path id="Path_679412" data-name="Path 679412" d="M607.41,472.033a12.922,12.922,0,0,1-.733,1.919H533.355a17.106,17.106,0,0,1-1.2-1.919,14.625,14.625,0,0,1-.717-1.512v0a13.783,13.783,0,0,1-1.056-6.209v0a13.222,13.222,0,0,1,.255-1.879,15.853,15.853,0,0,1,.656-2.319c3.439-9.291,14.071-8.844,17.761-16.956.05-.111.1-.222.147-.333.1-.225.189-.457.274-.688s.17-.469.25-.709.159-.481.232-.725c.039-.123.073-.247.108-.37q.219-.745.409-1.518c.162-.642.32-1.3.485-1.952.1-.395.2-.793.3-1.191.092-.355.189-.713.289-1.07.914-3.215,2.225-6.376,5.139-8.77a13.687,13.687,0,0,1,1.577-1.117c.285-.176.582-.342.895-.506a19.147,19.147,0,0,1,3.77-1.45c.412-.111.837-.216,1.276-.311s.9-.185,1.373-.265a41.368,41.368,0,0,1,6.943-.522,25.042,25.042,0,0,1,9.465,1.484,12.028,12.028,0,0,1,6.638,6.74c2.61,5.7.239,11.261,3.6,16.792.679,1.114,3.346,2.375,6.326,4.676a27.683,27.683,0,0,1,3.678,3.378,23.15,23.15,0,0,1,4.734,8.051,14.907,14.907,0,0,1,.451,9.257" transform="translate(-283.99 -225.785)" fill="#9bc146"/>
          <path id="Path_679413" data-name="Path 679413" d="M532.372,460.708c8.081-6.234,21.569-11.163,29.039-15.814,6.343-3.947,6.063-15.32,5.248-22.118-15.151,2.548-13.31,13.9-16.526,20.978-3.687,8.112-14.322,7.666-17.761,16.955" transform="translate(-285.071 -226.385)" fill="#86a749"/>
          <path id="Path_679414" data-name="Path 679414" d="M571.2,504.984a.333.333,0,0,1-.208-.07.254.254,0,0,1-.026-.39,16.474,16.474,0,0,0,2.069-2.571,49.713,49.713,0,0,0,3.8-7.208c.787-1.769,1.541-3.632,2.306-5.692a30.612,30.612,0,0,0,.931-3.246,26.144,26.144,0,0,1,1.126-3.745.326.326,0,0,1,.4-.164.268.268,0,0,1,.185.354,25.778,25.778,0,0,0-1.1,3.672,30.882,30.882,0,0,1-.948,3.3c-.769,2.07-1.527,3.942-2.319,5.722a50.134,50.134,0,0,1-3.846,7.284,17.088,17.088,0,0,1-2.143,2.661.334.334,0,0,1-.234.092" transform="translate(-305.696 -258.036)" fill="#dedb7a"/>
          <path id="Path_679415" data-name="Path 679415" d="M552.438,503.961a.321.321,0,0,1-.273-.142c-.243-.383-.49-.758-.738-1.132-.449-.68-.914-1.383-1.336-2.125-1.619-2.838-3.326-5.891-4.845-9.246l-.278-.612c-1.563-3.429-3.926-8.612-3.135-12.436a.315.315,0,0,1,.364-.223.281.281,0,0,1,.251.322c-.758,3.667,1.564,8.761,3.1,12.132l.279.613c1.51,3.335,3.21,6.375,4.823,9.2.414.727.874,1.422,1.318,2.1.249.377.5.755.743,1.141a.26.26,0,0,1-.121.375.342.342,0,0,1-.152.035" transform="translate(-290.053 -255.979)" fill="#dedb7a"/>
          <path id="Path_679416" data-name="Path 679416" d="M582.234,491.124h-.025c-3.562-.243-4.1-6.987-4.1-10.986a.315.315,0,0,1,.626,0c0,2.392.259,10.213,3.523,10.435a.29.29,0,0,1,.288.3.3.3,0,0,1-.312.255" transform="translate(-309.562 -256.954)" fill="#dedb7a"/>
          <path id="Path_679417" data-name="Path 679417" d="M550.209,497.393a.32.32,0,0,1-.279-.15.261.261,0,0,1,.136-.372c2.371-1.074,5.5-4.388,5.214-7.814a.289.289,0,0,1,.288-.3.3.3,0,0,1,.335.254c.324,3.832-3.121,7.246-5.552,8.347a.343.343,0,0,1-.143.031" transform="translate(-294.455 -261.719)" fill="#dedb7a"/>
          <path id="Path_679418" data-name="Path 679418" d="M584.842,516.644a12.537,12.537,0,0,1-3.177-.567,11.664,11.664,0,0,0-2.807-.523.278.278,0,1,1,0-.552h0a12.339,12.339,0,0,1,2.983.547c1.756.47,3.414.915,4.95.058a7.627,7.627,0,0,0,3.729-4.4.318.318,0,0,1,.386-.19.273.273,0,0,1,.216.34,8.174,8.174,0,0,1-4,4.715,4.593,4.593,0,0,1-2.289.57" transform="translate(-309.797 -273.632)" fill="#dedb7a"/>
          <path id="Path_679419" data-name="Path 679419" d="M541.083,508.218a7.639,7.639,0,0,1-3.615-.933c-3.166-1.679-5.866-5.626-7.046-10.3a.278.278,0,0,1,.238-.329.315.315,0,0,1,.373.209c1.145,4.532,3.734,8.344,6.758,9.948a6.826,6.826,0,0,0,4.946.651.32.32,0,0,1,.385.193.273.273,0,0,1-.219.339,7.682,7.682,0,0,1-1.819.223" transform="translate(-284.024 -265.942)" fill="#dedb7a"/>
          <path id="Path_679420" data-name="Path 679420" d="M992.285,470.053a14.277,14.277,0,0,1-1.061,1.919H920.243a19.717,19.717,0,0,1-1.511-1.919,14.392,14.392,0,0,1-2.579-11.324,15.961,15.961,0,0,1,.655-2.319c3.439-9.291,14.072-8.844,17.761-16.956.051-.111.1-.222.146-.336.1-.225.189-.453.274-.685s.169-.469.25-.709.157-.481.231-.728c.039-.124.073-.247.107-.37.147-.5.282-1,.409-1.518.166-.642.324-1.292.486-1.952.1-.395.2-.79.3-1.188.934-3.572,2.19-7.181,5.428-9.84.12-.1.243-.2.37-.293.251-.195.513-.38.786-.558a19.875,19.875,0,0,1,7.734-2.8,41.362,41.362,0,0,1,6.943-.521c10.478.006,13.921,3.461,16.1,8.22,2.61,5.707.239,11.265,3.6,16.793,1.377,2.264,10.953,5.133,14.739,16.108a14.365,14.365,0,0,1-.189,10.975" transform="translate(-490.423 -223.805)" fill="#86a749"/>
          <path id="Path_679421" data-name="Path 679421" d="M917.888,457.008c8.081-6.234,21.569-11.163,29.039-15.814,6.343-3.948,6.063-15.32,5.248-22.118-15.151,2.548-13.309,13.9-16.526,20.978-3.687,8.112-14.322,7.665-17.761,16.955" transform="translate(-491.505 -224.404)" fill="#718c3d"/>
          <path id="Path_679422" data-name="Path 679422" d="M383.319,504.105s-.868-25.365-20.14-25.517-16.249,9.366-22.576,12.758c-8.62,4.621-5.666,11.854-5.666,11.854Z" transform="translate(-179.089 -256.271)" fill="#86a749"/>
          <path id="Path_679423" data-name="Path 679423" d="M375.064,511.91a.3.3,0,0,1-.176-.055,12.291,12.291,0,0,1-1.845-1.679,30.015,30.015,0,0,1-3.305-4.585c-.679-1.119-1.329-2.3-1.99-3.6a15.8,15.8,0,0,1-.818-2.085,13.109,13.109,0,0,0-.936-2.288.232.232,0,0,1,.123-.328.3.3,0,0,1,.373.109,13.427,13.427,0,0,1,.972,2.367,15.268,15.268,0,0,0,.793,2.025c.655,1.292,1.3,2.459,1.972,3.567a29.52,29.52,0,0,0,3.25,4.512,11.7,11.7,0,0,0,1.763,1.6.225.225,0,0,1,.038.344.294.294,0,0,1-.215.09" transform="translate(-195.965 -266.273)" fill="#9bc146"/>
          <path id="Path_679424" data-name="Path 679424" d="M390.987,511.267a.3.3,0,0,1-.168-.05.227.227,0,0,1-.052-.343c.209-.242.424-.48.638-.717.38-.421.772-.857,1.126-1.311a65.391,65.391,0,0,0,4.126-5.769l.239-.385c1.307-2.1,3.281-5.276,2.645-7.534a.244.244,0,0,1,.2-.3.281.281,0,0,1,.336.178c.689,2.445-1.349,5.72-2.7,7.888l-.238.384a66.147,66.147,0,0,1-4.155,5.812c-.365.468-.764.91-1.149,1.339-.212.234-.423.469-.63.71a.293.293,0,0,1-.221.1" transform="translate(-209.215 -264.981)" fill="#9bc146"/>
          <path id="Path_679425" data-name="Path 679425" d="M372.017,503.21a.265.265,0,0,1-.277-.231.258.258,0,0,1,.261-.258c2.783-.139,3-4.995,3-6.48a.262.262,0,0,1,.277-.245h0a.263.263,0,0,1,.277.245c0,2.042-.348,6.809-3.527,6.968h-.016" transform="translate(-199.057 -265.593)" fill="#9bc146"/>
          <path id="Path_679426" data-name="Path 679426" d="M397.881,507.145a.283.283,0,0,1-.1-.016c-2.1-.7-5.072-2.871-4.789-5.326a.269.269,0,0,1,.3-.219.255.255,0,0,1,.248.268c-.242,2.1,2.419,4.15,4.433,4.819a.237.237,0,0,1,.162.315.277.277,0,0,1-.259.158" transform="translate(-210.428 -268.585)" fill="#9bc146"/>
          <path id="Path_679427" data-name="Path 679427" d="M361.733,519.229a5.046,5.046,0,0,1-1.937-.353,5.986,5.986,0,0,1-3.451-2.994.237.237,0,0,1,.159-.316.288.288,0,0,1,.358.141,5.486,5.486,0,0,0,3.168,2.725,7.543,7.543,0,0,0,4.285-.034,14.044,14.044,0,0,1,2.538-.341h0a.246.246,0,1,1,0,.489,13.414,13.414,0,0,0-2.422.33,14.242,14.242,0,0,1-2.7.353" transform="translate(-190.803 -276.064)" fill="#9bc146"/>
          <path id="Path_679428" data-name="Path 679428" d="M399.108,513.942a8.848,8.848,0,0,1-1.558-.139.248.248,0,0,1-.217-.289.28.28,0,0,1,.327-.191c4.75.847,8.716-2.775,10.038-6.614a.286.286,0,0,1,.346-.163.241.241,0,0,1,.184.3c-1.28,3.718-4.73,7.091-9.121,7.091" transform="translate(-212.759 -271.237)" fill="#9bc146"/>
          <path id="Path_679429" data-name="Path 679429" d="M764.619,499.85s-.993-29.035-23.053-29.208-18.6,10.721-25.842,14.6c-9.866,5.289-6.486,13.568-6.486,13.568Z" transform="translate(-379.479 -252.015)" fill="#86a749"/>
          <path id="Path_679430" data-name="Path 679430" d="M755.17,508.785a.339.339,0,0,1-.2-.064,14.02,14.02,0,0,1-2.112-1.921,34.352,34.352,0,0,1-3.783-5.249c-.778-1.28-1.522-2.628-2.277-4.118a18.015,18.015,0,0,1-.936-2.387,14.991,14.991,0,0,0-1.072-2.619.265.265,0,0,1,.142-.376.338.338,0,0,1,.426.124,15.4,15.4,0,0,1,1.112,2.71,17.427,17.427,0,0,0,.907,2.317c.749,1.479,1.488,2.814,2.258,4.082a33.824,33.824,0,0,0,3.72,5.165,13.437,13.437,0,0,0,2.018,1.838.257.257,0,0,1,.044.393.334.334,0,0,1-.245.1" transform="translate(-398.797 -263.465)" fill="#9bc146"/>
          <path id="Path_679431" data-name="Path 679431" d="M773.4,508.049a.348.348,0,0,1-.192-.058.26.26,0,0,1-.06-.393c.24-.277.485-.549.73-.821.435-.483.885-.982,1.289-1.5a74.964,74.964,0,0,0,4.723-6.6l.274-.441c1.5-2.406,3.756-6.04,3.027-8.624a.28.28,0,0,1,.231-.34.323.323,0,0,1,.385.2c.789,2.8-1.544,6.548-3.087,9.029l-.273.44a75.52,75.52,0,0,1-4.757,6.653c-.417.535-.874,1.042-1.315,1.532-.242.268-.484.537-.721.813a.337.337,0,0,1-.253.11" transform="translate(-413.964 -261.986)" fill="#9bc146"/>
          <path id="Path_679432" data-name="Path 679432" d="M751.683,498.825a.3.3,0,0,1-.317-.264.3.3,0,0,1,.3-.3c3.186-.159,3.437-5.718,3.438-7.417a.32.32,0,0,1,.634,0c0,2.337-.4,7.794-4.036,7.975h-.018" transform="translate(-402.337 -262.687)" fill="#9bc146"/>
          <path id="Path_679433" data-name="Path 679433" d="M781.288,503.328a.343.343,0,0,1-.111-.018c-2.4-.8-5.806-3.285-5.482-6.1a.308.308,0,0,1,.347-.25.293.293,0,0,1,.284.308c-.277,2.408,2.769,4.75,5.074,5.516a.271.271,0,0,1,.185.361.319.319,0,0,1-.3.181" transform="translate(-415.353 -266.11)" fill="#9bc146"/>
          <path id="Path_679434" data-name="Path 679434" d="M739.911,517.163a5.782,5.782,0,0,1-2.217-.4,6.843,6.843,0,0,1-3.951-3.428.27.27,0,0,1,.182-.361.33.33,0,0,1,.41.16,6.28,6.28,0,0,0,3.626,3.121c1.527.623,3.243.286,4.9-.04a16.1,16.1,0,0,1,2.906-.391h0a.282.282,0,1,1,0,.56,15.29,15.29,0,0,0-2.773.378,16.3,16.3,0,0,1-3.092.4" transform="translate(-392.889 -274.672)" fill="#9bc146"/>
          <path id="Path_679435" data-name="Path 679435" d="M782.693,511.109a10.156,10.156,0,0,1-1.783-.159.285.285,0,0,1-.249-.331.321.321,0,0,1,.374-.219c5.437.971,9.977-3.176,11.491-7.57a.328.328,0,0,1,.4-.187.277.277,0,0,1,.211.35c-1.466,4.256-5.414,8.117-10.441,8.117" transform="translate(-418.021 -269.146)" fill="#9bc146"/>
          <path id="Path_679436" data-name="Path 679436" d="M830.888,485.79a.08.08,0,0,1-.015.021,16.009,16.009,0,0,1-1.886,1.9H781.453c-.347-.253-.679-.515-1-.786a.054.054,0,0,1-.015-.009c-.224-.188-.439-.385-.656-.586a1.148,1.148,0,0,0-.084-.086c-.158-.148-.308-.3-.459-.45-2.695-2.761-4.118-6.194-3.369-9.827a11.5,11.5,0,0,1,.462-1.629c2.414-6.518,9.877-6.206,12.464-11.9,2.259-4.966.968-12.934,11.6-14.723a29.294,29.294,0,0,1,4.869-.367c17.314.009,16.335,12.881,18.814,15.889a1.763,1.763,0,0,0,.432.4c8.775,5.636,10.066,17.724,6.377,22.154" transform="translate(-415.352 -239.543)" fill="#54843d"/>
          <path id="Path_679437" data-name="Path 679437" d="M777.093,474.757c5.671-4.375,15.138-7.835,20.38-11.1,4.452-2.771,4.256-10.752,3.684-15.524-10.633,1.789-9.341,9.759-11.6,14.723-2.587,5.693-10.05,5.38-12.464,11.9" transform="translate(-416.113 -239.965)" fill="#3e6d37"/>
          <path id="Path_679438" data-name="Path 679438" d="M466.8,490.072v0a14.684,14.684,0,0,1-.085,1.511,12.133,12.133,0,0,1-.347,1.919H410.9c-.07-.127-.135-.253-.2-.383a10.357,10.357,0,0,1-.613-1.536,9.477,9.477,0,0,1-.247-4.8,11.526,11.526,0,0,1,.463-1.625c2.413-6.521,9.877-6.209,12.464-11.9.073-.164.147-.333.212-.506.062-.145.116-.293.166-.441.042-.111.077-.222.112-.333.035-.1.065-.194.1-.293.05-.154.1-.308.139-.466.092-.315.177-.635.258-.959.193-.737.37-1.5.567-2.255.05-.188.1-.373.15-.558.108-.388.224-.78.351-1.166.112-.33.228-.66.359-.984.05-.123.1-.247.154-.367.019-.049.039-.1.062-.145.066-.151.139-.3.212-.447s.135-.275.212-.407a9.78,9.78,0,0,1,.817-1.277c.054-.074.112-.148.174-.219.092-.12.193-.238.3-.352.054-.062.108-.124.166-.182a8,8,0,0,1,.613-.592c.077-.071.162-.142.247-.209s.17-.139.259-.207.177-.133.269-.2a11,11,0,0,1,2.553-1.333c.092-.037.185-.068.277-.1q.226-.084.463-.157l.274-.083c.093-.028.189-.056.285-.081s.212-.058.324-.086c.081-.021.165-.043.25-.062q.2-.051.416-.092.422-.093.868-.167a29.314,29.314,0,0,1,4.869-.364c1.056,0,2.047.049,2.972.142,9.361.922,12.252,6.219,13.8,10.54.806,2.252,1.245,4.238,2.044,5.207a1.877,1.877,0,0,0,.432.4,18.123,18.123,0,0,1,7.259,9.4v0a18.841,18.841,0,0,1,1.056,6.209" transform="translate(-219.356 -245.339)" fill="#669151"/>
          <path id="Path_679439" data-name="Path 679439" d="M411.072,485.577c5.671-4.375,15.137-7.835,20.38-11.1,4.452-2.771,4.256-10.752,3.683-15.523-10.633,1.788-9.341,9.758-11.6,14.723-2.587,5.693-10.051,5.381-12.465,11.9" transform="translate(-220.118 -245.758)" fill="#3e6d37"/>
          <path id="Path_679440" data-name="Path 679440" d="M551.6,503.367l-11.728.219-36.39.681s.863-25.226,20.029-25.377,16.159,9.317,22.453,12.689c8.571,4.6,5.635,11.789,5.635,11.789" transform="translate(-269.6 -256.432)" fill="#9bc146"/>
          <path id="Path_679441" data-name="Path 679441" d="M574.685,503.367l-11.728.219a14.8,14.8,0,0,0-.507-10.266C558.7,485.53,546.6,478.89,546.6,478.89c19.167-.151,16.159,9.317,22.453,12.689,8.571,4.6,5.635,11.789,5.635,11.789" transform="translate(-292.688 -256.432)" fill="#86a749"/>
          <path id="Path_679442" data-name="Path 679442" d="M541.029,511.784a.292.292,0,0,1-.212-.088c-5.383-5.724-9.97-11-11.558-17.637a.245.245,0,0,1,.213-.288.277.277,0,0,1,.327.188c1.563,6.525,6.107,11.753,11.443,17.427a.224.224,0,0,1-.036.342.3.3,0,0,1-.176.056" transform="translate(-283.401 -264.399)" fill="#dedb7a"/>
          <path id="Path_679443" data-name="Path 679443" d="M552.9,515.284a.265.265,0,0,1-.274-.222c-.835-8.33,9.15-13.448,9.251-13.5a.3.3,0,0,1,.376.091.229.229,0,0,1-.1.332c-.1.049-9.778,5.016-8.974,13.033a.255.255,0,0,1-.251.264H552.9" transform="translate(-295.891 -268.557)" fill="#dedb7a"/>
          <path id="Path_679444" data-name="Path 679444" d="M539.245,504.879a.3.3,0,0,1-.176-.055.224.224,0,0,1-.037-.343c.378-.4.78-.8,1.169-1.18,1.714-1.681,3.333-3.269,3.272-5.811a.26.26,0,0,1,.269-.249.266.266,0,0,1,.282.239c.065,2.734-1.7,4.469-3.412,6.147-.385.377-.783.767-1.154,1.164a.289.289,0,0,1-.213.089" transform="translate(-288.604 -266.26)" fill="#dedb7a"/>
          <path id="Path_679445" data-name="Path 679445" d="M527.626,520.668a18.437,18.437,0,0,1-6.651-1.11.233.233,0,0,1-.141-.321.292.292,0,0,1,.364-.124c3.579,1.4,7.816,1.171,10.74.733a.274.274,0,0,1,.318.2.248.248,0,0,1-.226.281,29.985,29.985,0,0,1-4.405.343" transform="translate(-278.881 -277.96)" fill="#dedb7a"/>
          <path id="Path_679446" data-name="Path 679446" d="M555.974,514.4a.272.272,0,0,1-.267-.183.243.243,0,0,1,.2-.3,20.178,20.178,0,0,1,3.082-.3c2.781-.141,5.932-.3,6.927-2.326a.291.291,0,0,1,.362-.127.234.234,0,0,1,.143.32c-1.129,2.3-4.461,2.469-7.4,2.619a19.687,19.687,0,0,0-2.979.289.325.325,0,0,1-.068.007" transform="translate(-297.562 -273.706)" fill="#dedb7a"/>
          <path id="Path_679447" data-name="Path 679447" d="M560.751,503.069a.277.277,0,0,1-.262-.166c-.145-.38-.32-.76-.505-1.164a6.947,6.947,0,0,1-.944-3.787.27.27,0,0,1,.306-.213.252.252,0,0,1,.241.271,6.631,6.631,0,0,0,.908,3.546c.18.393.367.8.517,1.192a.237.237,0,0,1-.174.307.3.3,0,0,1-.087.014" transform="translate(-299.333 -266.525)" fill="#dedb7a"/>
          <path id="Path_679448" data-name="Path 679448" d="M895.278,503.367l-11.728.219-36.389.681s.863-25.227,20.029-25.377,16.159,9.317,22.453,12.688c8.571,4.6,5.635,11.789,5.635,11.789" transform="translate(-453.633 -256.432)" fill="#9bc146"/>
          <path id="Path_679449" data-name="Path 679449" d="M918.367,503.367l-11.728.219a14.8,14.8,0,0,0-.507-10.266c-3.753-7.791-15.853-14.431-15.853-14.431,19.166-.151,16.159,9.317,22.453,12.688,8.572,4.6,5.635,11.789,5.635,11.789" transform="translate(-476.721 -256.432)" fill="#7f9e45"/>
          <path id="Path_679450" data-name="Path 679450" d="M884.71,511.784a.291.291,0,0,1-.213-.088c-5.383-5.724-9.969-11-11.558-17.637a.246.246,0,0,1,.213-.288.278.278,0,0,1,.327.188c1.562,6.526,6.107,11.753,11.443,17.427a.225.225,0,0,1-.037.343.3.3,0,0,1-.176.056" transform="translate(-467.433 -264.399)" fill="#dedb7a"/>
          <path id="Path_679451" data-name="Path 679451" d="M896.582,515.284a.264.264,0,0,1-.274-.222c-.834-8.331,9.15-13.449,9.251-13.5a.3.3,0,0,1,.376.091.228.228,0,0,1-.1.332c-.1.049-9.778,5.017-8.974,13.034a.255.255,0,0,1-.25.264h-.025" transform="translate(-479.923 -268.557)" fill="#dedb7a"/>
          <path id="Path_679452" data-name="Path 679452" d="M882.927,504.879a.291.291,0,0,1-.175-.056.224.224,0,0,1-.037-.342c.379-.4.781-.8,1.169-1.18,1.714-1.682,3.332-3.269,3.272-5.811a.26.26,0,0,1,.27-.249.265.265,0,0,1,.281.238c.066,2.735-1.7,4.469-3.412,6.147-.385.378-.783.768-1.154,1.165a.29.29,0,0,1-.213.089" transform="translate(-472.637 -266.26)" fill="#dedb7a"/>
          <path id="Path_679453" data-name="Path 679453" d="M871.307,520.668a18.429,18.429,0,0,1-6.651-1.11.233.233,0,0,1-.141-.321.293.293,0,0,1,.364-.124c3.579,1.4,7.816,1.172,10.74.733a.274.274,0,0,1,.318.2.248.248,0,0,1-.225.281,30.1,30.1,0,0,1-4.406.342" transform="translate(-462.913 -277.96)" fill="#dedb7a"/>
          <path id="Path_679454" data-name="Path 679454" d="M899.656,514.4a.271.271,0,0,1-.267-.183.243.243,0,0,1,.2-.3,20.048,20.048,0,0,1,3.082-.3c2.781-.142,5.933-.3,6.927-2.326a.29.29,0,0,1,.362-.127.233.233,0,0,1,.144.32c-1.129,2.3-4.461,2.469-7.4,2.619a19.678,19.678,0,0,0-2.98.289.338.338,0,0,1-.067.007" transform="translate(-481.595 -273.706)" fill="#dedb7a"/>
          <path id="Path_679455" data-name="Path 679455" d="M904.432,503.069a.275.275,0,0,1-.261-.165c-.145-.379-.32-.76-.505-1.164a6.951,6.951,0,0,1-.945-3.787.271.271,0,0,1,.307-.212.252.252,0,0,1,.241.271,6.633,6.633,0,0,0,.908,3.545c.18.393.367.8.518,1.193a.238.238,0,0,1-.174.307.3.3,0,0,1-.088.013" transform="translate(-483.365 -266.526)" fill="#dedb7a"/>
          <path id="Path_679456" data-name="Path 679456" d="M194.094,472.82a17.576,17.576,0,0,1-4.175,3.637A17.821,17.821,0,0,1,188,477.5a19.13,19.13,0,0,1-2.236.876H168.892c-.709-.164-1.368-.33-1.963-.487-.84-.222-1.55-.429-2.1-.586q-.613.338-1.226.648-.433.217-.867.425H142.4a.351.351,0,0,0-.039-.028c-.4-.287-.8-.6-1.2-.928-.031,0-1.816.2-1.846.2a8.151,8.151,0,0,1-.644-1.166c-.6-1.2-1.407-2.912-1.565-3.06a.907.907,0,0,0-.1-.1c-3.335-3.162-5.151-7.19-4.268-11.465a13.281,13.281,0,0,1,.513-1.817c2.695-7.273,11.018-6.925,13.906-13.276.944-2.076,1.33-4.621,2.07-7.1,1.233-4.133,3.451-8.075,10.868-9.324a32.7,32.7,0,0,1,5.432-.4c19.319.009,18.224,14.365,20.988,17.721a2.052,2.052,0,0,0,.482.447,20.092,20.092,0,0,1,7.861,9.846c2.205,5.775,1.742,11.907-.767,14.889" transform="translate(-70.961 -230.209)" fill="#9bc146"/>
          <path id="Path_679457" data-name="Path 679457" d="M134.1,460.487c6.327-4.881,16.886-8.741,22.734-12.382,4.966-3.09,4.747-11.994,4.109-17.316-11.861,2-10.42,10.885-12.938,16.422-2.886,6.352-11.212,6-13.9,13.276" transform="translate(-71.81 -230.676)" fill="#799642"/>
          <path id="Path_679458" data-name="Path 679458" d="M233.156,498.667s1.028-30.055,23.863-30.235,19.252,11.1,26.75,15.117c10.213,5.475,6.714,14.045,6.714,14.045Z" transform="translate(-124.849 -250.832)" fill="#86a749"/>
          <path id="Path_679459" data-name="Path 679459" d="M296.88,507.915a.354.354,0,0,0,.208-.065,14.559,14.559,0,0,0,2.187-1.99,35.537,35.537,0,0,0,3.916-5.433c.8-1.326,1.576-2.721,2.357-4.263a18.674,18.674,0,0,0,.969-2.47,15.55,15.55,0,0,1,1.109-2.71.275.275,0,0,0-.146-.39.35.35,0,0,0-.441.129,15.957,15.957,0,0,0-1.152,2.8,18.091,18.091,0,0,1-.939,2.4c-.775,1.53-1.54,2.913-2.337,4.226a35,35,0,0,1-3.851,5.346,13.88,13.88,0,0,1-2.089,1.9.267.267,0,0,0-.045.408.348.348,0,0,0,.254.106" transform="translate(-158.795 -262.684)" fill="#9bc146"/>
          <path id="Path_679460" data-name="Path 679460" d="M277.835,507.153a.36.36,0,0,0,.2-.059.269.269,0,0,0,.062-.406c-.249-.288-.5-.569-.756-.85-.45-.5-.915-1.015-1.334-1.554a77.76,77.76,0,0,1-4.889-6.835l-.283-.457c-1.548-2.489-3.888-6.251-3.134-8.927a.289.289,0,0,0-.239-.352.333.333,0,0,0-.4.211c-.816,2.9,1.6,6.777,3.2,9.346l.282.455a78.2,78.2,0,0,0,4.924,6.886c.432.555.9,1.079,1.362,1.586.251.278.5.556.747.841a.349.349,0,0,0,.262.113" transform="translate(-142.918 -261.153)" fill="#9bc146"/>
          <path id="Path_679461" data-name="Path 679461" d="M308.078,497.606a.314.314,0,0,0,.328-.274.305.305,0,0,0-.309-.306c-3.3-.165-3.558-5.919-3.559-7.677a.331.331,0,0,0-.657,0c0,2.42.413,8.067,4.179,8.256h.019" transform="translate(-162.72 -261.878)" fill="#9bc146"/>
          <path id="Path_679462" data-name="Path 679462" d="M275.572,502.268a.333.333,0,0,0,.115-.019c2.487-.825,6.01-3.4,5.675-6.31a.319.319,0,0,0-.36-.259.3.3,0,0,0-.294.318c.287,2.493-2.866,4.917-5.252,5.71a.281.281,0,0,0-.192.373.329.329,0,0,0,.308.188" transform="translate(-147.386 -265.423)" fill="#9bc146"/>
          <path id="Path_679463" data-name="Path 679463" d="M310.724,516.587a5.979,5.979,0,0,0,2.294-.419,7.09,7.09,0,0,0,4.09-3.548.28.28,0,0,0-.189-.374.342.342,0,0,0-.424.167,6.5,6.5,0,0,1-3.753,3.229c-1.581.645-3.358.3-5.077-.041a16.634,16.634,0,0,0-3.008-.4h0a.292.292,0,1,0,0,.58,15.854,15.854,0,0,1,2.87.391,16.85,16.85,0,0,0,3.2.419" transform="translate(-162.959 -274.284)" fill="#9bc146"/>
          <path id="Path_679464" data-name="Path 679464" d="M266.292,510.322a10.462,10.462,0,0,0,1.846-.165.293.293,0,0,0,.257-.341.332.332,0,0,0-.387-.227c-5.628,1-10.327-3.287-11.894-7.836a.339.339,0,0,0-.41-.193.286.286,0,0,0-.218.362c1.517,4.4,5.6,8.4,10.807,8.4" transform="translate(-136.798 -268.565)" fill="#9bc146"/>
          <path id="Path_679465" data-name="Path 679465" d="M72.225,491.422l-16.374.306-50.8.951s1.2-35.218,27.963-35.429,22.559,13.007,31.346,17.715c11.967,6.417,7.868,16.458,7.868,16.458" transform="translate(-2.704 -244.844)" fill="#9bc146"/>
          <path id="Path_679466" data-name="Path 679466" d="M104.459,491.422l-16.374.306c1.174-4.4,1.566-9.61-.708-14.332-5.238-10.876-22.131-20.146-22.131-20.146C92,457.039,87.8,470.256,96.592,474.964c11.967,6.417,7.868,16.458,7.868,16.458" transform="translate(-34.938 -244.844)" fill="#86a749"/>
          <path id="Path_679467" data-name="Path 679467" d="M57.472,503.172a.405.405,0,0,1-.3-.123c-7.516-7.992-13.919-15.361-16.137-24.622a.342.342,0,0,1,.3-.4.387.387,0,0,1,.457.262c2.181,9.11,8.526,16.409,15.976,24.33a.313.313,0,0,1-.05.478.414.414,0,0,1-.246.078" transform="translate(-21.971 -255.966)" fill="#dedb7a"/>
          <path id="Path_679468" data-name="Path 679468" d="M74.046,508.06a.37.37,0,0,1-.383-.31C72.5,496.12,86.437,488.975,86.578,488.9a.413.413,0,0,1,.524.127.32.32,0,0,1-.144.464c-.137.068-13.651,7-12.529,18.2a.354.354,0,0,1-.349.368h-.034" transform="translate(-39.408 -261.772)" fill="#dedb7a"/>
          <path id="Path_679469" data-name="Path 679469" d="M54.982,493.534a.418.418,0,0,1-.245-.078.313.313,0,0,1-.052-.478c.529-.564,1.09-1.115,1.633-1.648,2.392-2.347,4.651-4.564,4.567-8.113a.362.362,0,0,1,.377-.347.37.37,0,0,1,.393.333c.091,3.817-2.377,6.239-4.764,8.581-.537.528-1.093,1.073-1.611,1.625a.406.406,0,0,1-.3.124" transform="translate(-29.236 -258.565)" fill="#dedb7a"/>
          <path id="Path_679470" data-name="Path 679470" d="M38.762,515.575a25.74,25.74,0,0,1-9.285-1.549.325.325,0,0,1-.2-.449.407.407,0,0,1,.507-.173c5,1.953,10.912,1.635,14.995,1.023a.384.384,0,0,1,.444.278.347.347,0,0,1-.315.392,41.935,41.935,0,0,1-6.15.478" transform="translate(-15.661 -274.899)" fill="#dedb7a"/>
          <path id="Path_679471" data-name="Path 679471" d="M78.337,506.827a.38.38,0,0,1-.373-.256.339.339,0,0,1,.279-.413,27.974,27.974,0,0,1,4.3-.423c3.882-.2,8.283-.422,9.67-3.247a.406.406,0,0,1,.506-.177.326.326,0,0,1,.2.447c-1.576,3.209-6.227,3.447-10.332,3.656a27.414,27.414,0,0,0-4.158.4.442.442,0,0,1-.095.01" transform="translate(-41.742 -268.959)" fill="#dedb7a"/>
          <path id="Path_679472" data-name="Path 679472" d="M85.005,491.007a.385.385,0,0,1-.365-.232c-.2-.529-.446-1.061-.706-1.625-.773-1.685-1.574-3.427-1.319-5.287a.379.379,0,0,1,.428-.3.352.352,0,0,1,.336.378c-.231,1.686.531,3.345,1.268,4.951.252.548.512,1.115.721,1.663a.333.333,0,0,1-.242.431.433.433,0,0,1-.123.018" transform="translate(-44.213 -258.936)" fill="#dedb7a"/>
          <path id="Path_679473" data-name="Path 679473" d="M996.729,485.931l18.509.345,57.43,1.075s-1.362-39.813-31.611-40.051-25.5,14.7-35.436,20.025c-13.527,7.255-8.893,18.606-8.893,18.606" transform="translate(-533.312 -239.516)" fill="#9bc146"/>
          <path id="Path_679474" data-name="Path 679474" d="M996.729,485.931l18.509.345c-1.327-4.97-1.77-10.863.8-16.2,5.922-12.3,25.019-22.775,25.019-22.775-30.249-.238-25.5,14.7-35.436,20.025-13.527,7.255-8.893,18.606-8.893,18.606" transform="translate(-533.312 -239.516)" fill="#86a749"/>
          <path id="Path_679475" data-name="Path 679475" d="M1079.9,499.214a.459.459,0,0,0,.334-.138c8.5-9.035,15.734-17.364,18.242-27.835a.388.388,0,0,0-.336-.455.436.436,0,0,0-.516.3c-2.467,10.3-9.638,18.548-18.06,27.5a.354.354,0,0,0,.057.54.468.468,0,0,0,.278.088" transform="translate(-578.027 -252.089)" fill="#dedb7a"/>
          <path id="Path_679476" data-name="Path 679476" d="M1065.423,504.738a.417.417,0,0,0,.432-.35c1.318-13.147-14.439-21.225-14.6-21.3a.467.467,0,0,0-.593.143.362.362,0,0,0,.163.524c.155.077,15.432,7.916,14.163,20.569a.4.4,0,0,0,.4.417h.04" transform="translate(-562.572 -258.652)" fill="#dedb7a"/>
          <path id="Path_679477" data-name="Path 679477" d="M1095.444,488.316a.476.476,0,0,0,.277-.087.355.355,0,0,0,.058-.542c-.6-.638-1.231-1.26-1.845-1.862-2.7-2.653-5.259-5.16-5.164-9.172a.41.41,0,0,0-.425-.392.419.419,0,0,0-.444.377c-.1,4.314,2.688,7.052,5.385,9.7.607.6,1.236,1.211,1.822,1.836a.455.455,0,0,0,.336.14" transform="translate(-582.541 -255.025)" fill="#dedb7a"/>
          <path id="Path_679478" data-name="Path 679478" d="M1102.151,513.236a29.094,29.094,0,0,0,10.5-1.752.367.367,0,0,0,.222-.506.462.462,0,0,0-.574-.2c-5.648,2.209-12.336,1.848-16.951,1.156a.432.432,0,0,0-.5.315.391.391,0,0,0,.356.443,47.368,47.368,0,0,0,6.953.541" transform="translate(-586.257 -273.492)" fill="#dedb7a"/>
          <path id="Path_679479" data-name="Path 679479" d="M1058.693,503.346a.429.429,0,0,0,.421-.29.383.383,0,0,0-.315-.467,31.722,31.722,0,0,0-4.864-.477c-4.389-.223-9.363-.478-10.933-3.672a.459.459,0,0,0-.572-.2.368.368,0,0,0-.227.5c1.782,3.628,7.041,3.9,11.68,4.134a31.061,31.061,0,0,1,4.7.456.522.522,0,0,0,.107.011" transform="translate(-558.054 -266.778)" fill="#dedb7a"/>
          <path id="Path_679480" data-name="Path 679480" d="M1067.025,485.461a.436.436,0,0,0,.413-.262c.228-.6.5-1.2.8-1.838.874-1.905,1.779-3.875,1.49-5.977a.427.427,0,0,0-.484-.336.4.4,0,0,0-.38.427c.261,1.905-.6,3.782-1.433,5.6-.285.62-.579,1.261-.816,1.881a.375.375,0,0,0,.274.486.485.485,0,0,0,.138.021" transform="translate(-571.131 -255.446)" fill="#dedb7a"/>
          <path id="Path_679481" data-name="Path 679481" d="M541.695,530.689v.75a.661.661,0,0,1-.718.584H3.012a.662.662,0,0,1-.718-.584v-.75a.662.662,0,0,1,.718-.584H540.977a.661.661,0,0,1,.718.584" transform="translate(-1.228 -283.857)" fill="#799642"/>
          <path id="Path_679482" data-name="Path 679482" d="M252.635,593.047c8.14-.129,5.244,1.844,4.467,2.271-10.933,6.005,16.137,8.385,57.24,8.323,26.065-.039,47.093-3.376,73.137-3.851a164.939,164.939,0,0,0,17.491-1.149c2.378-.378,1.576-2.4-.933-2.533-3-.154-11.975-.632-11.975-.632-1.413-.235-1.267-1.109.208-1.256,15.082-1.509,28.551-.854,47.094-.935,14.875-.065,17.986-7.091-12.928-6.706l-67.913-.9c-1.444-.133-1.668-.971-.329-1.239,0,0,1.643-.079,2.19-.109,2.409-.129,2.91-1.927-.7-2.055-24.5-.871-44.972-1.486-66.751,1.114-3.016.36-6.007.766-9.073,1.035-7.74.68-28.35.7-36.251.7-34.485,0-39.993,8.636,5.029,7.92" transform="translate(-117.968 -311.392)" fill="#86a749"/>
          <path id="Path_679483" data-name="Path 679483" d="M1011.458,544.419v12.71c-5.538.013-11.851-.011-18.824-.019-20.987-.031-41.521-.418-62.493-.781a140.131,140.131,0,0,1-14.085-.875c-1.914-.289-1.268-1.834.753-1.932,2.41-.117,9.643-.481,9.643-.481,1.138-.178,1.021-.846-.167-.957-12.145-1.151-22.99-.65-37.923-.714-11.977-.048-14.483-5.4,10.411-5.112l54.685-.683c1.164-.1,1.344-.74.266-.944,0,0-1.322-.061-1.764-.083-1.938-.1-2.343-1.468.565-1.566,19.732-.663,36.213-1.133,53.75.849,1.729.2,3.448.409,5.184.587" transform="translate(-470.992 -290.447)" fill="#86a749"/>
          <rect id="Rectangle_353878" data-name="Rectangle 353878" width="540.466" height="82.89" transform="translate(0 302.437)" fill="#90999e"/>
          <path id="Path_679484" data-name="Path 679484" d="M110.563,559.017c16.01-.081,10.314,1.156,8.786,1.424-21.5,3.766,22.944,3.484,103.787,3.446,51.265-.025,101.42-.343,152.645-.642,11.8-.069,27.4-.366,34.4-.721,4.678-.237,3.1-1.508-1.835-1.588-5.891-.1-23.554-.4-23.554-.4-2.78-.147-2.493-.7.409-.788,29.663-.947,56.155-.535,92.627-.586,29.256-.041,35.376-4.447-25.427-4.206L318.828,554.4c-2.841-.083-3.281-.609-.648-.777,0,0,3.232-.05,4.307-.068,4.737-.081,5.724-1.209-1.381-1.289-48.2-.546-88.453-.932-131.29.7-5.932.226-11.815.48-17.845.649-15.223.426-55.76.439-71.3.439-67.826,0-78.66,5.416,9.891,4.968" transform="translate(-25.154 -295.47)" fill="#86a749"/>
        </g>
      </g>
    </g>
    <g id="Group_989302" data-name="Group 989302" transform="translate(101.835 4848.965)">
      <g id="Group_989301" data-name="Group 989301" transform="translate(0)" clip-path="url(#clip-path-3)">
        <g id="Group_989300" data-name="Group 989300">
          <g id="Group_989299" data-name="Group 989299" clip-path="url(#clip-path-3)">
            <g id="Group_989256" data-name="Group 989256" transform="translate(4.878 82.777)" opacity="0.31">
              <g id="Group_989255" data-name="Group 989255">
                <g id="Group_989254" data-name="Group 989254" clip-path="url(#clip-path-5)">
                  <path id="Path_679485" data-name="Path 679485" d="M235.84,254.856H9.383c-1.538,0-3.029-.676-3.029-1.5l-.233-1c0-.826,1.258-1.5,2.8-1.5H236.073c1.538,0,2.8.675,2.8,1.5l-.466,1c0,.826-1.025,1.5-2.563,1.5" transform="translate(-6.122 -250.856)" fill="#235b68"/>
                </g>
              </g>
            </g>
            <path id="Path_679486" data-name="Path 679486" d="M274.764,40.408q.438.64.851,1.323C280.982,50.6,283.4,64.7,284.292,71.4c.067.512.132,1.02.191,1.5.068.573.12,1.049.159,1.418.058.554.086.856.086.856h.019l.806.061,24.095,1.807.686-5.475a10.487,10.487,0,0,0,2.464-2.057c1.908-2.262,1.145-4.244-.033-4.748-2.649-1.133-7.889-2.091-18.4,1.169q-.964.3-1.989.647s-.274-1.69-.651-3.783a71.2,71.2,0,0,0-1.555-7.19q-.107-.322-.214-.638c-.049-.143-.1-.284-.145-.426a80.834,80.834,0,0,0-4.363-10.676q-.517-1-1.045-1.893a24.305,24.305,0,0,0-2.144-3.1,9.4,9.4,0,0,0-1.756-1.7c.608.09.91.116.91.116,3.694.8,2.156-5.094,2.156-5.094-.587-2.8-1.553-3.482-1.553-3.482-.967-.733-3.971,1.426-3.971,1.426-4.6,2.581-1.976,5.565-1.314,6.217q.431.127.86.238c-1.931.765-2.822,3.81-2.822,3.81" transform="translate(-164.978 -19.138)" fill="#2a3236"/>
            <path id="Path_679487" data-name="Path 679487" d="M285.745,158.379c.067.512.132,1.02.191,1.5.062.515.12,1,.169,1.427.036.319.069.6.095.848.057.52.091.838.091.838l1.55.065,23.259.965.686-5.475Z" transform="translate(-166.431 -106.117)" fill="#2f393d"/>
            <path id="Path_679488" data-name="Path 679488" d="M417.025,42.611q.438.64.851,1.323C423.242,52.8,425.66,66.9,426.552,73.6c.067.512.132,1.02.191,1.5.068.573.12,1.049.159,1.418.058.554.086.856.086.856h.019l.805.061,24.095,1.807.686-5.475a10.478,10.478,0,0,0,2.464-2.057c1.908-2.262,1.145-4.243-.033-4.748-2.649-1.133-7.889-2.091-18.4,1.169q-.964.3-1.989.647s-.273-1.69-.651-3.783a71.184,71.184,0,0,0-1.555-7.19q-.107-.322-.215-.638c-.048-.143-.1-.284-.145-.426A80.829,80.829,0,0,0,427.7,46.071q-.517-1-1.045-1.893a24.3,24.3,0,0,0-2.144-3.1,9.4,9.4,0,0,0-1.756-1.7c.609.09.91.116.91.116,3.694.8,2.156-5.094,2.156-5.094-.587-2.8-1.553-3.482-1.553-3.482-.966-.734-3.971,1.426-3.971,1.426-4.6,2.581-1.976,5.565-1.314,6.217q.431.127.86.238c-1.931.765-2.822,3.81-2.822,3.81" transform="translate(-354.181 -20.614)" fill="#2a3236"/>
            <path id="Path_679489" data-name="Path 679489" d="M428,160.582c.067.512.132,1.02.191,1.5.062.515.12,1,.169,1.427.036.319.069.6.095.848.057.52.091.838.091.838l1.55.065,23.259.965.686-5.475Z" transform="translate(-355.633 -107.594)" fill="#2f393d"/>
            <path id="Path_679490" data-name="Path 679490" d="M215.379,74.728c6.939,1.208,15.963,7.053,15.963,7.053,2.933.67.638-13.558.816-14.268a.9.9,0,0,0,.019-.1c-3-2.059-8.338-5.017-13.473-5.145a25.04,25.04,0,0,1-3.325,12.458" transform="translate(-64.27 -41.722)" fill="#0b2728"/>
            <path id="Path_679491" data-name="Path 679491" d="M267.957,72.806a.943.943,0,0,0,1.785.571l4.242-13.267a.942.942,0,0,0-1.785-.57Z" transform="translate(-122.784 -39.514)" fill="#0b2728"/>
            <path id="Path_679492" data-name="Path 679492" d="M266.951,77.965c-.059.185.592.558,1.454.834s1.61.349,1.668.165l1.774-5.546c.059-.185-.593-.558-1.455-.833s-1.609-.35-1.668-.165Z" transform="translate(-120.293 -48.454)" fill="#0b2728"/>
            <path id="Path_679493" data-name="Path 679493" d="M256.256,77.827l-7.585-1.993-1.623,4.49,8.144,3.435Z" transform="translate(-98.132 -50.81)" fill="#0b2728"/>
            <g id="Group_989259" data-name="Group 989259" transform="translate(40.293 1.669)" opacity="0.88">
              <g id="Group_989258" data-name="Group 989258">
                <g id="Group_989257" data-name="Group 989257" clip-path="url(#clip-path-6)">
                  <path id="Path_679494" data-name="Path 679494" d="M237.09,9.141l-5.162,5.323.691,4.778,13.02,9.4,108.689,2.075.42-2.106-3.182-4.636L336.9,16.742,319.855,9.683,308.863,6.534,300.3,5.165l-16.024-.1L265.51,6.25l-16.646.273Z" transform="translate(-231.928 -5.06)" fill="#0c5961"/>
                </g>
              </g>
            </g>
            <g id="Group_989262" data-name="Group 989262" transform="translate(38.347 1.653)" opacity="0.88" style="mix-blend-mode: screen;isolation: isolate">
              <g id="Group_989261" data-name="Group 989261">
                <g id="Group_989260" data-name="Group 989260" clip-path="url(#clip-path-7)">
                  <path id="Path_679495" data-name="Path 679495" d="M374.664,21.782S334.8,12.863,258.747,17.026l4.414-5.142L273.57,6.956l17.337-.762,19.6-1.185,13.094.086,12.226,1.393,8.5.931,10.854,4.629Z" transform="translate(-258.747 -5.009)" fill="#0c5961"/>
                </g>
              </g>
            </g>
            <path id="Path_679496" data-name="Path 679496" d="M385.315,31.89l-11.6-.2-2.3-21.283c2.037.138,3.983.309,5.811.513Z" transform="translate(-268.23 -6.971)" fill="#39454a"/>
            <path id="Path_679497" data-name="Path 679497" d="M41.429,146.9l3.429,2.692,46.391.3,3.013-3.367.4-9.765-2.825-7.136-4.8-6.923-5.512-4.924-7.609-2.295-8.1-1.022-10.131,2.568-6.079,5.1-5.257,5.929L41.5,135.967Z" transform="translate(131.314 -76.696)" fill="#2a3236"/>
            <path id="Path_679498" data-name="Path 679498" d="M491.645,141.478l1.854,2.917,46.679.787,5.456-5.252-.192-6.371-5.308-12.893-8.031-6.885-9.657-4.888-11.067,1.026-11.946,3.649-5.893,8.283-3.407,8.055Z" transform="translate(-467.723 -72.961)" fill="#2a3236"/>
            <path id="Path_679499" data-name="Path 679499" d="M239.567,63.007a8.007,8.007,0,0,1-4,6.459c-.224.13-.456.25-.693.358a8.282,8.282,0,0,1-1.285.459L222.563,73.2h-.154a25.214,25.214,0,0,0-1.753-19.565,24.067,24.067,0,0,0-42.518-.209A25.207,25.207,0,0,0,176.173,72.9L72.455,72.222a25.056,25.056,0,0,0,1-4.446c.01-.082.021-.166.031-.248a25.363,25.363,0,0,0,.18-2.864,24.961,24.961,0,0,0-3.476-12.925,24.572,24.572,0,0,0-8.88-8.789c-.106-.065-.215-.126-.324-.184a23.8,23.8,0,0,0-11.437-3A24.148,24.148,0,0,0,29.1,50.921,25.21,25.21,0,0,0,26.119,71.6L5.379,61.556A9.532,9.532,0,0,1,.384,50.306a9.084,9.084,0,0,1,.332-.947l2.338-5.7a11.442,11.442,0,0,0,.315-7.819l-.84-2.629a7.852,7.852,0,0,1,3.085-8.9l3.673-2.483.432-.293.357-.241L28.847,8.6a37.229,37.229,0,0,1,5.185-2.928A36.49,36.49,0,0,1,44.691,2.6C68.076-.4,95.684-.387,110.757.573a53.322,53.322,0,0,1,19.38,4.5l.27.121,39.734,17.752.1.043.892.4a27.854,27.854,0,0,0,3.83,1.382,34.134,34.134,0,0,0,4.389.931c21.2,3.1,27.884,4.262,35.182,5.649,1.534.291,3.095.592,4.822.921a28.5,28.5,0,0,1,12.2,5.355,17.484,17.484,0,0,1,2.023,1.832c.281.3.55.6.809.917a18.061,18.061,0,0,1,2.75,4.557q.249.594.459,1.208c.154.456.292.919.411,1.389.373,1.471.67,2.892.9,4.249a49.616,49.616,0,0,1,.664,11.23M161.015,24.173a1.056,1.056,0,0,0-.646-1.06s-2.774-1.308-6.8-3.175h0C145.387,16.152,132.05,10.075,126.282,8a48.805,48.805,0,0,0-7.7-2.369c-1.752-.319-3.725-.591-5.866-.818-1.827-.193-3.774-.355-5.811-.485-9.482-.613-20.862-.589-30.7-.231-3.594.13-6.981.307-9.994.513A87.986,87.986,0,0,0,54.486,5.942c-1.371.331-7.85,1.993-10.527,4.093-1.236.968-1.68,2.347-.64,3.653a54.441,54.441,0,0,0,5.865,5.862,17.773,17.773,0,0,0,4.837,3.011c.057.023.114.046.171.066a12.373,12.373,0,0,0,3.421.825c.1.011.2.019.3.027.2.011.4.02.6.024l11.4.191,39.3.657,5.1.085.256,0,6.248.106,33.916.568,5.177.086a1.051,1.051,0,0,0,1.028-.679c.013-.032.023-.065.033-.1a1.043,1.043,0,0,0,.047-.248" transform="translate(0 0)" fill="#2a718d"/>
            <path id="Path_679500" data-name="Path 679500" d="M560.278,159.112a16.653,16.653,0,1,1-16.544-16.762A16.653,16.653,0,0,1,560.278,159.112Z" transform="translate(-494.523 -95.378)" fill="none" stroke="#ea750a" stroke-miterlimit="10" stroke-width="1"/>
            <g id="Group_989265" data-name="Group 989265" transform="translate(2.438 21.83)" opacity="0.63" style="mix-blend-mode: screen;isolation: isolate">
              <g id="Group_989264" data-name="Group 989264">
                <g id="Group_989263" data-name="Group 989263" clip-path="url(#clip-path-8)">
                  <path id="Path_679501" data-name="Path 679501" d="M288.2,75.675c-40.153-.521-161.135-2.081-212.093-2.613a7.844,7.844,0,0,1,3.174-4.422l3.674-2.483,44.906.8a12.387,12.387,0,0,0,3.421.825c.1.011.2.019.3.027.2.011.4.02.6.024l11.4.191,39.3.657,5.1.085.256,0,6.248.106,33.916.567,5.177.086a1.05,1.05,0,0,0,1.028-.679l14.024.248a34.254,34.254,0,0,0,4.389.931c21.2,3.1,27.884,4.262,35.182,5.649" transform="translate(-76.107 -66.157)" fill="#2a718d"/>
                </g>
              </g>
            </g>
            <path id="Path_679502" data-name="Path 679502" d="M680.364,77.484l-2.4,1.209a2.943,2.943,0,0,1-.988.3c-.035,0-.07.01-.1.012l-4.793.428-10.178.91a7.657,7.657,0,0,1,.352-1.459,7.846,7.846,0,0,1,2.231-3.334l15.451.1a.969.969,0,0,1,.43,1.834" transform="translate(-659.666 -50.62)" fill="#a80b0b"/>
            <path id="Path_679503" data-name="Path 679503" d="M633.19,18.445,609.028,33.11l-7.163-.047.357-.241L620.994,20.13a37.226,37.226,0,0,1,5.185-2.928l1.241.219Z" transform="translate(-592.147 -11.526)" fill="#0c5961"/>
            <g id="Group_989268" data-name="Group 989268" transform="translate(9.718 5.676)" opacity="0.65" style="mix-blend-mode: screen;isolation: isolate">
              <g id="Group_989267" data-name="Group 989267">
                <g id="Group_989266" data-name="Group 989266" clip-path="url(#clip-path-9)">
                  <path id="Path_679504" data-name="Path 679504" d="M644.906,17.42,622.278,33.082l-2.927-.019.357-.241L638.48,20.129a37.258,37.258,0,0,1,5.185-2.928Z" transform="translate(-619.351 -17.201)" fill="#0c5961"/>
                </g>
              </g>
            </g>
            <path id="Path_679505" data-name="Path 679505" d="M592.7,10l17.036-1.926-3.191,4.254-3.228,1.959L592.6,11.112A.568.568,0,0,1,592.7,10" transform="translate(-565.501 -5.412)" fill="#2a718d"/>
            <path id="Path_679506" data-name="Path 679506" d="M372.278,98.331l-17.719-.368a.663.663,0,1,1,.027-1.325l17.719.368a.663.663,0,0,1-.027,1.325" transform="translate(-250.092 -64.75)" fill="#c5d4db"/>
            <g id="Group_989271" data-name="Group 989271" transform="translate(70.187 51.739)" opacity="0.17" style="mix-blend-mode: multiply;isolation: isolate">
              <g id="Group_989270" data-name="Group 989270">
                <g id="Group_989269" data-name="Group 989269" clip-path="url(#clip-path-10)">
                  <path id="Path_679507" data-name="Path 679507" d="M294.346,158.484a25.207,25.207,0,0,0-1.966,19.471l-103.718-.679a25.06,25.06,0,0,0,1-4.446c.011-.082.021-.166.032-.248a25.359,25.359,0,0,0,.18-2.864,24.958,24.958,0,0,0-3.476-12.925c34.43.658,74.8,1.347,107.952,1.69" transform="translate(-186.394 -156.794)" fill="#2a718d"/>
                </g>
              </g>
            </g>
            <path id="Path_679508" data-name="Path 679508" d="M244.62,65.682l-5.177-.086-1.164-5.176c4.028,1.868,6.8,3.175,6.8,3.175a1.09,1.09,0,0,1-.461,2.086" transform="translate(-84.713 -40.483)" fill="#3f4d52"/>
            <path id="Path_679509" data-name="Path 679509" d="M509.464,25.23l1.7,6.79-11.4-.191a12.382,12.382,0,0,1-4.486-.941l12.2-17.946c3.013-.206,6.4-.383,9.994-.513l-7.5,10.2a3.112,3.112,0,0,0-.511,2.6" transform="translate(-441.258 -8.327)" fill="#39454a"/>
            <path id="Path_679510" data-name="Path 679510" d="M545.984,90.567c-.106-.065-.215-.126-.324-.183l-5.013-14.593a3.524,3.524,0,0,1,.556-3.326l1.087-1.4c.1.011.2.019.3.027L541.4,72.619a3.277,3.277,0,0,0-.517,3.092Z" transform="translate(-484.676 -47.618)" fill="#1b4859"/>
            <path id="Path_679511" data-name="Path 679511" d="M298.605,115.431a3.023,3.023,0,0,1-3.008,2.6h-.018l-95.756-1.173c.01-.082.021-.166.031-.248l43.176.529.251,0,52.3.64h.018a2.774,2.774,0,0,0,2.761-2.389c1.025-7.316,3.012-25.457-.607-35.854a5.561,5.561,0,0,0-3.312-3.391l-7.1-2.645a1.042,1.042,0,0,0,.047-.248l7.138,2.66a5.806,5.806,0,0,1,3.46,3.541c3.636,10.449,1.646,28.638.619,35.973" transform="translate(-126.372 -49.083)" fill="#1b4859"/>
            <g id="Group_989274" data-name="Group 989274" transform="translate(220.656 53.468)" opacity="0.17" style="mix-blend-mode: multiply;isolation: isolate">
              <g id="Group_989273" data-name="Group 989273" transform="translate(0)">
                <g id="Group_989272" data-name="Group 989272" clip-path="url(#clip-path-11)">
                  <path id="Path_679512" data-name="Path 679512" d="M28.81,164.33,25.072,179.7l-2.671.708-5.142,1.362h-.154a25.159,25.159,0,0,0,1.207-7.557,24.952,24.952,0,0,0-2.96-12.008c4.833-.02,9.039-.065,12.493-.14.492-.009.969-.021,1.429-.03l-.559,2.295Z" transform="translate(-15.353 -162.035)" fill="#2a718d"/>
                </g>
              </g>
            </g>
            <path id="Path_679513" data-name="Path 679513" d="M377.738,74.008c1.525,7.65,4.264,25.008,2.343,43.62,0,.045-.008.089-.013.134l-.248-.026c0-.037.008-.075.011-.112C381.758,98.99,379,81.612,377.482,74Z" transform="translate(-265.656 -49.584)" fill="#1b4859"/>
            <path id="Path_679514" data-name="Path 679514" d="M23.683,123.148,17.22,122.7a2.16,2.16,0,0,1-1.327-.579l-2.917-2.735a2.238,2.238,0,0,0-.908-.517l-4.847-1.4a1.1,1.1,0,0,1-.77-.825l-.221-1.021a.561.561,0,0,1,.6-.679c2.019.178,7.725.715,12.838,1.528a18.2,18.2,0,0,1,4.018,6.682" transform="translate(213.91 -77.009)" fill="#c1e9f4"/>
            <g id="Group_989277" data-name="Group 989277" transform="translate(228.58 51.751)" opacity="0.55" style="mix-blend-mode: multiply;isolation: isolate">
              <g id="Group_989276" data-name="Group 989276">
                <g id="Group_989275" data-name="Group 989275" clip-path="url(#clip-path-12)">
                  <path id="Path_679515" data-name="Path 679515" d="M10.987,168.088a8.008,8.008,0,0,1-4,6.459l-4.939.4c-.013,0-.027,0-.04,0a1.9,1.9,0,0,1-1.917-2.477l4.671-14.492a1.657,1.657,0,0,1,1.585-1.145l3.973.026a49.6,49.6,0,0,1,.665,11.23" transform="translate(0 -156.832)" fill="#2a718d"/>
                </g>
              </g>
            </g>
            <path id="Path_679516" data-name="Path 679516" d="M20.506,156.832l-.416,1.717-.559,2.295-3.429,14.1a1.894,1.894,0,0,1-1.917-2.477l4.476-13.889.2-.6a1.656,1.656,0,0,1,1.585-1.145Z" transform="translate(214.489 -105.081)" fill="#c1e9f4"/>
            <path id="Path_679517" data-name="Path 679517" d="M684.954,77.525l1.438,1.577c-.035,0-.07.01-.1.012l-4.793.428-.449-.952-9.377.4a7.785,7.785,0,0,1,1.5-2.6l7.963.052,1.048-.736,4.914.032Z" transform="translate(-669.084 -50.729)" fill="#e30f0f"/>
            <path id="Path_679518" data-name="Path 679518" d="M23.276,123.917l-5.956-.352L16,122.545,13.214,120.4l-5.306-1.677-.3-.094,0-.743s7.19.765,12.913,1.473q.473.57.9,1.179A18.13,18.13,0,0,1,22.862,123c.147.3.284.608.414.917" transform="translate(213.858 -78.986)" fill="#e8f6f9"/>
            <path id="Path_679519" data-name="Path 679519" d="M249.647,64.448a1.929,1.929,0,0,0,.678.836,3.91,3.91,0,0,0,1.992.794c2.175.189,11.831.8,13.74.225.06-.017.11-.036.154-.053,1.529-.581-2.131-1.539-6-2.22a37.972,37.972,0,0,0-8.872-.721,2.585,2.585,0,0,0-1.484.389.628.628,0,0,0-.2.749" transform="translate(-109.284 -42.397)" fill="#348bad"/>
            <path id="Path_679520" data-name="Path 679520" d="M250.726,65.3a1.929,1.929,0,0,0,.678.836,3.909,3.909,0,0,0,1.992.794c2.175.189,11.831.8,13.74.225.06-.017.11-.036.154-.053a143.857,143.857,0,0,0-16.358-2.552.628.628,0,0,0-.2.749" transform="translate(-110.363 -43.251)" fill="#2a718d"/>
            <path id="Path_679521" data-name="Path 679521" d="M281.363,66.823a1.93,1.93,0,0,0,.678.836l5.681.145.079-.817Z" transform="translate(-141 -44.773)" fill="#c1e9f4"/>
            <g id="Group_989280" data-name="Group 989280" transform="translate(0 50.305)" opacity="0.17" style="mix-blend-mode: multiply;isolation: isolate">
              <g id="Group_989279" data-name="Group 989279">
                <g id="Group_989278" data-name="Group 989278" clip-path="url(#clip-path-13)">
                  <path id="Path_679522" data-name="Path 679522" d="M667.164,153.065a25.208,25.208,0,0,0-2.978,20.68L643.446,163.7a9.533,9.533,0,0,1-4.995-11.251c5.875.131,15.934.35,28.713.615" transform="translate(-638.067 -152.45)" fill="#2a718d"/>
                </g>
              </g>
            </g>
            <path id="Path_679523" data-name="Path 679523" d="M545.419,177.317a16.784,16.784,0,0,1-19.9-12.922,16.6,16.6,0,0,1-.328-2.368,16.776,16.776,0,0,1,32.826-5.886c.124.417.233.845.325,1.277a16.8,16.8,0,0,1-12.925,19.9M558.1,157.471c-.082-.383-.177-.76-.281-1.131a16.431,16.431,0,0,0-2.062-4.5A16.6,16.6,0,0,0,542.82,144.4a16.527,16.527,0,0,0-13.108,27.633,16.7,16.7,0,0,0,7.657,4.758,16.526,16.526,0,0,0,20.731-19.32" transform="translate(-492.356 -96.568)" fill="#cedee6"/>
            <path id="Path_679524" data-name="Path 679524" d="M554.271,152.151a21.092,21.092,0,1,1-21.092-21.091,21.092,21.092,0,0,1,21.092,21.091" transform="translate(-483.604 -87.812)" fill="#4b5961"/>
            <path id="Path_679525" data-name="Path 679525" d="M557.006,157.537A18.438,18.438,0,1,1,538.568,139.1a18.438,18.438,0,0,1,18.438,18.438" transform="translate(-488.992 -93.199)" fill="#3b464d"/>
            <path id="Path_679526" data-name="Path 679526" d="M551.977,174.63a16.656,16.656,0,1,1,3.685-23.26c.154.211.3.425.44.639a16.484,16.484,0,0,1,2.077,4.482,16.65,16.65,0,0,1-6.2,18.139" transform="translate(-492.613 -96.821)" fill="#c5d4db"/>
            <g id="Group_989283" data-name="Group 989283" transform="translate(32.95 47.714)" opacity="0.65" style="mix-blend-mode: screen;isolation: isolate">
              <g id="Group_989282" data-name="Group 989282">
                <g id="Group_989281" data-name="Group 989281" clip-path="url(#clip-path-14)">
                  <path id="Path_679527" data-name="Path 679527" d="M569.856,148.912l-.092.092-23.345,23.345-.089.089a16.739,16.739,0,0,1-1.163-1.426,16.568,16.568,0,0,1-3.153-8.783l17.63-17.63a16.625,16.625,0,0,1,10.212,4.313" transform="translate(-542.014 -144.599)" fill="#c5d4db"/>
                </g>
              </g>
            </g>
            <g id="Group_989286" data-name="Group 989286" transform="translate(40.421 55.188)" opacity="0.76" style="mix-blend-mode: screen;isolation: isolate">
              <g id="Group_989285" data-name="Group 989285">
                <g id="Group_989284" data-name="Group 989284" clip-path="url(#clip-path-15)">
                  <path id="Path_679528" data-name="Path 679528" d="M552.694,171.73,532.04,192.384a16.6,16.6,0,0,1-4.49-2.07l23.066-23.066a16.494,16.494,0,0,1,2.077,4.482" transform="translate(-527.55 -167.248)" fill="#c5d4db"/>
                </g>
              </g>
            </g>
            <path id="Path_679529" data-name="Path 679529" d="M570.673,150.782h-6.868l.973,3.994,2.461,1.421,2.013,5.684h2.605Z" transform="translate(-518.256 -101.027)" fill="#2f393d"/>
            <path id="Path_679530" data-name="Path 679530" d="M580.858,160.471l-4.322,5.338,3.716,1.757,2.653-1.019,5.684,2.013,1.639-2.025Z" transform="translate(-540.828 -107.519)" fill="#2f393d"/>
            <path id="Path_679531" data-name="Path 679531" d="M587.232,188.7l1.428,6.718,3.7-1.782.878-2.7,5.141-3.151-.542-2.548Z" transform="translate(-552.512 -124.113)" fill="#2f393d"/>
            <path id="Path_679532" data-name="Path 679532" d="M582.332,209.274l6.12,3.118.946-4-1.548-2.383.787-5.979-2.321-1.183Z" transform="translate(-541.909 -133.232)" fill="#2f393d"/>
            <path id="Path_679533" data-name="Path 679533" d="M552.48,217.094l6.275-2.794-2.513-3.253-2.826-.3-4.151-4.374-2.38,1.06Z" transform="translate(-499.57 -138.277)" fill="#2f393d"/>
            <path id="Path_679534" data-name="Path 679534" d="M541.187,201.074l1.778-6.634-4.11-.094-2.01,2.01-6.011.474-.675,2.516Z" transform="translate(-478.261 -130.216)" fill="#2f393d"/>
            <path id="Path_679535" data-name="Path 679535" d="M545,164.685l-4.037-5.557-2.659,3.135.3,2.826-3.415,4.97,1.531,2.108Z" transform="translate(-481.96 -106.62)" fill="#2f393d"/>
            <path id="Path_679536" data-name="Path 679536" d="M573.17,189.386a2.753,2.753,0,1,1-2.753-2.753,2.753,2.753,0,0,1,2.753,2.753" transform="translate(-520.841 -125.048)" fill="#2f393d"/>
            <path id="Path_679537" data-name="Path 679537" d="M92.017,177.317a16.784,16.784,0,0,1-19.9-12.922,16.62,16.62,0,0,1-.328-2.368,16.776,16.776,0,0,1,32.826-5.886c.124.417.233.845.325,1.277a16.8,16.8,0,0,1-12.925,19.9M104.7,157.471c-.082-.383-.177-.76-.281-1.131a16.433,16.433,0,0,0-2.062-4.5A16.6,16.6,0,0,0,89.418,144.4,16.527,16.527,0,0,0,76.31,172.032a16.7,16.7,0,0,0,7.657,4.758,16.526,16.526,0,0,0,20.731-19.32" transform="translate(110.658 -96.568)" fill="#cedee6"/>
            <path id="Path_679538" data-name="Path 679538" d="M100.87,152.151a21.092,21.092,0,1,1-21.092-21.091,21.092,21.092,0,0,1,21.092,21.091" transform="translate(119.409 -87.812)" fill="#4b5961"/>
            <path id="Path_679539" data-name="Path 679539" d="M103.6,157.537A18.438,18.438,0,1,1,85.166,139.1,18.438,18.438,0,0,1,103.6,157.537" transform="translate(114.021 -93.199)" fill="#3b464d"/>
            <path id="Path_679540" data-name="Path 679540" d="M98.576,174.63a16.656,16.656,0,1,1,3.685-23.26c.154.211.3.425.44.639a16.629,16.629,0,0,1-4.124,22.622" transform="translate(110.4 -96.821)" fill="#c5d4db"/>
            <g id="Group_989289" data-name="Group 989289" transform="translate(182.563 47.714)" opacity="0.65" style="mix-blend-mode: screen;isolation: isolate">
              <g id="Group_989288" data-name="Group 989288" transform="translate(0)">
                <g id="Group_989287" data-name="Group 989287" clip-path="url(#clip-path-14)">
                  <path id="Path_679541" data-name="Path 679541" d="M116.455,148.912l-.092.092L93.018,172.349l-.089.089a16.741,16.741,0,0,1-1.163-1.426,16.568,16.568,0,0,1-3.153-8.783l17.63-17.63a16.625,16.625,0,0,1,10.211,4.313" transform="translate(-88.613 -144.599)" fill="#c5d4db"/>
                </g>
              </g>
            </g>
            <g id="Group_989292" data-name="Group 989292" transform="translate(190.034 55.188)" opacity="0.76" style="mix-blend-mode: screen;isolation: isolate">
              <g id="Group_989291" data-name="Group 989291" transform="translate(0)">
                <g id="Group_989290" data-name="Group 989290" clip-path="url(#clip-path-17)">
                  <path id="Path_679542" data-name="Path 679542" d="M99.292,171.73,78.638,192.384a16.593,16.593,0,0,1-4.49-2.07l23.066-23.066a16.5,16.5,0,0,1,2.077,4.482" transform="translate(-74.148 -167.248)" fill="#c5d4db"/>
                </g>
              </g>
            </g>
            <path id="Path_679543" data-name="Path 679543" d="M117.272,150.782H110.4l.973,3.994,2.461,1.421,2.013,5.684h2.605Z" transform="translate(84.758 -101.027)" fill="#2f393d"/>
            <path id="Path_679544" data-name="Path 679544" d="M127.456,160.471l-4.322,5.338,3.716,1.757,2.653-1.019,5.684,2.013,1.639-2.025Z" transform="translate(62.186 -107.519)" fill="#2f393d"/>
            <path id="Path_679545" data-name="Path 679545" d="M133.83,188.7l1.428,6.718,3.7-1.782.878-2.7,5.141-3.151-.542-2.548Z" transform="translate(50.501 -124.113)" fill="#2f393d"/>
            <path id="Path_679546" data-name="Path 679546" d="M128.931,209.274l6.12,3.118.946-4-1.548-2.383.787-5.979-2.321-1.183Z" transform="translate(61.103 -133.232)" fill="#2f393d"/>
            <path id="Path_679547" data-name="Path 679547" d="M99.079,217.094l6.275-2.794-2.513-3.253-2.826-.3-4.151-4.374-2.38,1.06Z" transform="translate(103.444 -138.277)" fill="#2f393d"/>
            <path id="Path_679548" data-name="Path 679548" d="M87.785,201.074l1.778-6.634-4.11-.094-2.01,2.01-6.011.474-.674,2.516Z" transform="translate(124.753 -130.216)" fill="#2f393d"/>
            <path id="Path_679549" data-name="Path 679549" d="M91.6,164.685l-4.037-5.557-2.66,3.135.3,2.826-3.415,4.97,1.531,2.108Z" transform="translate(121.054 -106.62)" fill="#2f393d"/>
            <path id="Path_679550" data-name="Path 679550" d="M119.768,189.386a2.753,2.753,0,1,1-2.753-2.753,2.753,2.753,0,0,1,2.753,2.753" transform="translate(82.172 -125.048)" fill="#2f393d"/>
            <g id="Group_989295" data-name="Group 989295" transform="translate(36.874 2.104)" opacity="0.63" style="mix-blend-mode: screen;isolation: isolate">
              <g id="Group_989294" data-name="Group 989294">
                <g id="Group_989293" data-name="Group 989293" clip-path="url(#clip-path-18)">
                  <path id="Path_679551" data-name="Path 679551" d="M353.319,9.719c3.509-.556,7.059-.992,10.614-1.407.445-.051.894-.076,1.343-.107l1.344-.1c.9-.069,1.79-.146,2.687-.2,1.794-.121,3.585-.26,5.382-.366s3.59-.224,5.388-.317l5.395-.27,5.4-.212,1.35-.052,1.352-.037,2.7-.073,2.7-.073c.9-.023,1.8-.028,2.705-.044l5.411-.074,5.413,0c.9,0,1.8-.008,2.706.008l2.706.04c1.8.031,3.609.045,5.412.09l5.409.171c.9.06,1.8.107,2.7.177l2.691.222q2.69.226,5.372.469-2.709-.025-5.411-.068l-2.7-.046c-.9-.013-1.8,0-2.7-.006l-5.39-.17c-1.8-.045-3.6-.059-5.394-.09l-2.7-.04c-.9-.016-1.8,0-2.7-.008l-5.4,0L401.72,7.2c-.9.015-1.8.021-2.7.044l-2.7.073-2.7.073-1.348.037-1.346.052-5.386.211-5.379.269c-1.792.093-3.582.212-5.373.316s-3.577.244-5.365.365-3.57.28-5.355.419q-5.38.294-10.761.657" transform="translate(-353.319 -6.376)" fill="#2a718d"/>
                </g>
              </g>
            </g>
            <path id="Path_679552" data-name="Path 679552" d="M257.754,33.393,255,33.268l-4.615-.212s-32.2-16.244-39.756-17.463l7.391.049Z" transform="translate(-87.613 -10.448)" fill="#0c5961"/>
            <g id="Group_989298" data-name="Group 989298" transform="translate(127.813 5.177)" opacity="0.49" style="mix-blend-mode: screen;isolation: isolate">
              <g id="Group_989297" data-name="Group 989297" transform="translate(0)">
                <g id="Group_989296" data-name="Group 989296" clip-path="url(#clip-path-19)">
                  <path id="Path_679553" data-name="Path 679553" d="M252.761,33.5l-3.845-.174-38.58-17.637,2.594.017Z" transform="translate(-210.336 -15.688)" fill="#0c5961"/>
                </g>
              </g>
            </g>
            <path id="Path_679554" data-name="Path 679554" d="M27.04,120.537c-4.739-.625-11.136-1.492-13.514-1.815l-.3-.094,0-.743s7.191.765,12.913,1.473q.473.57.9,1.179" transform="translate(208.24 -78.986)" fill="#bfe1e8"/>
            <path id="Path_679555" data-name="Path 679555" d="M14.889,133.376l-5.956-.352L7.608,132c1.6.135,4.753.386,6.867.455.147.3.284.608.414.917" transform="translate(222.245 -88.446)" fill="#bfe1e8"/>
          </g>
        </g>
      </g>
    </g>
    <g id="Group_970855" data-name="Group 970855" transform="translate(376.091 4879.941)">
      <g id="Group_970780" data-name="Group 970780" transform="translate(25.363 0)">
        <g id="Group_970779" data-name="Group 970779" transform="translate(0 0)" clip-path="url(#clip-path-20)">
          <g id="Group_970778" data-name="Group 970778" transform="translate(0 0)">
            <g id="Group_970777" data-name="Group 970777" clip-path="url(#clip-path-20)">
              <path id="Path_661773" data-name="Path 661773" d="M439.072,64.213a13.342,13.342,0,0,0-6.491-.15l-.083-5.929s3.787.082,4.907-1.206,4.168-8.828,6.387-7.776S441.626,57.009,441.9,60.1c.223,2.528-.923,4.71-2.827,4.115" transform="translate(-291.125 -33.018)" fill="#edb47c"/>
              <path id="Path_661774" data-name="Path 661774" d="M367.408,61.564c-12.834-.835-27.268-3.612-33.077-3.612-.065.02-.942,11.715.971,11.985,8.385,1.192,31.958.363,31.958.363a45.177,45.177,0,0,0,.148-8.735" transform="translate(-224.874 -39.009)" fill="#182332"/>
              <path id="Path_661775" data-name="Path 661775" d="M210.781,59.487l41.529-1.15,1.713-11.546c-8.252-2.89-25.022-3.572-41.07-6.071Z" transform="translate(-141.882 -27.409)" fill="#182332"/>
              <path id="Path_661776" data-name="Path 661776" d="M443.613,75.778a13.341,13.341,0,0,0-6.491-.15l-.083-5.929s3.787.082,4.907-1.206,4.168-8.828,6.387-7.776-2.164,7.857-1.892,10.946c.223,2.528-.923,4.71-2.827,4.115" transform="translate(-294.182 -40.802)" fill="#edb47c"/>
              <path id="Path_661777" data-name="Path 661777" d="M371.95,73.129c-12.834-.835-27.268-3.613-33.077-3.613-.065.02-.942,11.716.971,11.985,8.385,1.192,31.958.363,31.958.363a45.182,45.182,0,0,0,.148-8.735" transform="translate(-227.931 -46.793)" fill="#212f42"/>
              <path id="Path_661778" data-name="Path 661778" d="M213.626,72.783l41.529-1.15,1.713-11.547c-8.252-2.89-28.018-2.731-44.066-5.23Z" transform="translate(-143.242 -36.926)" fill="#212f42"/>
              <path id="Path_661779" data-name="Path 661779" d="M128.539,58.457c6.078-3.026,4.355-22.723-.228-22.872-18.468-.6-27.78-2.606-36.308-1.4-4.923.695-8.686,1.6-10.176,5.292a17.366,17.366,0,0,0-.877,6.939,16.655,16.655,0,0,0,1.36,5.718c5.04,15.423,36.051,2.238,46.229,6.326" transform="translate(-54.473 -22.756)" fill="#108479"/>
              <g id="Group_970770" data-name="Group 970770" transform="translate(59.763 22.534)" style="mix-blend-mode: multiply;isolation: isolate">
                <g id="Group_970769" data-name="Group 970769" transform="translate(0)">
                  <g id="Group_970768" data-name="Group 970768" clip-path="url(#clip-path-22)">
                    <path id="Path_661780" data-name="Path 661780" d="M182.855,68.936a.191.191,0,0,1-.025.021c.009,0,.016,0,.025-.021" transform="translate(-182.83 -68.936)" fill="#f7e9d9"/>
                  </g>
                </g>
              </g>
              <path id="Path_661781" data-name="Path 661781" d="M181.359,88.865l18.56,2.248.376,4.057c-3.891.61-18.556,2.251-23.612,2.121Z" transform="translate(-118.93 -59.817)" fill="#edb47c"/>
              <path id="Path_661782" data-name="Path 661782" d="M136.282,85.4l-1.563-7.365-24.76-5.257S104.9,80.593,109,83.331c4.38,2.925,23.883,4.264,27.286,2.073" transform="translate(-72.29 -48.991)" fill="#edb47c"/>
              <path id="Path_661783" data-name="Path 661783" d="M103.351,85.45c1.147-4.665,2.5-8.807,1.809-12.81,0,0-17.254-5.1-19.613,1.3-3.94,10.682,17.8,11.514,17.8,11.514" transform="translate(-57.263 -47.598)" fill="#0d7268"/>
              <path id="Path_661784" data-name="Path 661784" d="M257.654,95.12c-.487-1.039-7.526-.057-8-.352-1.264-.786,1.719-.719.253-1.8-.586-.433-3.2,1.02-4.152.854l-.978,4.033c5.476,2.814,14.038-.255,12.878-2.732" transform="translate(-164.765 -62.523)" fill="#edb47c"/>
              <path id="Path_661785" data-name="Path 661785" d="M73.248,43.1c-.829.135-4.236-1.244-4.236-1.244L66.624,48.9c.35.1.724.193,1.107.289A19.847,19.847,0,0,1,71.5,51.1c3.906-.317,9.086-7.912,1.744-8" transform="translate(-44.846 -28.174)" fill="#edb47c"/>
              <path id="Path_661786" data-name="Path 661786" d="M18.563,21.756c5.948,2,9.389,7.731,7.684,12.8a8.48,8.48,0,0,1-2.458,3.672,9.872,9.872,0,0,1-2.8,1.722l-.013.005c-1.768.606-3.538-.176-4.639-.318a20.086,20.086,0,0,0,2.225,1,12.8,12.8,0,0,1-6.169-.528c-5.947-2-9.387-7.73-7.682-12.8s7.908-7.553,13.855-5.553" transform="translate(-2.876 -14.179)" fill="#873c29"/>
              <path id="Path_661787" data-name="Path 661787" d="M13.864,11.245S23.782,8.791,30.8,12.484c3.581,1.884,6.729,6.014,5.272,10.374-2.312,6.917-8.041,7.559-11.3,7.345-5.186-.34-10.339-1.483-13.065-3.031Z" transform="translate(-7.884 -7.031)" fill="#fdcb93"/>
              <path id="Path_661797" data-name="Path 661797" d="M34.89,66.492c-.381-1.444,1.425-2.383,1.425-2.383l4.571.637c-.89,3.915-5.65,3.055-6,1.745" transform="translate(-23.45 -43.153)" fill="#ffd0bd"/>
              <g id="Group_970776" data-name="Group 970776" transform="translate(12.3 22.235)" style="mix-blend-mode: multiply;isolation: isolate">
                <g id="Group_970775" data-name="Group 970775" transform="translate(0)">
                  <g id="Group_970774" data-name="Group 970774" clip-path="url(#clip-path-23)">
                    <path id="Path_661798" data-name="Path 661798" d="M37.65,68.833a.659.659,0,0,1,.4-.806.121.121,0,0,1,.085.227.274.274,0,0,0-.175.281.493.493,0,0,0,.195.289,1.169,1.169,0,0,0,.931.078,3.762,3.762,0,0,0,.859-.276c.29-.133.531-.348.817-.482a.3.3,0,0,1,.338.479,2.015,2.015,0,0,1-.58.367,4.411,4.411,0,0,1-.584.236,3.831,3.831,0,0,1-1.285.211c-.384-.012-.9-.181-1.006-.6" transform="translate(-37.629 -68.023)" fill="#f0d0cc"/>
                  </g>
                </g>
              </g>
              <path id="Path_661799" data-name="Path 661799" d="M10.586,4.01c.171-.068.363-.852.38-1.321,2.17,2.691.761,9.543-2.1,12.813.642.216,1.448-.459,1.916-.689A5.461,5.461,0,0,1,7.9,18.363a5.62,5.62,0,0,0,4.238.884c.03.728-2.563,1.392-2.958,1.1,1.069.9,3.77,1.75,6.163,1.9A14.7,14.7,0,0,1,4.354,21.221C.369,19.032-1.261,14.752,1.082,10.16A15.122,15.122,0,0,0,2.65,6.09a3.891,3.891,0,0,1,.324,1.337C3.238,7.4,4.053,3.8,3.421,1.491c0,0,0-.01,0-.014A3.107,3.107,0,0,0,2.772.19,4.531,4.531,0,0,1,6.3,1.257,2.07,2.07,0,0,0,6.079,0c2.309.6,4.41,1.384,4.507,4.01" transform="translate(0 0)" fill="#873c29"/>
              <g id="Group_970792" data-name="Group 970792" transform="matrix(-0.574, 0.819, -0.819, -0.574, 27.491, 9.953)">
                <path id="Path_661734" data-name="Path 661734" d="M.146,1.194A.751.751,0,0,1,1.351.3a.751.751,0,0,1-1.206.895" transform="translate(3.106 6.917)" fill="#2a2725"/>
                <path id="Path_661735" data-name="Path 661735" d="M3.3,0c-.205.042-.4.1-.6.163L2.652.176,2.641.257a1.941,1.941,0,0,1-.05.237c-.023.08-.047.159-.072.237S2.46.883,2.426.958a2.354,2.354,0,0,1-.108.219c-.039.071-.081.138-.126.206s-.1.13-.139.2-.1.125-.157.182-.108.119-.172.172l-.09.081-.023.02-.018.014-.052.04a2.016,2.016,0,0,1-.2.15l-.1.063c-.035.018-.069.036-.1.057a1.309,1.309,0,0,1-.214.1c-.037.012-.074.021-.112.034L.7,2.511a1.208,1.208,0,0,1-.235.006A1.025,1.025,0,0,1,0,2.344a.851.851,0,0,0,.422.346,1.066,1.066,0,0,0,.283.063l.147,0c.047,0,.1-.011.144-.017a1.58,1.58,0,0,0,.279-.073,1.513,1.513,0,0,0,.262-.12,2.133,2.133,0,0,0,.233-.142l.055-.036.032-.024.027-.022.108-.089a2.643,2.643,0,0,0,.2-.193c.064-.067.12-.144.18-.216a2.633,2.633,0,0,0,.154-.235,1.913,1.913,0,0,0,.125-.25,2.559,2.559,0,0,0,.1-.262,2.774,2.774,0,0,0,.066-.27A2.1,2.1,0,0,0,2.85.535,2.149,2.149,0,0,0,2.844.252l-.059.1C2.959.237,3.132.127,3.3,0" transform="translate(2.006 6.355)"/>
                <path id="Path_661736" data-name="Path 661736" d="M2.733,0a4.913,4.913,0,0,1,.16,2.413,7.607,7.607,0,0,1-2,1.746L0,3.218S2.081,1.924,2.348,1.3A6.225,6.225,0,0,0,2.733,0" transform="translate(4.511 8.308)" fill="#2a2725"/>
                <path id="Path_661740" data-name="Path 661740" d="M1.42,0l-.05,0A1.337,1.337,0,0,0,.061.954,1.291,1.291,0,0,0,.489,2.374a2.745,2.745,0,0,0,1.541.481,1.19,1.19,0,0,0,1-.382A1.547,1.547,0,0,0,2.919,1a1.7,1.7,0,0,0-1.5-1m.61,2.607a2.527,2.527,0,0,1-1.4-.436A1.039,1.039,0,0,1,.3,1.026,1.1,1.1,0,0,1,1.378.25l.042,0A1.493,1.493,0,0,1,2.7,1.115a1.356,1.356,0,0,1,.125,1.216.978.978,0,0,1-.795.275" transform="translate(0 0)" fill="#98633c"/>
              </g>
            </g>
          </g>
        </g>
      </g>
      <path id="Path_661849" data-name="Path 661849" d="M20.879,25.037l.943.726-.4-1.121ZM8.916,13.162,0,12.915l7.753,5.311L0,23.538l9.394-.26L6.244,32.131,13.691,26.4l2.655,9.015L19,26.4l1.877-1.363-3.093-2.381-1.439,4.886-1.439-4.886-4.035,3.107,1.707-4.8-5.091.141,4.2-2.879-4.2-2.878,5.57.154L8.365,8.176l6.509,5.737,1.473-5,1.476,5.007,5.145-4.559-3.093,6.136,5.331-.147L21,18.226l4.2,2.879-5.092-.141,1.308,3.678L23.3,23.278l9.394.26-7.753-5.312,7.753-5.311-9.154.253L30.176,0,18.968,9.931,16.347,1.038l-2.621,8.9L5.765,4.682Z" transform="translate(9.559 55.801) rotate(-107)" fill="#f6f6f6"/>
    </g>
  </g>
</svg>
