<svg xmlns="http://www.w3.org/2000/svg" xmlns:xlink="http://www.w3.org/1999/xlink" width="57" height="57" viewBox="0 0 57 57">
  <defs>
    <clipPath id="clip-path">
      <rect id="Rectangle_353172" data-name="Rectangle 353172" width="57" height="57" transform="translate(219 2414)" fill="#f88f05" stroke="#707070" stroke-width="1"/>
    </clipPath>
  </defs>
  <g id="_2" data-name="2" transform="translate(-219 -2414)" clip-path="url(#clip-path)">
    <g id="ley" transform="translate(219 2415.357)">
      <g id="Group_980271" data-name="Group 980271" transform="translate(0 0)">
        <g id="Group_980270" data-name="Group 980270">
          <g id="Group_980269" data-name="Group 980269">
            <g id="Group_980268" data-name="Group 980268">
              <path id="Path_674815" data-name="Path 674815" d="M54.317,49.693H53.7a8.636,8.636,0,0,1-.719-1.371.835.835,0,1,0-1.543.639c.1.249.219.493.34.732H19.021a2.672,2.672,0,0,0-.728.1,9.706,9.706,0,0,1-1.227-4.971c0-.364.016-.723.048-1.075h16a.835.835,0,1,0,0-1.67H17.817l1.962-2.125H51.77a10.423,10.423,0,0,0-.8,2.125H39.991a.835.835,0,0,0,0,1.67H50.674c-.033.339-.052.682-.053,1.027a.835.835,0,0,0,.832.839h0a.835.835,0,0,0,.835-.831,8.934,8.934,0,0,1,1.4-4.83h.623a2.682,2.682,0,0,0,0-5.365H43.88l9.563-9.563a2.874,2.874,0,0,0,0-4.065l-.21-.21a2.873,2.873,0,0,0-3.917-.137l-1.478-1.478.5-.5a2.359,2.359,0,0,0,.517-2.567l-.68-1.664a1.851,1.851,0,0,0-1.343-1.115l-1.161-1.161a.835.835,0,1,0-1.181,1.181l.571.571L31.9,27.037l-3.87-3.87L41.193,10.008l.512.512a.835.835,0,1,0,1.181-1.181l-1.1-1.1A1.851,1.851,0,0,0,40.67,6.894h0l-1.664-.68a2.36,2.36,0,0,0-2.567.517l-.5.5L34.457,5.755a2.873,2.873,0,0,0-.137-3.917l-.21-.21a2.875,2.875,0,0,0-4.065,0L19.654,12.019a2.874,2.874,0,0,0,0,4.065l.21.21a2.873,2.873,0,0,0,3.918.137l1.478,1.478-.5.5a2.359,2.359,0,0,0-.517,2.567l.68,1.664a1.85,1.85,0,0,0,1.324,1.11l-4.187,4.994a2.853,2.853,0,0,0-3.768,3.617l-1.9,1.753a.835.835,0,0,0,1.133,1.227l1.755-1.62,2.068,2.068L5.8,52.635a2.38,2.38,0,1,1-3.363-3.363l12.2-11.258A.835.835,0,1,0,13.5,36.787L1.3,48.045a4.05,4.05,0,0,0,2.744,7.026h.084a4.015,4.015,0,0,0,2.895-1.3l5-5.421a9.623,9.623,0,0,0,1.342,2.862,1.944,1.944,0,0,0,1.583.813h1.407a2.678,2.678,0,0,0,2.658,3.035h35.3a2.682,2.682,0,0,0,0-5.365ZM55.33,37.271a1.014,1.014,0,0,1-1.012,1.012h-33l1.388-1.5a2.854,2.854,0,0,0,2.848-.521H54.317a1.014,1.014,0,0,1,1.012,1.012ZM30.14,27.635l-4.835,4.053-1.922-1.922,4.053-4.835ZM26.5,34.589a2.867,2.867,0,0,0-.174-1.575l4.994-4.187a1.851,1.851,0,0,0,1.11,1.324l1.664.68a2.36,2.36,0,0,0,2.567-.517l.5-.5,1.478,1.478a2.88,2.88,0,0,0-.332,3.3H26.5Zm24.7-13.01a1.2,1.2,0,0,1,.852.353l.21.21a1.2,1.2,0,0,1,0,1.7L41.871,34.236a1.2,1.2,0,0,1-1.7,0l-.21-.21a1.206,1.206,0,0,1,0-1.7L50.349,21.931a1.2,1.2,0,0,1,.852-.353Zm-3.071.211L39.815,30.1,38.343,28.63l8.314-8.314ZM33,28.3,46.33,14.973a.176.176,0,0,1,.128-.055.2.2,0,0,1,.04,0,.178.178,0,0,1,.135.111l.68,1.664a.693.693,0,0,1-.152.754L35.478,29.133a.693.693,0,0,1-.754.152l-1.664-.68A.185.185,0,0,1,33,28.3ZM21.9,15.466a1.2,1.2,0,0,1-.852-.353l-.21-.21a1.2,1.2,0,0,1,0-1.7L31.226,2.809a1.2,1.2,0,0,1,1.7,0l.21.21a1.2,1.2,0,0,1,0,1.7L22.749,15.114a1.2,1.2,0,0,1-.852.353Zm3.071-.211,8.314-8.314,1.473,1.473-8.314,8.314Zm.969,4.337L37.62,7.911a.693.693,0,0,1,.754-.152l1.664.68a.185.185,0,0,1,.061.3L26.768,22.072a.185.185,0,0,1-.3-.061l-.68-1.664a.693.693,0,0,1,.152-.754ZM19.786,31.381a1.181,1.181,0,0,1,2.016-.835l2.723,2.723a1.181,1.181,0,0,1-1.67,1.67l-2.723-2.723a1.173,1.173,0,0,1-.346-.835ZM14.733,50.241A8.424,8.424,0,0,1,13.4,46.867l2-2.168c0,.041,0,.082,0,.124a11.585,11.585,0,0,0,1.3,5.529H14.956A.272.272,0,0,1,14.733,50.241Zm39.584,3.146h-35.3a1.012,1.012,0,1,1,0-2.025h35.3a1.012,1.012,0,1,1,0,2.025Z" transform="translate(0 -0.786)" fill="#f88f05"/>
              <path id="Path_674816" data-name="Path 674816" d="M13.876,26.888a.835.835,0,1,0,0,1.67H33.328a.835.835,0,1,0,0-1.67Z" transform="translate(9.484 18.197)" fill="#f88f05"/>
            </g>
          </g>
        </g>
      </g>
    </g>
  </g>
</svg>
