<svg xmlns="http://www.w3.org/2000/svg" width="76.999" height="76.999" viewBox="0 0 76.999 76.999">
  <g id="_20" data-name="20" transform="translate(-331 -1539)">
    <circle id="Ellipse_4724" data-name="Ellipse 4724" cx="38.5" cy="38.5" r="38.5" transform="translate(331 1539)" fill="#ff8a00"/>
    <g id="outline" transform="translate(327 1518.083)">
      <path id="Path_679583" data-name="Path 679583" d="M308.734,136.064a.948.948,0,1,0,.947.947.948.948,0,0,0-.947-.947Z" transform="translate(-259.22 -88.97)"/>
      <path id="Path_679584" data-name="Path 679584" d="M194.779,172.936a4.141,4.141,0,1,0,4.141,4.141A4.142,4.142,0,0,0,194.779,172.936Zm0,6.5a2.356,2.356,0,1,1,2.356-2.356A2.356,2.356,0,0,1,194.779,179.433Z" transform="translate(-155.146 -121.726)"/>
      <path id="Path_679585" data-name="Path 679585" d="M58.863,60.813a.891.891,0,0,0,.071-.35V51.02a.893.893,0,0,0-.893-.893H53.71a.9.9,0,0,0-.1.006l-.025,0-.067.011V45.165a4.4,4.4,0,0,0,2.8-3.085l.055-.22a4.283,4.283,0,0,0-.59-3.409l-.027-.041a4.4,4.4,0,0,0-4.533-1.882l-2.481.5a5.577,5.577,0,0,1-1.092.108h-.573a3.159,3.159,0,0,1-1.405-.332l-.277-.138a7.062,7.062,0,0,0-10.207,5.884,19.939,19.939,0,0,0-2.553.15L19.1,51.723a6.963,6.963,0,0,0,0,11.587l13.142,8.761V84.588a.893.893,0,0,0,.893.893H56.093a3.136,3.136,0,0,0,3.1-2.7L61.42,66.417a5.761,5.761,0,0,0-2.557-5.6ZM43.124,67.225A.909.909,0,0,0,43,67.184l-2.679-.67-.536-1.608h4.175a.893.893,0,0,0,.866-.676l.914-3.655H46.1A1.307,1.307,0,0,1,47.4,61.88v3.206Zm-9.1-4.1V52.237l1.861-1.628a.891.891,0,0,0,.282-.862H41.8a.893.893,0,0,0,.893-.893v-.19h1.463V59.573l-.887,3.549H34.028Zm-1.786-3.8-4.015-2.008L32.242,53.8ZM38.4,44.333l2.5.834v2.795H35.584l-1.21-3.629ZM52.817,58.776l-2.546-1.732V53.737l2.546-1.272Zm-4.983.549a3.073,3.073,0,0,0-1.737-.536H45.94V58.41h2.2Zm.651-2.7H45.94V54.078h2.546Zm.682-4.331H45.94V47.771a.893.893,0,0,0-.893-.893H42.691v-3.2l1.189.475a17.6,17.6,0,0,0,6.565,1.264h1.289v5.594Zm.684,6.627,1.4.953H49.535Zm7.3.652H54.6V51.913h2.546ZM39.314,38.589A5.29,5.29,0,0,1,44.6,38.26l.277.138a4.954,4.954,0,0,0,2.2.52h.573a7.364,7.364,0,0,0,1.441-.143l2.483-.5a2.616,2.616,0,0,1,2.7,1.122l.027.041a2.494,2.494,0,0,1,.344,1.985l-.055.22a2.615,2.615,0,0,1-2.54,1.983H50.445a15.823,15.823,0,0,1-5.9-1.137l-2.413-.965a.893.893,0,0,0-1.224.829v.926l-2.073-.691a.893.893,0,0,0-.282-.046H36.983A5.3,5.3,0,0,1,39.314,38.589ZM33.631,70.851l-13.54-9.027a5.177,5.177,0,0,1,0-8.615l12.567-8.378,1.608,4.825-8.216,7.189a.893.893,0,0,0,.189,1.471l6,3v2.7a.893.893,0,0,0,.893.893h4.771l.879,2.638a.893.893,0,0,0,.63.584L42.1,68.8,48.06,83.7H34.028v-12.1a.893.893,0,0,0-.4-.743Zm26.02-4.675L57.419,82.537A1.344,1.344,0,0,1,56.093,83.7h-6.11L44.015,68.776l4.921-2.46,3.3,7.578a.893.893,0,0,0,1.708-.277l.655-7.359A.893.893,0,0,0,52.82,66.1l-.345,3.873L50.2,64.74a.89.89,0,0,0-1.009-.515s0-2.494-.009-2.567h6.528a3.98,3.98,0,0,1,3.943,4.517Z"/>
      <path id="Path_679586" data-name="Path 679586" d="M374.979,105.914v2.165a.893.893,0,1,0,1.786,0v-2.165a.893.893,0,1,0-1.786,0Z" transform="translate(-318.914 -61.391)"/>
      <path id="Path_679587" data-name="Path 679587" d="M431.387,257.188a.893.893,0,0,0-1.263,1.263l1.531,1.531a.893.893,0,0,0,1.263-1.263Z" transform="translate(-367.672 -196.343)"/>
      <path id="Path_679588" data-name="Path 679588" d="M455.658,202.042h-2.165a.893.893,0,1,0,0,1.786h2.165a.893.893,0,0,0,0-1.786Z" transform="translate(-387.871 -147.584)"/>
      <path id="Path_679589" data-name="Path 679589" d="M430.755,136.759a.89.89,0,0,0,.631-.262l1.531-1.531a.893.893,0,1,0-1.263-1.263l-1.531,1.531a.893.893,0,0,0,.631,1.524Z" transform="translate(-367.672 -86.641)"/>
    </g>
  </g>
</svg>
