<svg xmlns="http://www.w3.org/2000/svg" width="76.999" height="76.999" viewBox="0 0 76.999 76.999">
  <g id="_22" data-name="22" transform="translate(-331 -1539)">
    <circle id="Ellipse_4724" data-name="Ellipse 4724" cx="38.5" cy="38.5" r="38.5" transform="translate(331 1539)" fill="#ff8a00"/>
    <g id="fotografo_3_" data-name="fotografo (3)" transform="translate(344.956 1552.622)">
      <path id="Path_679592" data-name="Path 679592" d="M3.231,56.583h9.239a2.217,2.217,0,0,0,1.386-3.949L11.2,50.493l.47-2.71,2.725.908a.662.662,0,0,0,.246,0,.847.847,0,0,0,.308-.062L21.369,45.8a.77.77,0,0,0,.454-.939l-.77-2.14a.736.736,0,0,0-1-.447l-5.389,2.04-2.24-.839a3.618,3.618,0,0,0-.916-2.6,2.895,2.895,0,1,0-2.772-1.232A3.6,3.6,0,0,0,5.3,42.44L3.893,48.6A3.572,3.572,0,0,0,5.125,52.21H3.231a2.2,2.2,0,0,0,0,4.4Zm7.814-19.971a1.37,1.37,0,1,1-1.37,1.37A1.37,1.37,0,0,1,11.045,36.612ZM3.231,53.719H8.22a.77.77,0,0,0,.339-1.463l-2.086-1a2.109,2.109,0,0,1-1.124-2.371l1.417-6.121a2.071,2.071,0,0,1,2.025-1.578,2.31,2.31,0,0,1,.47.046,2.086,2.086,0,0,1,1.54,1.624l-1.617-.608-.539,1.447L14.371,45.8a.808.808,0,0,0,.539,0l4.95-1.863.239.716-5.5,2.448-6.159-2.04-.477,1.509,2.21.77L9.59,50.732a.77.77,0,0,0,.277.77l3.018,2.41a.677.677,0,0,1-.408,1.132H3.238a.654.654,0,0,1-.662-.662.662.662,0,0,1,.654-.662Z" transform="translate(0 -7.85)"/>
      <path id="Path_679593" data-name="Path 679593" d="M20.77,40.239h4.619a.77.77,0,0,0,.77-.77V38.406l1.963.978a.766.766,0,0,0,1.116-.685V32.54a.77.77,0,0,0-1.116-.685l-1.963.978V31.77a.77.77,0,0,0-.77-.77H20.77a.77.77,0,0,0-.77.77v7.7A.77.77,0,0,0,20.77,40.239Zm5.389-5.682,1.54-.77v3.665l-1.54-.77ZM21.54,32.54h3.08V38.7H21.54Z" transform="translate(-4.336 -6.904)"/>
      <path id="Path_679594" data-name="Path 679594" d="M36,35.96h4.619V37.5H36Z" transform="translate(-8.018 -8.045)"/>
      <path id="Path_679595" data-name="Path 679595" d="M0,0H1.54V4.488H0Z" transform="matrix(0.515, -0.857, 0.857, 0.515, 26.044, 32.473)"/>
      <path id="Path_679596" data-name="Path 679596" d="M0,0H4.488V1.54H0Z" transform="matrix(0.857, -0.515, 0.515, 0.857, 26.425, 24.573)"/>
      <path id="Path_679597" data-name="Path 679597" d="M39.017,15.628V1.77a.77.77,0,0,0-.77-.77H19.77a.77.77,0,0,0-.77.77V15.628a.77.77,0,0,0,.77.77H38.247A.77.77,0,0,0,39.017,15.628Zm-6.159-.77h-7.7V13.21a1.725,1.725,0,0,1,1.8-1.624h4.1a1.725,1.725,0,0,1,1.794,1.624Zm4.619,0H34.4V13.21a3.264,3.264,0,0,0-3.334-3.164H30.1a3.464,3.464,0,1,0-2.186,0h-.955a3.264,3.264,0,0,0-3.341,3.164v1.648H20.54V2.54H37.477ZM29.008,8.7a1.925,1.925,0,1,1,1.925-1.925A1.925,1.925,0,0,1,29.008,8.7Z" transform="translate(-4.106)"/>
      <path id="Path_679598" data-name="Path 679598" d="M5,33H6.54v3.08H5Z" transform="translate(-0.884 -7.364)"/>
      <path id="Path_679599" data-name="Path 679599" d="M5,26H6.54v3.08H5Z" transform="translate(-0.884 -5.753)"/>
      <path id="Path_679600" data-name="Path 679600" d="M13,18h3.08v1.54H13Z" transform="translate(-2.725 -3.912)"/>
      <path id="Path_679601" data-name="Path 679601" d="M6.54,19.54h2.31V18H5.77a.77.77,0,0,0-.77.77v3.08H6.54Z" transform="translate(-0.884 -3.912)"/>
      <path id="Path_679602" data-name="Path 679602" d="M58.858,34.163a4.29,4.29,0,0,0-4.619-4.234h-.085a3.849,3.849,0,1,0-4.619,0A4.266,4.266,0,0,0,45,34.163v8.084a.77.77,0,0,0,.77.77h1.54V53.025a.77.77,0,0,0,.77.77h7.7a.77.77,0,0,0,.77-.77V43.017h1.54a.77.77,0,0,0,.77-.77ZM49.55,26.849a2.31,2.31,0,1,1,2.31,2.31,2.31,2.31,0,0,1-2.31-2.31Zm2.725,9.085-.346.708-.346-.708.346-1.6Zm5.043,5.543h-.77V36.858h-1.54v15.4H52.7V43.787h-1.54v8.469h-2.31v-15.4H47.31v4.619h-.77V34.163a2.8,2.8,0,0,1,3.08-2.695h1.355l-.955,4.4a.77.77,0,0,0,.062.5l1.155,2.371a.77.77,0,0,0,1.386,0l1.155-2.371a.77.77,0,0,0,.062-.5l-.955-4.4h1.355a2.8,2.8,0,0,1,3.08,2.695Z" transform="translate(-10.089 -5.063)"/>
    </g>
  </g>
</svg>
