<svg xmlns="http://www.w3.org/2000/svg" xmlns:xlink="http://www.w3.org/1999/xlink" width="439.153" height="530" viewBox="0 0 439.153 530">
  <defs>
    <clipPath id="clip-path">
      <path id="Path_667319" data-name="Path 667319" d="M259.723,787.018H636.808c1.2-35.628.141-243.155-.63-279.256-2.022-17.016,53.983-40.4,37.16-115.8s-98.752-90.634-100.97-92.542c-1.315-1.159-2.058-1.412-3.451-2.5a155.256,155.256,0,0,0-17.233-12.141c-.452-.3-.922-.582-1.394-.846q-4.357-2.612-8.891-4.994-5.476-2.859-11.207-5.356c-5.378-2.355-10.933-4.463-16.585-6.319a187.61,187.61,0,0,0-20.138-5.376c-41.925-8.739-87.343-3.631-125.95,12.674-3.023,1.277-5.986,2.621-8.931,4.045a175.233,175.233,0,0,0-20.9,11.793c-3.219,2.125-6.359,4.331-9.343,6.669-.059.033-.1.081-.157.114a145.684,145.684,0,0,0-24.829,24.384c-.53.629-1.021,1.275-1.531,1.924-.687.877-1.354,1.756-1.982,2.637-7.164,9.537-19.024,16.073-23.872,26.755-2.218,4.843-4.1,15.979-5.866,20.988-3.082,8.593-9.858,35.639-11.821,44.512-.452,1.941-6.577-3.707-6.95-1.765-1.825,9.189-17.01,36.2-13.455,48.985s23.037,11.561,22.747,16.39c-1.707,28.465.506,21.566,0,50.949C260.469,541.683,260.213,778.408,259.723,787.018Z" transform="translate(-237.341 -257.663)" fill="none" stroke="#707070" stroke-width="1"/>
    </clipPath>
  </defs>
  <g id="_31" data-name="31" transform="translate(-938.619 -9079.246)">
    <path id="Path_667229" data-name="Path 667229" d="M276.575,787.018H653.66c1.2-35.628.078-299.141-4.122-334.52q-3.032-25.524-8.263-50.935c-4.495-21.678-10.187-43.539-20.982-63.478-.9-1.675-1.845-3.35-2.826-4.992-1.668-2.8-3.454-5.571-5.358-8.277a132.823,132.823,0,0,0-13.72-16.487c-.726-.728-1.433-1.425-2.139-2.121-2.061-2.009-4.181-3.966-6.4-5.873-1.315-1.159-2.689-2.322-4.083-3.415a155.245,155.245,0,0,0-17.233-12.141c-.451-.3-.922-.582-1.394-.846q-4.357-2.612-8.891-4.994-5.476-2.859-11.207-5.356c-5.378-2.355-10.933-4.463-16.585-6.319a187.618,187.618,0,0,0-20.138-5.376c-41.925-8.739-87.343-3.631-125.95,12.674-3.023,1.277-5.986,2.621-8.931,4.045a175.233,175.233,0,0,0-20.9,11.793c-3.219,2.125-6.359,4.331-9.343,6.669-.059.033-.1.081-.157.114a145.684,145.684,0,0,0-24.829,24.384c-.53.629-1.021,1.275-1.531,1.924-.687.877-1.354,1.756-1.982,2.637a162.336,162.336,0,0,0-17.94,30.484q-3.327,7.265-5.986,14.8a216.049,216.049,0,0,0-7.557,26.256c-.452,1.941-.844,3.881-1.217,5.823a273.189,273.189,0,0,0-3.984,27.6c-3.042,32.727-1.943,67.691-2.532,101.857C277.321,541.683,277.066,778.408,276.575,787.018Z" transform="translate(699.425 8822.229)" fill="#fee0bc"/>
    <g id="Group_978420" data-name="Group 978420" transform="translate(938.619 9079.245)">
      <g id="Mask_Group_970812" data-name="Mask Group 970812" transform="translate(0 0)" clip-path="url(#clip-path)">
        <g id="Group_978417" data-name="Group 978417" transform="translate(1.333 22.9)">
          <g id="Sign" transform="translate(217.294 26.891)">
            <g id="Group_978173" data-name="Group 978173" transform="translate(0 0)">
              <g id="Group_978170" data-name="Group 978170" transform="translate(105.226 186.213)">
                <g id="Group_978169" data-name="Group 978169" transform="translate(0 0)">
                  <rect id="Rectangle_352461" data-name="Rectangle 352461" width="17.157" height="457.551" fill="#afafaf"/>
                </g>
              </g>
              <g id="Group_978172" data-name="Group 978172" transform="translate(0 0)">
                <ellipse id="Ellipse_4822" data-name="Ellipse 4822" cx="108.315" cy="108.315" rx="108.315" ry="108.315" fill="#ffd817"/>
                <g id="Ellipse_4823" data-name="Ellipse 4823" transform="translate(11.952 11.952)" fill="none" stroke="#000" stroke-width="6">
                  <ellipse cx="96.363" cy="96.363" rx="96.363" ry="96.363" stroke="none"/>
                  <ellipse cx="96.363" cy="96.363" rx="93.363" ry="93.363" fill="none"/>
                </g>
                <g id="accidente-automovilistico" transform="translate(47.533 60.906)">
                  <g id="Group_978423" data-name="Group 978423" transform="translate(1.781 26.777)">
                    <path id="Path_667322" data-name="Path 667322" d="M466.775,169.1v24.79l7.345,1.118a.949.949,0,0,0,.95-.95l.663-24.958Z" transform="translate(-466.775 -169.102)" fill="#f2f2f0"/>
                    <path id="Path_667323" data-name="Path 667323" d="M354.631,169.1l-.483,25.071a.949.949,0,0,0,.95.95l15.447-.11a4.75,4.75,0,0,0,4.224-6.921L364.178,169.1Z" transform="translate(-339.601 -169.102)" fill="#f2f2f0"/>
                    <path id="Path_667324" data-name="Path 667324" d="M163.968,282.054s2.156,2.134-1.967,6.257-7.664,4.737-7.664,4.737l-9.665-1.419-.7-1.024a6.841,6.841,0,0,1,1.758-8.994l1.574-1.181L153,282.2Z" transform="translate(-78.698 -253.998)" fill="#7e7d89"/>
                    <path id="Path_667325" data-name="Path 667325" d="M27.866,208.875c2.337-2.9,6.425-5.148,10.233-6.567v17.126l-9.169,2.331-9.578-2.331Z" transform="translate(77.09 -194.424)" fill="#f2f2f0"/>
                    <path id="Path_667326" data-name="Path 667326" d="M7.5,200.555v15.931l5.645-4.987V198.442A35.514,35.514,0,0,0,7.5,200.555Z" transform="translate(104.855 -191.476)" fill="#e4e5e1"/>
                    <path id="Path_667327" data-name="Path 667327" d="M11.121,290.786v10.143a2.475,2.475,0,0,0,2.44,2.51H43.233L72.3,296.195l.223-11.389.3-15.084-3.214-1.47-3.426,1.47h-.579l-3.3.855-1.653-.855-10.721.271a.244.244,0,0,1-.148.085L39.2,271.683c.009.154.014.311.014.463a7.2,7.2,0,0,1-5.169,6.964l-9.548,2.683-9.825,6.539-1.2.045a2.378,2.378,0,0,0-2.346,2.41Z" transform="translate(44.319 -244.711)" fill="#08568c"/>
                    <path id="Path_667328" data-name="Path 667328" d="M7.5,269.294v26.473l2.822,2.27,2.822-2.27V269.294l-2.683-1.6Z" transform="translate(104.853 -244.283)" fill="#0f466c"/>
                    <path id="Path_667329" data-name="Path 667329" d="M312.772,193.892v5.734l1.628,1.781-1.628,1.781v17.007l24.667,2.8,20.856-2.8V209.726a2.51,2.51,0,0,0-.468-1.46l-4.271-5.959a2.511,2.511,0,0,1-.413-1.985l1.562-7.287a9.49,9.49,0,0,0-.874-6.4L344.642,169.1h-7.294l9.193,17.869a4.75,4.75,0,0,1-4.224,6.921H328.751a.949.949,0,0,1-.95-.95V169.1h-7.515v23.84a.949.949,0,0,1-.95.95Z" transform="translate(-312.772 -169.102)" fill="silver"/>
                    <path id="Path_667330" data-name="Path 667330" d="M317.272,200.322a2.511,2.511,0,0,0,.413,1.985l4.271,5.959a2.51,2.51,0,0,1,.468,1.46V220.2l2.658,2.8,2.565-2.8V209.727a2.509,2.509,0,0,0-.12-.767c-.079-.246-1.545-.739-1.7-.952l-3.788-5.531c-.2-.273.534-.749.46-1.069a2.511,2.511,0,0,1-.008-1.085l1.562-7.287a9.49,9.49,0,0,0-.874-6.4L314,169.1h-5.223l9.189,17.534a9.49,9.49,0,0,1,.874,6.4Z" transform="translate(-281.176 -169.103)" fill="#a3a3a3"/>
                    <path id="Path_667331" data-name="Path 667331" d="M300.376,384.287h41.249l5.964,1a1.253,1.253,0,0,1,1.252,1.252l-.089,3.551a1.253,1.253,0,0,1-1.252,1.252l-5.875.461H300.851a.475.475,0,0,1-.475-.475Z" transform="translate(-300.376 -333.196)" fill="silver"/>
                    <path id="Path_667332" data-name="Path 667332" d="M296.112,384.292v7.515h6.978a1.253,1.253,0,0,0,1.251-1.254v-5.01a1.251,1.251,0,0,0-1.251-1.251Z" transform="translate(-254.864 -333.2)" fill="#a3a3a3"/>
                    <path id="Path_667333" data-name="Path 667333" d="M324.921,305.162h5.033c1.24,2.543,2.418,5.07,3.741,7.515h-5.728a3.759,3.759,0,0,1-3.759-3.759v-3.044A.713.713,0,0,1,324.921,305.162Z" transform="translate(-290.887 -272.857)" fill="#fc7a86"/>
                    <path id="Path_667334" data-name="Path 667334" d="M309.342,305.162a2.52,2.52,0,0,0,.4.9l4.271,5.959a2.4,2.4,0,0,1,.332.655h5.223s0-.007,0-.01a2.408,2.408,0,0,0-.33-.646l-4.271-5.959a2.52,2.52,0,0,1-.4-.9Z" transform="translate(-273.236 -272.857)" fill="#fe646f"/>
                    <path id="Path_667335" data-name="Path 667335" d="M213.082,330.676h6.591a4.749,4.749,0,0,0,4.749-4.749v-1.835l-5.473-.366a2.134,2.134,0,0,0-2.161,1.429l-1.315,3.773a2.516,2.516,0,0,1-2.391,1.747Z" transform="translate(-155.23 -287.011)" fill="#ffd15b"/>
                    <g id="Group_978421" data-name="Group 978421" transform="translate(7.489 43.665)">
                      <path id="Path_667336" data-name="Path 667336" d="M381.471,364.308a11.313,11.313,0,0,0,.331,2.716c2.745,4.639,5.83,7.573,11.133,7.573,6.24,0,10.258-4.34,10.258-10.58a9.686,9.686,0,0,0-5.765-9.3,5.8,5.8,0,0,1-1.288-1.2,11.3,11.3,0,0,0-14.669,10.784Z" transform="translate(-381.471 -353.01)" fill="#7e7d89"/>
                      <path id="Path_667337" data-name="Path 667337" d="M377.787,368.672a11.3,11.3,0,1,0,14.338-13.5,11.307,11.307,0,0,1-14.338,13.5Z" transform="translate(-377.456 -354.659)" fill="#717182"/>
                      <path id="Path_667338" data-name="Path 667338" d="M411.118,388.5a3.749,3.749,0,0,0,.75,2.255,8.511,8.511,0,0,0,3.016.927,3.218,3.218,0,0,0,3.385-3.474,3.525,3.525,0,0,0-.952-2.581,3.765,3.765,0,0,0-6.2,2.873Z" transform="translate(-403.586 -377.2)" fill="#f2f2f0"/>
                      <path id="Path_667339" data-name="Path 667339" d="M409.517,393.621a3.765,3.765,0,1,0,5.449-5.128A11.3,11.3,0,0,1,409.517,393.621Z" transform="translate(-401.234 -380.068)" fill="#e4e5e1"/>
                    </g>
                    <path id="Path_667340" data-name="Path 667340" d="M10.461,255.892h7.711v-4.986a2.137,2.137,0,0,0-2.137-2.137H13.785a4.763,4.763,0,0,0-4.749,4.749v.95A1.425,1.425,0,0,0,10.461,255.892Z" transform="translate(99.466 -229.854)" fill="#08568c"/>
                    <path id="Path_667341" data-name="Path 667341" d="M9.5,385.942v7.244H34.3l4.479-.583a.7.7,0,0,0,.693-.712l-.255-5.949Z" transform="translate(78.057 -334.458)" fill="#0f466c"/>
                    <path id="Path_667342" data-name="Path 667342" d="M7.5,385.942v7.244h4.952a.7.7,0,0,0,.693-.712v-6.532Z" transform="translate(104.853 -334.458)" fill="#08568c"/>
                    <g id="Group_978422" data-name="Group 978422" transform="translate(72.441 43.665)">
                      <path id="Path_667343" data-name="Path 667343" d="M107.906,364.308a11.313,11.313,0,0,0,.331,2.716c2.745,4.639,5.83,7.573,11.133,7.573,6.24,0,10.258-4.34,10.258-10.58a9.686,9.686,0,0,0-5.765-9.3,5.8,5.8,0,0,1-1.288-1.2,11.3,11.3,0,0,0-14.669,10.784Z" transform="translate(-107.906 -353.01)" fill="#7e7d89"/>
                      <path id="Path_667344" data-name="Path 667344" d="M104.222,368.672a11.3,11.3,0,1,0,14.338-13.5,11.307,11.307,0,0,1-14.338,13.5Z" transform="translate(-103.891 -354.659)" fill="#717182"/>
                      <path id="Path_667345" data-name="Path 667345" d="M137.553,388.5a3.749,3.749,0,0,0,.75,2.255,8.511,8.511,0,0,0,3.016.927,3.218,3.218,0,0,0,3.385-3.474,3.525,3.525,0,0,0-.952-2.581,3.765,3.765,0,0,0-6.2,2.873Z" transform="translate(-130.021 -377.2)" fill="#f2f2f0"/>
                      <path id="Path_667346" data-name="Path 667346" d="M135.952,393.621a3.765,3.765,0,1,0,5.449-5.128A11.3,11.3,0,0,1,135.952,393.621Z" transform="translate(-127.67 -380.068)" fill="#e4e5e1"/>
                    </g>
                  </g>
                  <g id="Group_978424" data-name="Group 978424">
                    <path id="Path_667347" data-name="Path 667347" d="M290.389,186.393h5.734V165.166h-5.734a1.781,1.781,0,1,1,0-3.561h37.991a1.781,1.781,0,1,1,0,3.561h-2.226l7.821,14.925a11.3,11.3,0,0,1,1.038,7.6l-1.563,7.288a.725.725,0,0,0,.119.573l4.271,5.96a4.209,4.209,0,0,1,.8,2.5V212.7a3.036,3.036,0,0,1,3.006,3.032v5.01a3.037,3.037,0,0,1-3.033,3.033H320.993a13.048,13.048,0,0,1-23.633,0h-6.971a1.781,1.781,0,1,1,0-3.561h5.884a13.11,13.11,0,0,1-.15-1.977,12.887,12.887,0,0,1,.156-1.977h-5.89a1.781,1.781,0,1,1,0-3.561h6.984a13.1,13.1,0,0,1,9.022-7.218,1.781,1.781,0,1,1,.755,3.48,9.492,9.492,0,1,0,6.807,1.074,1.781,1.781,0,1,1,1.8-3.074,13.093,13.093,0,0,1,5.231,5.738h14.094v-7.711h-7.613a5.545,5.545,0,0,1-5.538-5.538v-3.757a1.781,1.781,0,0,1,1.781-1.781h6.326l1.493-6.964a7.73,7.73,0,0,0-.71-5.2l-8.688-16.578h-4.248l7.857,15.272a6.53,6.53,0,0,1-5.806,9.517H305.419a1.781,1.781,0,0,1-1.781-1.781V181.54a1.781,1.781,0,1,1,3.561,0v4.853h12.736a2.968,2.968,0,0,0,2.639-4.326l-8.7-16.9H307.2v8.064a1.781,1.781,0,1,1-3.561,0v-8.064h-3.953v23.008a1.781,1.781,0,0,1-1.781,1.781h-7.515a1.781,1.781,0,0,1,0-3.562Zm31.691,33.817h16.007v-3.953H322.076a12.927,12.927,0,0,1,.154,1.977A13.142,13.142,0,0,1,322.08,220.211Zm3.411-20.764a1.979,1.979,0,0,0,1.977,1.977h5.927c-.083-.132-2.69-3.722-2.821-3.953h-5.082Z" transform="translate(-288.608 -136.608)"/>
                    <path id="Path_667348" data-name="Path 667348" d="M480.847,297.659h4.259a1.781,1.781,0,1,1,0,3.561h-4.259a1.781,1.781,0,1,1,0-3.561Z" transform="translate(-479.066 -240.359)"/>
                    <path id="Path_667349" data-name="Path 667349" d="M220.958,377.233h3.4a1.781,1.781,0,1,1,0,3.561h-3.4a1.781,1.781,0,1,1,0-3.561Z" transform="translate(-156.614 -301.04)"/>
                    <path id="Path_667350" data-name="Path 667350" d="M4.008,227.646a1.781,1.781,0,0,1,.182-.009.727.727,0,0,0,.7-.508c.008-.027,1.281-3.676,1.33-3.817a3.924,3.924,0,0,1,2.856-2.532,8.6,8.6,0,0,1,3.228-8.838l.926-.695-3.856-4.03a.6.6,0,0,0-.772-.074l-4.482,3.175a1.781,1.781,0,1,1-2.059-2.906l4.482-3.175a4.18,4.18,0,0,1,5.4.518l5.517,5.766a5.358,5.358,0,0,0,4.594,1.6c4.978-.661,16.021-2.279,20.96-3.018l8.321-10.034A24.559,24.559,0,0,1,63.876,191a1.781,1.781,0,1,1,.932,3.437,21.017,21.017,0,0,0-10.732,6.9l-6.337,7.642H53.48a6.538,6.538,0,0,1,6.474-5.7h2.251a3.922,3.922,0,0,1,3.918,3.918v2.849a3.922,3.922,0,0,1-3.918,3.918H56.63a3.18,3.18,0,0,1-1.657-.467l-3.814,3.781a2.987,2.987,0,0,0-.878,2.108v16.065H64.342a1.781,1.781,0,0,1,0,3.561h-21.3a13.057,13.057,0,0,1-.038,3.684h5.98a1.781,1.781,0,1,1,0,3.561H41.92a13.073,13.073,0,0,1-23.682,0H4.29A4.3,4.3,0,0,1,0,241.971V231.828a4.193,4.193,0,0,1,4.009-4.182Zm9.743-3.145-3.813-.255a.36.36,0,0,0-.36.238l-1.1,3.153h2.3a2.971,2.971,0,0,0,2.968-2.968Zm7.576-8.77a8.94,8.94,0,0,1-5.554-1.942l-1.336,1a5.043,5.043,0,0,0-1.591,6.08l2.505.168,9.53-2.606a5.459,5.459,0,0,0,3.752-3.631l-6.092.845A8.842,8.842,0,0,1,21.327,215.731Zm41.234-5.68V207.2a.357.357,0,0,0-.356-.356H59.954a2.971,2.971,0,0,0-2.968,2.968v.594h5.218A.357.357,0,0,0,62.561,210.051Zm-59,31.92a.731.731,0,0,0,.73.73H17.151a13.092,13.092,0,0,1,5.258-12.579A1.781,1.781,0,0,1,24.5,233a9.517,9.517,0,1,0,6.682-1.743,1.781,1.781,0,0,1,.407-3.538,13.059,13.059,0,0,1,10.469,7.732h4.661V219.39a6.572,6.572,0,0,1,1.933-4.637l2.229-2.209h-6.8l-11.7,1.726a9.041,9.041,0,0,1-6.559,7.6l-8.508,2.326v.475a6.537,6.537,0,0,1-6.529,6.529H4.191a.631.631,0,0,0-.63.63v10.142Z" transform="translate(55.441 -158.975)"/>
                    <path id="Path_667351" data-name="Path 667351" d="M1.783,408.955H8.827a1.781,1.781,0,0,1,0,3.561H1.783a1.781,1.781,0,0,1,0-3.561Z" transform="translate(110.956 -325.23)"/>
                    <path id="Path_667352" data-name="Path 667352" d="M134,377.233a5.547,5.547,0,1,1-5.547,5.547A5.553,5.553,0,0,1,134,377.233Zm0,7.532a1.985,1.985,0,1,0-1.985-1.985A1.988,1.988,0,0,0,134,384.765Z" transform="translate(-48.476 -301.04)"/>
                    <path id="Path_667353" data-name="Path 667353" d="M413.124,382.325a5.538,5.538,0,1,1-5.538-5.538A5.544,5.544,0,0,1,413.124,382.325Zm-5.538-1.977a1.977,1.977,0,1,0,1.977,1.977A1.979,1.979,0,0,0,407.586,380.348Z" transform="translate(-387.018 -300.7)"/>
                    <path id="Path_667354" data-name="Path 667354" d="M156.553,112.618l-5.17-13.052a1.781,1.781,0,0,1,2.265-2.329l11.011,4.008L175.25,91.168a1.781,1.781,0,0,1,3,1.091l1.637,14.528,11.011,4.008a1.781,1.781,0,0,1,.238,3.24l-12.35,6.675a1.781,1.781,0,0,1-1.694-3.133l8.864-4.791-8.324-3.03a1.781,1.781,0,0,1-1.161-1.474l-1.359-12.064-8.8,8.367a1.781,1.781,0,0,1-1.836.383l-8.324-3.03,3.711,9.368a1.781,1.781,0,0,1-3.311,1.312Z" transform="translate(-106.416 -82.521)"/>
                    <path id="Path_667355" data-name="Path 667355" d="M277.51,66.907a1.779,1.779,0,0,1-2.366-.861l-3.353-7.19a1.781,1.781,0,1,1,3.228-1.505l3.353,7.19A1.78,1.78,0,0,1,277.51,66.907Z" transform="translate(-221.465 -56.323)"/>
                    <path id="Path_667356" data-name="Path 667356" d="M138.587,116.818l-7.19,3.353a1.781,1.781,0,1,1-1.505-3.228l7.19-3.352a1.781,1.781,0,1,1,1.505,3.228Z" transform="translate(-48.647 -99.866)"/>
                  </g>
                </g>
              </g>
            </g>
          </g>
          <g id="Group_978416" data-name="Group 978416" transform="translate(0 0)">
            <g id="Group_978179" data-name="Group 978179" transform="translate(42.841 613.452)">
              <g id="Group_978176" data-name="Group 978176">
                <g id="Group_978175" data-name="Group 978175">
                  <g id="Group_978174" data-name="Group 978174">
                    <path id="Path_667230" data-name="Path 667230" d="M288.231,433.009l-11.018,43.724L258.526,508.8a4.62,4.62,0,0,0,1.942,6.466h0a4.591,4.591,0,0,0,4.228-.068l42.246-26.243,12.24-43.685Z" transform="translate(-257.897 -433.009)" fill="#455a64"/>
                  </g>
                </g>
              </g>
              <g id="Group_978178" data-name="Group 978178" transform="translate(2.241 49.47)">
                <g id="Group_978177" data-name="Group 978177">
                  <path id="Path_667231" data-name="Path 667231" d="M268.912,496.371l42.246-26.243,1.816-6.479-48.622,32.609A4.721,4.721,0,0,0,268.912,496.371Z" transform="translate(-264.353 -463.649)" fill="#263238"/>
                </g>
              </g>
            </g>
            <g id="Group_978189" data-name="Group 978189" transform="translate(154.388 622.08)">
              <g id="Group_978188" data-name="Group 978188">
                <g id="Group_978183" data-name="Group 978183" transform="translate(0)">
                  <g id="Group_978182" data-name="Group 978182">
                    <g id="Group_978181" data-name="Group 978181">
                      <g id="Group_978180" data-name="Group 978180">
                        <path id="Path_667232" data-name="Path 667232" d="M220.114,439.446l-2.264,34.178s34.019,11.291,34.216,17.647l-66.466.481,1.342-53.4Z" transform="translate(-185.6 -438.353)" fill="#455a64"/>
                      </g>
                    </g>
                  </g>
                </g>
                <g id="Group_978187" data-name="Group 978187" transform="translate(0 48.017)">
                  <g id="Group_978186" data-name="Group 978186">
                    <g id="Group_978185" data-name="Group 978185">
                      <g id="Group_978184" data-name="Group 978184">
                        <path id="Path_667233" data-name="Path 667233" d="M185.391,473.476l.136-5.383,64.194,1.773a4.59,4.59,0,0,1,2.474,3.61Z" transform="translate(-185.391 -468.093)" fill="#263238"/>
                      </g>
                    </g>
                  </g>
                </g>
              </g>
            </g>
            <g id="Group_978199" data-name="Group 978199" transform="translate(30.399 66.264)">
              <g id="Group_978190" data-name="Group 978190">
                <path id="Path_667234" data-name="Path 667234" d="M280.276,145.279c-1.253-2.157-1.606-3.9-1.035-7.711s3.877-30.886,4.3-33.063c.814-4.22,3.894-5.3,4.275-2.214s.535,15.28,1.314,15.471,1.543-19.557,3.257-21.779,3.048-2.222,3.81-1.269a5.2,5.2,0,0,1,.953,1.634s1.376-2.391,2.947-2.244c2.863.268,2.914,3.788,2.914,3.788l.234,8.368s.234-6.728,2.17-7.646c1.09-.517,2.591-.176,3.163,1.868s0,10.233,0,10.8.253,21.9.253,21.9a27.248,27.248,0,0,0,3.849-6.57c1.108-2.688,2.945-3.715,5.23-3.144s2.477,2.856,1.715,4.571-2.286,6.947-2.286,6.947l-3.986,7.816-13.756,12.325-4.969,11.25s-15.934-1.618-17.847-10.168Z" transform="translate(-276.776 -94.098)" fill="#b78876"/>
              </g>
              <g id="Group_978192" data-name="Group 978192" transform="translate(9.445 36.491)">
                <g id="Group_978191" data-name="Group 978191">
                  <path id="Path_667235" data-name="Path 667235" d="M304.1,116.708a27.484,27.484,0,0,0-4.144,3.05,16,16,0,0,0-4.863,10.95c.011.433.021.859.031,1.259l-.827.124a35.426,35.426,0,0,0-4.354-10.687c-1.544-2.515-2.737-3.894-2.633-3.981.039-.034.381.271.943.883a25.913,25.913,0,0,1,2.172,2.787,31.885,31.885,0,0,1,4.692,10.814l-.827.124c-.011-.426-.039-.88-.037-1.338a15.658,15.658,0,0,1,1.77-6.83,16.041,16.041,0,0,1,3.529-4.54,13.781,13.781,0,0,1,3.211-2.152A4.007,4.007,0,0,1,304.1,116.708Z" transform="translate(-287.306 -116.7)" fill="#aa6550"/>
                </g>
              </g>
              <g id="Group_978194" data-name="Group 978194" transform="translate(10.049 28.517)">
                <g id="Group_978193" data-name="Group 978193">
                  <path id="Path_667236" data-name="Path 667236" d="M303.386,111.942c0,.245-3.6.463-7.965,1.195-4.372.712-7.852,1.663-7.924,1.427-.074-.205,3.344-1.532,7.789-2.257C299.726,111.564,303.389,111.724,303.386,111.942Z" transform="translate(-287.496 -111.76)" fill="#aa6550"/>
                </g>
              </g>
              <g id="Group_978196" data-name="Group 978196" transform="translate(19.426 1.963)">
                <g id="Group_978195" data-name="Group 978195">
                  <path id="Path_667237" data-name="Path 667237" d="M291.046,120.412c-.231-.006-.262-5.63-.068-12.56s.541-12.545.773-12.539.261,5.63.068,12.561S291.279,120.419,291.046,120.412Z" transform="translate(-290.851 -95.314)" fill="#aa6550"/>
                </g>
              </g>
              <g id="Group_978198" data-name="Group 978198" transform="translate(25.484 4.74)">
                <g id="Group_978197" data-name="Group 978197">
                  <path id="Path_667238" data-name="Path 667238" d="M287.4,119.165c-.232,0-.305-4.963-.165-11.074s.446-11.061.677-11.056.307,4.963.165,11.076S287.637,119.171,287.4,119.165Z" transform="translate(-287.168 -97.034)" fill="#aa6550"/>
                </g>
              </g>
            </g>
            <g id="Group_978201" data-name="Group 978201" transform="translate(108.075 292.321)">
              <g id="Group_978200" data-name="Group 978200" transform="translate(0 0)">
                <path id="Path_667239" data-name="Path 667239" d="M259.407,244.9c-.1.187-3.174-1.439-6.111-4.506-2.956-3.052-4.464-6.187-4.272-6.277.216-.131,2.007,2.733,4.878,5.694C256.752,242.788,259.546,244.687,259.407,244.9Z" transform="translate(-249.008 -234.11)" fill="#263238"/>
              </g>
            </g>
            <g id="Group_978203" data-name="Group 978203" transform="translate(173.859 283.104)">
              <g id="Group_978202" data-name="Group 978202" transform="translate(0 0)">
                <path id="Path_667240" data-name="Path 667240" d="M192.674,230.183c.031-.134,2.008.279,5.233.689a71.1,71.1,0,0,0,25.2-1.25c3.168-.728,5.1-1.334,5.139-1.2a4.726,4.726,0,0,1-1.3.591c-.852.336-2.115.748-3.694,1.188a59.175,59.175,0,0,1-25.434,1.261c-1.615-.281-2.913-.567-3.794-.817A4.683,4.683,0,0,1,192.674,230.183Z" transform="translate(-192.674 -228.402)" fill="#263238"/>
              </g>
            </g>
            <g id="Group_978209" data-name="Group 978209" transform="translate(54.951 281.098)">
              <g id="Group_978204" data-name="Group 978204" transform="translate(0 0)">
                <path id="Path_667241" data-name="Path 667241" d="M326.5,594.15l21.672-291.892,1.007-75.1L229.1,236.849,189.381,596.03l47.641-1.206L285.628,293.49l-2.312,299.253Z" transform="translate(-189.381 -227.159)" fill="#263238"/>
              </g>
              <g id="Group_978206" data-name="Group 978206" transform="translate(23.365 55.766)">
                <g id="Group_978205" data-name="Group 978205">
                  <path id="Path_667242" data-name="Path 667242" d="M291.636,261.7c.229.034-10.026,69.311-22.9,154.713-12.882,85.432-23.509,154.637-23.739,154.6s10.025-69.3,22.907-154.729C280.778,330.884,291.407,261.664,291.636,261.7Z" transform="translate(-244.99 -261.699)" fill="#455a64"/>
                </g>
              </g>
              <g id="Group_978208" data-name="Group 978208" transform="translate(117.792 54.868)">
                <g id="Group_978207" data-name="Group 978207">
                  <path id="Path_667243" data-name="Path 667243" d="M206.114,571.358s-.008-.273.016-.8c.032-.563.077-1.345.134-2.349.137-2.1.338-5.139.594-9.032.528-7.877,1.287-19.215,2.225-33.208,1.842-28.043,4.186-66.8,6.258-109.623C217.4,373.5,218.8,334.7,219.665,306.605c.413-14.017.749-25.374.982-33.266.119-3.9.213-6.939.278-9.045.04-1.006.071-1.787.094-2.352.026-.53.061-.8.061-.8s.023.271.026.8l-.011,2.352c-.027,2.107-.068,5.149-.119,9.049-.116,7.858-.355,19.228-.715,33.276-.714,28.1-2.017,66.908-4.078,109.759-2.071,42.834-4.509,81.588-6.5,109.623-1,14.017-1.852,25.358-2.493,33.192-.324,3.888-.576,6.92-.752,9.02q-.138,1.5-.216,2.343C206.163,571.088,206.114,571.358,206.114,571.358Z" transform="translate(-206.113 -261.143)" fill="#455a64"/>
                </g>
              </g>
            </g>
            <g id="Group_978244" data-name="Group 978244" transform="translate(0 104.393)">
              <g id="Group_978210" data-name="Group 978210" transform="translate(85.576 0.121)">
                <path id="Path_667244" data-name="Path 667244" d="M231.076,122.042,222.6,134.585s-27.076,3.494-31.369,5.452-5.911,8.914-5.911,8.914l7.642,92.349s1.926,39.235,1.676,45.366h0s0,6.13-.255,10.543a91.839,91.839,0,0,0,.725,12.261s34.566,8.614,37.509,8.371,17.658-3.418,17.658-3.418l44.384-1.676,14.226-4.647,2.7-7.6-1.715-3.19s6.137-7.106,6.631-10.782-1.681-39.971-1.681-39.971l.01-10.543,6.214-93.663s-7.834-5.021-12.2-5.817c-12.233-2.226-23.032-5.313-23.032-5.313l-11.7-13.433Z" transform="translate(-185.321 -117.789)" fill="#fff"/>
              </g>
              <g id="Group_978212" data-name="Group 978212" transform="translate(145.194 45.519)">
                <g id="Group_978211" data-name="Group 978211">
                  <path id="Path_667245" data-name="Path 667245" d="M233.3,145.907a1.41,1.41,0,0,1,0,.389l-.086,1.137-.405,4.358c-.388,3.78-.875,9.256-1.395,16.028s-1.006,14.846-1.369,23.816c-.321,8.972-.509,18.843-.425,29.2.113,10.364.489,20.23.982,29.2.533,8.964,1.161,17.027,1.823,23.787s1.24,12.227,1.7,16q.31,2.751.489,4.348l.107,1.135a1.447,1.447,0,0,1,.008.391,1.331,1.331,0,0,1-.094-.379c-.05-.3-.113-.672-.189-1.122q-.237-1.589-.646-4.33c-.559-3.76-1.24-9.219-1.967-15.979s-1.427-14.828-2-23.8c-.536-8.975-.935-18.856-1.049-29.235-.084-10.377.128-20.261.492-29.243.405-8.982.94-17.063,1.55-23.834s1.175-12.245,1.661-16.015q.356-2.746.563-4.342l.168-1.127A1.31,1.31,0,0,1,233.3,145.907Z" transform="translate(-228.761 -145.907)" fill="#263238"/>
                </g>
              </g>
              <g id="Group_978213" data-name="Group 978213" transform="translate(147.194 24.685)">
                <path id="Path_667246" data-name="Path 667246" d="M170.441,155.5l27.1,36.09a163.8,163.8,0,0,0,10.31,14.589c6.636,8.494,29.69,24.756,34.487,25.683s13.286,1.857,18.646-7.735,7.593-30.442,7.593-30.442L244.552,133s-9.145,5.288-13.582,13.958-4.761,26.94-4.761,26.94l-25.474-22.928-11.171-13.294Z" transform="translate(-170.441 -133.003)" fill="#fff"/>
              </g>
              <g id="Group_978215" data-name="Group 978215" transform="translate(202.371 65.478)">
                <g id="Group_978214" data-name="Group 978214">
                  <path id="Path_667247" data-name="Path 667247" d="M203.414,178.071a10.08,10.08,0,0,1-2.338-3.332c-1.216-2.215-2.294-5.533-4-8.869a17.065,17.065,0,0,0-3.029-4.248,11.143,11.143,0,0,0-3.5-2.351,12.564,12.564,0,0,0-3.864-.739c-.008-.045.365-.189,1.079-.245a7.677,7.677,0,0,1,2.993.428,10.905,10.905,0,0,1,3.831,2.348,16.556,16.556,0,0,1,3.237,4.416c1.763,3.454,2.733,6.765,3.793,9C202.616,176.739,203.517,177.992,203.414,178.071Z" transform="translate(-186.677 -158.269)" fill="#263238"/>
                </g>
              </g>
              <g id="Group_978217" data-name="Group 978217" transform="translate(158.153 42.651)">
                <g id="Group_978216" data-name="Group 978216">
                  <path id="Path_667248" data-name="Path 667248" d="M231.789,144.134a12.808,12.808,0,0,1-1.568,3.663,30.467,30.467,0,0,1-5.932,7.588,29.682,29.682,0,0,1-8.042,5.305,12.66,12.66,0,0,1-3.791,1.234c-.139-.271,5.822-2.071,11.261-7.156C229.191,149.734,231.526,143.968,231.789,144.134Z" transform="translate(-212.454 -144.131)" fill="#263238"/>
                </g>
              </g>
              <g id="Group_978219" data-name="Group 978219" transform="translate(153.706 46.678)">
                <g id="Group_978218" data-name="Group 978218">
                  <path id="Path_667249" data-name="Path 667249" d="M225.5,146.961c-.01-.055.2-.163.617-.258a2.551,2.551,0,0,1,1.863.234,2.984,2.984,0,0,1,1.355,2.473,2.805,2.805,0,0,1-2.044,2.762,2.774,2.774,0,0,1-1.891-.09,2.838,2.838,0,0,1-1.308-1.164,2.913,2.913,0,0,1-.082-2.8,2.229,2.229,0,0,1,1.374-1.285c.447-.108.689-.011.686.034.044.119-1.062.128-1.511,1.477a2.362,2.362,0,0,0,.191,2.17,2,2,0,0,0,2.3.857,2.049,2.049,0,0,0,1.51-1.955,2.461,2.461,0,0,0-.9-1.978,2.563,2.563,0,0,0-1.506-.405C225.746,147.021,225.51,147.021,225.5,146.961Z" transform="translate(-223.689 -146.625)" fill="#263238"/>
                </g>
              </g>
              <g id="Group_978220" data-name="Group 978220" transform="translate(0 20.263)">
                <path id="Path_667250" data-name="Path 667250" d="M294.4,130.264l-8.841,15.566-5.52,1.926s-23.756,35.967-10.525,47.64,34.878,11.039,42.329,7.459,45.5-20.8,45.5-20.8l-.354-49.681s-11.526,5.543-19.479,12.329c-4.755,4.057-27.546,17.151-27.546,17.151l6.77-20.6Z" transform="translate(-265.507 -130.264)" fill="#fff"/>
              </g>
              <g id="Group_978221" data-name="Group 978221" transform="translate(115.773 3.652)">
                <path id="Path_667251" data-name="Path 667251" d="M237.236,135.968a30.776,30.776,0,0,1-4.752,16.583,64.619,64.619,0,0,0,20.589-13.063,37.244,37.244,0,0,0,8.8,8.762c-1.986-4.936-5.5-9.071-8.473-13.481s-5.522-9.487-5.141-14.793Z" transform="translate(-232.484 -119.976)" fill="#f6f6f6"/>
              </g>
              <g id="Group_978223" data-name="Group 978223" transform="translate(130.209 132.46)">
                <g id="Group_978222" data-name="Group 978222">
                  <path id="Path_667252" data-name="Path 667252" d="M263.578,199.756a17.506,17.506,0,0,1-1.531,2.33c-.507.741-1.15,1.632-1.955,2.622s-1.669,2.162-2.75,3.352a94.923,94.923,0,0,1-7.873,8.087,97.07,97.07,0,0,1-22.822,15.493,94.238,94.238,0,0,1-10.422,4.333c-1.5.567-2.909.946-4.128,1.321s-2.283.651-3.16.849a17.419,17.419,0,0,1-2.73.562,17.892,17.892,0,0,1,2.645-.877c.859-.247,1.907-.56,3.1-.983s2.585-.831,4.067-1.43a105.464,105.464,0,0,0,10.28-4.469,103.093,103.093,0,0,0,22.646-15.375,105.71,105.71,0,0,0,7.947-7.9c1.1-1.158,2-2.291,2.83-3.253s1.513-1.815,2.059-2.524A17.786,17.786,0,0,1,263.578,199.756Z" transform="translate(-206.208 -199.755)" fill="#263238"/>
                </g>
              </g>
              <g id="Group_978225" data-name="Group 978225" transform="translate(115.069 16.917)">
                <g id="Group_978224" data-name="Group 978224">
                  <path id="Path_667253" data-name="Path 667253" d="M257.936,134.629a4.875,4.875,0,0,1-.744,1.545,16.124,16.124,0,0,1-3.081,3.526c-2.929,2.7-7.748,5.318-12.749,8.493l-.4.263-.936.609.3-1.069a136.171,136.171,0,0,1,4.891-14.189c.718-1.773,1.338-3.19,1.8-4.157a6,6,0,0,1,.8-1.458,7.022,7.022,0,0,1-.505,1.582q-.642,1.761-1.545,4.243c-1.277,3.594-3.069,8.572-4.627,14.2l-.641-.46.41-.266c5.075-3.219,9.862-5.716,12.823-8.241A23.5,23.5,0,0,0,257.936,134.629Z" transform="translate(-240.023 -128.192)" fill="#263238"/>
                </g>
              </g>
              <g id="Group_978227" data-name="Group 978227" transform="translate(86.992 53.189)">
                <g id="Group_978226" data-name="Group 978226">
                  <path id="Path_667254" data-name="Path 667254" d="M271.492,266.467a6.161,6.161,0,0,1-.127-1.175c-.052-.856-.12-1.978-.205-3.378-.144-3.029-.346-7.251-.593-12.427-.22-5.278-.481-11.517-.77-18.435-.158-3.466-.239-7.114-.471-10.88-.315-3.765-.641-7.661-.974-11.652-2.559-31.085-4.392-53.358-4.761-57.861a4.169,4.169,0,0,1,.27,1.154c.126.765.271,1.9.446,3.357.342,2.919.78,7.149,1.284,12.379,1,10.459,2.272,24.921,3.6,40.9.328,4,.649,7.9.957,11.668.223,3.775.286,7.42.423,10.892.221,6.925.421,13.168.591,18.449.136,5.183.247,9.41.326,12.442.019,1.4.034,2.527.047,3.384A6.3,6.3,0,0,1,271.492,266.467Z" transform="translate(-263.59 -150.657)" fill="#263238"/>
                </g>
              </g>
              <g id="Group_978229" data-name="Group 978229" transform="translate(34.438 46.619)">
                <g id="Group_978228" data-name="Group 978228">
                  <path id="Path_667255" data-name="Path 667255" d="M305.7,146.589c.124.063-1,2.344-2.464,6.168a82.821,82.821,0,0,0-4.19,15.387,79.559,79.559,0,0,0-.99,8.728c-.2,2.691-.027,5.139-.4,7.235a6.5,6.5,0,0,1-2.451,4.261,3.665,3.665,0,0,1-1.224.588c-.3.076-.467.074-.471.052a8.7,8.7,0,0,0,1.5-.9,6.421,6.421,0,0,0,2.065-4.1c.284-1.971.058-4.445.215-7.175a71.122,71.122,0,0,1,5.4-24.3c.81-1.9,1.542-3.4,2.083-4.414A7.38,7.38,0,0,1,305.7,146.589Z" transform="translate(-293.503 -146.588)" fill="#263238"/>
                </g>
              </g>
              <g id="Group_978231" data-name="Group 978231" transform="translate(42.76 51.812)">
                <g id="Group_978230" data-name="Group 978230">
                  <path id="Path_667256" data-name="Path 667256" d="M295.316,180.016a21.4,21.4,0,0,1-.378-4.427c-.1-2.74-.124-6.532.037-10.714s.481-7.961.8-10.687a21.25,21.25,0,0,1,.72-4.383,25.5,25.5,0,0,1-.129,4.435c-.161,2.73-.384,6.5-.547,10.667s-.233,7.942-.283,10.677A25.483,25.483,0,0,1,295.316,180.016Z" transform="translate(-294.858 -149.805)" fill="#263238"/>
                </g>
              </g>
              <g id="Group_978233" data-name="Group 978233" transform="translate(20.115 35.559)">
                <g id="Group_978232" data-name="Group 978232">
                  <path id="Path_667257" data-name="Path 667257" d="M319.437,153.082a14.137,14.137,0,0,1-4.262-.375,34.542,34.542,0,0,1-18.026-9.629,14.1,14.1,0,0,1-2.68-3.334c.2-.213,4.279,5.042,11.362,8.77C312.864,152.33,319.5,152.8,319.437,153.082Z" transform="translate(-294.464 -139.738)" fill="#263238"/>
                </g>
              </g>
              <g id="Group_978235" data-name="Group 978235" transform="translate(39.642 33.763)">
                <g id="Group_978234" data-name="Group 978234">
                  <path id="Path_667258" data-name="Path 667258" d="M295.49,139.468a3.432,3.432,0,0,0-.284,1.883,2.208,2.208,0,0,0,1.091,1.518,2.006,2.006,0,0,0,2.573-2.512,2.206,2.206,0,0,0-1.492-1.127,3.441,3.441,0,0,0-1.889.239c-.032-.029.055-.239.378-.47a2.359,2.359,0,0,1,1.611-.355,2.718,2.718,0,0,1,2.086,1.369,2.729,2.729,0,0,1-3.628,3.542,2.714,2.714,0,0,1-1.319-2.118,2.359,2.359,0,0,1,.394-1.6C295.25,139.518,295.463,139.434,295.49,139.468Z" transform="translate(-294.608 -138.626)" fill="#263238"/>
                </g>
              </g>
              <g id="Group_978236" data-name="Group 978236" transform="translate(106.179 54.003)">
                <path id="Path_667259" data-name="Path 667259" d="M263.4,154.628c.426-.244-.241,10.488-.241,10.488s-1.111,6.723-9.553,6.318c-8.964-.428-8.221-8.932-8.221-8.932l.484-7.89a7.377,7.377,0,0,0,8.555-3.45S258.389,157.486,263.4,154.628Z" transform="translate(-245.371 -151.162)" fill="#e8505b"/>
              </g>
              <g id="Group_978238" data-name="Group 978238" transform="translate(146.7 28.726)">
                <g id="Group_978237" data-name="Group 978237">
                  <path id="Path_667260" data-name="Path 667260" d="M246.427,135.506s.17.333.452,1q.438,1.056,1.227,2.964c1.07,2.646,2.62,6.476,4.6,11.358,3.946,9.875,9.6,24.007,16.465,41.192l.036.089-.018.1c-1.069,6.021-2.2,12.417-3.4,19.136a34.182,34.182,0,0,1-3.29,10.03,27.846,27.846,0,0,1-2.982,4.6,20.69,20.69,0,0,1-1.9,2.057,11.189,11.189,0,0,1-2.383,1.6c-3.426,1.816-7.514,1.921-11.32,1.279a15.054,15.054,0,0,1-5.64-1.815l-4.947-3.224A164.673,164.673,0,0,1,213.8,211.3a105.994,105.994,0,0,1-13.108-14.176c-3.917-4.96-7.513-10-10.911-14.975-6.791-9.954-13.012-19.528-19.358-27.962l-.2-.265.242-.226,19.158-17.784.226-.21.215.218,26.257,26.693c3.071,3.152,5.468,5.611,7.128,7.312l1.839,1.921c.412.436.605.677.605.677s-.239-.2-.672-.612l-1.9-1.857c-1.687-1.674-4.125-4.093-7.248-7.193l-26.456-26.5.439.008-19.087,17.862.044-.491c6.39,8.439,12.645,18.015,19.441,27.945,3.4,4.963,6.989,9.983,10.892,14.917a105.7,105.7,0,0,0,13.016,14.068,164.927,164.927,0,0,0,19.423,14.507l4.924,3.218a14.314,14.314,0,0,0,5.343,1.711c3.709.63,7.6.518,10.818-1.182a10.55,10.55,0,0,0,2.214-1.474,19.7,19.7,0,0,0,1.826-1.97,27.2,27.2,0,0,0,2.906-4.461,33.459,33.459,0,0,0,3.24-9.8c1.217-6.72,2.377-13.118,3.468-19.14l.016.19c-6.755-17.232-12.313-31.4-16.194-41.3-1.9-4.913-3.394-8.764-4.426-11.426q-.731-1.933-1.135-3C246.534,135.864,246.427,135.506,246.427,135.506Z" transform="translate(-170.224 -135.506)" fill="#263238"/>
                </g>
              </g>
              <g id="Group_978239" data-name="Group 978239" transform="translate(166.573 0.16)">
                <path id="Path_667261" data-name="Path 667261" d="M226.571,131.942c-.588,6.4-7.911,19.044-10.2,22.6,0,0-4.744-9.406-7.227-14.531l-.93,7.327c-1.988-1.8-.192-12.054-.505-11.965l6.968-17.557Z" transform="translate(-207.259 -117.813)" fill="#f6f6f6"/>
              </g>
              <g id="Group_978241" data-name="Group 978241" transform="translate(163.008)">
                <g id="Group_978240" data-name="Group 978240">
                  <path id="Path_667262" data-name="Path 667262" d="M216.842,117.976a6.76,6.76,0,0,1,1.4-.253l.053-.008.044.047c1.868,1.981,6.2,6.809,11.894,13.267l.12.136-.039.184a61.885,61.885,0,0,1-6.65,17.448c-1.192,2.125-2.464,4.14-3.754,6.035l-.431.631-.294-.707c-1.514-3.636-3.424-6.883-4.976-9.942a41.6,41.6,0,0,1-3.5-8.535l.541.052c-1.28,2.874-2.328,5.23-3.114,6.994a18.155,18.155,0,0,1-1.238,2.509,18.374,18.374,0,0,1,.945-2.627c.728-1.8,1.7-4.2,2.885-7.127l.313-.772.228.823a43.4,43.4,0,0,0,3.591,8.341c1.581,3.024,3.521,6.256,5.089,9.971l-.725-.076c1.272-1.886,2.528-3.883,3.705-5.984a63.742,63.742,0,0,0,6.67-17.2l.081.32c-5.617-6.528-9.808-11.475-11.515-13.6l.1.039A6.757,6.757,0,0,1,216.842,117.976Z" transform="translate(-206.899 -117.714)" fill="#263238"/>
                </g>
              </g>
              <g id="Group_978243" data-name="Group 978243" transform="translate(199.599 46.22)">
                <g id="Group_978242" data-name="Group 978242">
                  <path id="Path_667263" data-name="Path 667263" d="M197.02,146.341c.229-.029.986,4.406,1.821,9.891.413,2.745.759,5.236.928,7.054a16.607,16.607,0,0,1,.1,2.175,1.413,1.413,0,0,1-.129.628c-.092.137-.237.023-.223,0-.021-.039-.023-.06-.011-.069.218.371-.014-.914-.326-2.649-.32-1.786-.757-4.262-1.171-7.009C197.173,150.865,196.789,146.369,197.02,146.341Z" transform="translate(-196.954 -146.341)" fill="#263238"/>
                </g>
              </g>
            </g>
            <g id="Group_978351" data-name="Group 978351" transform="translate(104.374)">
              <g id="Group_978327" data-name="Group 978327" transform="translate(11.733 30.041)">
                <g id="Group_978326" data-name="Group 978326">
                  <g id="Group_978259" data-name="Group 978259" transform="translate(0)">
                    <g id="Group_978258" data-name="Group 978258">
                      <g id="Group_978257" data-name="Group 978257">
                        <g id="Group_978250" data-name="Group 978250">
                          <g id="Group_978249" data-name="Group 978249">
                            <g id="Group_978248" data-name="Group 978248">
                              <g id="Group_978247" data-name="Group 978247">
                                <g id="Group_978246" data-name="Group 978246">
                                  <g id="Group_978245" data-name="Group 978245">
                                    <path id="Path_667264" data-name="Path 667264" d="M250.317,174.646h0a19.935,19.935,0,0,1-20.327-20.9c.184-3.81.336-6.574.336-6.574s-15.968-2.073-16.564-17.97S215,76.722,215,76.722h0A55.285,55.285,0,0,1,270.711,82.3l2.4,1.755-2.628,62.218s-7.017,23.224-12.351,26.595C255.165,174.749,254.067,174.568,250.317,174.646Z" transform="translate(-213.642 -71.662)" fill="#b78876"/>
                                  </g>
                                </g>
                              </g>
                            </g>
                          </g>
                        </g>
                        <g id="Group_978256" data-name="Group 978256" transform="translate(16.561 68.871)">
                          <g id="Group_978255" data-name="Group 978255">
                            <g id="Group_978254" data-name="Group 978254">
                              <g id="Group_978253" data-name="Group 978253">
                                <g id="Group_978252" data-name="Group 978252">
                                  <g id="Group_978251" data-name="Group 978251">
                                    <path id="Path_667265" data-name="Path 667265" d="M227.537,120.961a38.434,38.434,0,0,0,20.553-6.642s-4.771,11.554-20.676,10.52Z" transform="translate(-227.414 -114.319)" fill="#aa6550"/>
                                  </g>
                                </g>
                              </g>
                            </g>
                          </g>
                        </g>
                      </g>
                    </g>
                  </g>
                  <g id="Group_978273" data-name="Group 978273" transform="translate(57.7 28.324)">
                    <g id="Group_978265" data-name="Group 978265">
                      <g id="Group_978264" data-name="Group 978264">
                        <g id="Group_978263" data-name="Group 978263">
                          <g id="Group_978262" data-name="Group 978262">
                            <g id="Group_978261" data-name="Group 978261">
                              <g id="Group_978260" data-name="Group 978260">
                                <path id="Path_667266" data-name="Path 667266" d="M208.154,89.8c.268-.124,10.845-3.508,10.772,7.374s-10.982,8.564-11,8.25S208.154,89.8,208.154,89.8Z" transform="translate(-207.926 -89.206)" fill="#b78876"/>
                              </g>
                            </g>
                          </g>
                        </g>
                      </g>
                    </g>
                    <g id="Group_978272" data-name="Group 978272" transform="translate(3.343 3.522)">
                      <g id="Group_978271" data-name="Group 978271">
                        <g id="Group_978270" data-name="Group 978270">
                          <g id="Group_978269" data-name="Group 978269">
                            <g id="Group_978268" data-name="Group 978268">
                              <g id="Group_978267" data-name="Group 978267">
                                <g id="Group_978266" data-name="Group 978266">
                                  <path id="Path_667267" data-name="Path 667267" d="M209.648,99.983c.048-.036.189.134.509.283a1.894,1.894,0,0,0,1.416.039c1.153-.413,2.133-2.233,2.2-4.193a6.265,6.265,0,0,0-.512-2.717,2.189,2.189,0,0,0-1.416-1.464.962.962,0,0,0-1.122.512c-.148.3-.081.52-.139.539-.031.026-.233-.184-.142-.633a1.216,1.216,0,0,1,.433-.68,1.434,1.434,0,0,1,1.051-.27,2.663,2.663,0,0,1,1.968,1.7,6.432,6.432,0,0,1,.636,3.037c-.084,2.193-1.221,4.237-2.8,4.681a2.022,2.022,0,0,1-1.731-.3C209.665,100.246,209.61,100,209.648,99.983Z" transform="translate(-209.638 -91.387)" fill="#aa6550"/>
                                </g>
                              </g>
                            </g>
                          </g>
                        </g>
                      </g>
                    </g>
                  </g>
                  <g id="Group_978325" data-name="Group 978325" transform="translate(4.243 19.085)">
                    <g id="Group_978324" data-name="Group 978324">
                      <g id="Group_978311" data-name="Group 978311" transform="translate(0.649 5.619)">
                        <g id="Group_978310" data-name="Group 978310">
                          <g id="Group_978309" data-name="Group 978309">
                            <g id="Group_978287" data-name="Group 978287" transform="translate(0 0.15)">
                              <g id="Group_978279" data-name="Group 978279" transform="translate(2.593 3.447)">
                                <g id="Group_978278" data-name="Group 978278">
                                  <g id="Group_978277" data-name="Group 978277">
                                    <g id="Group_978276" data-name="Group 978276">
                                      <g id="Group_978275" data-name="Group 978275">
                                        <g id="Group_978274" data-name="Group 978274">
                                          <path id="Path_667268" data-name="Path 667268" d="M243.031,91.3a2.271,2.271,0,0,0,2.247,2.236,2.173,2.173,0,0,0,2.289-2.107,2.275,2.275,0,0,0-2.246-2.238A2.175,2.175,0,0,0,243.031,91.3Z" transform="translate(-243.031 -89.191)" fill="#263238"/>
                                        </g>
                                      </g>
                                    </g>
                                  </g>
                                </g>
                              </g>
                              <g id="Group_978286" data-name="Group 978286">
                                <g id="Group_978285" data-name="Group 978285">
                                  <g id="Group_978284" data-name="Group 978284">
                                    <g id="Group_978283" data-name="Group 978283">
                                      <g id="Group_978282" data-name="Group 978282">
                                        <g id="Group_978281" data-name="Group 978281">
                                          <g id="Group_978280" data-name="Group 978280">
                                            <path id="Path_667269" data-name="Path 667269" d="M241.9,89.557c.289.289,1.978-1.027,4.422-1.082,2.441-.09,4.266,1.121,4.524.815.126-.136-.174-.664-.969-1.213a6.229,6.229,0,0,0-3.631-1.019,5.984,5.984,0,0,0-3.51,1.232C242,88.885,241.762,89.428,241.9,89.557Z" transform="translate(-241.865 -87.056)" fill="#263238"/>
                                          </g>
                                        </g>
                                      </g>
                                    </g>
                                  </g>
                                </g>
                              </g>
                            </g>
                            <g id="Group_978301" data-name="Group 978301" transform="translate(24.035)">
                              <g id="Group_978293" data-name="Group 978293" transform="translate(2.326 3.597)">
                                <g id="Group_978292" data-name="Group 978292">
                                  <g id="Group_978291" data-name="Group 978291">
                                    <g id="Group_978290" data-name="Group 978290">
                                      <g id="Group_978289" data-name="Group 978289">
                                        <g id="Group_978288" data-name="Group 978288">
                                          <path id="Path_667270" data-name="Path 667270" d="M228.31,91.3a2.273,2.273,0,0,0,2.247,2.236,2.173,2.173,0,0,0,2.289-2.107,2.274,2.274,0,0,0-2.246-2.238A2.176,2.176,0,0,0,228.31,91.3Z" transform="translate(-228.31 -89.191)" fill="#263238"/>
                                        </g>
                                      </g>
                                    </g>
                                  </g>
                                </g>
                              </g>
                              <g id="Group_978300" data-name="Group 978300">
                                <g id="Group_978299" data-name="Group 978299">
                                  <g id="Group_978298" data-name="Group 978298">
                                    <g id="Group_978297" data-name="Group 978297">
                                      <g id="Group_978296" data-name="Group 978296">
                                        <g id="Group_978295" data-name="Group 978295">
                                          <g id="Group_978294" data-name="Group 978294">
                                            <path id="Path_667271" data-name="Path 667271" d="M227.017,89.464c.289.289,1.979-1.027,4.422-1.082,2.44-.09,4.266,1.122,4.524.815.126-.136-.171-.662-.97-1.211a6.235,6.235,0,0,0-3.629-1.02,5.984,5.984,0,0,0-3.51,1.232C227.119,88.794,226.876,89.336,227.017,89.464Z" transform="translate(-226.979 -86.963)" fill="#263238"/>
                                          </g>
                                        </g>
                                      </g>
                                    </g>
                                  </g>
                                </g>
                              </g>
                            </g>
                            <g id="Group_978308" data-name="Group 978308" transform="translate(9.388 0.458)">
                              <g id="Group_978307" data-name="Group 978307">
                                <g id="Group_978306" data-name="Group 978306">
                                  <g id="Group_978305" data-name="Group 978305">
                                    <g id="Group_978304" data-name="Group 978304">
                                      <g id="Group_978303" data-name="Group 978303">
                                        <g id="Group_978302" data-name="Group 978302">
                                          <path id="Path_667272" data-name="Path 667272" d="M243.628,107.637c.006-.139-1.519-.363-3.988-.615-.626-.05-1.219-.158-1.335-.581a3.177,3.177,0,0,1,.37-1.86l1.726-4.8c2.393-6.831,4.107-12.44,3.831-12.534s-2.44,5.365-4.831,12.2q-.862,2.526-1.648,4.824a3.614,3.614,0,0,0-.262,2.457,1.566,1.566,0,0,0,1.049.886,4.3,4.3,0,0,0,1.064.121C242.084,107.8,243.621,107.776,243.628,107.637Z" transform="translate(-237.355 -87.247)" fill="#263238"/>
                                        </g>
                                      </g>
                                    </g>
                                  </g>
                                </g>
                              </g>
                            </g>
                          </g>
                        </g>
                      </g>
                      <g id="Group_978317" data-name="Group 978317" transform="translate(23.67)">
                        <g id="Group_978316" data-name="Group 978316">
                          <g id="Group_978315" data-name="Group 978315">
                            <g id="Group_978314" data-name="Group 978314">
                              <g id="Group_978313" data-name="Group 978313">
                                <g id="Group_978312" data-name="Group 978312">
                                  <path id="Path_667273" data-name="Path 667273" d="M226.253,85.795c.3.639,2.7.1,5.591.171,2.89.016,5.272.635,5.594.006.142-.3-.318-.885-1.309-1.439a9.732,9.732,0,0,0-8.522-.134C226.6,84.921,226.121,85.491,226.253,85.795Z" transform="translate(-226.231 -83.483)" fill="#263238"/>
                                </g>
                              </g>
                            </g>
                          </g>
                        </g>
                      </g>
                      <g id="Group_978323" data-name="Group 978323" transform="translate(0 1.356)">
                        <g id="Group_978322" data-name="Group 978322">
                          <g id="Group_978321" data-name="Group 978321">
                            <g id="Group_978320" data-name="Group 978320">
                              <g id="Group_978319" data-name="Group 978319">
                                <g id="Group_978318" data-name="Group 978318">
                                  <path id="Path_667274" data-name="Path 667274" d="M242,86.54c.449.588,2.4.142,4.7.271,2.3.058,4.217.66,4.7.111.216-.268-.052-.843-.867-1.426a7.19,7.19,0,0,0-3.755-1.167,7.1,7.1,0,0,0-3.822.859C242.112,85.7,241.805,86.256,242,86.54Z" transform="translate(-241.946 -84.323)" fill="#263238"/>
                                </g>
                              </g>
                            </g>
                          </g>
                        </g>
                      </g>
                    </g>
                  </g>
                </g>
              </g>
              <g id="Group_978328" data-name="Group 978328" transform="translate(31.313 79.853)">
                <path id="Path_667275" data-name="Path 667275" d="M240.714,103.419a3.677,3.677,0,0,0-2.351-.9,8.746,8.746,0,0,0-2.538.347,3.979,3.979,0,0,0-2.54,1.456,2.835,2.835,0,0,0-.307,1.965c.111.668.231,3.079,1.555,3.676h5.712a7,7,0,0,0,1.379-3.5A3.388,3.388,0,0,0,240.714,103.419Z" transform="translate(-232.928 -102.515)" fill="#aa6550"/>
              </g>
              <g id="Group_978330" data-name="Group 978330" transform="translate(31.313 79.358)">
                <g id="Group_978329" data-name="Group 978329">
                  <path id="Path_667276" data-name="Path 667276" d="M238.807,110.179c.034-.061.262.071.649-.01a1.571,1.571,0,0,0,1.14-1.067,11.3,11.3,0,0,0,.342-2.648,3.8,3.8,0,0,0-.833-2.874c-.694-.8-1.807-.536-2.835-.355a11.927,11.927,0,0,0-2.622.656c-1.395.6-1.653,1.686-1.787,1.61-.047-.015-.048-.276.136-.714a3.155,3.155,0,0,1,1.385-1.427,10.125,10.125,0,0,1,2.729-.882,7.8,7.8,0,0,1,1.715-.257,2.507,2.507,0,0,1,1.883.781,4.4,4.4,0,0,1,1,3.505,9.618,9.618,0,0,1-.568,2.84,1.866,1.866,0,0,1-1.663,1.158C238.961,110.476,238.773,110.2,238.807,110.179Z" transform="translate(-232.834 -102.208)" fill="#263238"/>
                </g>
              </g>
              <g id="Group_978331" data-name="Group 978331" transform="translate(57.147 38.111)">
                <path id="Path_667277" data-name="Path 667277" d="M210.593,83.914a9.048,9.048,0,0,0-.249,5.062c.562,1.618,2.507,2.874,4.023,2.071a12.863,12.863,0,0,0-.592,5.105,6.859,6.859,0,0,0,2.278,4.5,4.716,4.716,0,0,0,4.842.785,3.62,3.62,0,0,0,1.97-4.282c1.44,1.062,3.715.228,4.5-1.38a4.962,4.962,0,0,0-.788-5.037,3.341,3.341,0,0,0,3.255-2.869,6.4,6.4,0,0,0-1.216-4.487c-.87-1.327-1.989-2.473-2.9-3.776-.788-1.133-1.542-2.485-2.872-2.853a4.778,4.778,0,0,0-3.19.614,52.888,52.888,0,0,0-9.561,5.736" transform="translate(-210.068 -76.661)" fill="#263238"/>
              </g>
              <g id="Group_978338" data-name="Group 978338">
                <g id="Group_978332" data-name="Group 978332" transform="translate(3.285)">
                  <path id="Path_667278" data-name="Path 667278" d="M277.6,88.264s7.417.867,8.449-4.1c2.709-13.047-15.251-18.58-15.251-18.58s-6.29-1.665-16.583-5.468a66.915,66.915,0,0,1-11.452-5.541,10.194,10.194,0,0,0-10.851.1,84.623,84.623,0,0,1-19.031,9.356s-7.036,1.836-6.994,10.987c.019,4.2,7.156,7.332,7.156,7.332Z" transform="translate(-205.887 -53.056)" fill="#263238"/>
                </g>
                <g id="Group_978333" data-name="Group 978333" transform="translate(11.263 26.109)">
                  <path id="Path_667279" data-name="Path 667279" d="M273.834,85.547l1.219-7.629s-42.146-15.195-63.8-5.4v8.62Z" transform="translate(-211.251 -69.227)" fill="#455a64"/>
                </g>
                <g id="Group_978334" data-name="Group 978334" transform="translate(0 38.017)">
                  <path id="Path_667280" data-name="Path 667280" d="M213.461,82.235s5.226,4.225,16.686,4.8c20.858,1.045,54.811-6.184,54.811-6.184L224.724,76.6Z" transform="translate(-213.461 -76.603)" fill="#263238"/>
                </g>
                <g id="Group_978335" data-name="Group 978335" transform="translate(23.144 13.915)">
                  <path id="Path_667281" data-name="Path 667281" d="M249.518,64.8c.384-.221-.21,9.461-.21,9.461s-1,6.066-8.614,5.709c-8.086-.379-7.424-8.053-7.424-8.053L233.7,64.8a6.657,6.657,0,0,0,7.716-3.121S245,67.378,249.518,64.8Z" transform="translate(-233.258 -61.675)" fill="#e0e0e0"/>
                </g>
                <g id="Group_978337" data-name="Group 978337" transform="translate(27.672 42.695)">
                  <g id="Group_978336" data-name="Group 978336">
                    <path id="Path_667282" data-name="Path 667282" d="M258.1,79.529a7.651,7.651,0,0,1-1.781.407l-4.9.823c-4.138.667-9.852,1.6-16.189,2.494s-12.112,1.51-16.3,1.77c-2.094.134-3.793.205-4.966.215a7.6,7.6,0,0,1-1.828-.066,7.649,7.649,0,0,1,1.808-.262l4.937-.48c4.166-.412,9.905-1.111,16.234-2.01s12.059-1.732,16.221-2.251c2.081-.26,3.767-.452,4.937-.559A7.56,7.56,0,0,1,258.1,79.529Z" transform="translate(-212.137 -79.5)" fill="#455a64"/>
                  </g>
                </g>
              </g>
              <g id="Group_978350" data-name="Group 978350" transform="translate(14.345 85.324)">
                <g id="Group_978343" data-name="Group 978343">
                  <g id="Group_978339" data-name="Group 978339" transform="translate(16.81)">
                    <path id="Path_667283" data-name="Path 667283" d="M234.6,105.9v11.017h6.212V105.988Z" transform="translate(-234.601 -105.904)" fill="#e8505b"/>
                  </g>
                  <g id="Group_978340" data-name="Group 978340" transform="translate(0.38 4.694)">
                    <path id="Path_667284" data-name="Path 667284" d="M244.459,108.811s-1.313,1.093-1.093,4.446,3.571,6.269,3.571,6.269v2.843l-10.57-11.881s-1.02-1.678-2.551-1.167-4.958,2.625-2.553,6.926c0,0-2.769.728-2.7,4.446,0,0-4.3-1.385-4.3,3.571v2.99a2.289,2.289,0,0,0-2.916,0c-1.385,1.24-1.095,4.813-.657,6.489s12.321,18.3,16.039,20.048a24.455,24.455,0,0,1,6.05,4.009l8.166,9.842,15.064-14.119s-9.159-9.137-9.742-10.885,1.166-7.217,1.02-9.332a114.557,114.557,0,0,0-1.6-11.883C255.175,119.746,244.459,108.811,244.459,108.811Z" transform="translate(-220.331 -108.811)" fill="#b78876"/>
                  </g>
                  <g id="Group_978342" data-name="Group 978342" transform="translate(0 4.132)">
                    <g id="Group_978341" data-name="Group 978341">
                      <path id="Path_667285" data-name="Path 667285" d="M251.4,167.856a4.5,4.5,0,0,1-.588-.613l-1.626-1.87-6.122-7.217.016.018A23.345,23.345,0,0,0,240,155.856c-.576-.37-1.19-.72-1.829-1.058a14.6,14.6,0,0,1-2-1.117,50.946,50.946,0,0,1-6.886-7.461c-2.268-2.859-4.613-5.984-6.912-9.427a15.4,15.4,0,0,1-1.608-2.822,13.051,13.051,0,0,1-.357-3.286,5.235,5.235,0,0,1,.988-3.35,2.42,2.42,0,0,1,1.753-.809,3.018,3.018,0,0,1,1.82.635l-.646.307q0-1.16,0-2.357a8.11,8.11,0,0,1,.266-2.519,3.1,3.1,0,0,1,1.821-2.033,4.463,4.463,0,0,1,2.74-.042l-.536.4a5.76,5.76,0,0,1,.622-2.846,4.215,4.215,0,0,1,2.38-2.01l-.257.6a6.549,6.549,0,0,1-.878-2.88,4.236,4.236,0,0,1,1.078-2.94,6.1,6.1,0,0,1,2.63-1.719,2.259,2.259,0,0,1,1.763.187,3.578,3.578,0,0,1,1.23,1.172l-.044-.06.271.305L247.7,122.309l-.722.274q0-1.434,0-2.842l.14.308a12.014,12.014,0,0,1-3.479-5.263,8.725,8.725,0,0,1-.184-3.124,4.908,4.908,0,0,1,1.2-2.939l.25-.262.279.289c2.7,2.783,5.267,5.491,7.653,8.15a42.573,42.573,0,0,1,3.34,4.077,3.371,3.371,0,0,1,.457,1.295q.111.625.221,1.24.177,1.228.35,2.422.317,2.388.551,4.632.111,1.124.216,2.21a8.163,8.163,0,0,1-.034,2.193c-.371,2.777-1.221,5.317-1.056,7.537a3.539,3.539,0,0,0,.756,1.384c.323.441.667.851.993,1.253q1.007,1.192,1.924,2.207l3.145,3.421,1.979,2.12a5.856,5.856,0,0,1,.657.756,5.567,5.567,0,0,1-.749-.664l-2.071-2.034c-.893-.9-1.986-2.013-3.234-3.349q-.942-1-1.976-2.181c-.337-.4-.691-.809-1.03-1.256a3.916,3.916,0,0,1-.865-1.574c-.21-2.469.631-4.945.957-7.692a18.28,18.28,0,0,0-.226-4.262c-.173-1.489-.367-3.029-.589-4.611q-.182-1.182-.367-2.4-.111-.6-.224-1.209a2.71,2.71,0,0,0-.375-1.066,42.974,42.974,0,0,0-3.294-3.96c-2.388-2.63-4.966-5.325-7.669-8.089l.53.026a4.352,4.352,0,0,0-.915,2.428,7.9,7.9,0,0,0,.17,2.819,11.264,11.264,0,0,0,3.244,4.86l.14.131v.179q0,1.409,0,2.842l0,1.087-.723-.812c-3.332-3.741-6.78-7.613-10.3-11.571-.094-.1-.186-.21-.271-.305l-.019-.023-.026-.039a1.878,1.878,0,0,0-2.028-.995,5.283,5.283,0,0,0-2.247,1.469,3.383,3.383,0,0,0-.873,2.369,5.746,5.746,0,0,0,.767,2.494l.241.446-.5.16a3.437,3.437,0,0,0-1.865,1.6,4.963,4.963,0,0,0-.528,2.435l.015.552-.551-.153a3.678,3.678,0,0,0-2.2.023,2.281,2.281,0,0,0-1.343,1.523,7.348,7.348,0,0,0-.234,2.267q0,1.2,0,2.357v.809l-.646-.5a1.807,1.807,0,0,0-2.5.09,4.6,4.6,0,0,0-.794,2.837,12.325,12.325,0,0,0,.321,3.085,16.2,16.2,0,0,0,1.492,2.6c2.259,3.424,4.581,6.563,6.812,9.424a51.635,51.635,0,0,0,6.709,7.422c.305.208.589.4.915.58s.675.334,1,.513c.649.354,1.269.719,1.852,1.1a23.025,23.025,0,0,1,3.118,2.419l.01.008.006.011c2.546,3.137,4.55,5.609,5.963,7.349.644.815,1.154,1.458,1.537,1.942A4.742,4.742,0,0,1,251.4,167.856Z" transform="translate(-220.404 -108.463)" fill="#aa6550"/>
                    </g>
                  </g>
                </g>
                <g id="Group_978345" data-name="Group 978345" transform="translate(11.066 11.667)">
                  <g id="Group_978344" data-name="Group 978344">
                    <path id="Path_667286" data-name="Path 667286" d="M244.946,122.8c-.181.145-2.06-1.9-4.195-4.569s-3.72-4.952-3.539-5.1,2.059,1.9,4.195,4.571S245.127,122.659,244.946,122.8Z" transform="translate(-237.198 -113.129)" fill="#aa6550"/>
                  </g>
                </g>
                <g id="Group_978347" data-name="Group 978347" transform="translate(8.795 16.422)">
                  <g id="Group_978346" data-name="Group 978346">
                    <path id="Path_667287" data-name="Path 667287" d="M245.066,123.153c-.16.157-1.608-1.117-2.83-3.129s-1.707-3.875-1.5-3.946,1.029,1.582,2.212,3.507S245.243,122.992,245.066,123.153Z" transform="translate(-240.691 -116.075)" fill="#aa6550"/>
                  </g>
                </g>
                <g id="Group_978349" data-name="Group 978349" transform="translate(3.853 22.997)">
                  <g id="Group_978348" data-name="Group 978348">
                    <path id="Path_667288" data-name="Path 667288" d="M247.407,124.873c-.205.108-.93-.861-1.616-2.162s-1.078-2.448-.873-2.556.928.861,1.616,2.164S247.612,124.765,247.407,124.873Z" transform="translate(-244.863 -120.147)" fill="#aa6550"/>
                  </g>
                </g>
              </g>
            </g>
            <g id="Group_978352" data-name="Group 978352" transform="translate(101.093 183.347)">
              <rect id="Rectangle_352463" data-name="Rectangle 352463" width="28.935" height="6.282" transform="translate(0 0)" fill="#263238"/>
            </g>
            <g id="Group_978415" data-name="Group 978415" transform="translate(75.246 265.054)">
              <g id="Group_978353" data-name="Group 978353" transform="translate(7.959 12.13)">
                <path id="Path_667289" data-name="Path 667289" d="M196.328,224.735s1.007,22.936,52.424,21.172,72.086-21.172,72.086-21.172V248.8s-55.749,22.148-94.265,16.589c-30.245-4.364-37.051-16.589-37.051-16.589Z" transform="translate(-189.523 -224.735)" fill="#455a64"/>
              </g>
              <g id="Group_978366" data-name="Group 978366" transform="translate(39.813 18.264)">
                <g id="Group_978357" data-name="Group 978357">
                  <g id="Group_978354" data-name="Group 978354" transform="translate(0.408 0.42)">
                    <path id="Path_667290" data-name="Path 667290" d="M249.008,276.935h0a7.813,7.813,0,0,1-7.813-7.814V236.607a7.812,7.812,0,0,1,7.813-7.813h0a7.814,7.814,0,0,1,7.814,7.813v32.514A7.815,7.815,0,0,1,249.008,276.935Z" transform="translate(-241.195 -228.794)" fill="#455a64"/>
                  </g>
                  <g id="Group_978356" data-name="Group 978356">
                    <g id="Group_978355" data-name="Group 978355">
                      <path id="Path_667291" data-name="Path 667291" d="M249.164,277.095c0-.045.4-.042,1.141-.179a7.921,7.921,0,0,0,3.009-1.214,7.661,7.661,0,0,0,3.031-4.014,8.842,8.842,0,0,0,.365-3.166q-.015-1.749-.031-3.681c-.026-5.192-.055-11.333-.089-18.135-.027-3.4.018-7.036-.061-10.669a7.4,7.4,0,0,0-14.729,0c-.079,3.633-.036,7.275-.061,10.671-.034,6.8-.065,12.944-.09,18.135q-.017,1.932-.031,3.683a8.863,8.863,0,0,0,.365,3.164,7.668,7.668,0,0,0,3.03,4.014,7.932,7.932,0,0,0,3.01,1.214c.739.137,1.143.134,1.141.179a4.5,4.5,0,0,1-1.166-.011,7.565,7.565,0,0,1-3.163-1.108,7.922,7.922,0,0,1-3.3-4.138,9.29,9.29,0,0,1-.454-3.315q-.015-1.749-.029-3.683c-.026-5.191-.056-11.331-.09-18.135.008-3.431-.06-6.957.016-10.751a8.224,8.224,0,0,1,16.368,0c.076,3.791.01,7.317.016,10.748-.032,6.8-.063,12.942-.089,18.135q-.017,1.93-.031,3.681a9.251,9.251,0,0,1-.454,3.315,7.918,7.918,0,0,1-3.3,4.14,7.56,7.56,0,0,1-3.161,1.108A4.514,4.514,0,0,1,249.164,277.095Z" transform="translate(-240.943 -228.534)" fill="#263238"/>
                    </g>
                  </g>
                </g>
                <g id="Group_978361" data-name="Group 978361" transform="translate(5.958 12.576)">
                  <g id="Group_978358" data-name="Group 978358" transform="translate(0.364 0.082)">
                    <path id="Path_667292" data-name="Path 667292" d="M246.731,236.374a2.218,2.218,0,0,0-1.858,1.828,1.959,1.959,0,0,0,1.434,2.112,2.144,2.144,0,0,0,2.328-1.542,2.011,2.011,0,0,0-1.9-2.4" transform="translate(-244.859 -236.374)" fill="#455a64"/>
                  </g>
                  <g id="Group_978360" data-name="Group 978360">
                    <g id="Group_978359" data-name="Group 978359">
                      <path id="Path_667293" data-name="Path 667293" d="M246.868,236.405c0-.05.182-.108.51-.069a1.921,1.921,0,0,1,1.258.68,2.45,2.45,0,0,1,.45,2.131,2.58,2.58,0,0,1-2.125,1.636,2.164,2.164,0,0,1-2.207-1.526,2.187,2.187,0,0,1,.4-2.131c.859-.957,1.749-.811,1.715-.72.039.126-.7.247-1.235,1.074a1.622,1.622,0,0,0-.152,1.51,1.432,1.432,0,0,0,1.392.957,1.928,1.928,0,0,0,1.477-1.043,1.974,1.974,0,0,0-.194-1.534C247.633,236.584,246.817,236.554,246.868,236.405Z" transform="translate(-244.631 -236.323)" fill="#263238"/>
                    </g>
                  </g>
                </g>
                <g id="Group_978365" data-name="Group 978365" transform="translate(5.994 31.837)">
                  <g id="Group_978362" data-name="Group 978362" transform="translate(0.365 0.081)">
                    <path id="Path_667294" data-name="Path 667294" d="M246.708,248.3a2.216,2.216,0,0,0-1.858,1.829,1.961,1.961,0,0,0,1.434,2.112,2.146,2.146,0,0,0,2.328-1.542,2.012,2.012,0,0,0-1.9-2.4" transform="translate(-244.836 -248.303)" fill="#455a64"/>
                  </g>
                  <g id="Group_978364" data-name="Group 978364">
                    <g id="Group_978363" data-name="Group 978363">
                      <path id="Path_667295" data-name="Path 667295" d="M246.846,248.334c0-.048.182-.107.51-.069a1.924,1.924,0,0,1,1.258.681,2.445,2.445,0,0,1,.45,2.13,2.58,2.58,0,0,1-2.125,1.636,2.164,2.164,0,0,1-2.209-1.524,2.19,2.19,0,0,1,.4-2.131c.859-.958,1.749-.811,1.715-.722.039.128-.7.249-1.237,1.074a1.629,1.629,0,0,0-.15,1.511,1.432,1.432,0,0,0,1.392.957,1.93,1.93,0,0,0,1.477-1.045,1.982,1.982,0,0,0-.194-1.534C247.611,248.515,246.794,248.484,246.846,248.334Z" transform="translate(-244.608 -248.253)" fill="#263238"/>
                    </g>
                  </g>
                </g>
              </g>
              <g id="Group_978379" data-name="Group 978379" transform="translate(19.486 16.701)">
                <g id="Group_978370" data-name="Group 978370">
                  <g id="Group_978367" data-name="Group 978367" transform="translate(0.408 0.42)">
                    <path id="Path_667296" data-name="Path 667296" d="M261.6,275.967h0a7.814,7.814,0,0,1-7.813-7.813V235.639a7.814,7.814,0,0,1,7.813-7.813h0a7.814,7.814,0,0,1,7.814,7.813v32.515A7.814,7.814,0,0,1,261.6,275.967Z" transform="translate(-253.785 -227.826)" fill="#455a64"/>
                  </g>
                  <g id="Group_978369" data-name="Group 978369">
                    <g id="Group_978368" data-name="Group 978368">
                      <path id="Path_667297" data-name="Path 667297" d="M261.753,276.127c0-.045.4-.042,1.141-.178a7.955,7.955,0,0,0,3.01-1.216,7.653,7.653,0,0,0,3.03-4.014,8.829,8.829,0,0,0,.365-3.165q-.015-1.749-.029-3.683c-.026-5.191-.057-11.331-.09-18.135-.027-3.394.018-7.036-.061-10.667a7.4,7.4,0,0,0-14.729,0c-.079,3.631-.034,7.274-.061,10.669-.034,6.8-.065,12.945-.091,18.136q-.014,1.93-.029,3.683a8.869,8.869,0,0,0,.363,3.164,7.652,7.652,0,0,0,3.032,4.012,7.95,7.95,0,0,0,3.008,1.216c.74.136,1.143.132,1.141.178a4.418,4.418,0,0,1-1.166-.011,7.565,7.565,0,0,1-3.163-1.108,7.915,7.915,0,0,1-3.3-4.138,9.279,9.279,0,0,1-.454-3.313q-.014-1.751-.029-3.683c-.026-5.191-.056-11.333-.09-18.136.008-3.431-.06-6.957.016-10.75a8.224,8.224,0,0,1,16.368,0c.077,3.793.01,7.317.018,10.748-.034,6.8-.065,12.944-.09,18.135q-.017,1.933-.031,3.683a9.259,9.259,0,0,1-.454,3.315,7.927,7.927,0,0,1-3.3,4.138,7.572,7.572,0,0,1-3.163,1.108A4.434,4.434,0,0,1,261.753,276.127Z" transform="translate(-253.533 -227.566)" fill="#263238"/>
                    </g>
                  </g>
                </g>
                <g id="Group_978374" data-name="Group 978374" transform="translate(5.958 14.139)">
                  <g id="Group_978371" data-name="Group 978371" transform="translate(0.364 0.082)">
                    <path id="Path_667298" data-name="Path 667298" d="M259.321,236.374a2.218,2.218,0,0,0-1.858,1.828,1.959,1.959,0,0,0,1.434,2.112,2.147,2.147,0,0,0,2.33-1.542,2.013,2.013,0,0,0-1.905-2.4" transform="translate(-257.448 -236.374)" fill="#455a64"/>
                  </g>
                  <g id="Group_978373" data-name="Group 978373">
                    <g id="Group_978372" data-name="Group 978372">
                      <path id="Path_667299" data-name="Path 667299" d="M259.458,236.405c0-.05.182-.108.51-.069a1.91,1.91,0,0,1,1.258.68,2.446,2.446,0,0,1,.45,2.131,2.581,2.581,0,0,1-2.125,1.636,2.165,2.165,0,0,1-2.207-1.526,2.187,2.187,0,0,1,.4-2.131c.859-.957,1.749-.811,1.715-.72.04.126-.7.247-1.235,1.074a1.626,1.626,0,0,0-.152,1.51,1.432,1.432,0,0,0,1.392.957,1.932,1.932,0,0,0,1.477-1.043,1.98,1.98,0,0,0-.192-1.534C260.223,236.584,259.406,236.554,259.458,236.405Z" transform="translate(-257.221 -236.323)" fill="#263238"/>
                    </g>
                  </g>
                </g>
                <g id="Group_978378" data-name="Group 978378" transform="translate(0.075 23.009)">
                  <g id="Group_978375" data-name="Group 978375" transform="translate(0.003 0.017)">
                    <path id="Path_667300" data-name="Path 667300" d="M253.676,241.828a16.452,16.452,0,0,0,16.133,1.234" transform="translate(-253.676 -241.828)" fill="#455a64"/>
                  </g>
                  <g id="Group_978377" data-name="Group 978377">
                    <g id="Group_978376" data-name="Group 978376">
                      <path id="Path_667301" data-name="Path 667301" d="M269.811,243.068a5.309,5.309,0,0,1-2.228,1.167,15.237,15.237,0,0,1-11.88-.907c-1.379-.743-2.083-1.414-2.025-1.493.123-.236,3.323,2.007,7.937,2.319C266.223,244.545,269.727,242.816,269.811,243.068Z" transform="translate(-253.675 -241.817)" fill="#263238"/>
                    </g>
                  </g>
                </g>
              </g>
              <g id="Group_978392" data-name="Group 978392" transform="translate(129.319 0.906)">
                <g id="Group_978383" data-name="Group 978383">
                  <g id="Group_978380" data-name="Group 978380" transform="translate(0.408 0.42)">
                    <path id="Path_667302" data-name="Path 667302" d="M193.572,266.184h0a7.815,7.815,0,0,1-7.814-7.814V225.856a7.813,7.813,0,0,1,7.814-7.813h0a7.813,7.813,0,0,1,7.813,7.813V258.37A7.814,7.814,0,0,1,193.572,266.184Z" transform="translate(-185.758 -218.043)" fill="#455a64"/>
                  </g>
                  <g id="Group_978382" data-name="Group 978382">
                    <g id="Group_978381" data-name="Group 978381">
                      <path id="Path_667303" data-name="Path 667303" d="M193.728,266.344c0-.045.4-.042,1.142-.179a7.931,7.931,0,0,0,3.009-1.214,7.669,7.669,0,0,0,3.03-4.014,8.878,8.878,0,0,0,.363-3.166q-.012-1.749-.029-3.681c-.026-5.192-.056-11.332-.09-18.135-.027-3.4.018-7.036-.061-10.669a7.4,7.4,0,0,0-14.73,0c-.079,3.633-.034,7.275-.061,10.671-.034,6.8-.065,12.944-.09,18.136q-.014,1.93-.029,3.681a8.842,8.842,0,0,0,.365,3.166,7.663,7.663,0,0,0,3.031,4.012,7.921,7.921,0,0,0,3.01,1.214c.739.137,1.143.134,1.141.179a4.529,4.529,0,0,1-1.167-.011,7.561,7.561,0,0,1-3.161-1.108,7.908,7.908,0,0,1-3.3-4.138,9.255,9.255,0,0,1-.454-3.315q-.015-1.749-.031-3.681c-.026-5.192-.057-11.332-.09-18.136.008-3.431-.06-6.957.016-10.751a8.225,8.225,0,0,1,16.37,0c.076,3.791.008,7.317.016,10.748-.034,6.8-.065,12.942-.09,18.135q-.015,1.93-.029,3.681a9.285,9.285,0,0,1-.454,3.315,7.919,7.919,0,0,1-3.3,4.14,7.559,7.559,0,0,1-3.163,1.108A4.514,4.514,0,0,1,193.728,266.344Z" transform="translate(-185.505 -217.783)" fill="#263238"/>
                    </g>
                  </g>
                </g>
                <g id="Group_978387" data-name="Group 978387" transform="translate(5.958 12.576)">
                  <g id="Group_978384" data-name="Group 978384" transform="translate(0.364 0.082)">
                    <path id="Path_667304" data-name="Path 667304" d="M191.3,225.623a2.217,2.217,0,0,0-1.86,1.828,1.96,1.96,0,0,0,1.434,2.112,2.145,2.145,0,0,0,2.33-1.542,2.012,2.012,0,0,0-1.9-2.4" transform="translate(-189.421 -225.623)" fill="#455a64"/>
                  </g>
                  <g id="Group_978386" data-name="Group 978386">
                    <g id="Group_978385" data-name="Group 978385">
                      <path id="Path_667305" data-name="Path 667305" d="M191.432,225.654c0-.05.181-.108.51-.069a1.907,1.907,0,0,1,1.256.68,2.445,2.445,0,0,1,.45,2.131,2.578,2.578,0,0,1-2.123,1.636,2.233,2.233,0,0,1-1.808-3.657c.859-.956,1.747-.811,1.715-.72.039.126-.7.247-1.237,1.074a1.626,1.626,0,0,0-.152,1.51,1.429,1.429,0,0,0,1.392.957,1.928,1.928,0,0,0,1.479-1.043,1.988,1.988,0,0,0-.194-1.534C192.2,225.833,191.38,225.8,191.432,225.654Z" transform="translate(-189.194 -225.572)" fill="#263238"/>
                    </g>
                  </g>
                </g>
                <g id="Group_978391" data-name="Group 978391" transform="translate(5.995 31.837)">
                  <g id="Group_978388" data-name="Group 978388" transform="translate(0.364 0.081)">
                    <path id="Path_667306" data-name="Path 667306" d="M191.272,237.552a2.218,2.218,0,0,0-1.86,1.829,1.961,1.961,0,0,0,1.434,2.112,2.148,2.148,0,0,0,2.33-1.542,2.014,2.014,0,0,0-1.9-2.4" transform="translate(-189.398 -237.552)" fill="#455a64"/>
                  </g>
                  <g id="Group_978390" data-name="Group 978390">
                    <g id="Group_978389" data-name="Group 978389">
                      <path id="Path_667307" data-name="Path 667307" d="M191.409,237.583c0-.048.181-.107.51-.069a1.918,1.918,0,0,1,1.256.681,2.441,2.441,0,0,1,.451,2.13,2.578,2.578,0,0,1-2.123,1.636,2.164,2.164,0,0,1-2.209-1.524,2.187,2.187,0,0,1,.4-2.131c.857-.957,1.747-.81,1.715-.722.039.128-.7.249-1.237,1.074a1.63,1.63,0,0,0-.152,1.511,1.433,1.433,0,0,0,1.392.957,1.93,1.93,0,0,0,1.479-1.045,1.989,1.989,0,0,0-.194-1.534C192.173,237.764,191.356,237.733,191.409,237.583Z" transform="translate(-189.171 -237.502)" fill="#263238"/>
                    </g>
                  </g>
                </g>
              </g>
              <g id="Group_978405" data-name="Group 978405" transform="translate(108.226 8.417)">
                <g id="Group_978396" data-name="Group 978396">
                  <g id="Group_978393" data-name="Group 978393" transform="translate(0.408 0.42)">
                    <path id="Path_667308" data-name="Path 667308" d="M206.635,270.836h0a7.814,7.814,0,0,1-7.813-7.813V230.509a7.814,7.814,0,0,1,7.813-7.814h0a7.815,7.815,0,0,1,7.814,7.814v32.514A7.814,7.814,0,0,1,206.635,270.836Z" transform="translate(-198.822 -222.695)" fill="#455a64"/>
                  </g>
                  <g id="Group_978395" data-name="Group 978395">
                    <g id="Group_978394" data-name="Group 978394">
                      <path id="Path_667309" data-name="Path 667309" d="M206.79,271c0-.045.4-.042,1.141-.178a7.955,7.955,0,0,0,3.009-1.216,7.653,7.653,0,0,0,3.031-4.014,8.828,8.828,0,0,0,.365-3.164q-.014-1.749-.029-3.683c-.026-5.191-.056-11.331-.09-18.135-.027-3.394.018-7.036-.061-10.667a7.4,7.4,0,0,0-14.73,0c-.079,3.631-.034,7.274-.061,10.669-.034,6.8-.065,12.945-.09,18.136-.01,1.287-.021,2.517-.029,3.683a8.829,8.829,0,0,0,.365,3.165,7.642,7.642,0,0,0,3.031,4.012,7.924,7.924,0,0,0,3.008,1.216c.739.136,1.143.132,1.142.178a4.447,4.447,0,0,1-1.166-.01,7.6,7.6,0,0,1-3.163-1.109,7.923,7.923,0,0,1-3.3-4.138,9.318,9.318,0,0,1-.454-3.313c-.01-1.166-.019-2.4-.029-3.683-.026-5.191-.056-11.333-.09-18.136.008-3.431-.06-6.957.016-10.75a8.225,8.225,0,0,1,16.37,0c.076,3.793.008,7.319.016,10.748-.034,6.8-.065,12.944-.09,18.135q-.017,1.933-.031,3.683a9.26,9.26,0,0,1-.454,3.315,7.912,7.912,0,0,1-3.3,4.138,7.574,7.574,0,0,1-3.163,1.108A4.43,4.43,0,0,1,206.79,271Z" transform="translate(-198.57 -222.435)" fill="#263238"/>
                    </g>
                  </g>
                </g>
                <g id="Group_978400" data-name="Group 978400" transform="translate(5.958 14.139)">
                  <g id="Group_978397" data-name="Group 978397" transform="translate(0.364 0.082)">
                    <path id="Path_667310" data-name="Path 667310" d="M204.359,231.243a2.217,2.217,0,0,0-1.86,1.828,1.959,1.959,0,0,0,1.434,2.112,2.147,2.147,0,0,0,2.33-1.542,2.013,2.013,0,0,0-1.9-2.4" transform="translate(-202.485 -231.243)" fill="#455a64"/>
                  </g>
                  <g id="Group_978399" data-name="Group 978399">
                    <g id="Group_978398" data-name="Group 978398">
                      <path id="Path_667311" data-name="Path 667311" d="M204.5,231.274c0-.05.181-.108.51-.069a1.917,1.917,0,0,1,1.256.68,2.445,2.445,0,0,1,.45,2.131,2.578,2.578,0,0,1-2.125,1.636,2.164,2.164,0,0,1-2.207-1.526,2.187,2.187,0,0,1,.4-2.131c.859-.956,1.749-.811,1.716-.72.039.126-.7.247-1.237,1.074a1.626,1.626,0,0,0-.152,1.51,1.428,1.428,0,0,0,1.392.957,1.923,1.923,0,0,0,1.477-1.043,1.981,1.981,0,0,0-.192-1.534C205.26,231.453,204.443,231.424,204.5,231.274Z" transform="translate(-202.258 -231.192)" fill="#263238"/>
                    </g>
                  </g>
                </g>
                <g id="Group_978404" data-name="Group 978404" transform="translate(0.075 23.009)">
                  <g id="Group_978401" data-name="Group 978401" transform="translate(0.003 0.019)">
                    <path id="Path_667312" data-name="Path 667312" d="M198.713,236.7a16.456,16.456,0,0,0,16.133,1.232" transform="translate(-198.713 -236.698)" fill="#455a64"/>
                  </g>
                  <g id="Group_978403" data-name="Group 978403">
                    <g id="Group_978402" data-name="Group 978402">
                      <path id="Path_667313" data-name="Path 667313" d="M214.848,237.937a5.31,5.31,0,0,1-2.226,1.167,15.241,15.241,0,0,1-11.881-.907c-1.377-.743-2.083-1.414-2.025-1.493.123-.236,3.323,2.007,7.937,2.318C211.26,239.414,214.764,237.685,214.848,237.937Z" transform="translate(-198.712 -236.686)" fill="#263238"/>
                    </g>
                  </g>
                </g>
              </g>
              <g id="Group_978409" data-name="Group 978409">
                <g id="Group_978406" data-name="Group 978406" transform="translate(0.219 0.421)">
                  <path id="Path_667314" data-name="Path 667314" d="M273.024,292.75h0a8.106,8.106,0,0,1-7.977-8.229l.915-59.06a8.1,8.1,0,0,1,8.228-7.977h0a8.1,8.1,0,0,1,7.977,8.228l-.914,59.062A8.1,8.1,0,0,1,273.024,292.75Z" transform="translate(-265.044 -217.482)" fill="#455a64"/>
                </g>
                <g id="Group_978408" data-name="Group 978408">
                  <g id="Group_978407" data-name="Group 978407">
                    <path id="Path_667315" data-name="Path 667315" d="M272.984,292.91c0-.053.6-.014,1.692-.241a8.088,8.088,0,0,0,5.917-5.323,12.585,12.585,0,0,0,.412-4.127c.029-3.048.061-6.5.1-10.32.094-7.668.2-16.767.326-26.863.069-5.057.144-10.364.221-15.863q.029-2.063.06-4.161a7.89,7.89,0,0,0-.9-3.872,7.685,7.685,0,0,0-13.456-.213,7.877,7.877,0,0,0-1.02,3.843q-.034,2.1-.068,4.162c-.094,5.5-.184,10.806-.271,15.865-.19,10.1-.362,19.2-.505,26.863-.082,3.814-.157,7.27-.223,10.317a12.527,12.527,0,0,0,.284,4.136,8.083,8.083,0,0,0,5.751,5.5c1.085.258,1.686.24,1.681.292a5.972,5.972,0,0,1-1.72-.127,8.114,8.114,0,0,1-4.279-2.433,8.357,8.357,0,0,1-1.816-3.118,12.8,12.8,0,0,1-.371-4.261c.029-3.048.061-6.505.1-10.32.092-7.667.2-16.767.324-26.866.071-5.057.145-10.364.221-15.865q.031-2.063.061-4.162a8.728,8.728,0,0,1,1.125-4.246,8.519,8.519,0,0,1,14.92.236,8.723,8.723,0,0,1,.991,4.279q-.034,2.1-.068,4.161c-.094,5.5-.184,10.8-.27,15.861-.191,10.1-.362,19.194-.507,26.861-.082,3.814-.157,7.27-.221,10.319a12.826,12.826,0,0,1-.5,4.246,8.35,8.35,0,0,1-1.913,3.061,8.106,8.106,0,0,1-4.351,2.3A5.941,5.941,0,0,1,272.984,292.91Z" transform="translate(-264.787 -217.222)" fill="#263238"/>
                  </g>
                </g>
              </g>
              <g id="Group_978410" data-name="Group 978410" transform="translate(66.982 28.317)">
                <path id="Path_667316" data-name="Path 667316" d="M223.2,235.756l15.182-.99a2.693,2.693,0,0,1,2.861,2.512l1.419,21.8a2.691,2.691,0,0,1-2.511,2.861l-15.182.988a2.69,2.69,0,0,1-2.861-2.511l-1.421-21.8A2.692,2.692,0,0,1,223.2,235.756Zm16.342,20.558-1-15.329a2.692,2.692,0,0,0-2.861-2.512l-9.687.631a2.692,2.692,0,0,0-2.511,2.861l1,15.33a2.692,2.692,0,0,0,2.863,2.511l9.686-.63A2.694,2.694,0,0,0,239.542,256.314Z" transform="translate(-220.681 -234.761)" fill="#263238"/>
              </g>
              <g id="Group_978412" data-name="Group 978412" transform="translate(77.995 37.669)">
                <g id="Group_978411" data-name="Group 978411">
                  <path id="Path_667317" data-name="Path 667317" d="M233.072,242.516c-.094.245-3.244-1.355-7.422-1.108-4.183.174-7.156,2.083-7.274,1.847-.057-.081.6-.676,1.871-1.317a13.928,13.928,0,0,1,10.829-.544C232.406,241.9,233.118,242.429,233.072,242.516Z" transform="translate(-218.373 -240.553)" fill="#263238"/>
                </g>
              </g>
              <g id="Group_978414" data-name="Group 978414" transform="translate(78.933 43.35)">
                <g id="Group_978413" data-name="Group 978413">
                  <path id="Path_667318" data-name="Path 667318" d="M232.3,246.039c-.1.242-3.139-1.437-7.212-1.1-4.082.258-6.846,2.364-6.976,2.138-.061-.076.526-.714,1.731-1.419a12.47,12.47,0,0,1,10.538-.773C231.671,245.409,232.347,245.955,232.3,246.039Z" transform="translate(-218.104 -244.071)" fill="#263238"/>
                </g>
              </g>
            </g>
          </g>
        </g>
      </g>
      <g id="Group_978418" data-name="Group 978418" transform="translate(112.147 396.925)">
        <path id="Path_117467" data-name="Path 117467" d="M216.16,581.657h50.189l-86.362-80.295a18.7,18.7,0,0,0-25.094,0,15.693,15.693,0,0,0,0,23.334Z" transform="translate(21.423 -448.583)" fill="#535353"/>
        <path id="Path_117469" data-name="Path 117469" d="M252.228,629.606H397.263L269.149,510.494c-20.024-18.619-52.491-18.619-72.517,0s-20.024,48.8,0,67.423Z" transform="translate(-181.614 -496.53)" fill="#f88f05"/>
      </g>
    </g>
  </g>
</svg>
