<svg xmlns="http://www.w3.org/2000/svg" width="76.999" height="76.999" viewBox="0 0 76.999 76.999">
  <g id="_6" data-name="6" transform="translate(-331 -1539)">
    <circle id="Ellipse_4724" data-name="Ellipse 4724" cx="38.5" cy="38.5" r="38.5" transform="translate(331 1539)" fill="#ff8a00"/>
    <g id="choque-de-autos" transform="translate(343.449 1550.602)">
      <path id="Path_679616" data-name="Path 679616" d="M0,0H1.605V3.21H0Z" transform="translate(7.158 34.197) rotate(-82.008)"/>
      <path id="Path_679617" data-name="Path 679617" d="M0,0H1.605V1.605H0Z" transform="translate(13.761 44.856) rotate(-82.008)"/>
      <path id="Path_679618" data-name="Path 679618" d="M50.2,28.116l-.14-1.6-16.1,1.409a2.408,2.408,0,0,0-2.167,2l-.73,4.384a1.605,1.605,0,0,0,1.594,1.782,1.4,1.4,0,0,0,.141-.006l13.416-1.176.98,11.194-4.86.425a5.611,5.611,0,0,0-11.068.968l-2.462.215a.788.788,0,0,1-.584-.185.8.8,0,0,1-.285-.544l-.07-.8,2.4-.21-.14-1.6-2.4.213-.072-.825,2.827-1.7a.8.8,0,0,0,.154-1.255l-1.038-1.037,1.038-1.038a.8.8,0,0,0-.209-1.284l-2.767-1.384c.072-.283.143-.567.235-.844L30.91,27.89a2.4,2.4,0,0,1,2.017-1.482L49.47,24.963a2.522,2.522,0,0,1,.545.014l.225-1.589a4.093,4.093,0,0,0-.909-.024L32.786,24.809a4,4,0,0,0-3.361,2.471L26.39,34.664a13.564,13.564,0,0,0-.681,3.653,5.682,5.682,0,0,0-.655-1.128,5.584,5.584,0,0,0-3.7-2.182l-1.279-.18,4.272-2.848,1.14,1.14,1.135-1.135L25.012,30.38A.8.8,0,0,0,24,30.28l-5.763,3.841-5.312-8.572a4.008,4.008,0,0,0-2.852-1.859l-7.99-1.124-.223,1.59L9.85,25.28a2.4,2.4,0,0,1,1.712,1.115l.507.818-9.985-1.4L1.861,27.4l3.468.488-.67,4.768-2.575-.361-.223,1.589,2.575.362L2.871,45.371l-.787-.111L1.861,46.85l7.208,1.013a5.613,5.613,0,0,0,11,1.547l2.447.344A2.4,2.4,0,0,0,25.239,47.7l.706-5.03.39,4.449a2.413,2.413,0,0,0,2.393,2.2,1.7,1.7,0,0,0,.212-.009l2.462-.216a5.625,5.625,0,0,0,5.458,4.334q.246,0,.494-.022a5.607,5.607,0,0,0,5.114-5.281l7.727-.677-.14-1.6-1.268.111-.979-11.194,2.387-.209-.14-1.6-2.387.215-.419-4.8ZM24.541,41.123l-.112.795-3.178-.447.223-1.589,3.1.435a4.063,4.063,0,0,1-.031.807ZM6.919,28.109l6.247.878v0l3.307,5.332L6.248,32.878ZM18.656,48.4a4.013,4.013,0,1,1-3.982-4.572,4.1,4.1,0,0,1,.567.039A4.019,4.019,0,0,1,18.656,48.4Zm4.085-.236-2.448-.344a5.608,5.608,0,0,0-11-1.546l-4.837-.679L6.025,34.472l11.919,1.672,3.179.447a3.793,3.793,0,0,1,2.937,2.033l-2.365-.332a1.605,1.605,0,0,0-1.813,1.364l-.223,1.589a1.605,1.605,0,0,0,1.364,1.814L24.2,43.5l-.223,1.59-2.384-.335-.223,1.589,2.384.335-.112.795a.8.8,0,0,1-.9.685Zm5.967-9.78-.818.818a.8.8,0,0,0,0,1.135l.879.877-1.275.766-.168-1.917a12.167,12.167,0,0,1,.028-2.358Zm12.156,9.08a4.013,4.013,0,1,1-4.347-3.648c.119-.01.241-.016.356-.016a4.013,4.013,0,0,1,3.99,3.664Zm5.208-14.142L32.649,34.529l.726-4.334a.8.8,0,0,1,.722-.667l11.557-1.011Z" transform="translate(0 -3.665)"/>
      <path id="Path_679619" data-name="Path 679619" d="M0,0H3.21V1.605H0Z" transform="translate(33.547 33.963) rotate(-4.992)"/>
      <path id="Path_679620" data-name="Path 679620" d="M0,0H1.605V1.605H0Z" transform="translate(35.973 43.426) rotate(-4.992)"/>
      <path id="Path_679621" data-name="Path 679621" d="M17.643,24.791l1.135-1.135L17.74,22.618h2.075a.8.8,0,0,0,.8-.8V19.74l2.643,2.643a.8.8,0,0,0,1.135,0l2.643-2.643v2.075a.8.8,0,0,0,.8.8h2.878l-1.84,1.84,1.135,1.135,3.21-3.21a.8.8,0,0,0-.567-1.37H28.644V17.8a.8.8,0,0,0-1.37-.567l-3.445,3.445-3.445-3.445a.8.8,0,0,0-1.37.567v3.21H15.8a.8.8,0,0,0-.567,1.37Z" transform="translate(-2.594 -2.566)"/>
      <path id="Path_679622" data-name="Path 679622" d="M24.3,14.026h1.605a1.091,1.091,0,0,1,.373-.819,2.666,2.666,0,0,0,0-3.708,1.09,1.09,0,0,1,0-1.644A2.641,2.641,0,0,0,27.029,6H25.424a1.093,1.093,0,0,1-.374.822,2.669,2.669,0,0,0,0,3.71,1.088,1.088,0,0,1,0,1.641A2.632,2.632,0,0,0,24.3,14.026Z" transform="translate(-4.43 -0.395)"/>
      <path id="Path_679623" data-name="Path 679623" d="M30.3,12.026h1.605a1.092,1.092,0,0,1,.373-.819,2.666,2.666,0,0,0,0-3.708,1.09,1.09,0,0,1,0-1.644A2.64,2.64,0,0,0,33.029,4H31.424a1.093,1.093,0,0,1-.374.822,2.669,2.669,0,0,0,0,3.71,1.088,1.088,0,0,1,0,1.641,2.633,2.633,0,0,0-.75,1.853Z" transform="translate(-5.614 0)"/>
    </g>
  </g>
</svg>
