<svg xmlns="http://www.w3.org/2000/svg" xmlns:xlink="http://www.w3.org/1999/xlink" width="76.999" height="76.999" viewBox="0 0 76.999 76.999">
  <defs>
    <clipPath id="clip-path">
      <path id="path2854" d="M0-682.665H51.323v51.323H0Z" transform="translate(0 682.665)"/>
    </clipPath>
  </defs>
  <g id="_7" data-name="7" transform="translate(-331 -1539)">
    <circle id="Ellipse_4724" data-name="Ellipse 4724" cx="38.5" cy="38.5" r="38.5" transform="translate(331 1539)" fill="#ff8a00"/>
    <g id="g2844" transform="translate(343.92 2234.754)">
      <g id="g2846" transform="translate(16.45 -639.271)">
        <path id="path2848" d="M-55.674,0H-60.2" transform="translate(60.2)" fill="none" stroke="#000" stroke-linejoin="round" stroke-miterlimit="10" stroke-width="2"/>
      </g>
      <g id="g2850" transform="translate(0 -682.665)">
        <g id="g2852" clip-path="url(#clip-path)">
          <g id="g2858" transform="translate(1.002 30.769)">
            <path id="path2860" d="M0-22.165v-1.8H23.339A3.862,3.862,0,0,1,27.2-20.1v1.917a4.942,4.942,0,0,1-.059.762,4.959,4.959,0,0,1-.925,2.169L24.89-13.45" transform="translate(0 23.967)" fill="none" stroke="#000" stroke-linecap="round" stroke-linejoin="round" stroke-miterlimit="10" stroke-width="2"/>
          </g>
          <g id="g2862" transform="translate(1.002 41.592)">
            <path id="path2864" d="M-42.048-22.166h-3.418v-1.8" transform="translate(45.467 23.968)" fill="none" stroke="#000" stroke-linecap="round" stroke-linejoin="round" stroke-miterlimit="10" stroke-width="2"/>
          </g>
          <g id="g2866" transform="translate(0 36.079)">
            <path id="path2868" d="M-24.662-12.331a1,1,0,0,1-1,1,1,1,0,0,1-1-1,1,1,0,0,1,1-1,1,1,0,0,1,1,1" transform="translate(26.667 13.333)"/>
          </g>
          <g id="g2870" transform="translate(4.42 37.38)">
            <path id="path2872" d="M-147.971-73.985A6.014,6.014,0,0,0-153.985-80,6.014,6.014,0,0,0-160-73.985a6.014,6.014,0,0,0,6.014,6.014A6.014,6.014,0,0,0-147.971-73.985Z" transform="translate(160 80)" fill="none" stroke="#000" stroke-linecap="round" stroke-linejoin="round" stroke-miterlimit="10" stroke-width="2"/>
          </g>
          <g id="g2874" transform="translate(8.43 41.389)">
            <path id="path2876" d="M-49.324-24.662a2,2,0,0,0-2-2,2,2,0,0,0-2,2,2,2,0,0,0,2,2A2,2,0,0,0-49.324-24.662Z" transform="translate(53.333 26.667)" fill="none" stroke="#000" stroke-linecap="round" stroke-linejoin="round" stroke-miterlimit="10" stroke-width="2"/>
          </g>
          <g id="g2878" transform="translate(1.002 21.696)">
            <path id="path2880" d="M0-111.607v-9.073H5.308a8.817,8.817,0,0,1,6.763,3.065l5.027,6.008" transform="translate(0 120.68)" fill="none" stroke="#000" stroke-linejoin="round" stroke-miterlimit="10" stroke-width="2"/>
          </g>
          <g id="g2882" transform="translate(22.325 30.768)">
            <path id="path2884" d="M0,0V1.632A3.962,3.962,0,0,0,3.962,5.593H5.879" fill="none" stroke="#000" stroke-linecap="round" stroke-linejoin="round" stroke-miterlimit="10" stroke-width="2"/>
          </g>
          <g id="g2886" transform="translate(20.975 40.819)">
            <path id="path2888" d="M-73.985-31.676h0A2.575,2.575,0,0,1-76.56-29.1H-80v-5.15h3.439A2.575,2.575,0,0,1-73.985-31.676Z" transform="translate(80 34.251)" fill="none" stroke="#000" stroke-linecap="round" stroke-linejoin="round" stroke-miterlimit="10" stroke-width="2"/>
          </g>
          <g id="g2890" transform="translate(33.036 18.054)">
            <path id="path2892" d="M0,0,6.316,1.672a7.141,7.141,0,0,1,3.363,2L13.1,7.316" fill="none" stroke="#000" stroke-linejoin="round" stroke-miterlimit="10" stroke-width="2"/>
          </g>
          <g id="g2894" transform="translate(36.2 23.497)">
            <path id="path2896" d="M0-.01c.186,0,.374,0,.56.014C.768.017,2.347.274,3.391.447a3.09,3.09,0,0,1,1.615.8C6.141,2.315,6.892,3,7.856,3.9" transform="translate(0 0.011)" fill="none" stroke="#000" stroke-linejoin="round" stroke-miterlimit="10" stroke-width="2"/>
          </g>
          <g id="g2898" transform="translate(27.039 20.038)">
            <path id="path2900" d="M-.462,0A3.678,3.678,0,0,0,.87,3.425a4.117,4.117,0,0,0,1.34.706,6.668,6.668,0,0,1,3,1.985c.138.156,1.071,1.454,1.688,2.315a3.086,3.086,0,0,1,.576,1.707c.046,1.566.092,2.586.138,3.913" transform="translate(0.5)" fill="none" stroke="#000" stroke-linejoin="round" stroke-miterlimit="10" stroke-width="2"/>
          </g>
          <g id="g2902" transform="translate(32.673 17.429)">
            <path id="path2904" d="M0,0,4.582,7.882a7.155,7.155,0,0,1,.964,3.792l-.162,4.992" fill="none" stroke="#000" stroke-linejoin="round" stroke-miterlimit="10" stroke-width="2"/>
          </g>
          <g id="g2906" transform="translate(43.982 24.942)">
            <path id="path2908" d="M-77.979-13.777l-3.806,3.806L-84.318-12.5l1.394-1.393a3.412,3.412,0,0,1,4.825,0Z" transform="translate(84.318 14.897)" fill="none" stroke="#000" stroke-linejoin="round" stroke-miterlimit="10" stroke-width="2"/>
          </g>
          <g id="g2910" transform="translate(35.147 33.964)">
            <path id="path2912" d="M-66.213-44.067H-71.6v-3.582h1.971a3.412,3.412,0,0,1,3.412,3.412Z" transform="translate(71.596 47.649)" fill="none" stroke="#000" stroke-linejoin="round" stroke-miterlimit="10" stroke-width="2"/>
          </g>
          <g id="g2914" transform="translate(19.313 6.526)">
            <path id="path2916" d="M-81.252-11.734l.088-.035h.006a.061.061,0,0,1,.008-.008,3.984,3.984,0,0,1,2.727-.908l1.426.069-.192,4.005-.553-.161A11.473,11.473,0,0,1-76.6-6.84l0,.007,2.308,4.951-6.7,3.125-3.028-6.5a3.417,3.417,0,0,1,.236,1.118l-3.993.365a14.086,14.086,0,0,1-.064-2.089,3.8,3.8,0,0,1,.6-1.875,4.445,4.445,0,0,1,1.733-1.3l.009,0" transform="translate(87.857 12.688)" fill="none" stroke="#000" stroke-linejoin="round" stroke-miterlimit="10" stroke-width="2"/>
          </g>
          <g id="g2918" transform="translate(28.722 10.229)">
            <path id="path2920" d="M-8.7-2.649l-.707-.215" transform="translate(9.408 2.864)" fill="none" stroke="#000" stroke-linecap="round" stroke-linejoin="round" stroke-miterlimit="10" stroke-width="2"/>
          </g>
          <g id="g2922" transform="translate(18.347 1.915)">
            <path id="path2924" d="M-72.045-98.291h0a3.336,3.336,0,0,1-2.548.263,3.336,3.336,0,0,1-1.987-1.616l-.919-1.7a3.336,3.336,0,0,1-.263-2.548,3.336,3.336,0,0,1,1.616-1.987h0a3.336,3.336,0,0,1,2.548-.263,3.336,3.336,0,0,1,1.987,1.616l.919,1.7a3.336,3.336,0,0,1,.263,2.548A3.336,3.336,0,0,1-72.045-98.291Z" transform="translate(77.902 106.282)" fill="none" stroke="#000" stroke-linejoin="round" stroke-miterlimit="10" stroke-width="2"/>
          </g>
          <g id="g2926" transform="translate(8.229 11.682)">
            <path id="path2928" d="M0-73.985A6.021,6.021,0,0,1,6.014-80" transform="translate(0 80)" fill="none" stroke="#000" stroke-linecap="round" stroke-linejoin="round" stroke-miterlimit="10" stroke-width="2"/>
          </g>
          <g id="g2930" transform="translate(12.239 15.692)">
            <path id="path2932" d="M0-24.662a2,2,0,0,1,2-2" transform="translate(0 26.667)" fill="none" stroke="#000" stroke-linecap="round" stroke-linejoin="round" stroke-miterlimit="10" stroke-width="2"/>
          </g>
          <g id="g2934" transform="translate(32.24 42.52)">
            <path id="path2936" d="M-73.985,0A6.021,6.021,0,0,1-80,6.014" transform="translate(80)" fill="none" stroke="#000" stroke-linecap="round" stroke-linejoin="round" stroke-miterlimit="10" stroke-width="2"/>
          </g>
          <g id="g2938" transform="translate(32.24 42.52)">
            <path id="path2940" d="M-24.662,0a2,2,0,0,1-2,2" transform="translate(26.667)" fill="none" stroke="#000" stroke-linecap="round" stroke-linejoin="round" stroke-miterlimit="10" stroke-width="2"/>
          </g>
          <g id="g2942" transform="translate(19.052 4.228)">
            <path id="path2944" d="M-72.419,0l-5.887,3.183" transform="translate(78.306)" fill="none" stroke="#000" stroke-linejoin="round" stroke-miterlimit="10" stroke-width="2"/>
          </g>
          <g id="g2946" transform="translate(19.396 15.078)">
            <path id="path2948" d="M-49.118,0l.737,8.064a2,2,0,0,1-1.814,2.179,2,2,0,0,1-2.179-1.814L-53.111.365" transform="translate(53.111)" fill="none" stroke="#000" stroke-linejoin="round" stroke-miterlimit="10" stroke-width="2"/>
          </g>
          <g id="g2950" transform="translate(29.982 6.6)">
            <path id="path2952" d="M-2.359,0,5.729.387a2,2,0,1,1-.192,4.005l-8.088-.387" transform="translate(2.551)" fill="none" stroke="#000" stroke-linejoin="round" stroke-miterlimit="10" stroke-width="2"/>
          </g>
        </g>
      </g>
    </g>
  </g>
</svg>
