<svg xmlns="http://www.w3.org/2000/svg" width="76.999" height="76.999" viewBox="0 0 76.999 76.999">
  <g id="_8" data-name="8" transform="translate(-331 -1539)">
    <circle id="Ellipse_4724" data-name="Ellipse 4724" cx="38.5" cy="38.5" r="38.5" transform="translate(331 1539)" fill="#ff8a00"/>
    <g id="deslizar" transform="translate(342.768 1551.96)">
      <path id="Path_679603" data-name="Path 679603" d="M2,30.483a2.827,2.827,0,1,0,5.654,0,7.814,7.814,0,0,1,.3-2.155,14.284,14.284,0,0,1,4.61-7.079l.006,0a18.988,18.988,0,0,0,10.49,15.422l7.376,3.688L33.684,48.8a3.564,3.564,0,0,0,4.649,2.029l2.64-1.056a2.253,2.253,0,0,0-.838-4.344H38.918L35.071,34.654a.808.808,0,0,0-.313-.4l-3.272-2.181L36.5,30.954l7.189,6.472a2.9,2.9,0,0,0,3.9-.1l1.8-1.8a3.688,3.688,0,0,0,1.075-2.588,2.048,2.048,0,0,0-3.183-1.7l-1.556,1.037L39.28,25.725a4.977,4.977,0,0,0-3.355-1.3H26.757l-2.342-5.277,3.987,1a8.065,8.065,0,0,0,5.212-.447L40.1,16.823A2.835,2.835,0,0,0,38.744,11.5a6.437,6.437,0,0,0-2.632.558l-5.884,2.615L20.678,11.49a2.408,2.408,0,0,0,1.515-4.206V5.039a2.43,2.43,0,0,0-1.72-2.32A2.428,2.428,0,0,0,18.155,1H14.116A4.851,4.851,0,0,0,9.27,5.846V7.284A2.414,2.414,0,0,0,10.885,11.5h.656a4.825,4.825,0,0,0,.548.763L9.641,14.507A24.178,24.178,0,0,0,2.23,27.935,14.245,14.245,0,0,0,2,30.483ZM40.134,47.041a.637.637,0,0,1,.237,1.229l-2.638,1.055a2,2,0,0,1-2.325-.717l3.132-1.566Zm8.043-14.467a.447.447,0,0,1,.672.359,2.064,2.064,0,0,1-.6,1.449l-1.8,1.8a1.248,1.248,0,0,1-1.674.043l-.2-.179,1.61-2.143ZM35.925,26.04a3.343,3.343,0,0,1,2.236.846l6.394,6.5-1.187,1.583-6.1-5.485a.815.815,0,0,0-.716-.189l-7.27,1.615a.808.808,0,0,0-.273,1.461l4.624,3.082L37.347,45.83,34.77,47.122l-2.937-7.638a.813.813,0,0,0-.393-.433l-7.656-3.828a17.58,17.58,0,0,1-4.455-3.185l7.2-6ZM30.6,16.278l6.17-2.746a4.84,4.84,0,0,1,1.976-.415,1.224,1.224,0,0,1,.646,2.262l-6.429,2.843a6.455,6.455,0,0,1-4.166.358l-2.38-.6.309-2.775,3.293,1.1a.813.813,0,0,0,.582-.029ZM15.732,12.308A3.231,3.231,0,0,1,12.5,9.077V7.462h2.233a3.706,3.706,0,0,0,2.836-1.3l1.393.929V9.077A3.231,3.231,0,0,1,15.732,12.308Zm0,1.615a4.822,4.822,0,0,0,1.557-.261,2.423,2.423,0,0,1-.2.583.877.877,0,0,1-1.645-.221l-.023-.117c.1.006.205.015.31.015Zm4.846-4.039h-.073a4.846,4.846,0,0,0,.073-.808V8.27a.808.808,0,1,1,0,1.615ZM10.885,5.846a3.231,3.231,0,0,1,3.231-3.231h4.039a.808.808,0,0,1,.808.808.808.808,0,0,0,.808.808.808.808,0,0,1,.808.808V6.654a.808.808,0,0,0-.36-.672L17.8,4.367a.808.808,0,0,0-1.171.311,2.1,2.1,0,0,1-1.891,1.169h-3.04a.808.808,0,0,0-.808.808Zm0,4.039a.808.808,0,0,1,0-1.615v.808a4.846,4.846,0,0,0,.073.808ZM10.733,15.7l2.62-2.4c.107.061.219.116.332.169l.175.879a2.493,2.493,0,0,0,4.674.626,4.069,4.069,0,0,0,.427-1.813V12.68l.047-.043,6.146,2.048-.323,2.9L23.2,17.179a.808.808,0,0,0-.935,1.111L25.245,25l-7.021,5.851a17.4,17.4,0,0,1-4.108-11.276.808.808,0,0,0-1.325-.62l-1.26,1.05c-.192.162-.372.331-.556.5L8.852,17.68A22.085,22.085,0,0,1,10.733,15.7ZM3.819,28.221a22.547,22.547,0,0,1,4-9.235l2.006,2.675A15.888,15.888,0,0,0,6.4,27.881a9.426,9.426,0,0,0-.363,2.6,1.212,1.212,0,1,1-2.423,0,12.678,12.678,0,0,1,.2-2.26Z"/>
      <path id="Path_679604" data-name="Path 679604" d="M14,59H31.77v1.615H14Z" transform="translate(-2.307 -11.151)"/>
      <path id="Path_679605" data-name="Path 679605" d="M23,55h8.885v1.615H23Z" transform="translate(-4.037 -10.382)"/>
      <path id="Path_679606" data-name="Path 679606" d="M17,51h9.693v1.615H17Z" transform="translate(-2.884 -9.613)"/>
      <path id="Path_679607" data-name="Path 679607" d="M13,51h1.615v1.615H13Z" transform="translate(-2.115 -9.613)"/>
      <path id="Path_679608" data-name="Path 679608" d="M53.556,56.083,58.4,52.044a.808.808,0,0,0-.646-1.418l-4.5.75-2.959-2.216A.808.808,0,0,0,49.024,50l.808,3.231,1.567-.391-.256-1.024,1.411,1.058a.808.808,0,0,0,.618.15l1.908-.317-2.558,2.131Z" transform="translate(-9.036 -9.228)"/>
    </g>
  </g>
</svg>
