<svg xmlns="http://www.w3.org/2000/svg" xmlns:xlink="http://www.w3.org/1999/xlink" width="1240" height="666" viewBox="0 0 1240 666">
  <defs>
    <clipPath id="clip-path">
      <rect id="Rectangle_353702" data-name="Rectangle 353702" width="1240" height="666" transform="translate(-4162 -5812.008)" fill="#c0c942" opacity="0.3"/>
    </clipPath>
    <filter id="Path_675338" x="-9" y="-6" width="140.041" height="113.788" filterUnits="userSpaceOnUse">
      <feOffset dy="3" input="SourceAlpha"/>
      <feGaussianBlur stdDeviation="3" result="blur"/>
      <feFlood flood-opacity="0.161"/>
      <feComposite operator="in" in2="blur"/>
      <feComposite in="SourceGraphic"/>
    </filter>
    <filter id="Path_675339" x="941.424" y="-71.349" width="294.031" height="294.031" filterUnits="userSpaceOnUse">
      <feOffset dy="3" input="SourceAlpha"/>
      <feGaussianBlur stdDeviation="3" result="blur-2"/>
      <feFlood flood-opacity="0.161"/>
      <feComposite operator="in" in2="blur-2"/>
      <feComposite in="SourceGraphic"/>
    </filter>
    <filter id="Path_675340" x="1178.943" y="489.359" width="205.435" height="205.435" filterUnits="userSpaceOnUse">
      <feOffset dy="3" input="SourceAlpha"/>
      <feGaussianBlur stdDeviation="3" result="blur-3"/>
      <feFlood flood-opacity="0.161"/>
      <feComposite operator="in" in2="blur-3"/>
      <feComposite in="SourceGraphic"/>
    </filter>
    <filter id="Path_675341" x="1190.943" y="583.076" width="205.435" height="205.435" filterUnits="userSpaceOnUse">
      <feOffset dy="3" input="SourceAlpha"/>
      <feGaussianBlur stdDeviation="3" result="blur-4"/>
      <feFlood flood-opacity="0.161"/>
      <feComposite operator="in" in2="blur-4"/>
      <feComposite in="SourceGraphic"/>
    </filter>
    <filter id="Path_675342" x="66.452" y="-6" width="243.608" height="167.741" filterUnits="userSpaceOnUse">
      <feOffset dy="3" input="SourceAlpha"/>
      <feGaussianBlur stdDeviation="3" result="blur-5"/>
      <feFlood flood-opacity="0.161"/>
      <feComposite operator="in" in2="blur-5"/>
      <feComposite in="SourceGraphic"/>
    </filter>
  </defs>
  <g id="bg-3-1" transform="translate(4162 5812.008)" clip-path="url(#clip-path)">
    <rect id="Rectangle_353701" data-name="Rectangle 353701" width="1240" height="666" transform="translate(-4162 -5812.008)" fill="#fff0de"/>
    <path id="Rectangle_652" data-name="Rectangle 652" d="M19.527,351.721H1220.473c10.785,0,19.527-5.832,19.527-13.027V13.027C1240,5.832,1231.257,0,1220.473,0H19.527C8.743,0,0,5.832,0,13.027V338.695C0,345.889,8.743,351.721,19.527,351.721Z" transform="translate(-4162 -5779.2)" fill="none" opacity="0.238"/>
    <g id="Group_988568" data-name="Group 988568" transform="translate(-3798.846 -5824.753)" opacity="0.05" style="isolation: isolate">
      <path id="Path_675336" data-name="Path 675336" d="M540.888,832.409a126.332,126.332,0,0,1-39.864-6.373c-35.935-11.944-66.55-41.934-81.894-80.219-6.88-17.155-6.42-34.965-5.975-52.19.468-18.136.911-35.268-7.857-48.356-8.506-12.688-20.528-13.35-41.047-13.426a180.166,180.166,0,0,1-22.413-1.031c-34.36-4.415-64.614-29.526-75.284-62.481s-.871-71.031,24.381-94.747l17.917,19.079c-17.739,16.658-24.894,44.459-17.4,67.608s29.584,41.481,53.719,44.585a158.619,158.619,0,0,0,19.175.817c20.51.076,46.032.173,62.687,25.03,13.407,20.005,12.811,43.167,12.282,63.6-.4,15.242-.764,29.636,4.1,41.777,12.518,31.232,37.139,55.577,65.859,65.121,39.741,13.211,87.644-.89,113.891-33.533,15.852-19.72,24.449-44.679,33.557-71.1,11.753-34.122,23.912-69.4,53.177-93.548,30.426-25.1,75-32.347,116.341-18.911,44.341,14.415,74.113,47.131,91.282,72.036,8.856,12.85,16.537,26.629,23.967,39.953,15.237,27.315,29.628,53.119,52.719,70.013a96.021,96.021,0,0,0,139.258-28.477l22.5,13.363A122.189,122.189,0,0,1,978.76,787.227c-27.71-20.269-44.187-49.814-60.123-78.387C911.5,696.05,904.129,682.823,895.976,671c-21.023-30.5-48.662-52.523-77.825-62-32.4-10.531-68.361-4.954-91.6,14.214-23.578,19.45-34.027,49.774-45.087,81.881-9.437,27.383-19.191,55.7-37.9,78.974C618.736,814.947,579.941,832.409,540.888,832.409Z" transform="translate(-262.291 -473.586)" fill="#fd9827" opacity="0.61"/>
      <path id="Path_675337" data-name="Path 675337" d="M432.448,692.742a77.158,77.158,0,0,1-24.347-3.892c-21.948-7.3-40.646-25.612-50.018-48.995-4.2-10.478-3.921-21.355-3.649-31.876.286-11.077.556-21.54-4.8-29.534-5.195-7.749-12.538-8.154-25.07-8.2a110.046,110.046,0,0,1-13.689-.63,55.8,55.8,0,0,1-31.089-96.029l10.943,11.652c-10.834,10.174-15.2,27.154-10.626,41.292s18.069,25.335,32.809,27.231a96.868,96.868,0,0,0,11.712.5c12.527.046,28.115.106,38.287,15.287,8.189,12.218,7.824,26.365,7.5,38.843-.241,9.309-.467,18.1,2.5,25.516,7.645,19.076,22.683,33.944,40.224,39.774,24.272,8.069,53.53-.544,69.56-20.481,9.682-12.044,14.933-27.288,20.5-43.426,7.179-20.84,14.6-42.389,32.478-57.136,18.583-15.327,45.808-19.756,71.057-11.55,27.082,8.8,45.266,28.786,55.751,44,5.409,7.848,10.1,16.264,14.638,24.4,9.306,16.683,18.1,32.443,32.2,42.761a58.646,58.646,0,0,0,85.054-17.392l13.743,8.161a74.628,74.628,0,0,1-108.234,22.13c-16.924-12.38-26.988-30.424-36.721-47.876-4.357-7.811-8.862-15.89-13.841-23.113-12.84-18.63-29.721-32.079-47.532-37.868-19.79-6.432-41.752-3.026-55.943,8.681-14.4,11.879-20.783,30.4-27.538,50.01-5.764,16.724-11.721,34.019-23.15,48.234C479.995,682.077,456.3,692.742,432.448,692.742Z" transform="translate(-385.365 27.247)" fill="#fd9827" opacity="0.72"/>
    </g>
    <g transform="matrix(1, 0, 0, 1, -4162, -5812.01)" filter="url(#Path_675338)">
      <path id="Path_675338-2" data-name="Path 675338" d="M202.2,496.53H149.7l90.35,90.35A18.565,18.565,0,0,0,266.3,560.625Z" transform="translate(-149.7 -496.53)" fill="#fd9827" opacity="0.11"/>
    </g>
    <g transform="matrix(1, 0, 0, 1, -4162, -5812.01)" filter="url(#Path_675339)">
      <path id="Path_675339-2" data-name="Path 675339" d="M772.364,700.186,560.67,488.492a32.169,32.169,0,0,0-45.493,0h0a32.172,32.172,0,0,0,0,45.5L726.868,745.679a32.172,32.172,0,0,0,45.5,0h0A32.169,32.169,0,0,0,772.364,700.186Z" transform="translate(444.67 -544.42)" fill="#fd9827" opacity="0.04"/>
    </g>
    <g transform="matrix(1, 0, 0, 1, -4162, -5812.01)" filter="url(#Path_675340)">
      <path id="Path_675340-2" data-name="Path 675340" d="M686.792,629.216,543.044,485.468a21.844,21.844,0,0,0-30.891,0h0a21.846,21.846,0,0,0,0,30.893L655.9,660.107a21.846,21.846,0,0,0,30.893,0h0A21.844,21.844,0,0,0,686.792,629.216Z" transform="translate(682.19 16.29)" fill="#fd9827" opacity="0.07"/>
    </g>
    <g transform="matrix(1, 0, 0, 1, -4162, -5812.01)" filter="url(#Path_675341)">
      <path id="Path_675341-2" data-name="Path 675341" d="M686.792,629.216,543.044,485.468a21.844,21.844,0,0,0-30.891,0h0a21.846,21.846,0,0,0,0,30.893L655.9,660.107a21.846,21.846,0,0,0,30.893,0h0A21.844,21.844,0,0,0,686.792,629.216Z" transform="translate(694.19 110.01)" fill="#fd9827" opacity="0.07"/>
    </g>
    <g transform="matrix(1, 0, 0, 1, -4162, -5812.01)" filter="url(#Path_675342)">
      <path id="Path_675342-2" data-name="Path 675342" d="M333.347,496.53H181.614l134.03,134.028a53.646,53.646,0,1,0,75.867-75.867Z" transform="translate(-106.16 -496.53)" fill="#fd9827" opacity="0.11"/>
    </g>
    <path id="Path_675344" data-name="Path 675344" d="M18.813,0H8.746A1.628,1.628,0,0,0,7.595.477L.477,7.595A1.627,1.627,0,0,0,0,8.746V18.813a1.627,1.627,0,0,0,.477,1.151l7.118,7.118a1.628,1.628,0,0,0,1.151.477H18.813a1.627,1.627,0,0,0,1.151-.477l7.118-7.118a1.628,1.628,0,0,0,.477-1.151V8.746a1.628,1.628,0,0,0-.477-1.151L19.964.477A1.627,1.627,0,0,0,18.813,0Z" transform="translate(-3526.113 -5767.002) rotate(-30)" fill="none" stroke="#fff" stroke-width="3"/>
    <path id="Path_675346" data-name="Path 675346" d="M1089.325,482.651h-22.062a3.569,3.569,0,0,0-2.523,1.045l-15.6,15.6a3.567,3.567,0,0,0-1.045,2.522V523.88a3.566,3.566,0,0,0,1.045,2.522l15.6,15.6a3.569,3.569,0,0,0,2.523,1.045h22.062a3.567,3.567,0,0,0,2.522-1.045l15.6-15.6a3.567,3.567,0,0,0,1.045-2.522V501.818a3.567,3.567,0,0,0-1.045-2.522l-15.6-15.6A3.567,3.567,0,0,0,1089.325,482.651Z" transform="translate(-5148.472 -6074.55)" fill="none" stroke="#fff" stroke-width="3"/>
  </g>
</svg>
