<svg xmlns="http://www.w3.org/2000/svg" xmlns:xlink="http://www.w3.org/1999/xlink" width="1253.598" height="282" viewBox="0 0 1253.598 282">
  <defs>
    <filter id="Path_667227" x="1193.909" y="4.402" width="59.688" height="59.688" filterUnits="userSpaceOnUse">
      <feOffset dy="3" input="SourceAlpha"/>
      <feGaussianBlur stdDeviation="3" result="blur"/>
      <feFlood flood-opacity="0.161"/>
      <feComposite operator="in" in2="blur"/>
      <feComposite in="SourceGraphic"/>
    </filter>
    <filter id="Path_667226" x="0" y="0" width="47.213" height="39.318" filterUnits="userSpaceOnUse">
      <feOffset dy="3" input="SourceAlpha"/>
      <feGaussianBlur stdDeviation="3" result="blur-2"/>
      <feFlood flood-opacity="0.161"/>
      <feComposite operator="in" in2="blur-2"/>
      <feComposite in="SourceGraphic"/>
    </filter>
    <filter id="Path_667228" x="18.061" y="0" width="72.005" height="51.326" filterUnits="userSpaceOnUse">
      <feOffset dy="3" input="SourceAlpha"/>
      <feGaussianBlur stdDeviation="3" result="blur-3"/>
      <feFlood flood-opacity="0.161"/>
      <feComposite operator="in" in2="blur-3"/>
      <feComposite in="SourceGraphic"/>
    </filter>
  </defs>
  <g id="bg-seccion" transform="translate(-171 -3393)">
    <rect id="Rectangle_62439" data-name="Rectangle 62439" width="1240" height="276" transform="translate(180 3399)" fill="#fff6e9"/>
    <g transform="matrix(1, 0, 0, 1, 171, 3393)" filter="url(#Path_667227)">
      <path id="Path_667227-2" data-name="Path 667227" d="M40.266,33.395,8.294,1.423a4.858,4.858,0,0,0-6.871,0h0a4.859,4.859,0,0,0,0,6.871L33.394,40.265a4.859,4.859,0,0,0,6.871,0h0A4.858,4.858,0,0,0,40.266,33.395Z" transform="translate(1244.6 10.4) rotate(90)" fill="#ffd817"/>
    </g>
    <g id="Group_978163" data-name="Group 978163" transform="translate(180 3399)" opacity="0.24">
      <g transform="matrix(1, 0, 0, 1, -9, -6)" filter="url(#Path_667226)">
        <path id="Path_667226-2" data-name="Path 667226" d="M162.264,496.53H149.7l21.627,20.108a4.684,4.684,0,0,0,6.284,0,3.93,3.93,0,0,0,0-5.843Z" transform="translate(-140.7 -490.53)" fill="#535353"/>
      </g>
      <g transform="matrix(1, 0, 0, 1, -9, -6)" filter="url(#Path_667228)">
        <path id="Path_667228-2" data-name="Path 667228" d="M217.935,496.53H181.614L213.7,526.359a13.537,13.537,0,0,0,18.161,0,11.356,11.356,0,0,0,0-16.885Z" transform="translate(-154.55 -490.53)" fill="#f88f05"/>
      </g>
    </g>
  </g>
</svg>
