<svg xmlns="http://www.w3.org/2000/svg" xmlns:xlink="http://www.w3.org/1999/xlink" width="318" height="177" viewBox="0 0 318 177"><defs><clipPath id="a"><rect width="318" height="177" rx="5" transform="translate(331 6367)" fill="#ffd817" opacity="0.54"/></clipPath><clipPath id="b"><rect width="317.633" height="226.457" fill="none"/></clipPath><clipPath id="c"><rect width="107.098" height="26.191" fill="none"/></clipPath><clipPath id="e"><rect width="0.017" height="0.016" fill="none"/></clipPath><clipPath id="f"><rect width="2.455" height="0.98" fill="none"/></clipPath><clipPath id="g"><rect width="318" height="177" rx="5" transform="translate(978 6367)" fill="#ffd817" opacity="0.54"/></clipPath><clipPath id="h"><rect width="187.917" height="68.046" fill="none"/></clipPath><clipPath id="j"><rect width="182.509" height="3.136" fill="none"/></clipPath><clipPath id="k"><rect width="96.31" height="20.119" fill="none"/></clipPath><clipPath id="l"><rect width="90.896" height="13.153" fill="none"/></clipPath><clipPath id="m"><rect width="166.313" height="7.463" fill="none"/></clipPath><clipPath id="n"><rect width="20.039" height="12.453" fill="none"/></clipPath><clipPath id="o"><rect width="84.65" height="16.594" fill="none"/></clipPath><clipPath id="p"><rect width="10.917" height="15.476" fill="none"/></clipPath><clipPath id="q"><rect width="8.676" height="14.207" fill="none"/></clipPath><clipPath id="r"><rect width="22.816" height="16.699" fill="none"/></clipPath><clipPath id="s"><rect width="21.832" height="21.83" fill="none"/></clipPath><clipPath id="t"><rect width="19.716" height="19.71" fill="none"/></clipPath><clipPath id="w"><rect width="67.581" height="2.621" fill="none"/></clipPath><clipPath id="x"><rect width="33.267" height="13.967" fill="#c8d9dc"/></clipPath></defs><g transform="translate(-978 -6275.562)"><g transform="translate(647 -91.438)" opacity="0.68" clip-path="url(#a)"><g transform="translate(331 6317.543)"><path d="M0,0V152.873l45.641-.007h6.1l6.223,0h4.673l13.825-.011H94.947l8.814,0h10.995l6.46,0h8.8l5.328,0,16.462-.007h10.111l22.2-.009H206.4l8.864,0,10.463,0,6.969,0h1.081l.93,0,1.631,0h21.313l4.486,0h9.953l4.065,0,17.013-.007,19.376-.007h5.087V0Z" transform="translate(0 0)" fill="#b6dff0"/><path d="M584.055,213.272v-5.786h7.975v5.786h2.519v79.234H581.536V213.272Z" transform="translate(-422.775 -150.842)" fill="#77a8bd"/><path d="M460.074,214.629v-3.5h18.8v3.5h2.749v80.523h-24.3V214.629Z" transform="translate(-332.474 -153.489)" fill="#77a8bd"/><path d="M187.43,214.629v-3.5H197.5v3.5h1.473v80.524H185.958V214.629Z" transform="translate(-135.191 -153.488)" fill="#77a8bd"/><path d="M383.5,253.829V249.45h4.366v4.379h2.348V249.45h4.366v4.379h2.158v69.185H381.428V253.829Z" transform="translate(-277.297 -181.35)" fill="#77a8bd"/><path d="M271.1,251.7v-7.714h6.379V251.7h5.445v67.341H265.658V251.7Z" transform="translate(-193.133 -177.378)" fill="#77a8bd"/><path d="M52.925,232.874V229.08h3.558v-8.173h4.945v8.173h3.558v3.794h1.625v69.389H51.3V232.874Z" transform="translate(-37.295 -160.599)" fill="#77a8bd"/><path d="M366.979,347.425v46.816h37.486V347.425h-6.44v1.7h-4.953v-1.7h-14.7v1.7h-4.958v-1.7Z" transform="translate(-266.793 -252.577)" fill="#acd3e3"/><rect width="4.954" height="45.117" transform="translate(126.28 96.547)" fill="#b6dff0"/><rect width="4.954" height="45.117" transform="translate(106.628 96.547)" fill="#b6dff0"/><rect width="1.124" height="2.219" transform="translate(135.152 98.027)" fill="#77a8bd"/><rect width="1.124" height="2.218" transform="translate(132.709 98.073)" fill="#77a8bd"/><rect width="1.124" height="2.219" transform="translate(135.152 101.772)" fill="#77a8bd"/><rect width="1.124" height="2.219" transform="translate(132.709 101.818)" fill="#77a8bd"/><rect width="1.124" height="2.219" transform="translate(135.152 105.516)" fill="#77a8bd"/><rect width="1.124" height="2.219" transform="translate(132.709 105.563)" fill="#77a8bd"/><rect width="1.124" height="2.219" transform="translate(135.152 109.261)" fill="#77a8bd"/><rect width="1.124" height="2.218" transform="translate(132.709 109.308)" fill="#77a8bd"/><rect width="1.124" height="2.22" transform="translate(135.152 113.006)" fill="#77a8bd"/><rect width="1.124" height="2.218" transform="translate(132.709 113.052)" fill="#77a8bd"/><rect width="1.124" height="2.218" transform="translate(135.152 116.751)" fill="#77a8bd"/><rect width="1.124" height="2.217" transform="translate(132.709 116.798)" fill="#77a8bd"/><rect width="1.124" height="2.218" transform="translate(135.152 120.497)" fill="#77a8bd"/><rect width="1.124" height="2.219" transform="translate(132.709 120.541)" fill="#77a8bd"/><rect width="1.124" height="2.219" transform="translate(135.152 124.241)" fill="#77a8bd"/><rect width="1.124" height="2.218" transform="translate(132.709 124.287)" fill="#77a8bd"/><rect width="1.124" height="2.219" transform="translate(135.152 127.986)" fill="#77a8bd"/><rect width="1.124" height="2.22" transform="translate(132.709 128.031)" fill="#77a8bd"/><rect width="1.124" height="2.219" transform="translate(135.152 131.731)" fill="#77a8bd"/><rect width="1.124" height="2.218" transform="translate(132.709 131.777)" fill="#77a8bd"/><rect width="1.124" height="2.219" transform="translate(135.152 135.476)" fill="#77a8bd"/><rect width="1.124" height="2.218" transform="translate(132.709 135.522)" fill="#77a8bd"/><rect width="1.124" height="2.219" transform="translate(123.833 98.003)" fill="#77a8bd"/><rect width="1.124" height="2.219" transform="translate(121.39 98.05)" fill="#77a8bd"/><rect width="1.124" height="2.218" transform="translate(123.833 101.748)" fill="#77a8bd"/><rect width="1.124" height="2.219" transform="translate(121.39 101.794)" fill="#77a8bd"/><rect width="1.124" height="2.219" transform="translate(123.833 105.493)" fill="#77a8bd"/><rect width="1.124" height="2.219" transform="translate(121.39 105.538)" fill="#77a8bd"/><rect width="1.124" height="2.218" transform="translate(123.833 109.238)" fill="#77a8bd"/><rect width="1.124" height="2.218" transform="translate(121.39 109.283)" fill="#77a8bd"/><rect width="1.124" height="2.219" transform="translate(123.833 112.981)" fill="#77a8bd"/><rect width="1.124" height="2.218" transform="translate(121.39 113.028)" fill="#77a8bd"/><rect width="1.124" height="2.219" transform="translate(123.833 116.726)" fill="#77a8bd"/><rect width="1.124" height="2.219" transform="translate(121.39 116.773)" fill="#77a8bd"/><rect width="1.124" height="2.218" transform="translate(123.833 120.472)" fill="#77a8bd"/><rect width="1.124" height="2.219" transform="translate(121.39 120.518)" fill="#77a8bd"/><rect width="1.124" height="2.218" transform="translate(123.833 124.217)" fill="#77a8bd"/><rect width="1.124" height="2.218" transform="translate(121.39 124.263)" fill="#77a8bd"/><rect width="1.124" height="2.219" transform="translate(123.833 127.962)" fill="#77a8bd"/><rect width="1.124" height="2.219" transform="translate(121.39 128.008)" fill="#77a8bd"/><rect width="1.124" height="2.217" transform="translate(123.833 131.708)" fill="#77a8bd"/><rect width="1.124" height="2.219" transform="translate(121.39 131.752)" fill="#77a8bd"/><rect width="1.124" height="2.22" transform="translate(123.833 135.451)" fill="#77a8bd"/><rect width="1.124" height="2.22" transform="translate(121.39 135.497)" fill="#77a8bd"/><rect width="1.125" height="2.219" transform="translate(112.904 98.003)" fill="#77a8bd"/><rect width="1.124" height="2.219" transform="translate(115.347 98.05)" fill="#77a8bd"/><rect width="1.125" height="2.218" transform="translate(112.904 101.748)" fill="#77a8bd"/><rect width="1.124" height="2.219" transform="translate(115.347 101.794)" fill="#77a8bd"/><rect width="1.125" height="2.219" transform="translate(112.904 105.493)" fill="#77a8bd"/><rect width="1.124" height="2.219" transform="translate(115.347 105.538)" fill="#77a8bd"/><rect width="1.125" height="2.218" transform="translate(112.904 109.238)" fill="#77a8bd"/><rect width="1.124" height="2.218" transform="translate(115.347 109.283)" fill="#77a8bd"/><rect width="1.125" height="2.219" transform="translate(112.904 112.981)" fill="#77a8bd"/><rect width="1.124" height="2.218" transform="translate(115.347 113.028)" fill="#77a8bd"/><rect width="1.125" height="2.219" transform="translate(112.904 116.726)" fill="#77a8bd"/><rect width="1.124" height="2.219" transform="translate(115.347 116.773)" fill="#77a8bd"/><rect width="1.125" height="2.218" transform="translate(112.904 120.472)" fill="#77a8bd"/><rect width="1.124" height="2.219" transform="translate(115.347 120.518)" fill="#77a8bd"/><rect width="1.125" height="2.218" transform="translate(112.904 124.217)" fill="#77a8bd"/><rect width="1.124" height="2.218" transform="translate(115.347 124.263)" fill="#77a8bd"/><rect width="1.125" height="2.219" transform="translate(112.904 127.962)" fill="#77a8bd"/><rect width="1.124" height="2.219" transform="translate(115.347 128.008)" fill="#77a8bd"/><rect width="1.125" height="2.217" transform="translate(112.904 131.708)" fill="#77a8bd"/><rect width="1.124" height="2.219" transform="translate(115.347 131.752)" fill="#77a8bd"/><rect width="1.125" height="2.22" transform="translate(112.904 135.451)" fill="#77a8bd"/><rect width="1.124" height="2.22" transform="translate(115.347 135.497)" fill="#77a8bd"/><rect width="3.718" height="1.109" transform="translate(126.903 99.182)" fill="#77a8bd"/><rect width="3.718" height="1.109" transform="translate(126.897 102.927)" fill="#77a8bd"/><rect width="3.718" height="1.11" transform="translate(126.892 106.672)" fill="#77a8bd"/><rect width="3.718" height="1.109" transform="translate(126.886 110.417)" fill="#77a8bd"/><rect width="3.718" height="1.109" transform="translate(126.88 114.161)" fill="#77a8bd"/><rect width="3.719" height="1.109" transform="translate(126.875 117.906)" fill="#77a8bd"/><rect width="3.718" height="1.11" transform="translate(126.87 121.651)" fill="#77a8bd"/><rect width="3.718" height="1.11" transform="translate(126.865 125.395)" fill="#77a8bd"/><rect width="3.718" height="1.111" transform="translate(126.859 129.141)" fill="#77a8bd"/><rect width="3.719" height="1.11" transform="translate(126.853 132.885)" fill="#77a8bd"/><rect width="3.718" height="1.11" transform="translate(126.849 136.63)" fill="#77a8bd"/><rect width="1.125" height="2.219" transform="translate(101.561 98.027)" fill="#77a8bd"/><rect width="1.124" height="2.218" transform="translate(104.003 98.073)" fill="#77a8bd"/><rect width="1.125" height="2.219" transform="translate(101.561 101.772)" fill="#77a8bd"/><rect width="1.124" height="2.219" transform="translate(104.003 101.818)" fill="#77a8bd"/><rect width="1.125" height="2.219" transform="translate(101.561 105.516)" fill="#77a8bd"/><rect width="1.124" height="2.219" transform="translate(104.003 105.563)" fill="#77a8bd"/><rect width="1.125" height="2.219" transform="translate(101.561 109.261)" fill="#77a8bd"/><rect width="1.124" height="2.218" transform="translate(104.003 109.308)" fill="#77a8bd"/><rect width="1.125" height="2.22" transform="translate(101.561 113.006)" fill="#77a8bd"/><rect width="1.124" height="2.218" transform="translate(104.003 113.052)" fill="#77a8bd"/><rect width="1.125" height="2.218" transform="translate(101.561 116.751)" fill="#77a8bd"/><rect width="1.124" height="2.217" transform="translate(104.003 116.798)" fill="#77a8bd"/><rect width="1.125" height="2.218" transform="translate(101.561 120.497)" fill="#77a8bd"/><rect width="1.124" height="2.219" transform="translate(104.003 120.541)" fill="#77a8bd"/><rect width="1.125" height="2.219" transform="translate(101.561 124.241)" fill="#77a8bd"/><rect width="1.124" height="2.218" transform="translate(104.003 124.287)" fill="#77a8bd"/><rect width="1.125" height="2.219" transform="translate(101.561 127.986)" fill="#77a8bd"/><rect width="1.124" height="2.22" transform="translate(104.003 128.031)" fill="#77a8bd"/><rect width="1.125" height="2.219" transform="translate(101.561 131.731)" fill="#77a8bd"/><rect width="1.124" height="2.218" transform="translate(104.003 131.777)" fill="#77a8bd"/><rect width="1.125" height="2.219" transform="translate(101.561 135.476)" fill="#77a8bd"/><rect width="1.124" height="2.218" transform="translate(104.003 135.522)" fill="#77a8bd"/><rect width="3.717" height="1.109" transform="translate(107.216 99.182)" fill="#77a8bd"/><rect width="3.718" height="1.109" transform="translate(107.221 102.927)" fill="#77a8bd"/><rect width="3.718" height="1.11" transform="translate(107.228 106.672)" fill="#77a8bd"/><rect width="3.717" height="1.109" transform="translate(107.233 110.417)" fill="#77a8bd"/><rect width="3.718" height="1.109" transform="translate(107.238 114.161)" fill="#77a8bd"/><rect width="3.718" height="1.109" transform="translate(107.243 117.906)" fill="#77a8bd"/><rect width="3.718" height="1.11" transform="translate(107.249 121.651)" fill="#77a8bd"/><rect width="3.718" height="1.11" transform="translate(107.254 125.395)" fill="#77a8bd"/><rect width="3.72" height="1.111" transform="translate(107.259 129.141)" fill="#77a8bd"/><rect width="3.718" height="1.11" transform="translate(107.265 132.885)" fill="#77a8bd"/><rect width="3.717" height="1.11" transform="translate(107.271 136.63)" fill="#77a8bd"/><rect width="3.088" height="1.109" transform="translate(117.409 99.182)" fill="#77a8bd"/><rect width="3.089" height="1.109" transform="translate(117.404 102.926)" fill="#77a8bd"/><rect width="3.089" height="1.109" transform="translate(117.4 106.671)" fill="#77a8bd"/><rect width="3.089" height="1.109" transform="translate(117.395 110.415)" fill="#77a8bd"/><rect width="3.089" height="1.109" transform="translate(117.391 114.16)" fill="#77a8bd"/><rect width="3.089" height="1.108" transform="translate(117.386 117.906)" fill="#77a8bd"/><rect width="3.089" height="1.111" transform="translate(117.382 121.649)" fill="#77a8bd"/><rect width="3.089" height="1.11" transform="translate(117.377 125.395)" fill="#77a8bd"/><rect width="3.088" height="1.109" transform="translate(117.373 129.14)" fill="#77a8bd"/><rect width="3.088" height="1.111" transform="translate(117.369 132.883)" fill="#77a8bd"/><rect width="3.088" height="1.11" transform="translate(117.364 136.629)" fill="#77a8bd"/><path d="M123.463,347.424v46.817h37.486V347.424H154.51v1.7h-4.953v-1.7h-14.7v1.7H129.9v-1.7Z" transform="translate(-89.757 -252.577)" fill="#acd3e3"/><rect width="4.954" height="45.117" transform="translate(59.799 96.547)" fill="#b6dff0"/><rect width="4.955" height="45.117" transform="translate(40.147 96.547)" fill="#b6dff0"/><rect width="1.124" height="2.219" transform="translate(68.672 98.027)" fill="#77a8bd"/><rect width="1.124" height="2.218" transform="translate(66.23 98.073)" fill="#77a8bd"/><rect width="1.124" height="2.218" transform="translate(68.672 101.772)" fill="#77a8bd"/><rect width="1.124" height="2.219" transform="translate(66.23 101.818)" fill="#77a8bd"/><rect width="1.124" height="2.219" transform="translate(68.672 105.516)" fill="#77a8bd"/><rect width="1.124" height="2.219" transform="translate(66.23 105.562)" fill="#77a8bd"/><rect width="1.124" height="2.219" transform="translate(68.672 109.26)" fill="#77a8bd"/><rect width="1.124" height="2.218" transform="translate(66.23 109.308)" fill="#77a8bd"/><rect width="1.124" height="2.22" transform="translate(68.672 113.005)" fill="#77a8bd"/><rect width="1.124" height="2.218" transform="translate(66.23 113.052)" fill="#77a8bd"/><rect width="1.124" height="2.218" transform="translate(68.672 116.751)" fill="#77a8bd"/><rect width="1.124" height="2.218" transform="translate(66.23 116.797)" fill="#77a8bd"/><rect width="1.124" height="2.218" transform="translate(68.672 120.497)" fill="#77a8bd"/><rect width="1.124" height="2.219" transform="translate(66.23 120.541)" fill="#77a8bd"/><rect width="1.124" height="2.219" transform="translate(68.672 124.241)" fill="#77a8bd"/><rect width="1.124" height="2.219" transform="translate(66.23 124.287)" fill="#77a8bd"/><rect width="1.124" height="2.218" transform="translate(68.672 127.986)" fill="#77a8bd"/><rect width="1.124" height="2.219" transform="translate(66.23 128.031)" fill="#77a8bd"/><rect width="1.124" height="2.219" transform="translate(68.672 131.731)" fill="#77a8bd"/><rect width="1.124" height="2.219" transform="translate(66.23 131.776)" fill="#77a8bd"/><rect width="1.124" height="2.219" transform="translate(68.672 135.476)" fill="#77a8bd"/><rect width="1.124" height="2.218" transform="translate(66.23 135.522)" fill="#77a8bd"/><rect width="1.124" height="2.219" transform="translate(57.353 98.003)" fill="#77a8bd"/><rect width="1.124" height="2.219" transform="translate(54.911 98.049)" fill="#77a8bd"/><rect width="1.124" height="2.219" transform="translate(57.353 101.748)" fill="#77a8bd"/><rect width="1.124" height="2.219" transform="translate(54.911 101.794)" fill="#77a8bd"/><rect width="1.124" height="2.218" transform="translate(57.353 105.493)" fill="#77a8bd"/><rect width="1.124" height="2.219" transform="translate(54.911 105.538)" fill="#77a8bd"/><rect width="1.124" height="2.219" transform="translate(57.353 109.237)" fill="#77a8bd"/><rect width="1.124" height="2.219" transform="translate(54.911 109.283)" fill="#77a8bd"/><rect width="1.124" height="2.219" transform="translate(57.353 112.981)" fill="#77a8bd"/><rect width="1.124" height="2.219" transform="translate(54.911 113.028)" fill="#77a8bd"/><rect width="1.124" height="2.219" transform="translate(57.353 116.726)" fill="#77a8bd"/><rect width="1.124" height="2.219" transform="translate(54.911 116.772)" fill="#77a8bd"/><rect width="1.124" height="2.219" transform="translate(57.353 120.472)" fill="#77a8bd"/><rect width="1.124" height="2.218" transform="translate(54.911 120.518)" fill="#77a8bd"/><rect width="1.124" height="2.218" transform="translate(57.353 124.217)" fill="#77a8bd"/><rect width="1.124" height="2.218" transform="translate(54.911 124.263)" fill="#77a8bd"/><rect width="1.124" height="2.219" transform="translate(57.353 127.962)" fill="#77a8bd"/><rect width="1.124" height="2.219" transform="translate(54.911 128.007)" fill="#77a8bd"/><rect width="1.124" height="2.218" transform="translate(57.353 131.707)" fill="#77a8bd"/><rect width="1.124" height="2.22" transform="translate(54.911 131.752)" fill="#77a8bd"/><rect width="1.124" height="2.22" transform="translate(57.353 135.451)" fill="#77a8bd"/><rect width="1.124" height="2.22" transform="translate(54.911 135.497)" fill="#77a8bd"/><rect width="1.124" height="2.219" transform="translate(46.424 98.003)" fill="#77a8bd"/><rect width="1.123" height="2.219" transform="translate(48.867 98.049)" fill="#77a8bd"/><rect width="1.124" height="2.219" transform="translate(46.424 101.748)" fill="#77a8bd"/><rect width="1.123" height="2.219" transform="translate(48.867 101.794)" fill="#77a8bd"/><rect width="1.124" height="2.218" transform="translate(46.424 105.493)" fill="#77a8bd"/><rect width="1.123" height="2.219" transform="translate(48.867 105.538)" fill="#77a8bd"/><rect width="1.124" height="2.219" transform="translate(46.424 109.237)" fill="#77a8bd"/><rect width="1.123" height="2.219" transform="translate(48.867 109.283)" fill="#77a8bd"/><rect width="1.124" height="2.219" transform="translate(46.424 112.981)" fill="#77a8bd"/><rect width="1.123" height="2.219" transform="translate(48.867 113.028)" fill="#77a8bd"/><rect width="1.124" height="2.219" transform="translate(46.424 116.726)" fill="#77a8bd"/><rect width="1.123" height="2.219" transform="translate(48.867 116.772)" fill="#77a8bd"/><rect width="1.124" height="2.219" transform="translate(46.424 120.472)" fill="#77a8bd"/><rect width="1.123" height="2.218" transform="translate(48.867 120.518)" fill="#77a8bd"/><rect width="1.124" height="2.218" transform="translate(46.424 124.217)" fill="#77a8bd"/><rect width="1.123" height="2.218" transform="translate(48.867 124.263)" fill="#77a8bd"/><rect width="1.124" height="2.219" transform="translate(46.424 127.962)" fill="#77a8bd"/><rect width="1.123" height="2.219" transform="translate(48.867 128.007)" fill="#77a8bd"/><rect width="1.124" height="2.218" transform="translate(46.424 131.707)" fill="#77a8bd"/><rect width="1.123" height="2.22" transform="translate(48.867 131.752)" fill="#77a8bd"/><rect width="1.124" height="2.22" transform="translate(46.424 135.451)" fill="#77a8bd"/><rect width="1.123" height="2.22" transform="translate(48.867 135.497)" fill="#77a8bd"/><rect width="3.718" height="1.109" transform="translate(60.423 99.182)" fill="#77a8bd"/><rect width="3.719" height="1.11" transform="translate(60.417 102.926)" fill="#77a8bd"/><rect width="3.718" height="1.11" transform="translate(60.411 106.672)" fill="#77a8bd"/><rect width="3.717" height="1.11" transform="translate(60.407 110.416)" fill="#77a8bd"/><rect width="3.718" height="1.109" transform="translate(60.401 114.161)" fill="#77a8bd"/><rect width="3.718" height="1.109" transform="translate(60.395 117.906)" fill="#77a8bd"/><rect width="3.718" height="1.11" transform="translate(60.39 121.651)" fill="#77a8bd"/><rect width="3.719" height="1.11" transform="translate(60.384 125.395)" fill="#77a8bd"/><rect width="3.72" height="1.111" transform="translate(60.378 129.14)" fill="#77a8bd"/><rect width="3.717" height="1.11" transform="translate(60.374 132.885)" fill="#77a8bd"/><rect width="3.717" height="1.11" transform="translate(60.368 136.63)" fill="#77a8bd"/><rect width="1.124" height="2.219" transform="translate(35.081 98.027)" fill="#77a8bd"/><rect width="1.124" height="2.218" transform="translate(37.523 98.073)" fill="#77a8bd"/><rect width="1.124" height="2.218" transform="translate(35.081 101.772)" fill="#77a8bd"/><rect width="1.124" height="2.219" transform="translate(37.523 101.818)" fill="#77a8bd"/><rect width="1.124" height="2.219" transform="translate(35.081 105.516)" fill="#77a8bd"/><rect width="1.124" height="2.219" transform="translate(37.523 105.562)" fill="#77a8bd"/><rect width="1.124" height="2.219" transform="translate(35.081 109.26)" fill="#77a8bd"/><rect width="1.124" height="2.218" transform="translate(37.523 109.308)" fill="#77a8bd"/><rect width="1.124" height="2.22" transform="translate(35.081 113.005)" fill="#77a8bd"/><rect width="1.124" height="2.218" transform="translate(37.523 113.052)" fill="#77a8bd"/><rect width="1.124" height="2.218" transform="translate(35.081 116.751)" fill="#77a8bd"/><rect width="1.124" height="2.218" transform="translate(37.523 116.797)" fill="#77a8bd"/><rect width="1.124" height="2.218" transform="translate(35.081 120.497)" fill="#77a8bd"/><rect width="1.124" height="2.219" transform="translate(37.523 120.541)" fill="#77a8bd"/><rect width="1.124" height="2.219" transform="translate(35.081 124.241)" fill="#77a8bd"/><rect width="1.124" height="2.219" transform="translate(37.523 124.287)" fill="#77a8bd"/><rect width="1.124" height="2.218" transform="translate(35.081 127.986)" fill="#77a8bd"/><rect width="1.124" height="2.219" transform="translate(37.523 128.031)" fill="#77a8bd"/><rect width="1.124" height="2.219" transform="translate(35.081 131.731)" fill="#77a8bd"/><rect width="1.124" height="2.219" transform="translate(37.523 131.776)" fill="#77a8bd"/><rect width="1.124" height="2.219" transform="translate(35.081 135.476)" fill="#77a8bd"/><rect width="1.124" height="2.218" transform="translate(37.523 135.522)" fill="#77a8bd"/><rect width="3.718" height="1.109" transform="translate(40.736 99.182)" fill="#77a8bd"/><rect width="3.719" height="1.11" transform="translate(40.741 102.926)" fill="#77a8bd"/><rect width="3.718" height="1.11" transform="translate(40.747 106.672)" fill="#77a8bd"/><rect width="3.718" height="1.11" transform="translate(40.753 110.416)" fill="#77a8bd"/><rect width="3.718" height="1.109" transform="translate(40.758 114.161)" fill="#77a8bd"/><rect width="3.719" height="1.109" transform="translate(40.763 117.906)" fill="#77a8bd"/><rect width="3.719" height="1.11" transform="translate(40.768 121.651)" fill="#77a8bd"/><rect width="3.718" height="1.11" transform="translate(40.774 125.395)" fill="#77a8bd"/><rect width="3.718" height="1.111" transform="translate(40.779 129.14)" fill="#77a8bd"/><rect width="3.718" height="1.11" transform="translate(40.785 132.885)" fill="#77a8bd"/><rect width="3.719" height="1.11" transform="translate(40.79 136.63)" fill="#77a8bd"/><rect width="3.089" height="1.109" transform="translate(50.929 99.182)" fill="#77a8bd"/><rect width="3.089" height="1.109" transform="translate(50.923 102.926)" fill="#77a8bd"/><rect width="3.088" height="1.11" transform="translate(50.92 106.67)" fill="#77a8bd"/><rect width="3.088" height="1.109" transform="translate(50.915 110.415)" fill="#77a8bd"/><rect width="3.088" height="1.109" transform="translate(50.911 114.16)" fill="#77a8bd"/><rect width="3.089" height="1.108" transform="translate(50.906 117.906)" fill="#77a8bd"/><rect width="3.09" height="1.111" transform="translate(50.901 121.649)" fill="#77a8bd"/><rect width="3.089" height="1.109" transform="translate(50.897 125.395)" fill="#77a8bd"/><rect width="3.088" height="1.109" transform="translate(50.893 129.14)" fill="#77a8bd"/><rect width="3.089" height="1.111" transform="translate(50.888 132.883)" fill="#77a8bd"/><rect width="3.089" height="1.11" transform="translate(50.883 136.629)" fill="#77a8bd"/><rect width="16.751" height="71.394" transform="translate(82.451 70.27)" fill="#b6dff0"/><rect width="13.088" height="1.639" transform="translate(84.283 74.688)" fill="#77a8bd"/><rect width="13.088" height="1.639" transform="translate(84.283 78.519)" fill="#77a8bd"/><rect width="13.088" height="1.638" transform="translate(84.283 82.349)" fill="#77a8bd"/><rect width="13.088" height="1.639" transform="translate(84.283 86.178)" fill="#77a8bd"/><rect width="13.088" height="1.638" transform="translate(84.283 90.009)" fill="#77a8bd"/><rect width="13.088" height="1.639" transform="translate(84.283 93.838)" fill="#77a8bd"/><rect width="13.088" height="1.638" transform="translate(84.283 97.668)" fill="#77a8bd"/><rect width="13.088" height="1.637" transform="translate(84.283 101.499)" fill="#77a8bd"/><rect width="13.088" height="1.638" transform="translate(84.283 105.328)" fill="#77a8bd"/><rect width="13.088" height="1.639" transform="translate(84.283 109.158)" fill="#77a8bd"/><rect width="13.088" height="1.639" transform="translate(84.283 112.988)" fill="#77a8bd"/><rect width="13.088" height="1.638" transform="translate(84.283 116.819)" fill="#77a8bd"/><rect width="13.088" height="1.639" transform="translate(84.283 120.648)" fill="#77a8bd"/><rect width="13.088" height="1.639" transform="translate(84.283 124.477)" fill="#77a8bd"/><rect width="13.088" height="1.638" transform="translate(84.283 128.308)" fill="#77a8bd"/><rect width="13.088" height="1.638" transform="translate(84.283 132.137)" fill="#77a8bd"/><rect width="16.751" height="71.394" transform="translate(164.962 70.27)" fill="#b6dff0"/><rect width="13.088" height="1.639" transform="translate(166.794 74.689)" fill="#77a8bd"/><rect width="13.088" height="1.639" transform="translate(166.794 78.519)" fill="#77a8bd"/><rect width="13.088" height="1.638" transform="translate(166.794 82.349)" fill="#77a8bd"/><rect width="13.088" height="1.639" transform="translate(166.794 86.178)" fill="#77a8bd"/><rect width="13.088" height="1.638" transform="translate(166.794 90.009)" fill="#77a8bd"/><rect width="13.088" height="1.638" transform="translate(166.794 93.838)" fill="#77a8bd"/><rect width="13.088" height="1.638" transform="translate(166.794 97.669)" fill="#77a8bd"/><rect width="13.088" height="1.638" transform="translate(166.794 101.499)" fill="#77a8bd"/><rect width="13.088" height="1.638" transform="translate(166.794 105.328)" fill="#77a8bd"/><rect width="13.088" height="1.639" transform="translate(166.794 109.158)" fill="#77a8bd"/><rect width="13.088" height="1.639" transform="translate(166.794 112.988)" fill="#77a8bd"/><rect width="13.088" height="1.638" transform="translate(166.794 116.819)" fill="#77a8bd"/><rect width="13.088" height="1.639" transform="translate(166.794 120.648)" fill="#77a8bd"/><rect width="13.088" height="1.639" transform="translate(166.794 124.477)" fill="#77a8bd"/><rect width="13.088" height="1.638" transform="translate(166.794 128.308)" fill="#77a8bd"/><rect width="13.088" height="1.638" transform="translate(166.794 132.137)" fill="#77a8bd"/><path d="M33.913,389.476v-2.325h3.7v2.325h9.7v-2.484h3.7v2.484H61.464v33.53H23.514v-33.53Z" transform="translate(-17.094 -281.343)" fill="#b6dff0"/><rect width="1.115" height="1.932" transform="translate(41.369 111.061)" fill="#77a8bd"/><rect width="1.114" height="1.932" transform="translate(39.307 111.061)" fill="#77a8bd"/><rect width="1.115" height="1.932" transform="translate(37.244 111.061)" fill="#77a8bd"/><rect width="1.115" height="1.932" transform="translate(35.182 111.061)" fill="#77a8bd"/><rect width="1.115" height="1.932" transform="translate(21.661 111.061)" fill="#77a8bd"/><rect width="1.115" height="1.932" transform="translate(23.724 111.061)" fill="#77a8bd"/><rect width="1.115" height="1.932" transform="translate(25.786 111.061)" fill="#77a8bd"/><rect width="1.115" height="1.932" transform="translate(27.848 111.061)" fill="#77a8bd"/><rect width="1.115" height="1.932" transform="translate(8.484 111.061)" fill="#77a8bd"/><rect width="1.115" height="1.932" transform="translate(10.546 111.061)" fill="#77a8bd"/><rect width="1.115" height="1.932" transform="translate(12.609 111.061)" fill="#77a8bd"/><rect width="1.115" height="1.932" transform="translate(14.671 111.061)" fill="#77a8bd"/><rect width="3.701" height="1.406" transform="translate(30.222 111.587)" fill="#77a8bd"/><rect width="3.701" height="1.406" transform="translate(16.818 111.587)" fill="#77a8bd"/><rect width="1.115" height="1.931" transform="translate(41.369 115.286)" fill="#77a8bd"/><rect width="1.114" height="1.931" transform="translate(39.307 115.286)" fill="#77a8bd"/><rect width="1.115" height="1.931" transform="translate(37.244 115.286)" fill="#77a8bd"/><rect width="1.115" height="1.931" transform="translate(35.182 115.286)" fill="#77a8bd"/><rect width="1.115" height="1.931" transform="translate(21.661 115.286)" fill="#77a8bd"/><rect width="1.115" height="1.931" transform="translate(23.724 115.286)" fill="#77a8bd"/><rect width="1.115" height="1.931" transform="translate(25.786 115.286)" fill="#77a8bd"/><rect width="1.115" height="1.931" transform="translate(27.848 115.286)" fill="#77a8bd"/><rect width="1.115" height="1.931" transform="translate(8.484 115.286)" fill="#77a8bd"/><rect width="1.115" height="1.931" transform="translate(10.546 115.286)" fill="#77a8bd"/><rect width="1.115" height="1.931" transform="translate(12.609 115.286)" fill="#77a8bd"/><rect width="1.115" height="1.931" transform="translate(14.671 115.286)" fill="#77a8bd"/><rect width="3.701" height="1.405" transform="translate(30.222 115.812)" fill="#77a8bd"/><rect width="3.701" height="1.405" transform="translate(16.818 115.812)" fill="#77a8bd"/><rect width="1.115" height="1.931" transform="translate(41.369 119.511)" fill="#77a8bd"/><rect width="1.114" height="1.931" transform="translate(39.307 119.511)" fill="#77a8bd"/><rect width="1.115" height="1.931" transform="translate(37.244 119.511)" fill="#77a8bd"/><rect width="1.115" height="1.931" transform="translate(35.182 119.511)" fill="#77a8bd"/><rect width="1.115" height="1.931" transform="translate(21.661 119.511)" fill="#77a8bd"/><rect width="1.115" height="1.931" transform="translate(23.724 119.511)" fill="#77a8bd"/><rect width="1.115" height="1.931" transform="translate(25.786 119.511)" fill="#77a8bd"/><rect width="1.115" height="1.931" transform="translate(27.848 119.511)" fill="#77a8bd"/><rect width="1.115" height="1.931" transform="translate(8.484 119.511)" fill="#77a8bd"/><rect width="1.115" height="1.931" transform="translate(10.546 119.511)" fill="#77a8bd"/><rect width="1.115" height="1.931" transform="translate(12.609 119.511)" fill="#77a8bd"/><rect width="1.115" height="1.931" transform="translate(14.671 119.511)" fill="#77a8bd"/><rect width="3.701" height="1.405" transform="translate(30.222 120.037)" fill="#77a8bd"/><rect width="3.701" height="1.405" transform="translate(16.818 120.037)" fill="#77a8bd"/><rect width="1.115" height="1.931" transform="translate(41.369 123.735)" fill="#77a8bd"/><rect width="1.114" height="1.931" transform="translate(39.307 123.735)" fill="#77a8bd"/><rect width="1.115" height="1.931" transform="translate(37.244 123.735)" fill="#77a8bd"/><rect width="1.115" height="1.931" transform="translate(35.182 123.735)" fill="#77a8bd"/><rect width="1.115" height="1.931" transform="translate(21.661 123.735)" fill="#77a8bd"/><rect width="1.115" height="1.931" transform="translate(23.724 123.735)" fill="#77a8bd"/><rect width="1.115" height="1.931" transform="translate(25.786 123.735)" fill="#77a8bd"/><rect width="1.115" height="1.931" transform="translate(27.848 123.735)" fill="#77a8bd"/><rect width="1.115" height="1.931" transform="translate(8.484 123.735)" fill="#77a8bd"/><rect width="1.115" height="1.931" transform="translate(10.546 123.735)" fill="#77a8bd"/><rect width="1.115" height="1.931" transform="translate(12.609 123.735)" fill="#77a8bd"/><rect width="1.115" height="1.931" transform="translate(14.671 123.735)" fill="#77a8bd"/><rect width="3.701" height="1.406" transform="translate(30.222 124.26)" fill="#77a8bd"/><rect width="3.701" height="1.406" transform="translate(16.818 124.26)" fill="#77a8bd"/><rect width="1.115" height="1.933" transform="translate(41.369 127.959)" fill="#77a8bd"/><rect width="1.114" height="1.933" transform="translate(39.307 127.959)" fill="#77a8bd"/><rect width="1.115" height="1.933" transform="translate(37.244 127.959)" fill="#77a8bd"/><rect width="1.115" height="1.933" transform="translate(35.182 127.959)" fill="#77a8bd"/><rect width="1.115" height="1.933" transform="translate(21.661 127.959)" fill="#77a8bd"/><rect width="1.115" height="1.933" transform="translate(23.724 127.959)" fill="#77a8bd"/><rect width="1.115" height="1.933" transform="translate(25.786 127.959)" fill="#77a8bd"/><rect width="1.115" height="1.933" transform="translate(27.848 127.959)" fill="#77a8bd"/><rect width="1.115" height="1.933" transform="translate(8.484 127.959)" fill="#77a8bd"/><rect width="1.115" height="1.933" transform="translate(10.546 127.959)" fill="#77a8bd"/><rect width="1.115" height="1.933" transform="translate(12.609 127.959)" fill="#77a8bd"/><rect width="1.115" height="1.933" transform="translate(14.671 127.959)" fill="#77a8bd"/><rect width="3.701" height="1.407" transform="translate(30.222 128.485)" fill="#77a8bd"/><rect width="3.701" height="1.407" transform="translate(16.818 128.485)" fill="#77a8bd"/><rect width="1.115" height="1.933" transform="translate(41.369 132.184)" fill="#77a8bd"/><rect width="1.114" height="1.933" transform="translate(39.307 132.184)" fill="#77a8bd"/><rect width="1.115" height="1.933" transform="translate(37.244 132.184)" fill="#77a8bd"/><rect width="1.115" height="1.933" transform="translate(35.182 132.184)" fill="#77a8bd"/><rect width="1.115" height="1.933" transform="translate(21.661 132.184)" fill="#77a8bd"/><rect width="1.115" height="1.933" transform="translate(23.724 132.184)" fill="#77a8bd"/><rect width="1.115" height="1.933" transform="translate(25.786 132.184)" fill="#77a8bd"/><rect width="1.115" height="1.933" transform="translate(27.848 132.184)" fill="#77a8bd"/><rect width="1.115" height="1.933" transform="translate(8.484 132.184)" fill="#77a8bd"/><rect width="1.115" height="1.933" transform="translate(10.546 132.184)" fill="#77a8bd"/><rect width="1.115" height="1.933" transform="translate(12.609 132.184)" fill="#77a8bd"/><rect width="1.115" height="1.933" transform="translate(14.671 132.184)" fill="#77a8bd"/><rect width="3.701" height="1.406" transform="translate(30.222 132.711)" fill="#77a8bd"/><rect width="3.701" height="1.406" transform="translate(16.818 132.711)" fill="#77a8bd"/><rect width="1.115" height="1.932" transform="translate(41.369 136.409)" fill="#77a8bd"/><rect width="1.114" height="1.932" transform="translate(39.307 136.409)" fill="#77a8bd"/><rect width="1.115" height="1.932" transform="translate(37.244 136.409)" fill="#77a8bd"/><rect width="1.115" height="1.932" transform="translate(35.182 136.409)" fill="#77a8bd"/><rect width="1.115" height="1.932" transform="translate(21.661 136.409)" fill="#77a8bd"/><rect width="1.115" height="1.932" transform="translate(23.724 136.409)" fill="#77a8bd"/><rect width="1.115" height="1.932" transform="translate(25.786 136.409)" fill="#77a8bd"/><rect width="1.115" height="1.932" transform="translate(27.848 136.409)" fill="#77a8bd"/><rect width="1.115" height="1.932" transform="translate(8.484 136.409)" fill="#77a8bd"/><rect width="1.115" height="1.932" transform="translate(10.546 136.409)" fill="#77a8bd"/><rect width="1.115" height="1.932" transform="translate(12.609 136.409)" fill="#77a8bd"/><rect width="1.115" height="1.932" transform="translate(14.671 136.409)" fill="#77a8bd"/><rect width="3.701" height="1.406" transform="translate(30.222 136.935)" fill="#77a8bd"/><rect width="3.701" height="1.406" transform="translate(16.818 136.935)" fill="#77a8bd"/><rect width="18.715" height="66.653" transform="translate(141.098 75.011)" fill="#b6dff0"/><rect width="1.408" height="3.83" transform="translate(156.755 78.021)" fill="#77a8bd"/><rect width="1.408" height="3.83" transform="translate(154.353 78.021)" fill="#77a8bd"/><rect width="1.407" height="3.83" transform="translate(150.954 78.021)" fill="#77a8bd"/><rect width="1.408" height="3.83" transform="translate(148.55 78.021)" fill="#77a8bd"/><rect width="1.407" height="3.83" transform="translate(145.151 78.021)" fill="#77a8bd"/><rect width="1.408" height="3.83" transform="translate(142.748 78.021)" fill="#77a8bd"/><rect width="1.408" height="3.83" transform="translate(156.755 83.766)" fill="#77a8bd"/><rect width="1.408" height="3.83" transform="translate(154.353 83.766)" fill="#77a8bd"/><rect width="1.407" height="3.83" transform="translate(150.954 83.766)" fill="#77a8bd"/><rect width="1.408" height="3.83" transform="translate(148.55 83.766)" fill="#77a8bd"/><rect width="1.407" height="3.83" transform="translate(145.151 83.766)" fill="#77a8bd"/><rect width="1.408" height="3.83" transform="translate(142.748 83.766)" fill="#77a8bd"/><rect width="1.408" height="3.829" transform="translate(156.755 89.511)" fill="#77a8bd"/><rect width="1.408" height="3.829" transform="translate(154.353 89.511)" fill="#77a8bd"/><rect width="1.407" height="3.829" transform="translate(150.954 89.511)" fill="#77a8bd"/><rect width="1.408" height="3.829" transform="translate(148.55 89.511)" fill="#77a8bd"/><rect width="1.407" height="3.829" transform="translate(145.151 89.511)" fill="#77a8bd"/><rect width="1.408" height="3.829" transform="translate(142.748 89.511)" fill="#77a8bd"/><rect width="1.408" height="3.83" transform="translate(156.755 95.256)" fill="#77a8bd"/><rect width="1.408" height="3.83" transform="translate(154.353 95.256)" fill="#77a8bd"/><rect width="1.407" height="3.83" transform="translate(150.954 95.256)" fill="#77a8bd"/><rect width="1.408" height="3.83" transform="translate(148.55 95.256)" fill="#77a8bd"/><rect width="1.407" height="3.83" transform="translate(145.151 95.256)" fill="#77a8bd"/><rect width="1.408" height="3.83" transform="translate(142.748 95.256)" fill="#77a8bd"/><rect width="1.408" height="3.83" transform="translate(156.755 101.001)" fill="#77a8bd"/><rect width="1.408" height="3.83" transform="translate(154.353 101.001)" fill="#77a8bd"/><rect width="1.407" height="3.83" transform="translate(150.954 101.001)" fill="#77a8bd"/><rect width="1.408" height="3.83" transform="translate(148.55 101.001)" fill="#77a8bd"/><rect width="1.407" height="3.83" transform="translate(145.151 101.001)" fill="#77a8bd"/><rect width="1.408" height="3.83" transform="translate(142.748 101.001)" fill="#77a8bd"/><rect width="1.408" height="3.83" transform="translate(156.755 106.746)" fill="#77a8bd"/><rect width="1.408" height="3.83" transform="translate(154.353 106.746)" fill="#77a8bd"/><rect width="1.407" height="3.83" transform="translate(150.954 106.746)" fill="#77a8bd"/><rect width="1.408" height="3.83" transform="translate(148.55 106.746)" fill="#77a8bd"/><rect width="1.407" height="3.83" transform="translate(145.151 106.746)" fill="#77a8bd"/><rect width="1.408" height="3.83" transform="translate(142.748 106.746)" fill="#77a8bd"/><rect width="1.408" height="3.83" transform="translate(156.755 112.491)" fill="#77a8bd"/><rect width="1.408" height="3.83" transform="translate(154.353 112.491)" fill="#77a8bd"/><rect width="1.407" height="3.83" transform="translate(150.954 112.491)" fill="#77a8bd"/><rect width="1.408" height="3.83" transform="translate(148.55 112.491)" fill="#77a8bd"/><rect width="1.407" height="3.83" transform="translate(145.151 112.491)" fill="#77a8bd"/><rect width="1.408" height="3.83" transform="translate(142.748 112.491)" fill="#77a8bd"/><rect width="1.408" height="3.831" transform="translate(156.755 118.236)" fill="#77a8bd"/><rect width="1.408" height="3.831" transform="translate(154.353 118.236)" fill="#77a8bd"/><rect width="1.407" height="3.831" transform="translate(150.954 118.236)" fill="#77a8bd"/><rect width="1.408" height="3.831" transform="translate(148.55 118.236)" fill="#77a8bd"/><rect width="1.407" height="3.831" transform="translate(145.151 118.236)" fill="#77a8bd"/><rect width="1.408" height="3.831" transform="translate(142.748 118.236)" fill="#77a8bd"/><rect width="1.408" height="3.831" transform="translate(156.755 123.981)" fill="#77a8bd"/><rect width="1.408" height="3.831" transform="translate(154.353 123.981)" fill="#77a8bd"/><rect width="1.407" height="3.831" transform="translate(150.954 123.981)" fill="#77a8bd"/><rect width="1.408" height="3.831" transform="translate(148.55 123.981)" fill="#77a8bd"/><rect width="1.407" height="3.831" transform="translate(145.151 123.981)" fill="#77a8bd"/><rect width="1.408" height="3.831" transform="translate(142.748 123.981)" fill="#77a8bd"/><rect width="1.408" height="3.83" transform="translate(156.755 129.727)" fill="#77a8bd"/><rect width="1.408" height="3.83" transform="translate(154.353 129.727)" fill="#77a8bd"/><rect width="1.407" height="3.83" transform="translate(150.954 129.727)" fill="#77a8bd"/><rect width="1.408" height="3.83" transform="translate(148.55 129.727)" fill="#77a8bd"/><rect width="1.407" height="3.83" transform="translate(145.151 129.727)" fill="#77a8bd"/><rect width="1.408" height="3.83" transform="translate(142.748 129.727)" fill="#77a8bd"/><g clip-path="url(#b)"><path d="M317.633,491.385v92.277H0v-88.4H.012c.3-.015.595-.031.9-.043.62-.027,1.249-.056,1.877-.086,6.33-.292,12.951-.6,19.389-.894.357-.018.717-.033,1.07-.05,1.295-.062,2.582-.118,3.856-.177h0c.478-.021.952-.045,1.429-.065h.022l2.865-.133q1.33-.068,2.636-.125c.87-.041,1.726-.079,2.575-.117.556-.027,1.11-.054,1.655-.077h.01c.028,0,.058,0,.086,0,13.14-.608,23.109-1.062,24.191-1.1a.4.4,0,0,1,.06,0h0c1.873-.042,7.048-.038,13.824-.008h.171c.407,0,.817,0,1.235.006h.206c2.132.01,4.4.022,6.758.036h0c4.5.026,9.322.058,14.136.093,1.919.012,3.838.027,5.732.042.3,0,.6,0,.905.005.717.006,1.438.01,2.158.015h.107c.215,0,.425,0,.639.006s.413,0,.624.006l18.24.139c4.62.035,7.642.056,8.019.05q8.181-.137,16.564-.266,2.928-.048,5.887-.09l3.448-.048.62-.009q11.043-.168,22.364-.3,3.427-.044,6.876-.083,3.756-.043,7.537-.082l2.3-.027,5.408-.057q4.418-.047,8.865-.088l2.233-.02,1.826-.017h.064l2.079-.019,1.827-.016,2.435-.02q3.507-.03,7.03-.055h.04l.979-.008.931-.008.961-.008.257,0,.371,0,1.455-.006c.713,0,1.429-.01,2.141-.017h.112c.1,0,.207,0,.311,0l1.4-.009,3.092-.018c1.084-.006,2.161-.015,3.242-.017l1.658-.01,1.826-.01,2.141-.011,1.824-.009,2.15-.01q4.021-.02,8.047-.035l.826,0,.781,0c.265,0,.528,0,.791,0,.092,0,.183,0,.274,0l1.552,0,2.141-.008h.028l.677,0,1.121,0,2.265-.006q8.5-.021,17.013-.022,4.3,0,8.6.005,4.265.005,8.523.016h0c1.339,0,2.672.006,4.01.011q1.666,0,3.328.01" transform="translate(-0.001 -357.205)" fill="#799642"/><path d="M211.489,419.425v17.094H119.246l-1.861-.032-.34,0-3.472-.062h-.081l-1.947-.035-.513-.009-2.662-.048h0l-1.928-.032-4.785-.085-2.618-.046-.242,0h-.021l-4.87-.087c-.274.161-.554.311-.838.446H61.154c-.356-.161-.7-.334-1.037-.513-.136-.076-.274-.152-.407-.228a2.267,2.267,0,0,1-.088.23l-1.251.023-.09,0-1.406.023H56.82l-.108,0h0l-.651.014-7.565.133-.237,0-.083,0-.159,0-.191,0-.844.014-2.073.037-5.146.09h0l-.244,0h0l-.209,0h-.053l-.221,0-.4.009h0l-.175,0-.278,0-6.345.112-.17,0-.964.016H0V411.049A18.769,18.769,0,0,1,3.527,409.8,5.378,5.378,0,0,1,7,410.071c3.391,1.472,3.987,4.259,4.647,6.761a13.349,13.349,0,0,0,.8,2.377,5.819,5.819,0,0,0,1.5,1.907,10.548,10.548,0,0,0,1.413,1c.5.3,1.022.582,1.544.867a21.019,21.019,0,0,1,2.471-3.515A16.711,16.711,0,0,1,32.4,413.717q1.864-.014,3.543.042a63.61,63.61,0,0,1,6.725.541c10.194,1.4,13.383,4.926,15.117,6.481,2.623,2.351,4.666,3.4,6.6,3.725,3.118.513,5.97-.881,10.546-1.861h0c2.871-.612,5.724-1.4,8.253-2.163h0c4.334-1.318,7.7-2.593,8.522-2.878a.907.907,0,0,1,.191-.06,13.216,13.216,0,0,1,4.422,4.385,13.541,13.541,0,0,1,1.093,2.192,16.3,16.3,0,0,0,2.485-3.145,13.064,13.064,0,0,1,8.105-6.221,33.034,33.034,0,0,1,9.028-1.04c.152,0,.308,0,.465,0a17.542,17.542,0,0,1,8.574,2.121,16.121,16.121,0,0,1,2.692,1.88,19.089,19.089,0,0,1,3.75,4.454c.168.267.327.536.481.808.253-.138.509-.276.759-.414q.469-.259.92-.534c.122-.076.244-.152.366-.232a6.469,6.469,0,0,0,2.407-2.591c.085-.168.173-.338.265-.506,1.753-3.14,5.522-5.844,12.9-5.968a9.02,9.02,0,0,1,3.322.656,16.078,16.078,0,0,1,2.333,1.123,29.168,29.168,0,0,1,4.576,3.354v0c1.36,1.194,2.227,2.131,2.266,2.153A25.193,25.193,0,0,0,166.6,418.3a13.949,13.949,0,0,0,1.723-1.247,8.29,8.29,0,0,0,2.121-2.706c1.079-2.232,1.367-5.1,2.478-7.687,1.263-2.956,3.6-5.561,9.4-6.479a31.433,31.433,0,0,1,4.986-.352c10.461.007,14.4,4.323,16.392,8.455.037.074.071.145.1.219,1.3,2.791,1.753,5.46,2.763,6.614a1.766,1.766,0,0,0,.444.384,17.575,17.575,0,0,1,2.917,2.209,18.223,18.223,0,0,1,1.562,1.719" transform="translate(0 -290.673)" fill="#799642"/><path d="M360.982,470.679a4.23,4.23,0,0,1-.648,1.082s-.007.009-.011.013l-.027.032H328.981a8.851,8.851,0,0,1-.954-1.128,6.165,6.165,0,0,1-1.151-4.907,6.813,6.813,0,0,1,.278-.99c1.468-3.966,6.009-3.776,7.583-7.24.614-1.351.8-3.069,1.391-4.652.732-1.954,2.089-3.7,5.664-4.3a17.75,17.75,0,0,1,2.963-.223,11.885,11.885,0,0,1,6.734,1.679c3.632,2.407,3.646,6.693,4.711,7.987a1.115,1.115,0,0,0,.265.243,10.261,10.261,0,0,1,.977.711,10.763,10.763,0,0,1,2.245,2.54c1.971,3.084,2.272,6.86,1.294,9.156" transform="translate(-237.55 -325.959)" fill="#669151"/><path d="M328.224,465.373c3.45-2.661,9.209-4.767,12.4-6.752,2.708-1.686,2.589-6.541,2.241-9.444-6.468,1.088-5.683,5.937-7.056,8.957-1.574,3.463-6.114,3.273-7.583,7.239" transform="translate(-238.618 -326.551)" fill="#3e6d37"/><path d="M877.179,413.476v12.242a45.851,45.851,0,0,1-3.6,9.085H798.678l-.84-.014-.163,0-8.529-.147h-.083l-5.206-.092-6.819-.117-2.66-.046-.244,0-4.42-.076-.048-16.491a13.356,13.356,0,0,1,3.078,4.526,16.583,16.583,0,0,0,2.526-3.143c2.367-3.481,5.181-7.351,17.869-7.259a17.241,17.241,0,0,1,15.256,8.455c.168.265.329.536.485.81.26-.138.515-.276.773-.416a8.044,8.044,0,0,0,3.752-3.354c1.65-3.352,5.476-6.345,13.37-6.479,5.791-.094,12.582,7.222,12.7,7.291A25.937,25.937,0,0,0,843,416.513a9.714,9.714,0,0,0,3.906-3.95c1.93-3.932,1.365-9.815,7.256-12.736l.152.014c.989.117,2.082.276,3.242.49,1.192.219,2.455.495,3.743.844,6.368,1.723,13.406,5.218,15.875,12.3" transform="translate(-559.546 -290.673)" fill="#799642"/><path d="M681.556,475.555a4.642,4.642,0,0,1-.514,1.128h-30.12a7.664,7.664,0,0,1-.825-1.128,5.663,5.663,0,0,1-.766-4.128,6.439,6.439,0,0,1,.263-.93c1.38-3.727,5.646-3.549,7.126-6.8.043-.1.086-.2.125-.3,1.121-2.848.632-7.132,6.5-8.12a16.741,16.741,0,0,1,2.785-.208c9.9.005,9.339,7.362,10.753,9.082a1.058,1.058,0,0,0,.249.229,10.479,10.479,0,0,1,4.42,11.174" transform="translate(-471.979 -330.835)" fill="#54843d"/><path d="M650.6,471.051c3.242-2.5,8.653-4.479,11.65-6.345,2.545-1.584,2.432-6.146,2.106-8.874-6.078,1.022-5.34,5.578-6.63,8.416-1.479,3.255-5.746,3.076-7.125,6.8" transform="translate(-472.983 -331.389)" fill="#3e6d37"/><path d="M575.639,451.262a7.607,7.607,0,0,1-.431,1.127H532.117a10.051,10.051,0,0,1-.7-1.127,8.576,8.576,0,0,1-.422-.888v0a8.1,8.1,0,0,1-.621-3.649v0a7.778,7.778,0,0,1,.15-1.1,9.312,9.312,0,0,1,.385-1.363c2.021-5.46,8.27-5.2,10.438-9.965.029-.065.059-.13.086-.2.057-.132.111-.268.161-.4s.1-.276.147-.417.093-.283.136-.426c.023-.072.043-.145.064-.218.086-.292.165-.589.24-.892.095-.377.188-.761.285-1.147.057-.232.115-.466.177-.7.054-.209.111-.419.17-.629a9.684,9.684,0,0,1,3.02-5.154,8.045,8.045,0,0,1,.927-.656c.168-.1.342-.2.526-.3a11.256,11.256,0,0,1,2.216-.852c.242-.065.492-.127.75-.183s.528-.109.807-.156a24.311,24.311,0,0,1,4.081-.307,14.717,14.717,0,0,1,5.562.872,7.068,7.068,0,0,1,3.9,3.961c1.534,3.352.14,6.618,2.114,9.869.4.655,1.967,1.4,3.718,2.748a16.275,16.275,0,0,1,2.162,1.985,13.6,13.6,0,0,1,2.782,4.731,8.761,8.761,0,0,1,.265,5.44" transform="translate(-385.566 -306.542)" fill="#9bc146"/><path d="M532.372,445.068c4.749-3.664,12.676-6.56,17.066-9.294,3.728-2.32,3.563-9,3.084-13-8.9,1.5-7.822,8.172-9.712,12.328-2.167,4.767-8.417,4.505-10.438,9.965" transform="translate(-387.033 -307.357)" fill="#86a749"/><path d="M571.072,495.46a.2.2,0,0,1-.122-.041.149.149,0,0,1-.015-.229,9.686,9.686,0,0,0,1.216-1.511,29.22,29.22,0,0,0,2.236-4.236c.462-1.04.906-2.134,1.355-3.345a18,18,0,0,0,.547-1.907,15.356,15.356,0,0,1,.662-2.2.192.192,0,0,1,.236-.1.158.158,0,0,1,.109.208,15.157,15.157,0,0,0-.647,2.158,18.171,18.171,0,0,1-.557,1.939c-.452,1.217-.9,2.317-1.363,3.363a29.461,29.461,0,0,1-2.26,4.281,10.046,10.046,0,0,1-1.259,1.564.2.2,0,0,1-.137.054" transform="translate(-415.034 -350.328)" fill="#dedb7a"/><path d="M548,493.274a.189.189,0,0,1-.161-.083c-.142-.225-.288-.446-.433-.665-.264-.4-.537-.813-.785-1.249-.951-1.668-1.954-3.462-2.847-5.434l-.163-.36c-.919-2.015-2.307-5.061-1.842-7.309a.185.185,0,0,1,.214-.131.165.165,0,0,1,.148.189c-.445,2.155.919,5.149,1.822,7.13l.164.36c.887,1.96,1.887,3.746,2.834,5.408.244.427.514.836.775,1.231.146.221.293.444.437.671a.153.153,0,0,1-.071.221.2.2,0,0,1-.089.021" transform="translate(-393.796 -347.535)" fill="#dedb7a"/><path d="M580.533,486.481h-.014c-2.094-.143-2.408-4.107-2.409-6.456a.185.185,0,0,1,.368,0c0,1.406.152,6,2.07,6.133a.17.17,0,0,1,.169.174.176.176,0,0,1-.183.15" transform="translate(-420.284 -348.859)" fill="#dedb7a"/><path d="M550.08,493.834a.189.189,0,0,1-.164-.088.154.154,0,0,1,.08-.218c1.394-.631,3.234-2.578,3.064-4.592a.17.17,0,0,1,.169-.174.176.176,0,0,1,.2.149c.19,2.252-1.834,4.259-3.263,4.905a.2.2,0,0,1-.084.018" transform="translate(-399.773 -355.328)" fill="#dedb7a"/><path d="M582.247,514.321a7.366,7.366,0,0,1-1.867-.333,6.85,6.85,0,0,0-1.65-.307.163.163,0,1,1,0-.324h0a7.258,7.258,0,0,1,1.753.321,3.768,3.768,0,0,0,2.909.034,4.482,4.482,0,0,0,2.192-2.584.187.187,0,0,1,.227-.112.16.16,0,0,1,.127.2,4.8,4.8,0,0,1-2.349,2.771,2.7,2.7,0,0,1-1.345.335" transform="translate(-420.603 -371.502)" fill="#dedb7a"/><path d="M536.685,503.448a4.489,4.489,0,0,1-2.124-.548,9.474,9.474,0,0,1-4.141-6.054.164.164,0,0,1,.14-.194.185.185,0,0,1,.219.123c.673,2.664,2.195,4.9,3.972,5.847a4.011,4.011,0,0,0,2.907.383.188.188,0,0,1,.226.113.161.161,0,0,1-.129.2,4.512,4.512,0,0,1-1.069.131" transform="translate(-385.611 -361.062)" fill="#dedb7a"/><path d="M960.778,448.574a8.421,8.421,0,0,1-.623,1.128H918.439a11.58,11.58,0,0,1-.888-1.128,8.458,8.458,0,0,1-1.516-6.655,9.371,9.371,0,0,1,.385-1.363c2.021-5.46,8.27-5.2,10.438-9.965.03-.065.059-.13.086-.2.057-.132.111-.266.161-.4s.1-.275.147-.417.093-.283.136-.428c.023-.073.043-.145.063-.218.086-.292.166-.589.241-.892.1-.377.19-.759.286-1.147.056-.232.115-.464.176-.7a10.328,10.328,0,0,1,3.19-5.783c.07-.058.143-.116.218-.172.148-.114.3-.223.462-.328a11.679,11.679,0,0,1,4.545-1.644,24.307,24.307,0,0,1,4.08-.306c6.158,0,8.181,2.034,9.464,4.831,1.534,3.354.141,6.621,2.114,9.869.809,1.331,6.437,3.017,8.662,9.467a8.443,8.443,0,0,1-.111,6.45" transform="translate(-665.834 -303.854)" fill="#86a749"/><path d="M917.888,441.368c4.749-3.664,12.676-6.561,17.066-9.294,3.728-2.32,3.563-9,3.084-13-8.9,1.5-7.822,8.171-9.712,12.328-2.167,4.767-8.417,4.5-10.438,9.965" transform="translate(-667.303 -304.667)" fill="#718c3d"/><path d="M363.17,493.584s-.51-14.907-11.836-15-9.549,5.5-13.268,7.5c-5.066,2.716-3.33,6.966-3.33,6.966Z" transform="translate(-243.144 -347.931)" fill="#86a749"/><path d="M371.312,505.872a.177.177,0,0,1-.1-.033,7.227,7.227,0,0,1-1.084-.987,17.644,17.644,0,0,1-1.942-2.695c-.4-.658-.781-1.35-1.169-2.115a9.281,9.281,0,0,1-.48-1.225,7.7,7.7,0,0,0-.55-1.345.136.136,0,0,1,.072-.193.174.174,0,0,1,.219.064,7.9,7.9,0,0,1,.571,1.391,8.972,8.972,0,0,0,.466,1.19c.385.759.764,1.445,1.159,2.1a17.352,17.352,0,0,0,1.91,2.652,6.878,6.878,0,0,0,1.036.943.132.132,0,0,1,.022.2.173.173,0,0,1-.126.053" transform="translate(-266.056 -361.511)" fill="#9bc146"/><path d="M390.873,504.5a.179.179,0,0,1-.1-.029.133.133,0,0,1-.031-.2c.123-.143.249-.282.375-.422.223-.247.454-.5.662-.771a38.439,38.439,0,0,0,2.425-3.39l.14-.226c.768-1.234,1.928-3.1,1.554-4.428a.143.143,0,0,1,.119-.174.165.165,0,0,1,.2.1c.4,1.437-.793,3.362-1.585,4.636l-.14.226a38.875,38.875,0,0,1-2.442,3.416c-.214.275-.449.535-.675.787-.124.138-.249.275-.37.417a.172.172,0,0,1-.13.056" transform="translate(-284.045 -359.758)" fill="#9bc146"/><path d="M371.9,500.235a.156.156,0,0,1-.163-.136.151.151,0,0,1,.153-.152c1.636-.082,1.765-2.936,1.766-3.808a.154.154,0,0,1,.163-.144h0a.154.154,0,0,1,.163.144c0,1.2-.2,4-2.073,4.1H371.9" transform="translate(-270.254 -360.588)" fill="#9bc146"/><path d="M395.859,504.852a.167.167,0,0,1-.057-.009c-1.233-.409-2.981-1.687-2.815-3.13a.158.158,0,0,1,.178-.129.15.15,0,0,1,.146.158c-.142,1.236,1.422,2.439,2.605,2.832a.139.139,0,0,1,.1.185.163.163,0,0,1-.152.093" transform="translate(-285.692 -364.65)" fill="#9bc146"/><path d="M359.5,517.712a2.967,2.967,0,0,1-1.138-.207,3.518,3.518,0,0,1-2.028-1.76.139.139,0,0,1,.093-.186.169.169,0,0,1,.21.083,3.224,3.224,0,0,0,1.862,1.6,4.433,4.433,0,0,0,2.518-.02,8.255,8.255,0,0,1,1.492-.2h0a.145.145,0,1,1,0,.287,7.889,7.889,0,0,0-1.423.194,8.366,8.366,0,0,1-1.588.208" transform="translate(-259.048 -374.804)" fill="#9bc146"/><path d="M398.374,510.888a5.2,5.2,0,0,1-.915-.082.146.146,0,0,1-.128-.17.165.165,0,0,1,.192-.112c2.791.5,5.122-1.631,5.9-3.887a.168.168,0,0,1,.2-.1.141.141,0,0,1,.108.179,5.931,5.931,0,0,1-5.36,4.168" transform="translate(-288.856 -368.25)" fill="#9bc146"/><path d="M741.555,487.807s-.584-17.064-13.548-17.166-10.931,6.3-15.187,8.582c-5.8,3.108-3.812,7.974-3.812,7.974Z" transform="translate(-515.208 -342.154)" fill="#86a749"/><path d="M750.876,501.873a.2.2,0,0,1-.118-.038,8.242,8.242,0,0,1-1.241-1.129,20.187,20.187,0,0,1-2.223-3.085c-.457-.752-.895-1.544-1.339-2.42a10.59,10.59,0,0,1-.55-1.4,8.807,8.807,0,0,0-.63-1.539.156.156,0,0,1,.083-.221.2.2,0,0,1,.25.073,9.046,9.046,0,0,1,.654,1.593,10.256,10.256,0,0,0,.533,1.362c.44.869.874,1.654,1.327,2.4a19.879,19.879,0,0,0,2.186,3.035,7.9,7.9,0,0,0,1.186,1.08.151.151,0,0,1,.026.231.2.2,0,0,1-.144.06" transform="translate(-541.436 -357.699)" fill="#9bc146"/><path d="M773.266,500.3a.2.2,0,0,1-.113-.034.153.153,0,0,1-.035-.231c.141-.163.285-.323.429-.482.256-.284.52-.577.758-.882a44.077,44.077,0,0,0,2.776-3.881l.161-.259c.879-1.414,2.208-3.55,1.779-5.069a.165.165,0,0,1,.136-.2.19.19,0,0,1,.226.12c.464,1.645-.907,3.848-1.814,5.306l-.16.259a44.36,44.36,0,0,1-2.8,3.91c-.245.315-.513.613-.773.9-.143.158-.285.316-.424.477a.2.2,0,0,1-.149.065" transform="translate(-562.027 -355.691)" fill="#9bc146"/><path d="M751.552,495.421a.178.178,0,0,1-.186-.155.173.173,0,0,1,.175-.174c1.872-.093,2.02-3.36,2.021-4.359a.188.188,0,0,1,.373,0c0,1.373-.234,4.58-2.372,4.687h-.011" transform="translate(-546.241 -356.643)" fill="#9bc146"/><path d="M778.973,500.7a.2.2,0,0,1-.065-.011c-1.412-.468-3.412-1.931-3.222-3.583a.181.181,0,0,1,.2-.147.172.172,0,0,1,.167.181c-.163,1.415,1.627,2.792,2.982,3.242a.159.159,0,0,1,.109.212.187.187,0,0,1-.175.107" transform="translate(-563.912 -361.29)" fill="#9bc146"/><path d="M737.36,515.426a3.4,3.4,0,0,1-1.3-.237,4.022,4.022,0,0,1-2.322-2.015.158.158,0,0,1,.107-.212.194.194,0,0,1,.241.094,3.691,3.691,0,0,0,2.131,1.834,5.073,5.073,0,0,0,2.882-.023,9.465,9.465,0,0,1,1.708-.23h0a.166.166,0,1,1,0,.329,8.991,8.991,0,0,0-1.63.222,9.575,9.575,0,0,1-1.817.238" transform="translate(-533.415 -372.914)" fill="#9bc146"/><path d="M781.853,507.614a5.968,5.968,0,0,1-1.048-.094.167.167,0,0,1-.146-.194.189.189,0,0,1,.22-.129c3.2.571,5.863-1.866,6.753-4.449a.193.193,0,0,1,.233-.11.163.163,0,0,1,.124.206,6.789,6.789,0,0,1-6.136,4.77" transform="translate(-567.534 -365.411)" fill="#9bc146"/><path d="M808.122,469.94a.046.046,0,0,1-.009.013,9.408,9.408,0,0,1-1.108,1.115H779.069c-.2-.149-.4-.3-.587-.462l-.009-.005c-.131-.111-.258-.227-.385-.345a.677.677,0,0,0-.05-.051c-.093-.087-.181-.176-.27-.265a6.361,6.361,0,0,1-1.98-5.776,6.757,6.757,0,0,1,.272-.957c1.418-3.831,5.8-3.647,7.325-6.992,1.328-2.919.569-7.6,6.817-8.653a17.212,17.212,0,0,1,2.862-.216c10.175.005,9.6,7.57,11.057,9.338a1.033,1.033,0,0,0,.254.236c5.157,3.312,5.916,10.416,3.747,13.02" transform="translate(-563.912 -325.22)" fill="#54843d"/><path d="M777.093,463.781c3.333-2.571,8.9-4.6,11.977-6.523,2.617-1.628,2.5-6.319,2.165-9.123-6.249,1.051-5.49,5.735-6.817,8.653-1.52,3.346-5.907,3.162-7.325,6.993" transform="translate(-564.945 -325.793)" fill="#3e6d37"/><path d="M443.239,476.919v0a8.624,8.624,0,0,1-.05.888,7.13,7.13,0,0,1-.2,1.128h-32.6c-.041-.075-.079-.149-.115-.225a6.09,6.09,0,0,1-.36-.9,5.57,5.57,0,0,1-.145-2.823,6.777,6.777,0,0,1,.272-.955c1.418-3.832,5.8-3.649,7.325-6.994.043-.1.086-.2.125-.3.036-.085.068-.172.1-.259.025-.065.045-.13.066-.2s.038-.114.057-.172c.029-.091.056-.181.082-.274.054-.185.1-.373.152-.564.113-.433.217-.879.333-1.325.029-.111.059-.219.088-.328.064-.228.132-.459.206-.685.066-.194.134-.388.211-.578.029-.072.059-.145.091-.216.011-.029.023-.058.036-.085.038-.089.082-.176.125-.263s.079-.161.124-.239a5.752,5.752,0,0,1,.48-.75c.032-.043.066-.087.1-.129.054-.071.113-.14.174-.207.032-.036.063-.073.1-.107a4.689,4.689,0,0,1,.36-.348c.045-.042.1-.083.145-.123s.1-.082.152-.121.1-.078.158-.116a6.468,6.468,0,0,1,1.5-.783c.054-.022.109-.04.163-.058q.133-.049.272-.093l.161-.049c.055-.016.111-.033.168-.047s.125-.034.191-.051c.047-.013.1-.025.147-.036.079-.02.161-.038.245-.054q.248-.054.51-.1a17.229,17.229,0,0,1,2.862-.214c.621,0,1.2.029,1.747.083,5.5.542,7.2,3.655,8.109,6.194a12.99,12.99,0,0,0,1.2,3.06,1.1,1.1,0,0,0,.254.234,10.651,10.651,0,0,1,4.266,5.525v0a11.071,11.071,0,0,1,.621,3.649" transform="translate(-297.813 -333.089)" fill="#669151"/><path d="M411.072,474.6c3.333-2.571,8.9-4.6,11.977-6.523,2.617-1.628,2.5-6.319,2.165-9.123-6.249,1.051-5.49,5.735-6.816,8.653-1.521,3.346-5.907,3.162-7.325,6.993" transform="translate(-298.848 -333.659)" fill="#3e6d37"/><path d="M531.758,493.275l-6.893.129-21.386.4s.507-14.825,11.771-14.914,9.5,5.475,13.2,7.457c5.037,2.7,3.312,6.928,3.312,6.928" transform="translate(-366.028 -348.151)" fill="#9bc146"/><path d="M563.1,493.275l-6.893.129a8.7,8.7,0,0,0-.3-6.033c-2.205-4.579-9.317-8.481-9.317-8.481,11.264-.089,9.5,5.475,13.2,7.457,5.037,2.7,3.312,6.928,3.312,6.928" transform="translate(-397.375 -348.151)" fill="#86a749"/><path d="M536.173,504.355a.171.171,0,0,1-.125-.052c-3.164-3.364-5.859-6.466-6.793-10.365a.144.144,0,0,1,.125-.169.163.163,0,0,1,.192.11c.918,3.835,3.589,6.907,6.725,10.242a.132.132,0,0,1-.021.2.175.175,0,0,1-.1.033" transform="translate(-384.765 -358.967)" fill="#dedb7a"/><path d="M552.768,509.613a.156.156,0,0,1-.161-.13c-.491-4.9,5.377-7.9,5.437-7.933a.174.174,0,0,1,.221.053.135.135,0,0,1-.061.2c-.058.029-5.746,2.948-5.274,7.66a.15.15,0,0,1-.147.155h-.014" transform="translate(-401.723 -364.612)" fill="#dedb7a"/><path d="M539.132,501.73a.177.177,0,0,1-.1-.033.132.132,0,0,1-.022-.2c.222-.238.459-.469.687-.694,1.007-.988,1.958-1.921,1.923-3.415a.153.153,0,0,1,.158-.146.156.156,0,0,1,.165.14c.038,1.607-1,2.626-2.005,3.613-.226.222-.46.451-.678.684a.17.17,0,0,1-.125.052" transform="translate(-391.83 -361.493)" fill="#dedb7a"/><path d="M524.817,520.018a10.835,10.835,0,0,1-3.909-.652.137.137,0,0,1-.083-.189.172.172,0,0,1,.214-.073,12.856,12.856,0,0,0,6.312.43.161.161,0,0,1,.187.117.146.146,0,0,1-.133.165,17.645,17.645,0,0,1-2.589.2" transform="translate(-378.629 -377.379)" fill="#dedb7a"/><path d="M555.86,513.06a.16.16,0,0,1-.157-.108.143.143,0,0,1,.117-.174,11.853,11.853,0,0,1,1.811-.178c1.634-.083,3.487-.178,4.071-1.367a.171.171,0,0,1,.213-.075.137.137,0,0,1,.084.188c-.663,1.351-2.622,1.451-4.349,1.539a11.556,11.556,0,0,0-1.751.17.2.2,0,0,1-.04,0" transform="translate(-403.992 -371.603)" fill="#dedb7a"/><path d="M560.031,500.871a.163.163,0,0,1-.154-.1c-.085-.223-.188-.447-.3-.684a4.083,4.083,0,0,1-.555-2.226.159.159,0,0,1,.18-.125.148.148,0,0,1,.142.159,3.9,3.9,0,0,0,.534,2.084c.106.231.216.47.3.7a.14.14,0,0,1-.1.181.175.175,0,0,1-.051.008" transform="translate(-406.396 -361.854)" fill="#dedb7a"/><path d="M875.44,493.275l-6.893.129-21.386.4s.507-14.826,11.771-14.914,9.5,5.475,13.2,7.457c5.037,2.7,3.312,6.929,3.312,6.929" transform="translate(-615.884 -348.151)" fill="#9bc146"/><path d="M906.786,493.275l-6.893.129a8.7,8.7,0,0,0-.3-6.033c-2.206-4.579-9.317-8.481-9.317-8.481,11.264-.089,9.5,5.475,13.2,7.457,5.037,2.7,3.312,6.929,3.312,6.929" transform="translate(-647.231 -348.151)" fill="#7f9e45"/><path d="M879.854,504.355a.172.172,0,0,1-.125-.052c-3.164-3.364-5.859-6.466-6.793-10.365a.144.144,0,0,1,.125-.169.164.164,0,0,1,.193.11c.918,3.835,3.589,6.907,6.725,10.242a.132.132,0,0,1-.022.2.174.174,0,0,1-.1.033" transform="translate(-634.62 -358.967)" fill="#dedb7a"/><path d="M896.449,509.613a.155.155,0,0,1-.161-.13c-.49-4.9,5.377-7.9,5.437-7.933a.174.174,0,0,1,.221.053.134.134,0,0,1-.061.195c-.058.029-5.746,2.948-5.274,7.66a.15.15,0,0,1-.147.155h-.015" transform="translate(-651.578 -364.612)" fill="#dedb7a"/><path d="M882.813,501.73a.172.172,0,0,1-.1-.033.132.132,0,0,1-.022-.2c.222-.237.459-.47.687-.693,1.007-.988,1.958-1.921,1.923-3.415a.152.152,0,0,1,.159-.146.156.156,0,0,1,.165.14c.038,1.607-1,2.627-2.005,3.613-.226.222-.46.452-.678.684a.17.17,0,0,1-.125.052" transform="translate(-641.686 -361.493)" fill="#dedb7a"/><path d="M868.5,520.018a10.83,10.83,0,0,1-3.909-.652.137.137,0,0,1-.083-.189.172.172,0,0,1,.214-.073,12.849,12.849,0,0,0,6.312.431.161.161,0,0,1,.187.117.146.146,0,0,1-.132.165,17.685,17.685,0,0,1-2.589.2" transform="translate(-628.484 -377.378)" fill="#dedb7a"/><path d="M899.542,513.06a.16.16,0,0,1-.157-.108.143.143,0,0,1,.117-.174,11.778,11.778,0,0,1,1.811-.178c1.635-.083,3.487-.178,4.071-1.367a.171.171,0,0,1,.213-.075.137.137,0,0,1,.084.188c-.663,1.351-2.622,1.451-4.349,1.539a11.563,11.563,0,0,0-1.751.17.193.193,0,0,1-.04,0" transform="translate(-653.847 -371.603)" fill="#dedb7a"/><path d="M903.713,500.871a.162.162,0,0,1-.154-.1c-.085-.223-.188-.447-.3-.684a4.086,4.086,0,0,1-.555-2.225.159.159,0,0,1,.18-.125.148.148,0,0,1,.141.159,3.9,3.9,0,0,0,.534,2.084c.106.231.216.47.3.7a.14.14,0,0,1-.1.181.177.177,0,0,1-.052.007" transform="translate(-656.251 -361.855)" fill="#dedb7a"/><path d="M168.707,455.13a10.332,10.332,0,0,1-2.454,2.137,10.493,10.493,0,0,1-1.126.613,11.261,11.261,0,0,1-1.314.515H153.9c-.417-.1-.8-.194-1.153-.286-.494-.13-.911-.252-1.235-.345q-.36.2-.721.381-.255.128-.51.25H138.324a.208.208,0,0,0-.023-.016c-.236-.168-.471-.35-.7-.545-.018,0-1.067.12-1.085.12a4.787,4.787,0,0,1-.378-.685c-.354-.707-.827-1.711-.92-1.8a.528.528,0,0,0-.057-.056,7.228,7.228,0,0,1-2.508-6.738,7.806,7.806,0,0,1,.3-1.068c1.584-4.275,6.475-4.07,8.172-7.8a34.75,34.75,0,0,0,1.217-4.171c.725-2.429,2.028-4.746,6.387-5.48a19.216,19.216,0,0,1,3.192-.238c11.354.005,10.71,8.442,12.335,10.415a1.205,1.205,0,0,0,.283.263,11.808,11.808,0,0,1,4.62,5.787c1.3,3.394,1.024,7-.451,8.751" transform="translate(-96.342 -312.548)" fill="#9bc146"/><path d="M134.1,448.243c3.718-2.869,9.924-5.137,13.361-7.277,2.919-1.816,2.79-7.049,2.415-10.177-6.971,1.173-6.124,6.4-7.6,9.651-1.7,3.733-6.589,3.528-8.171,7.8" transform="translate(-97.494 -313.183)" fill="#799642"/><path d="M233.156,486.2s.6-17.663,14.024-17.769,11.315,6.522,15.721,8.884c6,3.218,3.946,8.254,3.946,8.254Z" transform="translate(-169.504 -340.547)" fill="#86a749"/><path d="M296.744,500.761a.208.208,0,0,0,.122-.039,8.558,8.558,0,0,0,1.285-1.169,20.879,20.879,0,0,0,2.3-3.193c.473-.779.926-1.6,1.385-2.506a10.978,10.978,0,0,0,.569-1.452,9.136,9.136,0,0,1,.652-1.593.162.162,0,0,0-.086-.229.206.206,0,0,0-.259.076,9.372,9.372,0,0,0-.677,1.648,10.633,10.633,0,0,1-.552,1.41c-.456.9-.905,1.712-1.373,2.484a20.568,20.568,0,0,1-2.263,3.142,8.156,8.156,0,0,1-1.228,1.117.157.157,0,0,0-.026.24.2.2,0,0,0,.149.063" transform="translate(-215.592 -356.638)" fill="#9bc146"/><path d="M273.326,499.135a.212.212,0,0,0,.117-.035.158.158,0,0,0,.037-.239c-.146-.169-.3-.334-.444-.5-.265-.293-.538-.6-.784-.913a45.7,45.7,0,0,1-2.873-4.017l-.166-.268c-.91-1.463-2.285-3.674-1.842-5.246a.17.17,0,0,0-.141-.207.2.2,0,0,0-.234.124c-.48,1.7.939,3.983,1.878,5.493l.166.267a45.96,45.96,0,0,0,2.894,4.047c.254.326.532.634.8.932.147.163.295.327.439.494a.205.205,0,0,0,.154.067" transform="translate(-194.035 -354.56)" fill="#9bc146"/><path d="M306.348,494.082a.184.184,0,0,0,.193-.161.179.179,0,0,0-.182-.18c-1.938-.1-2.091-3.478-2.092-4.512a.194.194,0,0,0-.386,0c0,1.422.242,4.741,2.456,4.852h.011" transform="translate(-220.921 -355.545)" fill="#9bc146"/><path d="M275.437,499.55a.194.194,0,0,0,.068-.011c1.462-.485,3.532-2,3.335-3.708a.187.187,0,0,0-.211-.152.178.178,0,0,0-.173.187c.169,1.465-1.684,2.89-3.087,3.355a.165.165,0,0,0-.113.219.193.193,0,0,0,.181.11" transform="translate(-200.102 -360.357)" fill="#9bc146"/><path d="M308.086,514.789a3.514,3.514,0,0,0,1.348-.246,4.166,4.166,0,0,0,2.4-2.085.165.165,0,0,0-.111-.22.2.2,0,0,0-.249.1,3.819,3.819,0,0,1-2.206,1.9,5.251,5.251,0,0,1-2.984-.024,9.787,9.787,0,0,0-1.768-.238h0a.172.172,0,1,0,0,.341,9.32,9.32,0,0,1,1.687.23,9.9,9.9,0,0,0,1.881.247" transform="translate(-221.245 -372.388)" fill="#9bc146"/><path d="M261.83,506.7a6.152,6.152,0,0,0,1.085-.1.172.172,0,0,0,.151-.2.2.2,0,0,0-.228-.133c-3.307.59-6.069-1.932-6.99-4.606a.2.2,0,0,0-.241-.114.168.168,0,0,0-.128.213,7.027,7.027,0,0,0,6.351,4.938" transform="translate(-185.726 -364.622)" fill="#9bc146"/><path d="M44.529,477.331l-9.623.18-29.857.559s.708-20.7,16.434-20.822,13.258,7.644,18.422,10.411c7.033,3.771,4.624,9.672,4.624,9.672" transform="translate(-3.671 -332.417)" fill="#9bc146"/><path d="M88.292,477.331l-9.623.18a12.136,12.136,0,0,0-.416-8.423c-3.079-6.392-13.007-11.84-13.007-11.84,15.726-.124,13.258,7.644,18.422,10.411,7.033,3.771,4.624,9.672,4.624,9.672" transform="translate(-47.434 -332.417)" fill="#86a749"/><path d="M50.693,492.8a.238.238,0,0,1-.174-.072c-4.417-4.7-8.18-9.028-9.484-14.47a.2.2,0,0,1,.174-.237.228.228,0,0,1,.268.154c1.282,5.354,5.011,9.643,9.389,14.3a.184.184,0,0,1-.029.281.243.243,0,0,1-.144.046" transform="translate(-29.829 -347.517)" fill="#dedb7a"/><path d="M73.86,500.143a.217.217,0,0,1-.225-.182c-.685-6.835,7.507-11.034,7.59-11.075a.243.243,0,0,1,.308.075.188.188,0,0,1-.084.272c-.081.04-8.022,4.116-7.363,10.693a.208.208,0,0,1-.205.216h-.02" transform="translate(-53.503 -355.4)" fill="#dedb7a"/><path d="M54.824,489.138a.245.245,0,0,1-.144-.046.184.184,0,0,1-.031-.281c.311-.331.64-.655.96-.968,1.406-1.38,2.734-2.683,2.684-4.768a.213.213,0,0,1,.221-.2.217.217,0,0,1,.231.2c.053,2.243-1.4,3.666-2.8,5.043-.316.31-.642.63-.947.955a.238.238,0,0,1-.174.073" transform="translate(-39.692 -351.046)" fill="#dedb7a"/><path d="M34.839,514.668a15.129,15.129,0,0,1-5.457-.91.191.191,0,0,1-.115-.264.239.239,0,0,1,.3-.1,17.944,17.944,0,0,0,8.813.6.225.225,0,0,1,.261.164.2.2,0,0,1-.185.23,24.64,24.64,0,0,1-3.615.281" transform="translate(-21.263 -373.223)" fill="#dedb7a"/><path d="M78.179,504.953a.224.224,0,0,1-.219-.15.2.2,0,0,1,.164-.243,16.44,16.44,0,0,1,2.529-.248c2.282-.116,4.868-.248,5.683-1.909a.238.238,0,0,1,.3-.1.192.192,0,0,1,.118.263c-.926,1.886-3.66,2.026-6.072,2.149a16.112,16.112,0,0,0-2.444.237.262.262,0,0,1-.056.006" transform="translate(-56.671 -365.158)" fill="#dedb7a"/><path d="M84,487.938a.226.226,0,0,1-.214-.136c-.119-.311-.262-.624-.415-.955a5.706,5.706,0,0,1-.775-3.107.223.223,0,0,1,.252-.174.207.207,0,0,1,.2.222,5.447,5.447,0,0,0,.745,2.909c.148.322.3.655.424.977a.2.2,0,0,1-.142.253.254.254,0,0,1-.072.011" transform="translate(-60.027 -351.55)" fill="#dedb7a"/><path d="M996.413,470l10.878.2,33.752.632s-.8-23.4-18.578-23.538-14.988,8.641-20.826,11.769c-7.95,4.263-5.226,10.935-5.226,10.935" transform="translate(-724.063 -325.184)" fill="#9bc146"/><path d="M996.413,470l10.878.2a13.72,13.72,0,0,1,.47-9.521c3.48-7.226,14.7-13.385,14.7-13.385-17.777-.14-14.988,8.641-20.826,11.769-7.95,4.263-5.226,10.935-5.226,10.935" transform="translate(-724.063 -325.184)" fill="#86a749"/><path d="M1079.724,487.49a.27.27,0,0,0,.2-.081c4.994-5.31,9.247-10.205,10.721-16.359a.228.228,0,0,0-.2-.267.257.257,0,0,0-.3.174c-1.45,6.052-5.665,10.9-10.614,16.164a.208.208,0,0,0,.034.318.275.275,0,0,0,.163.052" transform="translate(-784.771 -342.254)" fill="#dedb7a"/><path d="M1059.314,495.789a.245.245,0,0,0,.254-.206c.775-7.726-8.486-12.474-8.58-12.52a.274.274,0,0,0-.349.084.213.213,0,0,0,.1.308c.091.045,9.069,4.652,8.324,12.088a.237.237,0,0,0,.232.245h.023" transform="translate(-763.788 -351.164)" fill="#dedb7a"/><path d="M1092.333,483.346a.28.28,0,0,0,.163-.051.209.209,0,0,0,.034-.318c-.351-.375-.724-.741-1.084-1.094-1.589-1.559-3.091-3.032-3.035-5.39a.241.241,0,0,0-.25-.23.246.246,0,0,0-.261.222c-.061,2.536,1.58,4.145,3.165,5.7.357.35.726.712,1.07,1.079a.267.267,0,0,0,.2.082" transform="translate(-790.9 -346.241)" fill="#dedb7a"/><path d="M1099.135,512.21a17.1,17.1,0,0,0,6.169-1.03.216.216,0,0,0,.13-.3.271.271,0,0,0-.337-.115c-3.319,1.3-7.25,1.086-9.962.68a.254.254,0,0,0-.295.185.23.23,0,0,0,.209.26,27.834,27.834,0,0,0,4.086.318" transform="translate(-795.944 -371.313)" fill="#dedb7a"/><path d="M1051.879,501.228a.252.252,0,0,0,.247-.17.225.225,0,0,0-.185-.275,18.649,18.649,0,0,0-2.859-.28c-2.58-.131-5.5-.281-6.425-2.158a.27.27,0,0,0-.336-.117.216.216,0,0,0-.133.3c1.047,2.132,4.138,2.29,6.864,2.429a18.25,18.25,0,0,1,2.763.268.3.3,0,0,0,.063.007" transform="translate(-757.654 -362.197)" fill="#dedb7a"/><path d="M1066.846,481.991a.257.257,0,0,0,.243-.154c.134-.352.3-.705.469-1.08a6.449,6.449,0,0,0,.876-3.512.251.251,0,0,0-.284-.2.234.234,0,0,0-.223.251,6.156,6.156,0,0,1-.842,3.289c-.167.364-.34.741-.48,1.106a.221.221,0,0,0,.161.286.285.285,0,0,0,.081.012" transform="translate(-775.409 -346.812)" fill="#dedb7a"/><path d="M319.3,530.448v.441a.389.389,0,0,1-.422.343H2.716a.389.389,0,0,1-.422-.343v-.441a.389.389,0,0,1,.422-.343H318.878a.389.389,0,0,1,.422.343" transform="translate(-1.668 -385.385)" fill="#799642"/><path d="M239.305,588.3c4.784-.076,3.082,1.084,2.625,1.334-6.425,3.529,9.484,4.928,33.64,4.891,15.318-.023,27.676-1.984,42.983-2.263a96.933,96.933,0,0,0,10.28-.675c1.4-.222.926-1.413-.548-1.488-1.76-.09-7.038-.372-7.038-.372-.83-.138-.745-.652.122-.738,8.864-.887,16.779-.5,27.677-.549,8.742-.038,10.57-4.167-7.6-3.941l-39.913-.527c-.849-.078-.98-.571-.193-.728,0,0,.966-.047,1.287-.064,1.415-.076,1.71-1.132-.413-1.208-14.4-.512-26.43-.873-39.23.655-1.773.212-3.53.45-5.332.608-4.549.4-16.661.411-21.3.411-20.267,0-23.5,5.075,2.956,4.655" transform="translate(-160.161 -422.768)" fill="#86a749"/><path d="M957.084,543.59v7.47c-3.255.008-6.965-.006-11.063-.011-12.334-.018-24.4-.245-36.727-.459a82.353,82.353,0,0,1-8.277-.514c-1.125-.17-.745-1.078.442-1.135,1.416-.069,5.667-.283,5.667-.283.669-.1.6-.5-.1-.562-7.137-.676-13.511-.382-22.287-.419-7.039-.028-8.512-3.176,6.118-3l32.139-.4c.684-.059.79-.435.156-.555l-1.037-.049c-1.139-.058-1.377-.863.332-.921,11.6-.39,21.283-.666,31.589.5,1.016.115,2.026.24,3.046.345" transform="translate(-639.452 -394.331)" fill="#86a749"/><rect width="317.632" height="48.712" transform="translate(0 177.743)" fill="#90999e"/><path d="M84.346,556.038c9.409-.048,6.062.68,5.163.837-12.637,2.214,13.484,2.048,61,2.025,30.129-.014,59.6-.2,89.709-.377,6.936-.041,16.1-.215,20.219-.424,2.749-.139,1.821-.886-1.079-.933-3.462-.057-13.843-.233-13.843-.233-1.634-.086-1.465-.409.241-.463,17.433-.556,33-.315,54.437-.344,17.194-.024,20.79-2.614-14.944-2.472l-78.5-.331c-1.669-.049-1.928-.358-.381-.457l2.532-.04c2.784-.047,3.364-.71-.812-.758-28.326-.321-51.984-.548-77.159.411-3.486.133-6.944.282-10.487.381-8.947.251-32.77.258-41.9.258-39.862,0-46.228,3.183,5.813,2.919" transform="translate(-34.151 -401.151)" fill="#86a749"/><path d="M271.408,778.987h28.564V777.96H271.408Zm-57.137,0h28.57V777.96h-28.57Zm-57.128,0h28.564V777.96H157.143Zm-57.137,0h28.57V777.96h-28.57Zm-57.128,0H71.442V777.96H42.878ZM0,778.987H14.311V777.96H0Z" transform="translate(0 -565.575)" fill="#f7fdfe"/><path d="M174.008,130.019h42.257s1.508,0,.527-1.453c-1.486-2.212-4.879-8.43-10.307-8.054-6.212.432-6.242,3.591-6.242,3.654,0,0-1.872-6.215-7.156-5.849a5.846,5.846,0,0,0-5.549,5.487s-4.172-2.437-7.9-1.34c-2.076.612-2.1,2.884-1.717,4.777a6.958,6.958,0,0,0-5.692-.866c-3.8,1.319,1.783,3.644,1.783,3.644" transform="translate(-124.243 -86.005)" fill="#f8ffff"/><path d="M983.134,169.9h26.4s.942,0,.329-1.161c-.928-1.769-2.239-6.027-5.631-5.727-3.881.346-4.71,2.158-4.71,2.209,0,0-.592-4.039-3.894-3.746a4.67,4.67,0,0,0-4.046,3.456,3.226,3.226,0,0,0-3.687-.862,3.671,3.671,0,0,0-2.323,3.61c-1.083-.539-1.026-.74-2.18-.384-2.485.766-.263,2.605-.263,2.605" transform="translate(-714.072 -105.384)" fill="#f8ffff"/><path d="M891.457,66.912h19.179s.684,0,.239-.611c-.674-.93-1.188-3.066-3.651-2.908-2.819.182-3.86,1.032-3.86,1.058a2.566,2.566,0,0,0-2.828-1.933A3.088,3.088,0,0,0,897.6,64.3s-1.137-1.788-3.587-.563a1.6,1.6,0,0,0-.779,2.008,3.372,3.372,0,0,0-2.584-.364c-1.726.554.809,1.532.809,1.532" transform="translate(-647.061 -45.445)" fill="#f8ffff"/></g></g></g><g transform="translate(277.243 840.287)"><g transform="translate(885.835 5557.58)"><g clip-path="url(#c)"><g transform="translate(0 0)"><g clip-path="url(#c)"><path d="M436.2,59.542a9.231,9.231,0,0,1,4.491-.1l.058-4.1s-2.621.057-3.4-.834-2.884-6.109-4.419-5.381,1.5,5.437,1.309,7.574c-.154,1.749.639,3.259,1.956,2.847" transform="translate(-431.471 -37.957)" fill="#edb47c"/><path d="M334.184,60.451c8.881-.578,18.867-2.5,22.887-2.5.045.014.652,8.106-.672,8.293-5.8.825-22.113.251-22.113.251a31.252,31.252,0,0,1-.1-6.044" transform="translate(-325.711 -44.845)" fill="#182332"/><path d="M240.7,53.7l-28.735-.8-1.185-7.989c5.71-2,17.314-2.472,28.418-4.2Z" transform="translate(-181.278 -31.509)" fill="#182332"/><path d="M440.739,71.107a9.231,9.231,0,0,1,4.491-.1l.058-4.1s-2.621.057-3.4-.834-2.884-6.109-4.419-5.381,1.5,5.437,1.309,7.574c-.154,1.749.639,3.259,1.956,2.847" transform="translate(-437.039 -46.906)" fill="#edb47c"/><path d="M338.725,72.016c8.881-.578,18.867-2.5,22.887-2.5.045.014.652,8.106-.672,8.293-5.8.825-22.113.251-22.113.251a31.261,31.261,0,0,1-.1-6.044" transform="translate(-331.279 -53.793)" fill="#212f42"/><path d="M242.723,67.261l-28.735-.8L212.8,58.476c5.71-2,19.387-1.89,30.491-3.619Z" transform="translate(-184.326 -42.45)" fill="#212f42"/><path d="M83.635,50.863c-4.206-2.094-3.013-15.723.158-15.826,12.779-.415,19.222-1.8,25.123-.97,3.407.481,6.01,1.106,7.041,3.662a12.016,12.016,0,0,1,.607,4.8,11.524,11.524,0,0,1-.941,3.956c-3.487,10.672-24.945,1.548-31.987,4.377" transform="translate(-27.787 -26.16)" fill="#2f393d"/><g transform="translate(65.728 15.592)" style="mix-blend-mode:multiply;isolation:isolate"><g transform="translate(0)"><g transform="translate(0)" clip-path="url(#e)"><path d="M182.83,68.936a.133.133,0,0,0,.017.015c-.006,0-.011,0-.017-.015" transform="translate(-182.83 -68.936)" fill="#f7e9d9"/></g></g></g><path d="M189.786,88.865l-12.842,1.556-.26,2.807A154.166,154.166,0,0,0,193.021,94.7Z" transform="translate(-125.885 -68.766)" fill="#edb47c"/><path d="M107.395,81.516l1.081-5.1,17.132-3.638s3.5,5.4.667,7.3c-3.031,2.024-16.526,2.95-18.88,1.434" transform="translate(-44.576 -56.32)" fill="#edb47c"/><path d="M86.451,80.91c-.793-3.228-1.728-6.094-1.252-8.864,0,0,11.939-3.53,13.571.9,2.726,7.391-12.319,7.967-12.319,7.967" transform="translate(-11.244 -54.719)" fill="#2f393d"/><path d="M244.85,94.431c.337-.719,5.208-.039,5.536-.244.874-.544-1.189-.5-.175-1.247.406-.3,2.214.706,2.873.591l.677,2.791c-3.789,1.947-9.713-.177-8.911-1.89" transform="translate(-202.026 -71.876)" fill="#edb47c"/><path d="M69.188,42.717a12.215,12.215,0,0,0,2.931-.861l1.652,4.875c-.242.068-.5.133-.766.2a13.733,13.733,0,0,0-2.611,1.321c-2.7-.219-6.287-5.475-1.207-5.535" transform="translate(18.257 -32.389)" fill="#edb47c"/><path d="M9.891,21.543c-4.116,1.385-6.5,5.349-5.317,8.856a5.867,5.867,0,0,0,1.7,2.541,6.831,6.831,0,0,0,1.939,1.191l.009,0c1.223.42,2.448-.122,3.21-.22a13.9,13.9,0,0,1-1.539.691,8.855,8.855,0,0,0,4.269-.366c4.115-1.384,6.5-5.349,5.316-8.855s-5.472-5.226-9.587-3.842" transform="translate(86.352 -16.3)"/><path d="M27.332,11s-6.862-1.7-11.721.857c-2.478,1.3-4.656,4.161-3.648,7.178,1.6,4.786,5.564,5.23,7.818,5.082,3.589-.235,7.154-1.026,9.04-2.1Z" transform="translate(75.627 -8.083)" fill="#fdcb93"/><path d="M38.986,65.758c.264-1-.986-1.649-.986-1.649l-3.163.441c.616,2.709,3.909,2.114,4.149,1.208" transform="translate(60.196 -49.609)" fill="#ffd0bd"/><g transform="translate(96.132 15.385)" style="mix-blend-mode:multiply;isolation:isolate"><g transform="translate(0)"><g clip-path="url(#f)"><path d="M40.069,68.584a.456.456,0,0,0-.28-.558.084.084,0,0,0-.059.157.189.189,0,0,1,.121.195.341.341,0,0,1-.135.2.809.809,0,0,1-.644.054,2.6,2.6,0,0,1-.594-.191c-.2-.092-.367-.241-.565-.334a.211.211,0,0,0-.234.331,1.394,1.394,0,0,0,.4.254,3.051,3.051,0,0,0,.4.163,2.65,2.65,0,0,0,.889.146c.266-.009.621-.126.7-.418" transform="translate(-37.629 -68.023)" fill="#f0d0cc"/></g></g></g><path d="M3.293,2.775c-.119-.047-.251-.59-.263-.914-1.5,1.862-.527,6.6,1.455,8.866-.444.15-1-.318-1.326-.477a3.779,3.779,0,0,0,1.99,2.456,3.888,3.888,0,0,1-2.932.612c-.021.5,1.774.963,2.047.761A8.657,8.657,0,0,1,0,15.394a10.17,10.17,0,0,0,7.605-.71A5.419,5.419,0,0,0,9.869,7.03,10.463,10.463,0,0,1,8.785,4.214a2.692,2.692,0,0,0-.224.925,7.23,7.23,0,0,1-.309-4.107l0-.01A2.15,2.15,0,0,1,8.7.131,3.135,3.135,0,0,0,6.262.87,1.433,1.433,0,0,1,6.412,0C4.814.417,3.36.958,3.293,2.775" transform="translate(96.48 0)"/><g transform="matrix(0.574, 0.819, -0.819, 0.574, 95.141, 1.94)"><path d="M.1.207A.519.519,0,0,0,.935.826.519.519,0,0,0,.1.207" transform="translate(2.149 2.806)" fill="#2a2725"/><path d="M2.282,1.909c-.142-.029-.277-.072-.414-.113l-.034-.009-.008-.056a1.343,1.343,0,0,0-.034-.164c-.016-.056-.032-.11-.05-.164s-.041-.1-.064-.157A1.629,1.629,0,0,0,1.6,1.094c-.027-.049-.056-.1-.087-.143s-.066-.09-.1-.136S1.35.729,1.312.689,1.237.607,1.193.57L1.131.515,1.115.5,1.1.491,1.067.463a1.4,1.4,0,0,0-.138-.1L.862.316C.838.3.814.291.79.276A.906.906,0,0,0,.642.21L.565.187.485.171a.836.836,0,0,0-.162,0A.71.71,0,0,0,0,.286.589.589,0,0,1,.292.047.738.738,0,0,1,.488,0l.1,0c.033,0,.066.008.1.012A1.093,1.093,0,0,1,.882.063a1.047,1.047,0,0,1,.181.083,1.476,1.476,0,0,1,.161.1l.038.025.022.017L1.3.3l.075.062A1.829,1.829,0,0,1,1.519.5c.045.047.083.1.124.149A1.822,1.822,0,0,1,1.75.808a1.324,1.324,0,0,1,.086.173,1.771,1.771,0,0,1,.068.181,1.919,1.919,0,0,1,.045.187,1.453,1.453,0,0,1,.023.19,1.487,1.487,0,0,1,0,.2l-.041-.066c.12.077.24.153.355.241" transform="translate(1.388 2.32)"/><path d="M1.891,2.877A3.4,3.4,0,0,0,2,1.208,5.263,5.263,0,0,0,.621,0L0,.651s1.44.9,1.625,1.33a4.308,4.308,0,0,1,.266.9" transform="translate(3.121 0)" fill="#2a2725"/><path d="M.983,1.976H.948a.925.925,0,0,1-.907-.659.893.893,0,0,1,.3-.983A1.9,1.9,0,0,1,1.4,0a.824.824,0,0,1,.69.264,1.07,1.07,0,0,1-.075,1.02,1.173,1.173,0,0,1-1.037.692M1.4.172a1.749,1.749,0,0,0-.966.3.719.719,0,0,0-.232.792A.76.76,0,0,0,.953,1.8H.983a1.033,1.033,0,0,0,.885-.6A.938.938,0,0,0,1.955.363.677.677,0,0,0,1.4.172" transform="translate(0 6.65)" fill="#98633c"/></g></g></g></g></g><path d="M12.146,6.037l.549-.422-.232.652ZM5.187,12.945,0,13.089,4.51,10,0,6.909l5.465.151L3.632,1.91,7.965,5.244,9.509,0l1.545,5.244,1.092.793-1.8,1.385L9.509,4.58,8.672,7.423,6.325,5.615l.993,2.791L4.356,8.325,6.8,10,4.356,11.674l3.24-.09-2.73,4.261,3.786-3.337.857,2.91.858-2.913,2.993,2.652-1.8-3.57,3.1.086L12.219,10l2.444-1.675L11.7,8.407l.761-2.139,1.092.793,5.465-.151L14.509,10l4.51,3.09-5.325-.147,3.86,7.66-6.52-5.777L9.509,20,7.985,14.822,3.354,17.879Z" transform="matrix(0.292, -0.956, 0.956, 0.292, 981.488, 5585.58)" fill="#dee4f0"/></g><g transform="translate(0 -91.438)" clip-path="url(#g)"><g transform="translate(902.643 6455.283)"><g transform="translate(0)" clip-path="url(#h)"><g clip-path="url(#h)"><g transform="translate(3.825 64.909)" opacity="0.31"><g clip-path="url(#j)"><path d="M186.256,253.992H8.68c-1.206,0-2.375-.53-2.375-1.178l-.183-.781c0-.648.986-1.178,2.192-1.178H186.438c1.206,0,2.192.53,2.192,1.178l-.365.781c0,.648-.8,1.178-2.009,1.178" transform="translate(-6.122 -250.856)" fill="#235b68"/></g></g><path d="M274.765,37.851q.343.5.667,1.037c4.208,6.955,6.1,18.01,6.8,23.265.053.4.1.8.15,1.178.053.449.094.823.125,1.112.046.434.067.671.067.671h.015l.632.048,18.894,1.417.538-4.293a8.223,8.223,0,0,0,1.932-1.613c1.5-1.774.9-3.328-.026-3.723-2.077-.888-6.186-1.639-14.431.916q-.756.235-1.56.507s-.215-1.326-.51-2.967a55.826,55.826,0,0,0-1.219-5.638q-.084-.252-.168-.5c-.038-.112-.077-.223-.114-.334a63.381,63.381,0,0,0-3.421-8.372q-.406-.785-.819-1.484a19.053,19.053,0,0,0-1.681-2.431,7.373,7.373,0,0,0-1.377-1.333c.477.07.714.091.714.091,2.9.624,1.69-3.994,1.69-3.994-.461-2.193-1.218-2.73-1.218-2.73-.758-.575-3.114,1.119-3.114,1.119-3.6,2.024-1.55,4.364-1.03,4.875q.338.1.674.187c-1.514.6-2.213,2.988-2.213,2.988" transform="translate(-188.675 -21.173)" fill="#2a3236"/><path d="M285.745,158.379c.053.4.1.8.15,1.178.049.4.094.784.133,1.119.028.25.054.474.074.665.045.408.071.658.071.658l1.215.051,18.239.756.538-4.293Z" transform="translate(-192.185 -117.398)" fill="#2f393d"/><path d="M417.025,40.054q.343.5.667,1.037c4.208,6.955,6.1,18.01,6.8,23.265.052.4.1.8.15,1.178.053.449.094.823.125,1.112.046.434.067.671.067.671h.015l.632.048,18.894,1.417.538-4.293a8.217,8.217,0,0,0,1.932-1.613c1.5-1.774.9-3.328-.026-3.723-2.077-.888-6.186-1.639-14.431.916q-.756.235-1.56.507s-.214-1.326-.51-2.967a55.827,55.827,0,0,0-1.219-5.638q-.084-.252-.168-.5c-.038-.112-.076-.223-.114-.334a63.376,63.376,0,0,0-3.421-8.372q-.406-.785-.82-1.484a19.059,19.059,0,0,0-1.681-2.431,7.373,7.373,0,0,0-1.377-1.333c.477.07.714.091.714.091,2.9.624,1.691-3.994,1.691-3.994-.461-2.193-1.218-2.73-1.218-2.73-.758-.575-3.114,1.119-3.114,1.119-3.6,2.024-1.55,4.364-1.03,4.875q.338.1.675.187c-1.514.6-2.213,2.988-2.213,2.988" transform="translate(-367.745 -22.806)" fill="#2a3236"/><path d="M428.005,160.582c.053.4.1.8.15,1.178.049.4.094.784.133,1.119.028.25.054.474.074.665.045.408.071.657.071.657l1.215.051,18.239.756.538-4.293Z" transform="translate(-371.255 -119.031)" fill="#2f393d"/><path d="M215.378,72.039c5.441.948,12.517,5.53,12.517,5.53,2.3.526.5-10.631.64-11.188a.689.689,0,0,0,.015-.077c-2.355-1.615-6.538-3.934-10.565-4.034a19.635,19.635,0,0,1-2.607,9.769" transform="translate(-96.887 -46.158)" fill="#0b2728"/><path d="M267.95,69.82a.739.739,0,0,0,1.4.447l3.327-10.4a.739.739,0,0,0-1.4-.447Z" transform="translate(-154.112 -43.715)" fill="#0b2728"/><path d="M266.95,76.746c-.046.145.464.438,1.14.654s1.262.274,1.308.129l1.391-4.349c.046-.145-.465-.437-1.141-.653s-1.261-.274-1.308-.13Z" transform="translate(-151.948 -53.605)" fill="#0b2728"/><path d="M254.268,77.4l-5.948-1.563-1.272,3.521,6.386,2.694Z" transform="translate(-130.275 -56.212)" fill="#0b2728"/><g transform="translate(31.596 1.309)" opacity="0.88"><g clip-path="url(#k)"><path d="M235.976,8.26l-4.048,4.174.542,3.747,10.21,7.371,85.229,1.627.33-1.651-2.5-3.635-11.5-5.671L300.876,8.685l-8.62-2.47-6.711-1.074L272.98,5.06l-14.719.933-13.053.214Z" transform="translate(-231.928 -5.06)" fill="#d2e1f1"/></g></g><g transform="translate(30.07 1.296)" opacity="0.88" style="mix-blend-mode:screen;isolation:isolate"><g clip-path="url(#l)"><path d="M349.643,18.162s-31.257-6.994-90.9-3.73l3.462-4.032,8.162-3.864,13.595-.6,15.368-.929,10.267.067,9.587,1.092,6.668.73,8.511,3.63Z" transform="translate(-258.747 -5.009)" fill="#0c5961"/></g></g><path d="M382.316,27.252l-9.1-.159-1.8-16.689c1.6.108,3.124.242,4.557.4Z" transform="translate(-290.503 -7.712)" fill="#39454a"/><path d="M41.429,139.9l2.689,2.111,36.377.238,2.362-2.641.312-7.657-2.215-5.6-3.761-5.428-4.322-3.861-5.967-1.8-6.351-.8-7.944,2.013-4.767,4-4.122,4.649-2.234,6.2Z" transform="translate(94.028 -84.849)" fill="#2a3236"/><path d="M491.319,134.444l1.454,2.287,36.6.617,4.279-4.118-.15-5-4.162-10.11-6.3-5.4-7.572-3.833-8.678.8-9.367,2.861-4.621,6.495-2.672,6.316Z" transform="translate(-472.56 -80.717)" fill="#2a3236"/><path d="M187.857,49.407a6.279,6.279,0,0,1-3.135,5.065c-.176.1-.358.2-.544.281a6.5,6.5,0,0,1-1.008.36L174.523,57.4H174.4a19.772,19.772,0,0,0-1.374-15.342,18.872,18.872,0,0,0-33.34-.164,19.766,19.766,0,0,0-1.542,15.268l-81.33-.533a19.646,19.646,0,0,0,.781-3.486c.008-.064.016-.13.025-.195a19.886,19.886,0,0,0,.141-2.245,19.573,19.573,0,0,0-2.725-10.135,19.268,19.268,0,0,0-6.963-6.892c-.083-.051-.169-.1-.254-.144a18.662,18.662,0,0,0-8.968-2.352A18.936,18.936,0,0,0,22.816,39.93a19.768,19.768,0,0,0-2.335,16.216L4.218,48.269A7.475,7.475,0,0,1,.3,39.447a7.12,7.12,0,0,1,.26-.743l1.833-4.467a8.972,8.972,0,0,0,.247-6.132l-.659-2.062A6.157,6.157,0,0,1,4.4,19.066l2.88-1.947.339-.23L7.9,16.7,22.62,6.747a29.193,29.193,0,0,1,4.066-2.3,28.614,28.614,0,0,1,8.358-2.41A305.663,305.663,0,0,1,86.85.45a41.813,41.813,0,0,1,15.2,3.529l.212.095,31.158,13.92.076.034.7.312a21.842,21.842,0,0,0,3,1.083,26.766,26.766,0,0,0,3.442.73c16.622,2.431,21.865,3.342,27.588,4.43,1.2.228,2.427.464,3.781.722a22.349,22.349,0,0,1,9.566,4.2,13.71,13.71,0,0,1,1.586,1.437c.221.233.431.472.634.719a14.162,14.162,0,0,1,2.157,3.574q.2.466.36.947c.121.357.229.72.322,1.089.293,1.153.525,2.267.705,3.332a38.905,38.905,0,0,1,.521,8.806m-61.6-30.452a.828.828,0,0,0-.507-.831s-2.176-1.025-5.334-2.49h0c-6.412-2.968-16.87-7.734-21.393-9.357a38.27,38.27,0,0,0-6.035-1.857c-1.374-.25-2.921-.463-4.6-.642-1.433-.152-2.96-.278-4.557-.381-7.436-.481-16.359-.462-24.07-.181-2.818.1-5.474.241-7.837.4a68.994,68.994,0,0,0-9.2,1.041c-1.075.26-6.155,1.563-8.255,3.209a1.9,1.9,0,0,0-.5,2.865,42.691,42.691,0,0,0,4.6,4.6,13.937,13.937,0,0,0,3.793,2.361c.045.018.09.036.134.051a9.7,9.7,0,0,0,2.682.647c.078.008.156.015.232.021.156.009.312.016.469.019l8.94.15,30.82.515,4,.067.2,0,4.9.083,26.6.445,4.06.067a.824.824,0,0,0,.806-.532c.01-.025.018-.051.026-.078a.819.819,0,0,0,.036-.195" transform="translate(0 0)" fill="#d92b2b"/><path d="M553.089,155.494a13.059,13.059,0,1,1-12.973-13.144A13.058,13.058,0,0,1,553.089,155.494Z" transform="translate(-501.527 -105.517)" fill="none" stroke="#ea750a" stroke-miterlimit="10" stroke-width="1"/><g transform="translate(1.912 17.118)" opacity="0.63" style="mix-blend-mode:screen;isolation:isolate"><g clip-path="url(#m)"><path d="M242.42,73.62c-31.486-.409-126.354-1.632-166.313-2.049A6.151,6.151,0,0,1,78.6,68.1l2.881-1.947,35.213.624a9.713,9.713,0,0,0,2.682.647c.078.008.156.015.232.021.156.009.312.016.469.019l8.94.15,30.821.515,4,.067.2,0,4.9.083,26.6.445,4.06.068a.823.823,0,0,0,.806-.533l11,.195a26.859,26.859,0,0,0,3.442.73c16.622,2.431,21.865,3.342,27.588,4.43" transform="translate(-76.107 -66.157)" fill="#2a718d"/></g></g><path d="M676.378,77.066l-1.882.948a2.307,2.307,0,0,1-.775.234c-.027,0-.055.008-.082.009l-3.758.336-7.981.713a6.005,6.005,0,0,1,.276-1.144,6.151,6.151,0,0,1,1.749-2.615l12.116.079a.76.76,0,0,1,.337,1.438" transform="translate(-660.148 -56.001)" fill="#a80b0b"/><path d="M626.428,18.177l-18.946,11.5-5.617-.037.28-.189,14.72-9.953a29.192,29.192,0,0,1,4.065-2.3l.973.172Z" transform="translate(-594.244 -12.751)" fill="#c8d9dc"/><g transform="translate(7.621 4.451)" opacity="0.65" style="mix-blend-mode:screen;isolation:isolate"><g clip-path="url(#n)"><path d="M639.389,17.373,621.646,29.654l-2.295-.015.28-.189,14.72-9.953a29.212,29.212,0,0,1,4.066-2.3Z" transform="translate(-619.351 -17.201)" fill="#0c5961"/></g></g><path d="M592.589,9.588l13.359-1.51-2.5,3.336-2.531,1.536-8.4-2.493a.445.445,0,0,1,.077-.869" transform="translate(-571.262 -5.988)" fill="#bb2728"/><path d="M368.313,97.966l-13.895-.288a.52.52,0,0,1,.022-1.039l13.894.288a.52.52,0,1,1-.021,1.039" transform="translate(-272.501 -71.633)" fill="#39454a"/><g transform="translate(55.037 40.571)" opacity="0.17" style="mix-blend-mode:multiply;isolation:isolate"><g clip-path="url(#o)"><path d="M271.045,158.12a19.766,19.766,0,0,0-1.542,15.268l-81.33-.532a19.648,19.648,0,0,0,.781-3.486l.025-.195a19.886,19.886,0,0,0,.141-2.245,19.571,19.571,0,0,0-2.726-10.135c27,.516,58.657,1.056,84.651,1.326" transform="translate(-186.394 -156.794)" fill="#2a718d"/></g></g><path d="M243.252,64.546l-4.06-.068-.913-4.059c3.159,1.465,5.334,2.49,5.334,2.49a.855.855,0,0,1-.361,1.636" transform="translate(-117.86 -44.786)" fill="#3f4d52"/><path d="M506.4,22.467l1.335,5.325-8.94-.15a9.71,9.71,0,0,1-3.518-.738l9.565-14.072c2.362-.162,5.019-.3,7.837-.4l-5.878,8a2.441,2.441,0,0,0-.4,2.038" transform="translate(-452.919 -9.212)" fill="#39454a"/><path d="M544.79,86.359c-.083-.051-.169-.1-.255-.144L540.6,74.772a2.764,2.764,0,0,1,.436-2.608l.853-1.1c.078.008.156.015.232.021l-.931,1.194a2.57,2.57,0,0,0-.406,2.425Z" transform="translate(-496.716 -52.68)" fill="#1b4859"/><path d="M277.283,106.327a2.371,2.371,0,0,1-2.359,2.04h-.014l-75.087-.92c.008-.064.016-.13.025-.195l33.857.415.2,0,41.01.5h.014a2.176,2.176,0,0,0,2.165-1.874c.8-5.737,2.362-19.962-.476-28.115a4.361,4.361,0,0,0-2.6-2.659l-5.567-2.074a.816.816,0,0,0,.036-.195l5.6,2.086a4.553,4.553,0,0,1,2.713,2.777c2.852,8.194,1.291,22.457.486,28.209" transform="translate(-142.227 -54.301)" fill="#1b4859"/><g transform="translate(173.028 41.927)" opacity="0.17" style="mix-blend-mode:multiply;isolation:isolate"><g transform="translate(0)"><g clip-path="url(#p)"><path d="M25.906,163.835l-2.931,12.052-2.094.555-4.032,1.068h-.121a19.729,19.729,0,0,0,.947-5.926,19.566,19.566,0,0,0-2.321-9.416c3.789-.016,7.088-.051,9.8-.109.386-.007.76-.016,1.12-.024l-.438,1.8Z" transform="translate(-15.353 -162.035)" fill="#2a718d"/></g></g></g><path d="M377.682,74.007a120.2,120.2,0,0,1,1.837,34.2c0,.035-.006.07-.01.105l-.195-.021c0-.029.006-.058.009-.088A119.936,119.936,0,0,0,377.482,74Z" transform="translate(-289.793 -54.855)" fill="#1b4859"/><path d="M19.913,121.375l-5.068-.354a1.694,1.694,0,0,1-1.041-.454l-2.287-2.145a1.755,1.755,0,0,0-.712-.405l-3.8-1.1a.864.864,0,0,1-.6-.647l-.173-.8a.44.44,0,0,1,.468-.532c1.584.139,6.057.561,10.067,1.2a14.275,14.275,0,0,1,3.151,5.24" transform="translate(166.396 -85.196)" fill="#c1e9f4"/><g transform="translate(179.241 40.581)" opacity="0.55" style="mix-blend-mode:multiply;isolation:isolate"><g transform="translate(0)"><g clip-path="url(#q)"><path d="M8.616,165.658a6.279,6.279,0,0,1-3.135,5.065l-3.873.312-.031,0a1.488,1.488,0,0,1-1.5-1.942L3.736,157.73a1.3,1.3,0,0,1,1.243-.9l3.115.02a38.893,38.893,0,0,1,.521,8.806" transform="translate(0 -156.832)" fill="#2a718d"/></g></g></g><path d="M19.121,156.832l-.326,1.346-.439,1.8-2.689,11.059a1.485,1.485,0,0,1-1.5-1.943l3.51-10.891.153-.472a1.3,1.3,0,0,1,1.243-.9Z" transform="translate(165.15 -116.251)" fill="#c1e9f4"/><path d="M682.086,77.134l1.128,1.237c-.027,0-.055.007-.082.009l-3.759.336-.352-.746-7.353.316a6.106,6.106,0,0,1,1.175-2.036l6.244.041.822-.577,3.854.025Z" transform="translate(-669.642 -56.122)" fill="#e30f0f"/><path d="M19.894,122.615l-4.67-.276-1.039-.8L12,119.857l-4.161-1.315-.235-.074,0-.582s5.638.6,10.125,1.155q.371.447.7.924a14.218,14.218,0,0,1,1.129,1.93c.115.237.223.477.324.719" transform="translate(166.055 -87.383)" fill="#e8f6f9"/><path d="M249.637,64.2a1.513,1.513,0,0,0,.532.656,3.065,3.065,0,0,0,1.562.623c1.705.148,9.277.628,10.774.177.047-.013.086-.028.121-.042,1.2-.455-1.671-1.207-4.707-1.741a29.776,29.776,0,0,0-6.957-.565,2.027,2.027,0,0,0-1.164.3.492.492,0,0,0-.161.588" transform="translate(-139.571 -46.904)" fill="#dd6675"/><path d="M250.716,65.14a1.513,1.513,0,0,0,.532.656,3.066,3.066,0,0,0,1.562.623c1.705.148,9.277.628,10.774.177.047-.013.086-.028.121-.042a112.805,112.805,0,0,0-12.827-2,.492.492,0,0,0-.161.588" transform="translate(-140.65 -47.849)" fill="#bb2728"/><path d="M281.363,66.823a1.513,1.513,0,0,0,.532.656l4.455.114.062-.641Z" transform="translate(-171.297 -49.532)" fill="#c1e9f4"/><g transform="translate(0 39.447)" opacity="0.17" style="mix-blend-mode:multiply;isolation:isolate"><g clip-path="url(#r)"><path d="M660.883,152.933a19.767,19.767,0,0,0-2.335,16.216l-16.264-7.876a7.475,7.475,0,0,1-3.917-8.822c4.607.1,12.495.275,22.515.483" transform="translate(-638.067 -152.45)" fill="#2a718d"/></g></g><path d="M541.044,170.153a13.161,13.161,0,0,1-15.6-10.133,13.006,13.006,0,0,1-.257-1.857,13.15,13.15,0,0,1,21.988-10.6,13.309,13.309,0,0,1,2.12,2.472,13.093,13.093,0,0,1,1.633,3.511c.1.327.183.662.255,1a13.172,13.172,0,0,1-10.135,15.6m9.944-15.563c-.064-.3-.138-.6-.22-.886a12.883,12.883,0,0,0-1.617-3.526,13.02,13.02,0,0,0-10.145-5.837,12.959,12.959,0,0,0-10.279,21.668,13.1,13.1,0,0,0,6,3.731,12.959,12.959,0,0,0,16.256-15.15" transform="translate(-499.436 -106.834)" fill="#cedee6"/><path d="M545.166,147.6a16.539,16.539,0,1,1-16.539-16.539A16.539,16.539,0,0,1,545.166,147.6" transform="translate(-489.753 -97.147)" fill="#4b5961"/><path d="M549.046,153.558A14.459,14.459,0,1,1,534.588,139.1a14.459,14.459,0,0,1,14.459,14.459" transform="translate(-495.713 -103.107)" fill="#3b464d"/><path d="M546.269,168.128a13.061,13.061,0,1,1,2.889-18.24c.121.166.236.333.345.5a13.041,13.041,0,0,1-3.234,17.739" transform="translate(-499.719 -107.113)" fill="#c5d4db"/><g transform="translate(25.838 37.415)" opacity="0.65" style="mix-blend-mode:screen;isolation:isolate"><g clip-path="url(#s)"><path d="M563.846,147.981l-.072.072-18.306,18.306-.07.07a13.13,13.13,0,0,1-.912-1.118,12.991,12.991,0,0,1-2.472-6.887L555.839,144.6a13.036,13.036,0,0,1,8.007,3.382" transform="translate(-542.014 -144.599)" fill="#c5d4db"/></g></g><g transform="translate(31.696 43.276)" opacity="0.76" style="mix-blend-mode:screen;isolation:isolate"><g clip-path="url(#t)"><path d="M547.266,170.763l-16.2,16.2a13.017,13.017,0,0,1-3.521-1.623l18.088-18.088a12.935,12.935,0,0,1,1.629,3.515" transform="translate(-527.55 -167.248)" fill="#c5d4db"/></g></g><path d="M569.191,150.782h-5.386l.763,3.132,1.93,1.114,1.579,4.457h2.043Z" transform="translate(-528.088 -111.767)" fill="#2f393d"/><path d="M579.925,160.471l-3.389,4.186,2.914,1.378,2.081-.8,4.457,1.578,1.286-1.588Z" transform="translate(-548.535 -118.949)" fill="#2f393d"/><path d="M587.232,187.956l1.12,5.268,2.905-1.4.689-2.119,4.031-2.471-.424-2Z" transform="translate(-560.006 -137.307)" fill="#2f393d"/><path d="M582.332,207.023l4.8,2.445.742-3.137-1.214-1.869.617-4.688-1.82-.927Z" transform="translate(-550.635 -147.395)" fill="#2f393d"/><path d="M551.272,214.78l4.92-2.191-1.971-2.551-2.216-.233-3.255-3.429-1.866.831Z" transform="translate(-509.782 -152.976)" fill="#2f393d"/><path d="M538.806,199.621l1.394-5.2-3.223-.074-1.576,1.576-4.714.371-.529,1.973Z" transform="translate(-489.463 -144.058)" fill="#2f393d"/><path d="M542.886,163.486l-3.166-4.357-2.085,2.458.233,2.216-2.678,3.9,1.2,1.653Z" transform="translate(-493.449 -117.954)" fill="#2f393d"/><path d="M571.981,188.792a2.159,2.159,0,1,1-2.159-2.159,2.159,2.159,0,0,1,2.159,2.159" transform="translate(-530.948 -138.341)" fill="#2f393d"/><path d="M87.643,170.153a13.161,13.161,0,0,1-15.6-10.133,13.034,13.034,0,0,1-.257-1.857,13.155,13.155,0,0,1,25.74-4.615c.1.327.183.662.255,1a13.172,13.172,0,0,1-10.135,15.6m9.944-15.563c-.064-.3-.138-.6-.22-.886a12.887,12.887,0,0,0-1.617-3.526A13.02,13.02,0,0,0,85.6,144.341a12.959,12.959,0,0,0-10.279,21.668,13.1,13.1,0,0,0,6,3.731,12.959,12.959,0,0,0,16.256-15.15" transform="translate(71.285 -106.834)" fill="#cedee6"/><path d="M91.765,147.6a16.539,16.539,0,1,1-16.539-16.539A16.539,16.539,0,0,1,91.765,147.6" transform="translate(80.967 -97.147)" fill="#4b5961"/><path d="M95.645,153.558A14.458,14.458,0,1,1,81.187,139.1a14.458,14.458,0,0,1,14.458,14.459" transform="translate(75.007 -103.107)" fill="#3b464d"/><path d="M92.868,168.128a13.061,13.061,0,1,1,2.889-18.24c.121.166.236.333.345.5a13.04,13.04,0,0,1-3.234,17.739" transform="translate(71 -107.113)" fill="#c5d4db"/><g transform="translate(143.157 37.415)" opacity="0.65" style="mix-blend-mode:screen;isolation:isolate"><g transform="translate(0)"><g clip-path="url(#s)"><path d="M110.445,147.981l-.072.072L92.067,166.359l-.07.07a13.125,13.125,0,0,1-.912-1.118,12.992,12.992,0,0,1-2.472-6.887L102.438,144.6a13.036,13.036,0,0,1,8.007,3.382" transform="translate(-88.613 -144.599)" fill="#c5d4db"/></g></g></g><g transform="translate(149.015 43.276)" opacity="0.76" style="mix-blend-mode:screen;isolation:isolate"><g transform="translate(0)"><g clip-path="url(#t)"><path d="M93.864,170.763l-16.2,16.2a13.012,13.012,0,0,1-3.521-1.623l18.088-18.088a12.936,12.936,0,0,1,1.629,3.515" transform="translate(-74.148 -167.248)" fill="#c5d4db"/></g></g></g><path d="M115.789,150.782H110.4l.763,3.132,1.93,1.114,1.579,4.457h2.043Z" transform="translate(42.632 -111.767)" fill="#2f393d"/><path d="M126.523,160.471l-3.389,4.186,2.914,1.378,2.081-.8,4.457,1.578,1.285-1.588Z" transform="translate(22.185 -118.949)" fill="#2f393d"/><path d="M133.83,187.956l1.12,5.268,2.9-1.4.689-2.119,4.031-2.471-.425-2Z" transform="translate(10.714 -137.307)" fill="#2f393d"/><path d="M128.931,207.023l4.8,2.445.742-3.137-1.214-1.869.617-4.688-1.82-.927Z" transform="translate(20.085 -147.395)" fill="#2f393d"/><path d="M97.871,214.78l4.92-2.191-1.971-2.551-2.216-.233-3.255-3.429-1.866.831Z" transform="translate(60.938 -152.976)" fill="#2f393d"/><path d="M85.4,199.621l1.394-5.2-3.223-.074L82,195.921l-4.714.371-.529,1.973Z" transform="translate(81.257 -144.058)" fill="#2f393d"/><path d="M89.484,163.486l-3.166-4.357-2.086,2.458.233,2.216-2.678,3.9,1.2,1.653Z" transform="translate(77.271 -117.954)" fill="#2f393d"/><path d="M118.58,188.792a2.159,2.159,0,1,1-2.159-2.159,2.159,2.159,0,0,1,2.159,2.159" transform="translate(39.772 -138.341)" fill="#2f393d"/><g transform="translate(28.915 1.65)" opacity="0.63" style="mix-blend-mode:screen;isolation:isolate"><g clip-path="url(#w)"><path d="M353.319,9c2.752-.436,5.535-.778,8.323-1.1.349-.04.7-.059,1.053-.084l1.054-.081c.7-.054,1.4-.115,2.107-.161,1.407-.095,2.811-.2,4.22-.287s2.815-.176,4.225-.249l4.23-.212,4.235-.166,1.059-.041,1.06-.029L387,6.528l2.12-.057c.707-.018,1.414-.022,2.121-.034l4.243-.058h4.245c.707,0,1.415-.006,2.122.006l2.122.032c1.415.024,2.83.035,4.244.071l4.242.134c.705.047,1.411.084,2.115.139l2.11.174q2.109.177,4.212.368-2.125-.02-4.243-.053l-2.117-.036c-.706-.01-1.413,0-2.119,0l-4.226-.133c-1.409-.035-2.82-.046-4.23-.07l-2.115-.032c-.7-.012-1.41,0-2.115-.006H395.5l-4.23.057c-.7.012-1.41.016-2.115.034l-2.113.057-2.114.057-1.057.029-1.056.041-4.223.165-4.218.211c-1.406.073-2.808.166-4.213.248s-2.8.191-4.207.286-2.8.22-4.2.329q-4.219.23-8.438.515" transform="translate(-353.319 -6.376)" fill="#2a718d"/></g></g><path d="M247.582,29.551l-2.16-.1-3.619-.166s-25.252-12.738-31.174-13.694l5.8.038Z" transform="translate(-114.166 -11.558)" fill="#c8d9dc"/><g transform="translate(100.225 4.059)" opacity="0.49" style="mix-blend-mode:screen;isolation:isolate"><g transform="translate(0)"><g clip-path="url(#x)"><path d="M243.6,29.655l-3.015-.137-30.252-13.83,2.034.013Z" transform="translate(-210.336 -15.688)" fill="#c8d9dc"/></g></g></g><path d="M24.058,119.965c-3.716-.49-8.732-1.17-10.6-1.423l-.235-.074,0-.582s5.638.6,10.126,1.155q.371.447.7.924" transform="translate(160.437 -87.382)" fill="#bfe1e8"/><path d="M13.317,133.08l-4.67-.276L7.608,132c1.252.106,3.727.3,5.385.357.115.237.223.477.324.719" transform="translate(172.631 -97.848)" fill="#bfe1e8"/></g></g></g></g></g></svg>